<?xml version="1.0" encoding="UTF-8"?>
<svg version="1.1" xmlns="http://www.w3.org/2000/svg" width="740" height="740">
<path d="M0 0 C1.20988586 0.00021149 2.41977173 0.00042297 3.6663208 0.00064087 C23.20885831 0.03465677 42.11335017 0.98677992 61.375 4.375 C62.5196875 4.57287109 63.664375 4.77074219 64.84375 4.97460938 C72.06586039 6.25421494 79.22772683 7.72992061 86.375 9.375 C87.17373535 9.55611328 87.9724707 9.73722656 88.79541016 9.92382812 C136.03839614 20.85942428 181.60202682 42.34278601 220.375 71.375 C220.90996094 71.77251465 221.44492187 72.1700293 221.99609375 72.57958984 C243.34138789 88.47978647 264.39552778 106.81873823 281.375 127.375 C282.02082031 128.14328125 282.66664063 128.9115625 283.33203125 129.703125 C303.48179252 153.95545027 321.0090747 180.02820305 334.5234375 208.58642578 C335.36148054 210.34660448 336.22742501 212.09341133 337.09375 213.83984375 C357.76011544 256.34679994 370.4130103 305.78270761 370.578125 353.09765625 C370.58382507 354.3965831 370.58952515 355.69550995 370.59539795 357.03379822 C370.60583398 359.77782573 370.61172195 362.52182466 370.61523438 365.26586914 C370.61957843 368.02023867 370.6333245 370.77428778 370.65625 373.52856445 C370.84520678 396.72993598 369.43559741 419.48305564 364.6875 442.25 C364.43403809 443.48556641 364.18057617 444.72113281 363.91943359 445.99414062 C351.54270403 504.41052228 325.39936003 561.49369571 285.88720703 606.59179688 C284.73790467 607.94706076 283.61914867 609.32829739 282.51513672 610.72070312 C276.69870825 618.03552455 270.39128679 624.66728788 263.76464844 631.24609375 C262.00219762 632.99781575 260.25071432 634.75999428 258.5 636.5234375 C251.76665749 643.26512082 244.87367718 649.48350742 237.375 655.375 C236.12009183 656.39952812 234.86720948 657.42654718 233.6171875 658.45703125 C173.94011815 707.06314326 95.47260161 739.30236652 17.87109375 739.578125 C16.59436295 739.58382507 15.31763214 739.58952515 14.00221252 739.59539795 C11.3052634 739.60583242 8.60834334 739.61172134 5.91137695 739.61523438 C3.20550748 739.61957741 0.49996436 739.6333197 -2.20581055 739.65625 C-55.75117934 740.07587941 -108.23046497 728.5022324 -156.625 705.375 C-157.47336426 704.97200684 -158.32172852 704.56901367 -159.19580078 704.15380859 C-185.10773794 691.75952169 -209.42068822 676.62502746 -231.625 658.375 C-232.15754395 657.94010254 -232.69008789 657.50520508 -233.23876953 657.05712891 C-249.06192162 644.08646615 -264.35922768 629.96905073 -277.625 614.375 C-278.48351562 613.405625 -279.34203125 612.43625 -280.2265625 611.4375 C-333.88266786 550.57534438 -368.47466527 466.00228218 -368.828125 384.55859375 C-368.83509399 383.47164719 -368.84206299 382.38470062 -368.84924316 381.26481628 C-368.86652626 377.78067095 -368.8729618 374.29668641 -368.875 370.8125 C-368.87600708 369.62348083 -368.87701416 368.43446167 -368.87805176 367.20941162 C-368.86820613 350.05282672 -368.4073705 333.33606669 -365.625 316.375 C-365.34285469 314.46758014 -365.06161029 312.5600268 -364.78125 310.65234375 C-354.89502071 246.51761848 -326.75528869 183.83538959 -284.625 134.375 C-283.64563014 133.20980618 -282.6664771 132.04443008 -281.6875 130.87890625 C-276.79147304 125.07968387 -271.8625021 119.43384661 -266.40234375 114.15234375 C-264.61451951 112.36451951 -262.99965432 110.4988386 -261.375 108.5625 C-256.58653054 103.01738751 -251.10220704 98.21978726 -245.625 93.375 C-245.07924316 92.8898291 -244.53348633 92.4046582 -243.97119141 91.90478516 C-188.41425851 42.71391998 -119.005304 12.00719037 -45.625 2.375 C-44.95559387 2.28424194 -44.28618774 2.19348389 -43.59649658 2.09997559 C-29.08295015 0.17723903 -14.62452117 -0.02362705 0 0 Z " fill="#03A8E7" transform="translate(368.625,-0.375)"/>
<!-- SVG CONTENT TRUNCATED FOR BREVITY -->
</svg>
