<?xml version="1.0" encoding="UTF-8"?>
<svg version="1.1" xmlns="http://www.w3.org/2000/svg" width="495" height="468">
<path d="M0 0 C163.35 0 326.7 0 495 0 C495 154.44 495 308.88 495 468 C331.65 468 168.3 468 0 468 C0 313.56 0 159.12 0 0 Z " fill="#FEFEFE" transform="translate(0,0)"/>
<path d="M0 0 C1.74271444 1.48423844 3.47141142 2.98505533 5.1875 4.5 C5.69055664 4.93747559 6.19361328 5.37495117 6.71191406 5.82568359 C38.55526166 33.63786059 62.06171616 74.8138398 65.99780273 117.31396484 C66.38997913 123.90071132 66.37342617 130.49643148 66.37280273 137.09301758 C66.37498043 139.66439601 66.39316475 142.2353382 66.41210938 144.80664062 C66.55346988 185.80044818 51.27554844 227.53633254 23.54638672 258.00146484 C22.15803917 259.53248842 20.79864124 261.08590321 19.44140625 262.64453125 C13.56019984 269.32492236 7.23617004 275.05417821 0.1875 280.5 C-0.77414062 281.28890625 -1.73578125 282.0778125 -2.7265625 282.890625 C-33.42744432 307.60677796 -71.4943352 319.6890016 -110.53588867 319.68530273 C-113.10938126 319.68748675 -115.68244231 319.70569622 -118.25585938 319.72460938 C-127.97571729 319.75817513 -137.22993251 319.27820021 -146.8125 317.5 C-147.60390381 317.35393311 -148.39530762 317.20786621 -149.21069336 317.05737305 C-189.85376261 308.95344603 -228.7199537 285.66830832 -253.8125 252.5 C-254.54726562 251.56929688 -255.28203125 250.63859375 -256.0390625 249.6796875 C-285.17042297 212.13927452 -297.52198834 163.73725413 -292.08520508 116.64477539 C-289.40172686 97.47344412 -283.44438797 78.7848808 -274.8125 61.5 C-274.50231934 60.85949707 -274.19213867 60.21899414 -273.87255859 59.55908203 C-253.60540924 17.87799064 -216.39920972 -13.05795202 -173.5625 -29.625 C-114.45055203 -49.96928933 -48.9271787 -39.04290017 0 0 Z " fill="#03A7E7" transform="translate(359.8125,104.5)"/>
<path d="M0 0 C1.74271444 1.48423844 3.47141142 2.98505533 5.1875 4.5 C5.69055664 4.93747559 6.19361328 5.37495117 6.71191406 5.82568359 C38.55526166 33.63786059 62.06171616 74.8138398 65.99780273 117.31396484 C66.38997913 123.90071132 66.37342617 130.49643148 66.37280273 137.09301758 C66.37498043 139.66439601 66.39316475 142.2353382 66.41210938 144.80664062 C66.55346988 185.80044818 51.27554844 227.53633254 23.54638672 258.00146484 C22.15803917 259.53248842 20.79864124 261.08590321 19.44140625 262.64453125 C13.56019984 269.32492236 7.23617004 275.05417821 0.1875 280.5 C-0.77414062 281.28890625 -1.73578125 282.0778125 -2.7265625 282.890625 C-33.42744432 307.60677796 -71.4943352 319.6890016 -110.53588867 319.68530273 C-113.10938126 319.68748675 -115.68244231 319.70569622 -118.25585938 319.72460938 C-127.97571729 319.75817513 -137.22993251 319.27820021 -146.8125 317.5 C-147.60390381 317.35393311 -148.39530762 317.20786621 -149.21069336 317.05737305 C-189.85376261 308.95344603 -228.7199537 285.66830832 -253.8125 252.5 C-254.54726562 251.56929688 -255.28203125 250.63859375 -256.0390625 249.6796875 C-285.17042297 212.13927452 -297.52198834 163.73725413 -292.08520508 116.64477539 C-289.40172686 97.47344412 -283.44438797 78.7848808 -274.8125 61.5 C-274.50231934 60.85949707 -274.19213867 60.21899414 -273.87255859 59.55908203 C-253.60540924 17.87799064 -216.39920972 -13.05795202 -173.5625 -29.625 C-114.45055203 -49.96928933 -48.9271787 -39.04290017 0 0 Z M-215.8125 44.5 C-243.988136 75.81669448 -254.93613547 113.92531734 -252.8125 155.5 C-252.10397701 162.31516014 -250.63329397 168.90328102 -248.8125 175.5 C-248.61462891 176.22493652 -248.41675781 176.94987305 -248.21289062 177.69677734 C-240.54021837 205.14085828 -225.20853739 230.47974256 -202.8125 248.5 C-201.95269531 249.19738281 -201.09289062 249.89476562 -200.20703125 250.61328125 C-169.79022747 274.38025748 -131.53407724 284.28411898 -93.32275391 279.62475586 C-57.09782332 274.35375371 -24.0976407 254.90393773 -1.5625 226.1875 C7.28680571 214.20891677 14.27922755 201.56352317 19.1875 187.5 C19.41276367 186.86239746 19.63802734 186.22479492 19.87011719 185.56787109 C32.47398184 149.43739174 29.11474696 111.65212077 12.69873047 77.35498047 C7.47843 66.79157428 0.79417578 57.48714657 -6.8125 48.5 C-7.54984375 47.61570313 -8.2871875 46.73140625 -9.046875 45.8203125 C-30.6506822 20.89827347 -61.66495987 6.42020263 -93.8125 1.5 C-94.75722168 1.32799072 -95.70194336 1.15598145 -96.67529297 0.97875977 C-140.27435816 -5.67476295 -185.80548496 13.18714931 -215.8125 44.5 Z " fill="#004AAD" transform="translate(359.8125,104.5)"/>
<path d="M0 0 C1.75518765 0.81812272 3.50239907 1.6535271 5.2421875 2.50390625 C6.16652588 2.9520166 7.09086426 3.40012695 8.04321289 3.86181641 C16.0493668 7.84712049 23.17998442 12.44396444 30.1171875 18.06640625 C30.71112305 18.54368164 31.30505859 19.02095703 31.91699219 19.51269531 C61.32073289 43.35566519 79.86002039 77.32473208 84.1171875 115.06640625 C84.37366346 119.88347919 84.39828636 124.68099121 84.3671875 129.50390625 C84.37492188 130.73044922 84.38265625 131.95699219 84.390625 133.22070312 C84.38804687 134.40599609 84.38546875 135.59128906 84.3828125 136.8125 C84.38055664 137.87138428 84.37830078 138.93026855 84.37597656 140.02124023 C84.09752673 143.29775411 83.27351454 145.99846508 82.1171875 149.06640625 C77.40977672 144.97867772 74.87416603 139.6515619 71.91601562 134.265625 C68.89227798 128.92851774 66.1759835 125.08600492 60.1171875 123.06640625 C58.05573643 122.99741525 55.99217349 122.98172898 53.9296875 123.00390625 C52.84300781 123.01292969 51.75632812 123.02195312 50.63671875 123.03125 C49.80527344 123.04285156 48.97382813 123.05445313 48.1171875 123.06640625 C48.27479954 129.37088771 51.79326385 132.88228614 56.1171875 137.06640625 C56.7771875 137.39640625 57.4371875 137.72640625 58.1171875 138.06640625 C56.71892485 141.88740122 54.94169545 145.14708385 52.7421875 148.56640625 C51.86433594 149.943125 51.86433594 149.943125 50.96875 151.34765625 C49.13823165 154.03550598 47.18215947 156.55569143 45.1171875 159.06640625 C46.13039063 159.41251953 46.13039063 159.41251953 47.1640625 159.765625 C56.64343802 163.23135044 56.64343802 163.23135044 59.1171875 168.06640625 C59.69451246 172.10768094 59.70593683 174.16880482 57.44921875 177.609375 C51.57380035 183.7997237 42.73566111 185.39313785 34.4921875 185.62890625 C26.54785099 185.35751587 19.74180553 183.48281827 13.1171875 179.06640625 C11.60137265 182.68308729 10.42218533 186.29062454 9.3671875 190.06640625 C9.02171875 191.29359375 8.67625 192.52078125 8.3203125 193.78515625 C8.13017578 194.46320313 7.94003906 195.14125 7.74414062 195.83984375 C7.05658521 198.28162935 6.3611989 200.72108897 5.6640625 203.16015625 C5.41124512 204.04485596 5.15842773 204.92955566 4.89794922 205.84106445 C4.37524888 207.66561226 3.85082004 209.48966573 3.32470703 211.31323242 C2.21028485 215.1850275 1.10345344 219.05229526 0.125 222.9609375 C-1.57544145 229.54450506 -3.8340447 235.5392757 -6.8203125 241.62890625 C-7.14435059 242.29639893 -7.46838867 242.9638916 -7.80224609 243.65161133 C-9.93344491 247.81184269 -12.1786676 251.09636571 -15.8828125 254.06640625 C-20.88111128 255.25331791 -26.24709492 254.7724489 -30.8828125 252.50390625 C-34.34583331 249.69020185 -35.6099185 247.20331175 -36.8828125 243.06640625 C-37.24632812 242.00873047 -37.24632812 242.00873047 -37.6171875 240.9296875 C-38.13198624 239.42468915 -38.63441586 237.91540851 -39.125 236.40234375 C-40.12357793 233.32425303 -41.18052727 230.26658917 -42.234375 227.20703125 C-43.51889364 222.96657211 -44.01721279 218.9265159 -44.12890625 214.50390625 C-44.16177734 213.45976562 -44.19464844 212.415625 -44.22851562 211.33984375 C-44.28971057 209.15765805 -44.34700279 206.97535941 -44.40039062 204.79296875 C-44.43455078 203.74882812 -44.46871094 202.7046875 -44.50390625 201.62890625 C-44.54149048 200.20771484 -44.54149048 200.20771484 -44.57983398 198.7578125 C-45.04834788 194.59592924 -46.05786171 191.8765198 -49.0546875 188.93359375 C-52.26454742 186.81437684 -55.53896696 185.48361113 -59.1328125 184.19140625 C-67.50810616 181.00610544 -75.00632076 177.04474019 -80.8828125 170.06640625 C-84.62401599 158.57556697 -79.91461214 147.35488733 -75.51953125 136.7890625 C-73.63638306 133.6564747 -72.31085139 132.78219251 -69.0078125 131.31640625 C-68.16476563 130.9296875 -67.32171875 130.54296875 -66.453125 130.14453125 C-65.18082031 129.61085937 -65.18082031 129.61085937 -63.8828125 129.06640625 C-63.09003906 128.69515625 -62.29726562 128.32390625 -61.48046875 127.94140625 C-48.29563912 123.50020048 -23.5147606 127.30269859 -11.36328125 133.3125 C-0.79850819 139.77751038 4.60827822 151.36688022 10.1171875 162.06640625 C10.1171875 162.72640625 10.1171875 163.38640625 10.1171875 164.06640625 C13.53696318 163.63893429 16.11555996 162.61273313 19.1171875 161.00390625 C22.26929822 159.3502421 24.49157786 158.61320505 28.1171875 159.06640625 C28.1171875 158.40640625 28.1171875 157.74640625 28.1171875 157.06640625 C27.1271875 156.73640625 26.1371875 156.40640625 25.1171875 156.06640625 C23.44839169 154.01523982 21.92873195 151.98609853 20.4296875 149.81640625 C19.99197021 149.1932251 19.55425293 148.57004395 19.10327148 147.92797852 C14.84324464 141.7988272 10.93593205 135.47801661 7.1171875 129.06640625 C4.99766255 125.53185445 4.99766255 125.53185445 2.8671875 122.00390625 C2.1171875 120.06640625 2.1171875 120.06640625 2.1796875 118.06640625 C3.87475453 114.45026326 6.89138992 112.66262752 10.4140625 110.94921875 C12.81437812 109.77963821 14.98824063 108.68177212 17.1171875 107.06640625 C18.3352648 103.40156344 18.3352648 103.40156344 18.1171875 100.06640625 C17.4571875 100.06640625 16.7971875 100.06640625 16.1171875 100.06640625 C14.76286075 98.75440221 13.42985268 97.42009221 12.1171875 96.06640625 C8.83496855 94.42529677 5.65112775 94.4022692 2.1171875 95.06640625 C-0.19892313 96.44001201 -2.28643581 98.00927413 -4.4453125 99.6171875 C-7.25342191 101.28675255 -9.47176106 101.69595586 -12.6953125 102.12890625 C-16.84566309 102.72046261 -16.84566309 102.72046261 -20.3203125 105.00390625 C-22.24339717 108.7731522 -23.63715591 112.62202517 -24.953125 116.640625 C-25.8828125 119.06640625 -25.8828125 119.06640625 -27.8828125 121.06640625 C-30.3203125 121.19140625 -30.3203125 121.19140625 -32.8828125 120.06640625 C-33.87638036 118.10553224 -34.50894847 116.18740823 -35.109375 114.07421875 C-36.03495882 111.67144055 -36.78612151 110.5726765 -38.8828125 109.06640625 C-46.06308631 107.95166054 -54.47898795 108.46668063 -60.8828125 112.06640625 C-64.1974772 114.83688835 -67.11121939 117.97475145 -70.0234375 121.15625 C-73.16758041 124.49764696 -76.52331553 127.49542478 -81.078125 128.59765625 C-84.56690478 128.54115779 -86.52616675 128.34074914 -89.3203125 126.19140625 C-91.97511805 122.5808707 -92.09911033 120.2247753 -92.1953125 115.75390625 C-92.23269531 114.62339844 -92.27007812 113.49289063 -92.30859375 112.328125 C-91.79055831 108.35968841 -90.7017265 106.86101927 -87.8828125 104.06640625 C-77.85608155 97.31042711 -65.59454961 95.64907343 -53.8828125 94.06640625 C-54.05039063 93.15117187 -54.21796875 92.2359375 -54.390625 91.29296875 C-54.59429687 90.10445313 -54.79796875 88.9159375 -55.0078125 87.69140625 C-55.21664062 86.50804687 -55.42546875 85.3246875 -55.640625 84.10546875 C-55.72054687 83.10257812 -55.80046875 82.0996875 -55.8828125 81.06640625 C-53.8828125 79.06640625 -53.8828125 79.06640625 -50.78515625 78.796875 C-46.38667302 79.10067414 -42.63026706 80.06428056 -38.4453125 81.37890625 C-37.73310547 81.59224609 -37.02089844 81.80558594 -36.28710938 82.02539062 C-32.68756741 83.12061911 -29.17325743 84.3256264 -25.671875 85.703125 C-16.86195258 89.04892549 -9.60539343 86.93178213 -1.1875 83.37890625 C3.78487547 81.40406209 8.90314031 80.22195184 14.1171875 79.06640625 C13.29734375 78.6075 12.4775 78.14859375 11.6328125 77.67578125 C10.55515625 77.0621875 9.4775 76.44859375 8.3671875 75.81640625 C7.29984375 75.213125 6.2325 74.60984375 5.1328125 73.98828125 C2.34866696 72.21392943 0.229067 70.59449558 -1.8828125 68.06640625 C-1.80573809 64.98342983 -1.21679693 63.49390632 0.6796875 61.06640625 C2.25253836 59.15743118 2.25253836 59.15743118 2.60546875 56.828125 C1.74795034 51.9780009 -2.4641969 49.40616227 -6.0859375 46.32226562 C-10.36835177 42.39671921 -11.6502029 39.40000093 -12.47412109 33.6784668 C-12.88964476 31.02273937 -13.56260414 28.62143488 -14.390625 26.06640625 C-14.65488281 25.24140625 -14.91914063 24.41640625 -15.19140625 23.56640625 C-15.73643482 21.89741924 -16.2885477 20.23072936 -16.84765625 18.56640625 C-18.67108814 12.81765546 -19.87633629 7.1055413 -18.8828125 1.06640625 C-13.32508951 -4.90814597 -6.7160107 -2.88120279 0 0 Z " fill="#6EC473" transform="translate(302.8828125,115.93359375)"/>
<path d="M0 0 C0 0.33 0 0.66 0 1 C-4.29 1 -8.58 1 -13 1 C-13 13.87 -13 26.74 -13 40 C-16.279375 40.2475 -19.55875 40.495 -22.9375 40.75 C-59.25932725 43.85120286 -95.11123213 60.36379871 -118.984375 88.421875 C-141.11380682 115.44716544 -150.55841458 145.59584183 -153 180 C-165.87 180 -178.74 180 -192 180 C-192 184.29 -192 188.58 -192 193 C-192.33 193 -192.66 193 -193 193 C-193.66154569 160.41802676 -189.76465398 130.56540736 -175 101 C-174.68981934 100.35949707 -174.37963867 99.71899414 -174.06005859 99.05908203 C-153.79290924 57.37799064 -116.58670972 26.44204798 -73.75 9.875 C-49.28996071 1.45669992 -25.67669503 -0.52134064 0 0 Z " fill="#1902AD" transform="translate(260,65)"/>
<path d="M0 0 C43.59385546 -1.28217222 85.25825504 14.09593731 118 43 C118.50305664 43.43747559 119.00611328 43.87495117 119.52441406 44.32568359 C151.18822439 71.98105163 175.30162998 113.53629896 178.8828125 155.9375 C179.17680953 163.62062249 179.05124321 171.31351812 179 179 C166.13 179 153.26 179 140 179 C139.5978125 174.545 139.5978125 174.545 139.1875 170 C136.10475653 138.50720646 125.4454137 111.27648548 105 87 C104.33613281 86.18917969 103.67226563 85.37835938 102.98828125 84.54296875 C76.69501275 53.6811841 38.78123754 43.08223553 0 39 C0 26.13 0 13.26 0 0 Z " fill="#125303" transform="translate(247,66)"/>
<path d="M0 0 C12.87 0 25.74 0 39 0 C39.495 7.425 39.495 7.425 40 15 C40.50846464 18.36733199 41.04316295 21.62007809 41.75 24.9375 C41.924104 25.77667969 42.09820801 26.61585938 42.27758789 27.48046875 C48.88805906 58.21872307 64.24573082 87.0061672 89 107 C89.86109375 107.69867188 90.7221875 108.39734375 91.609375 109.1171875 C117.53727452 129.36897929 146.74361632 137.10804836 179 140 C179 152.87 179 165.74 179 179 C129.33832828 179.68029687 86.07410205 160.65707791 50.41015625 126.4140625 C45.85186159 121.92716734 41.85623202 117.09731818 38 112 C37.26523438 111.06929688 36.53046875 110.13859375 35.7734375 109.1796875 C11.40808511 77.78103751 -1.16693863 39.67591328 0 0 Z " fill="#125303" transform="translate(68,245)"/>
<path d="M0 0 C10.56477306 6.46501038 15.97155947 18.05438022 21.48046875 28.75390625 C21.48046875 29.41390625 21.48046875 30.07390625 21.48046875 30.75390625 C25.64849098 30.23290347 28.78885571 28.68156502 32.41796875 26.69140625 C40.81861426 22.87293102 51.81866549 23.9013822 60.3203125 26.83203125 C64.72915228 28.71356143 67.76902658 30.68674299 70.48046875 34.75390625 C70.92025613 38.71199263 71.02001128 40.92491502 68.8203125 44.3046875 C62.92224266 50.4784601 54.10723088 52.0804008 45.85546875 52.31640625 C37.91113224 52.04501587 31.10508678 50.17031827 24.48046875 45.75390625 C22.9646539 49.37058729 21.78546658 52.97812454 20.73046875 56.75390625 C20.385 57.98109375 20.03953125 59.20828125 19.68359375 60.47265625 C19.49345703 61.15070313 19.30332031 61.82875 19.10742188 62.52734375 C18.41986646 64.96912935 17.72448015 67.40858897 17.02734375 69.84765625 C16.77452637 70.73235596 16.52170898 71.61705566 16.26123047 72.52856445 C15.73853013 74.35311226 15.21410129 76.17716573 14.68798828 78.00073242 C13.5735661 81.8725275 12.46673469 85.73979526 11.48828125 89.6484375 C9.7878398 96.23200506 7.52923655 102.2267757 4.54296875 108.31640625 C4.05691162 109.31764526 4.05691162 109.31764526 3.56103516 110.33911133 C1.42983634 114.49934269 -0.81538635 117.78386571 -4.51953125 120.75390625 C-9.51783003 121.94081791 -14.88381367 121.4599489 -19.51953125 119.19140625 C-22.98255206 116.37770185 -24.24663725 113.89081175 -25.51953125 109.75390625 C-25.761875 109.04878906 -26.00421875 108.34367187 -26.25390625 107.6171875 C-26.76870499 106.11218915 -27.27113461 104.60290851 -27.76171875 103.08984375 C-28.76029668 100.01175303 -29.81724602 96.95408917 -30.87109375 93.89453125 C-32.15561239 89.65407211 -32.65393154 85.6140159 -32.765625 81.19140625 C-32.79849609 80.14726562 -32.83136719 79.103125 -32.86523438 78.02734375 C-32.92642932 75.84515805 -32.98372154 73.66285941 -33.03710938 71.48046875 C-33.07126953 70.43632812 -33.10542969 69.3921875 -33.140625 68.31640625 C-33.16568115 67.36894531 -33.1907373 66.42148437 -33.21655273 65.4453125 C-33.68506663 61.28342924 -34.69458046 58.5640198 -37.69140625 55.62109375 C-40.90126617 53.50187684 -44.17568571 52.17111113 -47.76953125 50.87890625 C-56.14482491 47.69360544 -63.64303951 43.73224019 -69.51953125 36.75390625 C-73.26073474 25.26306697 -68.55133089 14.04238733 -64.15625 3.4765625 C-62.27310181 0.3439747 -60.94757014 -0.53030749 -57.64453125 -1.99609375 C-56.37996094 -2.57617188 -56.37996094 -2.57617188 -55.08984375 -3.16796875 C-53.81753906 -3.70164063 -53.81753906 -3.70164063 -52.51953125 -4.24609375 C-51.72675781 -4.61734375 -50.93398437 -4.98859375 -50.1171875 -5.37109375 C-36.93235787 -9.81229952 -12.15147935 -6.00980141 0 0 Z " fill="#6FC473" transform="translate(291.51953125,249.24609375)"/>
<path d="M0 0 C1.25425781 -0.02578125 2.50851563 -0.0515625 3.80078125 -0.078125 C7.06288125 0.19726837 8.69481296 0.54323236 11.57421875 1.76171875 C16.15955251 3.64445334 20.2951439 3.52060182 25.1875 3.3125 C33.06202181 3.01546748 40.22263006 3.20668724 47.0625 7.6875 C48.03316406 8.30431641 48.03316406 8.30431641 49.0234375 8.93359375 C50.6875 10.25 50.6875 10.25 52.6875 13.25 C53.13332567 17.26243107 53.13491668 19.49283331 51.0625 23 C48.45601947 25.46929734 45.97090945 26.8321641 42.6875 28.25 C44.31347776 33.61572662 47.81328117 38.07417292 52.27099609 41.44873047 C57.70602345 45.63622911 60.16901739 50.30177301 62.9375 56.5 C63.35773438 57.39074219 63.77796875 58.28148437 64.2109375 59.19921875 C69.41889271 70.48312171 72.21316725 79.6601383 69.19921875 91.9296875 C68.37326182 95.67486627 68.0508504 99.43482085 67.6875 103.25 C65.20447933 104.15861213 64.01317787 104.36350636 61.48022461 103.48071289 C60.69139893 103.0655542 59.90257324 102.65039551 59.08984375 102.22265625 C57.77173706 101.53502197 57.77173706 101.53502197 56.42700195 100.83349609 C55.50234131 100.33156738 54.57768066 99.82963867 53.625 99.3125 C52.67778076 98.80541504 51.73056152 98.29833008 50.75463867 97.77587891 C40.74085816 92.32790034 32.26628381 86.01842164 23.890625 78.26171875 C21.60344349 76.11917561 21.60344349 76.11917561 18.625 73.875 C14.06285436 69.79818901 10.42049487 65.08305616 6.6875 60.25 C6.27419434 59.71697266 5.86088867 59.18394531 5.43505859 58.63476562 C-6.79900275 42.69984179 -15.70179789 24.10886161 -19.3125 4.25 C-12.68808023 1.26251657 -7.351979 0.09011619 0 0 Z " fill="#6EC473" transform="translate(129.3125,270.75)"/>
<path d="M0 0 C20.18555008 1.18555008 20.18555008 1.18555008 24 5 C24.51030432 9.42263745 24.32546895 12.73979346 21.6015625 16.39453125 C18.63905221 19.36426717 15.19350806 21.68794574 11.75390625 24.0703125 C8.98091328 25.93776674 8.98091328 25.93776674 6.58203125 28.12890625 C3.47514076 30.38034429 0.85739561 30.98353248 -2.875 31.8125 C-8.56626508 33.30675474 -11.87216353 34.83635377 -15.5703125 39.4140625 C-17.91196423 42.01163245 -20.19216693 42.9038294 -23.625 43.3125 C-24.40875 43.209375 -25.1925 43.10625 -26 43 C-28.26534958 39.60197562 -28.14429866 39.13317781 -27.5625 35.3125 C-27.06906419 31.34780068 -27.12543371 28.01200636 -27.734375 24.0859375 C-28.24147754 20.10369105 -28.43795765 15.99357995 -28 12 C-25.40779138 9.40779138 -24.23138922 9.74805265 -20.625 9.625 C-14.19113957 9.17431896 -7.70411849 8.15863239 -2 5 C-0.6132774 2.46963593 -0.6132774 2.46963593 0 0 Z " fill="#6EC475" transform="translate(184,154)"/>
<path d="M0 0 C0 4.33958177 -2.57088395 6.64369751 -5.1875 9.875 C-5.67025391 10.48730469 -6.15300781 11.09960938 -6.65039062 11.73046875 C-14.46817596 21.53155802 -14.46817596 21.53155802 -19.5 24 C-24.47953734 26.71611128 -27.55101109 30.11435366 -30.25 35.0625 C-33.11550393 39.82932887 -36.74316084 41.53318699 -42 43 C-48.44189242 44.05412785 -53.69484192 41.52440571 -59 38 C-61.5740625 35.19651019 -62 34.48525305 -62 30.5625 C-60.05395081 23.62969976 -54.03112972 20.47997162 -48.125 17.0625 C-47.37395996 16.62719971 -46.62291992 16.19189941 -45.84912109 15.7434082 C-31.61326331 7.6748227 -16.04353611 2.99608204 0 0 Z " fill="#6DC375" transform="translate(225,106)"/>
<path d="M0 0 C0.66 0 1.32 0 2 0 C2.65717551 3.6174052 3.24058375 7.24322057 3.8125 10.875 C4.0899707 12.39480469 4.0899707 12.39480469 4.37304688 13.9453125 C5.39797102 20.74906428 4.83856129 24.83657314 1.28198242 30.76879883 C-0.04874071 33.08482982 -0.78915758 35.24553825 -1.5 37.8125 C-2.77254958 41.92828892 -4.67737815 44.18855074 -8 47 C-10.50856764 49.50856764 -10.49199565 51.04076495 -11.125 54.5 C-13.79314517 65.59736003 -21.89560608 72.64644635 -31 79 C-31.33 79 -31.66 79 -32 79 C-32.28827991 71.94091059 -31.59080359 65.65582286 -29.875 58.8125 C-29.65054199 57.89976318 -29.42608398 56.98702637 -29.19482422 56.04663086 C-27.14194951 48.0107904 -24.44275187 40.54691911 -21 33 C-20.47664063 31.83210938 -19.95328125 30.66421875 -19.4140625 29.4609375 C-15.20862652 20.55646976 -9.95510447 12.81046366 -4 5 C-3.28199219 4.04222656 -2.56398437 3.08445313 -1.82421875 2.09765625 C-1.22222656 1.40542969 -0.62023437 0.71320313 0 0 Z " fill="#6DC375" transform="translate(140,154)"/>
<path d="M0 0 C2.5 2 2.5 2 4.5 5 C4.93978738 8.95808638 5.03954253 11.17100877 2.83984375 14.55078125 C-3.05822609 20.72455385 -11.87323787 22.32649455 -20.125 22.5625 C-27.93983084 22.2718658 -35.83127804 20.97454646 -41.625 15.3125 C-42.24375 14.549375 -42.8625 13.78625 -43.5 13 C-43.83 12.67 -44.16 12.34 -44.5 12 C-44.98293381 7.81457367 -45.05554639 5.74651546 -42.5 2.3125 C-30.40782595 -7.00855083 -13.15430043 -8.24124846 0 0 Z " fill="#ED97B0" transform="translate(357.5,279)"/>
<path d="M0 0 C1.6640625 1.31640625 1.6640625 1.31640625 3.6640625 4.31640625 C4.10988817 8.32883732 4.11147918 10.55923956 2.0390625 14.06640625 C-5.29694433 21.01630746 -14.88511775 21.78726573 -24.53515625 21.625 C-31.73286783 21.04060204 -37.92899747 19.24345173 -43.0859375 14.00390625 C-45.08149261 11.28110803 -45.33979104 10.27247594 -45.6484375 6.75390625 C-43.61568151 1.4300215 -40.33476847 -1.1040115 -35.36328125 -3.72265625 C-23.78141648 -8.35540216 -10.3180254 -6.55667351 0 0 Z " fill="#EE97AF" transform="translate(178.3359375,279.68359375)"/>
<path d="M0 0 C0.45772527 5.72156582 -0.45965913 8.49411162 -4 13 C-4.33 13.33 -4.66 13.66 -5 14 C-8.4375 13.8125 -8.4375 13.8125 -12 13 C-13.4375 10.9375 -13.4375 10.9375 -14 9 C-10.58268355 4.07906431 -6.29241474 0 0 0 Z " fill="#69C379" transform="translate(201,186)"/>
</svg>
