<?xml version="1.0" encoding="UTF-8"?>
<svg version="1.1" xmlns="http://www.w3.org/2000/svg" width="740" height="740">
<path d="M0 0 C1.20988586 0.00021149 2.41977173 0.00042297 3.6663208 0.00064087 C23.20885831 0.03465677 42.11335017 0.98677992 61.375 4.375 C62.5196875 4.57287109 63.664375 4.77074219 64.84375 4.97460938 C72.06586039 6.25421494 79.22772683 7.72992061 86.375 9.375 C87.17373535 9.55611328 87.9724707 9.73722656 88.79541016 9.92382812 C136.03839614 20.85942428 181.60202682 42.34278601 220.375 71.375 C220.90996094 71.77251465 221.44492187 72.1700293 221.99609375 72.57958984 C243.34138789 88.47978647 264.39552778 106.81873823 281.375 127.375 C282.02082031 128.14328125 282.66664063 128.9115625 283.33203125 129.703125 C303.48179252 153.95545027 321.0090747 180.02820305 334.5234375 208.58642578 C335.36148054 210.34660448 336.22742501 212.09341133 337.09375 213.83984375 C357.76011544 256.34679994 370.4130103 305.78270761 370.578125 353.09765625 C370.58382507 354.3965831 370.58952515 355.69550995 370.59539795 357.03379822 C370.60583398 359.77782573 370.61172195 362.52182466 370.61523438 365.26586914 C370.61957843 368.02023867 370.6333245 370.77428778 370.65625 373.52856445 C370.84520678 396.72993598 369.43559741 419.48305564 364.6875 442.25 C364.43403809 443.48556641 364.18057617 444.72113281 363.91943359 445.99414062 C351.54270403 504.41052228 325.39936003 561.49369571 285.88720703 606.59179688 C284.73790467 607.94706076 283.61914867 609.32829739 282.51513672 610.72070312 C276.69870825 618.03552455 270.39128679 624.66728788 263.76464844 631.24609375 C262.00219762 632.99781575 260.25071432 634.75999428 258.5 636.5234375 C251.76665749 643.26512082 244.87367718 649.48350742 237.375 655.375 C236.12009183 656.39952812 234.86720948 657.42654718 233.6171875 658.45703125 C173.94011815 707.06314326 95.47260161 739.30236652 17.87109375 739.578125 C16.59436295 739.58382507 15.31763214 739.58952515 14.00221252 739.59539795 C11.3052634 739.60583242 8.60834334 739.61172134 5.91137695 739.61523438 C3.20550748 739.61957741 0.49996436 739.6333197 -2.20581055 739.65625 C-55.75117934 740.07587941 -108.23046497 728.5022324 -156.625 705.375 C-157.47336426 704.97200684 -158.32172852 704.56901367 -159.19580078 704.15380859 C-185.10773794 691.75952169 -209.42068822 676.62502746 -231.625 658.375 C-232.15754395 657.94010254 -232.69008789 657.50520508 -233.23876953 657.05712891 C-249.06192162 644.08646615 -264.35922768 629.96905073 -277.625 614.375 C-278.48351562 613.405625 -279.34203125 612.43625 -280.2265625 611.4375 C-333.88266786 550.57534438 -368.47466527 466.00228218 -368.828125 384.55859375 C-368.83509399 383.47164719 -368.84206299 382.38470062 -368.84924316 381.26481628 C-368.86652626 377.78067095 -368.8729618 374.29668641 -368.875 370.8125 C-368.87600708 369.62348083 -368.87701416 368.43446167 -368.87805176 367.20941162 C-368.86820613 350.05282672 -368.4073705 333.33606669 -365.625 316.375 C-365.34285469 314.46758014 -365.06161029 312.5600268 -364.78125 310.65234375 C-354.89502071 246.51761848 -326.75528869 183.83538959 -284.625 134.375 C-283.64563014 133.20980618 -282.6664771 132.04443008 -281.6875 130.87890625 C-276.79147304 125.07968387 -271.8625021 119.43384661 -266.40234375 114.15234375 C-264.61451951 112.36451951 -262.99965432 110.4988386 -261.375 108.5625 C-256.58653054 103.01738751 -251.10220704 98.21978726 -245.625 93.375 C-245.07924316 92.8898291 -244.53348633 92.4046582 -243.97119141 91.90478516 C-188.41425851 42.71391998 -119.005304 12.00719037 -45.625 2.375 C-44.95559387 2.28424194 -44.28618774 2.19348389 -43.59649658 2.09997559 C-29.08295015 0.17723903 -14.62452117 -0.02362705 0 0 Z " fill="#03A8E7" transform="translate(368.625,-0.375)"/>
<path d="M0 0 C31.32820573 0 31.32820573 0 43.625 1.6875 C45.01639976 1.86822081 46.40783961 2.04863312 47.79931641 2.22875977 C60.31937833 3.89089003 72.69274944 6.16725473 85 9 C85.79873535 9.18111328 86.5974707 9.36222656 87.42041016 9.54882812 C134.66339614 20.48442428 180.22702682 41.96778601 219 71 C219.53496094 71.39751465 220.06992187 71.7950293 220.62109375 72.20458984 C241.96638789 88.10478647 263.02052778 106.44373823 280 127 C280.64582031 127.76828125 281.29164063 128.5365625 281.95703125 129.328125 C302.10679252 153.58045027 319.6340747 179.65320305 333.1484375 208.21142578 C333.98648054 209.97160448 334.85242501 211.71841133 335.71875 213.46484375 C356.38511544 255.97179994 369.0380103 305.40770761 369.203125 352.72265625 C369.20882507 354.0215831 369.21452515 355.32050995 369.22039795 356.65879822 C369.23083398 359.40282573 369.23672195 362.14682466 369.24023438 364.89086914 C369.24457843 367.64523867 369.2583245 370.39928778 369.28125 373.15356445 C369.47020678 396.35493598 368.06059741 419.10805564 363.3125 441.875 C363.05903809 443.11056641 362.80557617 444.34613281 362.54443359 445.61914062 C350.16770403 504.03552228 324.02436003 561.11869571 284.51220703 606.21679688 C283.36290467 607.57206076 282.24414867 608.95329739 281.14013672 610.34570312 C275.32370825 617.66052455 269.01628679 624.29228788 262.38964844 630.87109375 C260.62719762 632.62281575 258.87571432 634.38499428 257.125 636.1484375 C250.39165749 642.89012082 243.49867718 649.10850742 236 655 C234.74509183 656.02452812 233.49220948 657.05154718 232.2421875 658.08203125 C172.56511815 706.68814326 94.09760161 738.92736652 16.49609375 739.203125 C15.21936295 739.20882507 13.94263214 739.21452515 12.62721252 739.22039795 C9.9302634 739.23083242 7.23334334 739.23672134 4.53637695 739.24023438 C1.83050748 739.24457741 -0.87503564 739.2583197 -3.58081055 739.28125 C-57.12617934 739.70087941 -109.60546497 728.1272324 -158 705 C-158.84836426 704.59700684 -159.69672852 704.19401367 -160.57080078 703.77880859 C-186.48273794 691.38452169 -210.79568822 676.25002746 -233 658 C-233.53254395 657.56510254 -234.06508789 657.13020508 -234.61376953 656.68212891 C-250.43692162 643.71146615 -265.73422768 629.59405073 -279 614 C-279.85851562 613.030625 -280.71703125 612.06125 -281.6015625 611.0625 C-340.02413277 544.7937401 -370 457.67255831 -370 370 C-342.94 370 -315.88 370 -288 370 C-287.34 380.89 -286.68 391.78 -286 403 C-274.46843127 480.51776757 -237.43519429 551.48650036 -174 599 C-173.4544043 599.41314453 -172.90880859 599.82628906 -172.34667969 600.25195312 C-162.07230665 607.99300314 -151.14300509 614.59198924 -140 621 C-139.29004883 621.41137207 -138.58009766 621.82274414 -137.84863281 622.24658203 C-125.14755988 629.53272955 -111.68933146 634.8665007 -98 640 C-97.18917969 640.30566895 -96.37835938 640.61133789 -95.54296875 640.92626953 C-65.00776706 652.25664757 -32.87269464 656.22844882 -0.5 656.1875 C0.8254332 656.18659363 0.8254332 656.18659363 2.17764282 656.18566895 C22.90927235 656.14721929 42.73257022 654.51494258 63 650 C63.76280273 649.83161621 64.52560547 649.66323242 65.31152344 649.48974609 C89.67529675 643.9583104 112.87481035 634.47023809 135 623 C135.7832666 622.59394531 136.5665332 622.18789063 137.37353516 621.76953125 C160.11043585 609.8172336 182.22565239 593.57419325 200 575 C202.54877979 572.42990934 205.11707167 569.88745689 207.7265625 567.37890625 C215.24695499 560.1118649 221.76343481 552.38476736 228 544 C228.40927734 543.45682129 228.81855469 542.91364258 229.24023438 542.35400391 C248.7216529 516.40230748 262.9069747 487.79263585 273 457 C273.29487305 456.11763672 273.58974609 455.23527344 273.89355469 454.32617188 C277.92140552 442.17309375 280.55612038 429.98590391 282.61376953 417.35693359 C282.94332782 415.34583642 283.29550162 413.33846695 283.65234375 411.33203125 C285.41042673 401.41233677 286.15368455 391.55606792 286.203125 381.48828125 C286.21013931 380.52516525 286.21715363 379.56204926 286.22438049 378.56974792 C286.24176557 375.48395037 286.24823142 372.3983447 286.25 369.3125 C286.25067474 368.25820801 286.25134949 367.20391602 286.25204468 366.11767578 C286.23651596 350.86412335 285.91122167 336.01906359 283 321 C282.74259033 319.61361328 282.74259033 319.61361328 282.47998047 318.19921875 C276.8843972 288.63613716 267.25338538 260.51856404 253 234 C252.46076904 232.99549805 252.46076904 232.99549805 251.91064453 231.97070312 C247.05642926 222.99935517 241.87818624 214.34702446 236 206 C235.39333496 205.13640869 235.39333496 205.13640869 234.77441406 204.25537109 C226.54917593 192.61068671 217.73363919 181.33763384 207.4375 171.4375 C206 170 206 170 203.5625 167 C200.9853168 163.98280991 198.28870413 161.52613901 195.2734375 158.96484375 C192.78321515 156.81264127 190.39999575 154.56474826 188 152.3125 C176.0759258 141.47243254 162.72085384 132.39998871 149 124 C148.19965332 123.50999512 147.39930664 123.01999023 146.57470703 122.51513672 C126.77971243 110.5271616 106.07249302 101.83365808 84 95 C82.50256297 94.52226454 81.00516555 94.04440487 79.5078125 93.56640625 C70.48588418 90.74244435 61.49505837 88.79475871 52.15820312 87.34716797 C50.03052025 87.00490948 47.91495783 86.61967409 45.796875 86.22265625 C30.40706095 83.49001259 15.93333209 83.02795691 0 82 C0 54.94 0 27.88 0 0 Z " fill="#014BAD" transform="translate(370,0)"/>
<path d="M0 0 C1.15491943 0.49177734 2.30983887 0.98355469 3.49975586 1.49023438 C24.80178956 10.72832371 44.59700021 22.82624545 62.875 37.125 C64.12990234 38.08986328 64.12990234 38.08986328 65.41015625 39.07421875 C71.19425345 43.59333114 76.6140191 48.46153296 81.984375 53.45703125 C84.51406875 55.79187021 87.08508308 58.05972753 89.6875 60.3125 C93.08384029 63.31929589 96.08348529 66.4819388 99.0078125 69.9453125 C101.16760305 72.46657428 103.42610892 74.88203295 105.6875 77.3125 C123.06404196 96.42406733 136.81933634 118.85680636 147.875 142.125 C148.2359375 142.87346191 148.596875 143.62192383 148.96875 144.39306641 C162.25856045 172.09747596 170.3659042 201.62532781 173.875 232.125 C173.95759567 232.75809082 174.04019135 233.39118164 174.12528992 234.04345703 C174.8545412 239.93971502 175.03585094 245.75001961 175.04296875 251.6875 C175.04629715 252.67766113 175.04962555 253.66782227 175.05305481 254.68798828 C175.05809192 256.77554871 175.06046414 258.8631171 175.06030273 260.95068359 C175.06247464 264.08835724 175.08062493 267.22567028 175.09960938 270.36328125 C175.12595295 279.5771515 175.03878544 288.71243984 173.98828125 297.875 C173.91054977 298.55997559 173.8328183 299.24495117 173.75273132 299.95068359 C173.3030376 303.36336871 172.65733416 306.16177008 170.875 309.125 C164.43415442 298.84403369 158.05972244 288.54728205 152.0625 278 C144.50343432 264.7950577 139.13924484 256.1263342 123.79296875 251.921875 C116.75091742 250.48959337 108.65940556 249.38110501 101.984375 252.45703125 C99.55298852 254.01805006 99.55298852 254.01805006 99.1875 257.25 C100.87982234 266.78854409 109.89298618 276.72531389 117.5234375 282.33740234 C118.95577388 283.2943947 120.41326653 284.2135412 121.875 285.125 C114.51782082 300.66704102 105.1765776 314.169533 93.875 327.125 C94.76960938 327.40472656 95.66421875 327.68445313 96.5859375 327.97265625 C106.79831769 331.35863732 116.59000717 335.57376772 122.8671875 344.828125 C125.28069402 350.32867475 125.04285379 356.09514638 122.90234375 361.6484375 C116.77379902 372.11877923 105.62574712 376.00165019 94.57421875 379.1796875 C86.56949197 381.22524598 79.1015354 381.30383773 70.875 381.125 C69.73289062 381.10824219 68.59078125 381.09148437 67.4140625 381.07421875 C54.49580896 380.55689738 42.11583748 377.27314461 31.875 369.125 C30.54278544 368.12351004 29.20974943 367.12310908 27.875 366.125 C27.63265625 367.10597656 27.3903125 368.08695312 27.140625 369.09765625 C23.79484509 382.59556552 20.25077927 396.00143914 16.22485352 409.31298828 C14.42196278 415.28067462 12.6559449 421.25743027 10.9375 427.25 C10.69056396 428.10891846 10.44362793 428.96783691 10.18920898 429.8527832 C8.81378238 434.68202936 7.50420609 439.52250768 6.2578125 444.38671875 C1.22821894 463.93141416 -4.95018305 482.50892641 -14.1875 500.5 C-14.65760498 501.42063232 -15.12770996 502.34126465 -15.61206055 503.28979492 C-19.90993642 511.35688361 -24.8070815 519.79289294 -33.125 524.125 C-41.59268471 525.6365061 -52.86811954 523.64942097 -60.31640625 519.4375 C-68.54367961 513.46695173 -72.37883812 505.07140787 -74 495.25 C-74.70481365 491.22694864 -76.00881979 488.15975852 -77.9375 484.5625 C-80.51869246 479.66517641 -82.32939373 474.85424669 -83.875 469.5625 C-84.07327393 468.89081787 -84.27154785 468.21913574 -84.47583008 467.52709961 C-87.22017969 457.76641367 -88.42624536 448.24051288 -88.5390625 438.11328125 C-88.55842865 437.01904343 -88.5777948 435.9248056 -88.5977478 434.79740906 C-88.65694571 431.3441823 -88.70368744 427.89092111 -88.75 424.4375 C-88.78823491 422.07876248 -88.82728974 419.7200381 -88.8671875 417.36132812 C-88.96259714 411.61600312 -89.04781467 405.87059723 -89.125 400.125 C-88.33125977 399.7535083 -87.53751953 399.3820166 -86.71972656 398.99926758 C-80.72634373 396.11446116 -75.66504279 393.43146983 -70.875 388.8125 C-70.37887207 388.33522461 -69.88274414 387.85794922 -69.37158203 387.36621094 C-67.93776845 385.9710233 -66.53059354 384.54861397 -65.125 383.125 C-64.40570313 382.40441406 -63.68640625 381.68382812 -62.9453125 380.94140625 C-54.69054741 372.17279032 -48.32361229 361.61435963 -42.5 351.125 C-42.15710938 350.52671387 -41.81421875 349.92842773 -41.4609375 349.31201172 C-39.20542798 345.10290203 -38.70755105 341.85990044 -39.125 337.125 C-40.44092138 334.07760312 -41.76991749 332.4383081 -44.25 330.25 C-48.2845782 328.67125201 -52.00205089 328.7752689 -56.125 330.125 C-60.34776382 333.37519814 -62.38655256 338.00387414 -64.8125 342.625 C-68.99507908 350.37716036 -73.58344543 357.25925869 -79.125 364.125 C-79.77855469 365.02412109 -79.77855469 365.02412109 -80.4453125 365.94140625 C-84.63277291 371.54908925 -91.60687349 376.53980321 -98.125 379.125 C-105.17925334 380.02212727 -111.75686618 379.94974545 -117.81640625 375.98046875 C-130.41958066 365.85101385 -138.55369125 353.72278659 -145.73828125 339.33203125 C-147.30185873 336.84352061 -148.57878169 335.58663172 -151.125 334.125 C-155.96462271 333.23853445 -160.58818577 333.3405481 -164.75 336.125 C-165.53375 336.785 -166.3175 337.445 -167.125 338.125 C-169.0878459 318.71463502 -159.10709329 293.4717702 -149.125 277.125 C-146.66403705 274.88278151 -144.12512659 273.55363171 -141.125 272.125 C-140.02800781 271.56039063 -138.93101562 270.99578125 -137.80078125 270.4140625 C-109.3544603 256.09982522 -78.30466856 261.28596236 -48 266.5 C-46.34133911 266.77686646 -46.34133911 266.77686646 -44.64916992 267.05932617 C-34.54776876 268.9077133 -24.5918898 271.99579858 -16 277.75 C-14.69675781 278.60464844 -14.69675781 278.60464844 -13.3671875 279.4765625 C-11.41669297 280.91054977 -9.76706109 282.3541498 -8.125 284.125 C-8.37894531 283.33738281 -8.63289062 282.54976563 -8.89453125 281.73828125 C-14.39775508 264.32171147 -17.48811077 247.33867277 -17.33081055 229.07958984 C-17.31217193 226.83550006 -17.31030426 224.59181655 -17.31054688 222.34765625 C-17.27317389 211.42134778 -17.27317389 211.42134778 -16.125 209.125 C-17.115 209.455 -18.105 209.785 -19.125 210.125 C-22.83952627 210.16423795 -26.55090747 210.1862637 -30.265625 210.16015625 C-35.795277 211.54256925 -38.12809418 214.39142325 -41.125 219.125 C-42.8062253 222.72593903 -44.05380324 226.40125488 -45.25 230.1875 C-50.05395323 245.07171492 -50.05395323 245.07171492 -56.125 249.625 C-58.85637881 250.3078447 -60.47625554 250.07583135 -63.125 249.125 C-66.10210923 246.12487188 -66.80864776 242.95930661 -67.75805664 238.98022461 C-69.51107431 230.77244752 -69.51107431 230.77244752 -74.6875 224.5625 C-82.49550518 221.13459529 -91.77498929 222.95363967 -99.8515625 224.51171875 C-102.25066432 224.96119248 -104.66582311 225.32710007 -107.0859375 225.64453125 C-121.85839301 227.67454694 -128.73587941 235.60026182 -138.4440918 246.18139648 C-146.62448685 254.99479215 -156.41221493 264.09127974 -168.8125 265.5625 C-175.09017557 264.73337304 -179.09179204 261.9212473 -183.125 257.125 C-187.99718146 247.55464355 -188.50436568 236.4678257 -185.80078125 226.11328125 C-182.83203195 217.37863735 -174.96200754 212.41984054 -167.10327148 208.39550781 C-152.71073361 201.44097891 -137.25764177 198.63344519 -121.48876953 196.73168945 C-115.17118993 195.98911448 -115.17118993 195.98911448 -109.93359375 192.69140625 C-107.40728021 189.10655096 -107.50261769 187.48167614 -108.125 183.125 C-109.07906005 180.04170723 -110.11931354 177.01520338 -111.25 173.9921875 C-112.12308623 171.131271 -112.5349247 169.08670595 -112.125 166.125 C-106.02497713 162.05831809 -96.21939445 163.42755799 -89.14453125 164.8125 C-78.93394247 167.13332123 -68.99681568 170.67447359 -59.125 174.125 C-58.33222656 174.4019873 -57.53945313 174.67897461 -56.72265625 174.96435547 C-52.97970495 176.27545004 -49.23995058 177.59513532 -45.50390625 178.92578125 C-35.97445614 182.30790979 -27.14419211 181.84366773 -17.515625 178.859375 C-14.7483214 178.00928827 -11.99164689 177.51238472 -9.125 177.125 C-9.03734375 176.47273437 -8.9496875 175.82046875 -8.859375 175.1484375 C-7.87191628 171.08304896 -6.1667724 167.51799197 -4.375 163.75 C-4.03984375 163.02039063 -3.7046875 162.29078125 -3.359375 161.5390625 C-1.05642605 156.65401928 1.62149616 152.43646139 4.875 148.125 C3.77576139 145.5601099 2.93499641 144.17440881 0.75 142.375 C-1.52371862 139.64653766 -1.75764702 137.59303839 -1.58203125 134.07421875 C-0.81693218 130.8111039 1.40236985 129.26045331 3.875 127.125 C6.42937313 123.94929287 7.74266749 121.82636231 8.5 117.8125 C7.03572639 109.17328569 0.18138545 103.09513897 -6.125 97.5 C-21.78343532 83.43095473 -21.78343532 83.43095473 -22.36328125 76.12109375 C-22.38777344 74.94675781 -22.41226563 73.77242188 -22.4375 72.5625 C-23.01234561 59.59617917 -27.11368058 47.32681032 -31.921875 35.3671875 C-35.50024657 25.72417321 -39.04560011 14.42339024 -37.125 4.125 C-34.9375 1.0625 -34.9375 1.0625 -32.125 -0.875 C-31.01125 -1.7103125 -31.01125 -1.7103125 -29.875 -2.5625 C-18.89866582 -7.80120495 -10.63489967 -4.53172042 0 0 Z " fill="#6FC473" transform="translate(482.125,103.875)"/>
<path d="M0 0 C31.32820573 0 31.32820573 0 43.625 1.6875 C45.01639976 1.86822081 46.40783961 2.04863312 47.79931641 2.22875977 C60.31937833 3.89089003 72.69274944 6.16725473 85 9 C85.79873535 9.18111328 86.5974707 9.36222656 87.42041016 9.54882812 C134.66339614 20.48442428 180.22702682 41.96778601 219 71 C219.53496094 71.39751465 220.06992187 71.7950293 220.62109375 72.20458984 C241.96638789 88.10478647 263.02052778 106.44373823 280 127 C280.64582031 127.76828125 281.29164063 128.5365625 281.95703125 129.328125 C302.10679252 153.58045027 319.6340747 179.65320305 333.1484375 208.21142578 C333.98648054 209.97160448 334.85242501 211.71841133 335.71875 213.46484375 C359.61141015 262.60770156 369 315.76657191 369 370 C341.94 370 314.88 370 287 370 C286.67 361.75 286.34 353.5 286 345 C281.96594135 305.86963107 271.67385693 268.74289495 253 234 C252.6405127 233.33033203 252.28102539 232.66066406 251.91064453 231.97070312 C247.05642926 222.99935517 241.87818624 214.34702446 236 206 C235.59555664 205.42427246 235.19111328 204.84854492 234.77441406 204.25537109 C226.54917593 192.61068671 217.73363919 181.33763384 207.4375 171.4375 C206 170 206 170 203.5625 167 C200.9853168 163.98280991 198.28870413 161.52613901 195.2734375 158.96484375 C192.78321515 156.81264127 190.39999575 154.56474826 188 152.3125 C176.0759258 141.47243254 162.72085384 132.39998871 149 124 C147.79947998 123.26499268 147.79947998 123.26499268 146.57470703 122.51513672 C126.77971243 110.5271616 106.07249302 101.83365808 84 95 C82.50256297 94.52226454 81.00516555 94.04440487 79.5078125 93.56640625 C70.48588418 90.74244435 61.49505837 88.79475871 52.15820312 87.34716797 C50.03052025 87.00490948 47.91495783 86.61967409 45.796875 86.22265625 C30.40706095 83.49001259 15.93333209 83.02795691 0 82 C0 54.94 0 27.88 0 0 Z " fill="#135403" transform="translate(370,0)"/>
<path d="M0 0 C27.06 0 54.12 0 82 0 C82.99 16.335 82.99 16.335 84 33 C95.53156873 110.51776757 132.56480571 181.48650036 196 229 C196.5455957 229.41314453 197.09119141 229.82628906 197.65332031 230.25195312 C207.92769335 237.99300314 218.85699491 244.59198924 230 251 C230.70995117 251.41137207 231.41990234 251.82274414 232.15136719 252.24658203 C244.85244012 259.53272955 258.31066854 264.8665007 272 270 C272.81082031 270.30566895 273.62164062 270.61133789 274.45703125 270.92626953 C305.42246153 282.41628799 337.13705524 285.0668856 370 287 C370 314.06 370 341.12 370 369 C314.5216806 369 262.21276195 358.99614366 212 335 C211.15163574 334.59700684 210.30327148 334.19401367 209.42919922 333.77880859 C183.51726206 321.38452169 159.20431178 306.25002746 137 288 C136.46745605 287.56510254 135.93491211 287.13020508 135.38623047 286.68212891 C119.56307838 273.71146615 104.26577232 259.59405073 91 244 C90.14148438 243.030625 89.28296875 242.06125 88.3984375 241.0625 C29.97586723 174.7937401 0 87.67255831 0 0 Z " fill="#135403" transform="translate(0,370)"/>
<path d="M0 0 C0 27.06 0 54.12 0 82 C-15.84 82.99 -15.84 82.99 -32 84 C-86.09957649 90.76244706 -138.92477969 110.5538345 -181 146 C-181.60312012 146.50305664 -182.20624023 147.00611328 -182.82763672 147.52441406 C-188.9871136 152.67191996 -195.05951594 157.83729588 -200.62890625 163.62890625 C-202 165 -202 165 -204.5 166.9375 C-207.3776971 169.31160011 -209.66134308 171.93298148 -212.07421875 174.76953125 C-213.33705565 176.23216791 -214.63091857 177.66869813 -215.95703125 179.07421875 C-240.42164803 205.08205811 -258.97237022 238.58991727 -271 272 C-271.2671582 272.72348633 -271.53431641 273.44697266 -271.80957031 274.19238281 C-276.6872904 287.49033486 -280.02158872 301.16584924 -283 315 C-283.17160645 315.78858398 -283.34321289 316.57716797 -283.52001953 317.38964844 C-287.13463916 334.6789941 -287.02395122 352.43112201 -288 370 C-315.06 370 -342.12 370 -370 370 C-370 338.75330605 -370 338.75330605 -368.75 329.25 C-368.61432617 328.14261475 -368.47865234 327.03522949 -368.33886719 325.89428711 C-367.92034009 322.5916548 -367.46944841 319.2957504 -367 316 C-366.86078125 315.02111816 -366.7215625 314.04223633 -366.578125 313.03369141 C-356.96027996 247.8794703 -328.77202868 184.21378367 -286 134 C-285.02063014 132.83480618 -284.0414771 131.66943008 -283.0625 130.50390625 C-278.16647304 124.70468387 -273.2375021 119.05884661 -267.77734375 113.77734375 C-265.98951951 111.98951951 -264.37465432 110.1238386 -262.75 108.1875 C-257.96153054 102.64238751 -252.47720704 97.84478726 -247 93 C-246.45424316 92.5148291 -245.90848633 92.0296582 -245.34619141 91.52978516 C-189.46941989 42.05573051 -120.54490465 12.25943458 -47 2 C-46.11538086 1.87012695 -45.23076172 1.74025391 -44.31933594 1.60644531 C-29.45856937 -0.53364895 -15.18438062 0 0 0 Z " fill="#1901AD" transform="translate(370,0)"/>
<path d="M0 0 C1.65866089 0.27686646 1.65866089 0.27686646 3.35083008 0.55932617 C17.5746417 3.16204532 32.10091837 8.51737593 41.875 19.625 C43.36864192 22.12857526 44.59207311 24.72960194 45.8125 27.375 C51.03873338 38.2259876 51.03873338 38.2259876 58.8125 47.3125 C62.42975908 50.67475648 64.18410632 55.0431246 66.25830078 59.43115234 C68.72414246 64.55884202 71.5837736 69.9793868 76.875 72.625 C74.875 76.625 74.875 76.625 73.828125 78.40234375 C71.91268072 82.869097 72.31779545 87.87310955 72.875 92.625 C73.81086352 94.68009377 73.81086352 94.68009377 75.0625 96.375 C75.660625 97.4475 76.25875 98.52 76.875 99.625 C76.19690083 101.60570912 75.50498939 103.58421492 74.70532227 105.51904297 C73.51206684 108.54551204 72.9136747 111.63155411 72.25 114.8125 C70.45608181 122.93811287 68.01241159 130.82110632 65.5 138.75 C62.69222603 147.61902748 60.02796881 156.47968175 57.75 165.5 C55.07064123 176.07253003 52.04698253 186.50747883 48.73974609 196.90087891 C48.18264345 198.65586234 47.63290407 200.41320877 47.09228516 202.17333984 C43.79356754 212.86186288 39.54697411 222.79348962 34.4375 232.75 C33.9120459 233.78108887 33.3865918 234.81217773 32.84521484 235.87451172 C28.40813823 244.26261513 23.53185017 253.10325456 14.875 257.625 C6.40731529 259.1365061 -4.86811954 257.14942097 -12.31640625 252.9375 C-20.54367961 246.96695173 -24.37883812 238.57140787 -26 228.75 C-26.70481365 224.72694864 -28.00881979 221.65975852 -29.9375 218.0625 C-32.51869246 213.16517641 -34.32939373 208.35424669 -35.875 203.0625 C-36.07327393 202.39081787 -36.27154785 201.71913574 -36.47583008 201.02709961 C-39.22017969 191.26641367 -40.42624536 181.74051288 -40.5390625 171.61328125 C-40.55842865 170.51904343 -40.5777948 169.4248056 -40.5977478 168.29740906 C-40.65694571 164.8441823 -40.70368744 161.39092111 -40.75 157.9375 C-40.78823491 155.57876248 -40.82728974 153.2200381 -40.8671875 150.86132812 C-40.96259714 145.11600312 -41.04781467 139.37059723 -41.125 133.625 C-40.33125977 133.2535083 -39.53751953 132.8820166 -38.71972656 132.49926758 C-32.72634373 129.61446116 -27.66504279 126.93146983 -22.875 122.3125 C-22.37887207 121.83522461 -21.88274414 121.35794922 -21.37158203 120.86621094 C-19.93776845 119.4710233 -18.53059354 118.04861397 -17.125 116.625 C-16.40570313 115.90441406 -15.68640625 115.18382812 -14.9453125 114.44140625 C-6.69054741 105.67279032 -0.32361229 95.11435963 5.5 84.625 C5.84289062 84.02671387 6.18578125 83.42842773 6.5390625 82.81201172 C8.79457202 78.60290203 9.29244895 75.35990044 8.875 70.625 C7.55907862 67.57760312 6.23008251 65.9383081 3.75 63.75 C-0.2845782 62.17125201 -4.00205089 62.2752689 -8.125 63.625 C-12.34776382 66.87519814 -14.38655256 71.50387414 -16.8125 76.125 C-20.99507908 83.87716036 -25.58344543 90.75925869 -31.125 97.625 C-31.77855469 98.52412109 -31.77855469 98.52412109 -32.4453125 99.44140625 C-36.63277291 105.04908925 -43.60687349 110.03980321 -50.125 112.625 C-57.17925334 113.52212727 -63.75686618 113.44974545 -69.81640625 109.48046875 C-82.41958066 99.35101385 -90.55369125 87.22278659 -97.73828125 72.83203125 C-99.30185873 70.34352061 -100.57878169 69.08663172 -103.125 67.625 C-107.96462271 66.73853445 -112.58818577 66.8405481 -116.75 69.625 C-117.925625 70.615 -117.925625 70.615 -119.125 71.625 C-121.0878459 52.21463502 -111.10709329 26.9717702 -101.125 10.625 C-98.66403705 8.38278151 -96.12512659 7.05363171 -93.125 5.625 C-92.02800781 5.06039063 -90.93101562 4.49578125 -89.80078125 3.9140625 C-61.3544603 -10.40017478 -30.30466856 -5.21403764 0 0 Z " fill="#6FC473" transform="translate(434.125,370.375)"/>
<path d="M0 0 C2.87212943 1.79774027 5.44263351 3.77981165 8 6 C8.64582031 6.55171875 9.29164063 7.1034375 9.95703125 7.671875 C29.37339581 25.59467306 37.95525261 55.27284767 39.29736328 80.85986328 C39.50324125 86.01065597 39.55954429 91.1579962 39.5625 96.3125 C39.56540039 97.12730835 39.56830078 97.9421167 39.57128906 98.78161621 C39.56681156 109.86174758 38.41439868 120.18010631 36 131 C35.85062988 131.6865416 35.70125977 132.37308319 35.54736328 133.08042908 C31.07765836 153.60992591 22.58199683 176.06603294 5.0625 188.9375 C-4.40335844 194.98634349 -12.6637879 197.40760062 -24 196 C-33.19373836 193.67360392 -39.48020021 188.69077356 -46 182 C-46.61359375 181.41863281 -47.2271875 180.83726562 -47.859375 180.23828125 C-61.51406785 166.30172548 -67.66142288 144.67399976 -71 126 C-71.18167725 124.98437988 -71.36335449 123.96875977 -71.55053711 122.92236328 C-72.95720778 114.21558913 -73.28155035 105.7463093 -73.20581055 96.95458984 C-73.18717193 94.71050006 -73.18530426 92.46681655 -73.18554688 90.22265625 C-73.14817389 79.29634778 -73.14817389 79.29634778 -72 77 C-72.99 77.33 -73.98 77.66 -75 78 C-78.71452627 78.03923795 -82.42590747 78.0612637 -86.140625 78.03515625 C-91.670277 79.41756925 -94.00309418 82.26642325 -97 87 C-98.6812253 90.60093903 -99.92880324 94.27625488 -101.125 98.0625 C-105.92895323 112.94671492 -105.92895323 112.94671492 -112 117.5 C-114.73137881 118.1828447 -116.35125554 117.95083135 -119 117 C-121.97710923 113.99987188 -122.68364776 110.83430661 -123.63305664 106.85522461 C-125.38607431 98.64744752 -125.38607431 98.64744752 -130.5625 92.4375 C-138.37050518 89.00959529 -147.64998929 90.82863967 -155.7265625 92.38671875 C-158.12566432 92.83619248 -160.54082311 93.20210007 -162.9609375 93.51953125 C-177.73339301 95.54954694 -184.61087941 103.47526182 -194.3190918 114.05639648 C-202.49948685 122.86979215 -212.28721493 131.96627974 -224.6875 133.4375 C-230.96517557 132.60837304 -234.96679204 129.7962473 -239 125 C-243.87218146 115.42964355 -244.37936568 104.3428257 -241.67578125 93.98828125 C-238.70703195 85.25363735 -230.83700754 80.29484054 -222.97827148 76.27050781 C-208.58573361 69.31597891 -193.13264177 66.50844519 -177.36376953 64.60668945 C-171.04618993 63.86411448 -171.04618993 63.86411448 -165.80859375 60.56640625 C-163.28228021 56.98155096 -163.37761769 55.35667614 -164 51 C-164.95406005 47.91670723 -165.99431354 44.89020338 -167.125 41.8671875 C-167.99808623 39.006271 -168.4099247 36.96170595 -168 34 C-161.89997713 29.93331809 -152.09439445 31.30255799 -145.01953125 32.6875 C-134.80894247 35.00832123 -124.87181568 38.54947359 -115 42 C-114.20722656 42.2769873 -113.41445313 42.55397461 -112.59765625 42.83935547 C-108.85470495 44.15045004 -105.11495058 45.47013532 -101.37890625 46.80078125 C-91.84945614 50.18290979 -83.01919211 49.71866773 -73.390625 46.734375 C-70.6233214 45.88428827 -67.86664689 45.38738472 -65 45 C-64.9071875 44.34128906 -64.814375 43.68257813 -64.71875 43.00390625 C-61.88534651 31.16212755 -54.80651009 20.14071364 -47 11 C-46.41476562 10.31421875 -45.82953125 9.6284375 -45.2265625 8.921875 C-33.49236478 -3.74885493 -15.57293092 -8.76657999 0 0 Z " fill="#FCFDFD" transform="translate(538,236)"/>
<path d="M0 0 C3.928629 1.77371765 7.99024511 1.21809538 11.97265625 -0.109375 C16.42647978 -0.37472285 20.88679954 -0.34099866 25.34765625 -0.359375 C26.56066406 -0.38 27.77367187 -0.400625 29.0234375 -0.421875 C44.06048238 -0.48606729 59.51047614 2.57721572 70.97265625 12.890625 C74.92198025 16.95048988 77.74576655 20.48559423 78.28515625 26.203125 C77.72316197 32.83465748 74.93622077 38.43282653 69.97265625 42.890625 C64.88208213 46.45743195 59.92044118 49.05520956 53.97265625 50.890625 C63.46775641 67.59329006 63.46775641 67.59329006 78.01171875 79.28515625 C87.82013822 84.60344174 93.48510712 100.08754233 97.97265625 109.890625 C98.34422852 110.70096191 98.71580078 111.51129883 99.09863281 112.34619141 C108.96802676 134.1027773 116.42695837 153.0411091 111.66015625 176.953125 C111.20126141 179.33582943 110.74292823 181.71864209 110.28515625 184.1015625 C110.06085938 185.25495117 109.8365625 186.40833984 109.60546875 187.59667969 C108.74366981 192.08255595 107.94278919 196.57786248 107.16015625 201.078125 C106.9748938 202.13688843 106.9748938 202.13688843 106.78588867 203.21704102 C106.51366249 204.77470203 106.24294373 206.33262642 105.97265625 207.890625 C73.31310224 196.22231037 43.96699835 177.45668795 18.421875 154.1171875 C16.8371709 152.67654741 15.23641786 151.2532843 13.6171875 149.8515625 C1.32556898 139.1440188 -9.25388182 126.89451091 -19.02734375 113.890625 C-19.48737793 113.28750488 -19.94741211 112.68438477 -20.42138672 112.06298828 C-42.22272894 83.45860382 -70.02734375 38.87823524 -70.02734375 1.890625 C-46.60220034 -9.08521241 -23.65770774 -12.94564354 0 0 Z " fill="#6FC473" transform="translate(159.02734375,430.109375)"/>
<path d="M0 0 C14.6562018 8.60761058 22.22016465 21.9720582 29 37 C29.40992188 37.88300781 29.81984375 38.76601563 30.2421875 39.67578125 C37.90925196 57.35757719 39.42951483 76.96010172 39.375 96 C39.37412384 96.75668976 39.37324768 97.51337952 39.37234497 98.29299927 C39.25717377 128.67229255 32.7736771 161.32843931 11 184 C3.14393797 191.51325205 -6.0419802 196.17798045 -17 196.625 C-29.34005904 196.09497544 -37.58684905 190.67038758 -46 182 C-46.82757813 181.18595703 -46.82757813 181.18595703 -47.671875 180.35546875 C-62.41932766 164.69621122 -68.95226331 140.69420017 -72 120 C-72.1023999 119.30720947 -72.2047998 118.61441895 -72.31030273 117.90063477 C-74.44888638 101.36591676 -74.0355027 83.38481572 -71 67 C-70.87109375 66.29262695 -70.7421875 65.58525391 -70.609375 64.85644531 C-66.27891975 41.71056297 -57.46855544 17.47750738 -38.06640625 2.77734375 C-26.22779397 -5.04545703 -12.77841678 -7.2225834 0 0 Z " fill="#FCFDFD" transform="translate(235,236)"/>
<path d="M0 0 C10.21058878 2.32082123 20.14771557 5.86197359 30.01953125 9.3125 C30.81230469 9.5894873 31.60507812 9.86647461 32.421875 10.15185547 C36.1648263 11.46295004 39.90458067 12.78263532 43.640625 14.11328125 C53.11605943 17.4762389 62.0048394 17.08847746 71.58203125 14.06640625 C74.04482215 13.30467766 76.48582314 12.77852131 79.01953125 12.3125 C78.17192435 19.02515695 76.80224799 25.62188728 75.45703125 32.25 C75.22306641 33.41080078 74.98910156 34.57160156 74.74804688 35.76757812 C74.17362461 38.61624363 73.59740279 41.46453257 73.01953125 44.3125 C68.42535961 45.84389055 63.69820357 45.38152681 58.87890625 45.34765625 C53.34925425 46.73006925 51.01643707 49.57892325 48.01953125 54.3125 C46.33830595 57.91343903 45.09072801 61.58875488 43.89453125 65.375 C39.09057802 80.25921492 39.09057802 80.25921492 33.01953125 84.8125 C30.28815244 85.4953447 28.66827571 85.26333135 26.01953125 84.3125 C23.04242202 81.31237188 22.33588349 78.14680661 21.38647461 74.16772461 C19.63345694 65.95994752 19.63345694 65.95994752 14.45703125 59.75 C6.64902607 56.32209529 -2.63045804 58.14113967 -10.70703125 59.69921875 C-13.10613307 60.14869248 -15.52129186 60.51460007 -17.94140625 60.83203125 C-32.71386176 62.86204694 -39.59134816 70.78776182 -49.29956055 81.36889648 C-57.4799556 90.18229215 -67.26768368 99.27877974 -79.66796875 100.75 C-85.94564432 99.92087304 -89.94726079 97.1087473 -93.98046875 92.3125 C-98.85265021 82.74214355 -99.35983443 71.6553257 -96.65625 61.30078125 C-93.6875007 52.56613735 -85.81747629 47.60734054 -77.95874023 43.58300781 C-63.56620236 36.62847891 -48.11311052 33.82094519 -32.34423828 31.91918945 C-26.02665868 31.17661448 -26.02665868 31.17661448 -20.7890625 27.87890625 C-18.26274896 24.29405096 -18.35808644 22.66917614 -18.98046875 18.3125 C-19.9345288 15.22920723 -20.97478229 12.20270338 -22.10546875 9.1796875 C-22.97855498 6.318771 -23.39039345 4.27420595 -22.98046875 1.3125 C-16.88044588 -2.75418191 -7.0748632 -1.38494201 0 0 Z " fill="#6FC473" transform="translate(392.98046875,268.6875)"/>
<path d="M0 0 C13.68874934 7.72131017 20.16904292 21.68179551 24.8671875 36.0390625 C31.88209857 61.65180261 29.57698459 91.49510205 16.875 115 C11.66232493 123.20012799 4.41789748 131.20294384 -5.125 134 C-12.87307995 135.16680053 -18.65861375 133.29271925 -25.125 129 C-38.58768782 118.55013143 -45.18476307 99.72973079 -47.66015625 83.3984375 C-50.68252542 58.65957453 -47.89370408 30.78457611 -32.25 10.578125 C-23.84141038 0.52723273 -12.96872914 -5.97323228 0 0 Z " fill="#020202" transform="translate(234.125,278)"/>
<path d="M0 0 C10.65545343 7.17065105 16.42145617 17.2058266 20.734375 28.984375 C20.98082764 29.64695312 21.22728027 30.30953125 21.48120117 30.9921875 C25.23776748 41.85805231 25.85042096 53.13843557 25.796875 64.546875 C25.79268555 65.77341797 25.78849609 66.99996094 25.78417969 68.26367188 C25.67405974 77.09669757 24.97244467 85.15667105 22.484375 93.671875 C22.2059375 94.69539063 21.9275 95.71890625 21.640625 96.7734375 C17.73967868 109.78780151 11.44735347 122.73391188 -0.6484375 129.671875 C-1.26460937 130.001875 -1.88078125 130.331875 -2.515625 130.671875 C-3.32 131.105 -4.124375 131.538125 -4.953125 131.984375 C-11.54607014 133.75321394 -17.2438494 133.02984696 -23.32421875 129.984375 C-36.54991227 122.06310402 -43.64131816 107.2938435 -47.5546875 92.83203125 C-49.66991409 83.07907105 -49.78558704 73.2434648 -49.828125 63.296875 C-49.83658447 61.40775391 -49.83658447 61.40775391 -49.84521484 59.48046875 C-49.69378624 39.99494437 -44.92657942 20.03265861 -31.3046875 5.390625 C-22.08231511 -3.46929607 -11.55365122 -6.38680099 0 0 Z " fill="#020202" transform="translate(527.515625,279.328125)"/>
<path d="M0 0 C-5.79459205 7.84941193 -11.74533866 15.50871444 -18 23 C-18.44666016 23.53834473 -18.89332031 24.07668945 -19.35351562 24.63134766 C-22.5293774 28.45621853 -25.74779 32.23978783 -29 36 C-29.90685547 37.07314453 -29.90685547 37.07314453 -30.83203125 38.16796875 C-34.10659667 41.77716129 -37.25463666 43.71157191 -41.6875 45.75 C-53.58805062 51.35641518 -61.21612565 60.22829129 -66.375 72.1875 C-69.80538686 78.12470802 -75.34206786 81.97129931 -81.734375 84.3046875 C-95.89871419 87.32053962 -109.278158 85.50044913 -121.4375 77.6875 C-126.70879775 73.7570729 -129.41327322 70.38997696 -130.5625 63.75 C-129.48725826 56.58172173 -127.66797802 51.25858738 -121.99609375 46.45703125 C-118.13994643 43.73406185 -114.07587179 41.37457539 -110 39 C-108.50929937 38.09558903 -107.01973483 37.18930313 -105.53125 36.28125 C-77.0813341 19.14677861 -45.86687418 6.87511632 -13.25 0.5 C-12.37472656 0.32758789 -11.49945313 0.15517578 -10.59765625 -0.02246094 C-9.78683594 -0.16973633 -8.97601563 -0.31701172 -8.140625 -0.46875 C-7.43454102 -0.59701172 -6.72845703 -0.72527344 -6.00097656 -0.85742188 C-3.78771576 -1.01512616 -2.11100392 -0.64644315 0 0 Z " fill="#6EC474" transform="translate(327,86)"/>
<path d="M0 0 C0.99 0.495 0.99 0.495 2 1 C3.61714531 8.12389504 4.06698248 15.47303586 4.4375 22.75 C4.68747438 27.22176393 5.15396681 31.1230727 6.5625 35.375 C9.18270687 43.40678991 8.68082979 48.14190057 4.875 55.8125 C3.61090053 58.22381414 2.31086823 60.61385737 1 63 C-2.44429332 69.37802081 -5.21867074 75.33894754 -7.0625 82.375 C-8.53852832 87.8842909 -9.70697821 91.21805223 -14 95 C-15.98387708 96.03161608 -17.98276656 97.03523618 -20 98 C-23.50190046 101.48447807 -23.90591863 105.70815703 -24.75 110.375 C-29.14000989 131.53246781 -42.16377355 145.293414 -59 158 C-59.79921875 158.61875 -60.5984375 159.2375 -61.421875 159.875 C-66.80729167 164 -66.80729167 164 -68 164 C-68.1832012 156.20886025 -67.82560592 148.80457914 -66.5 141.125 C-66.32694336 140.11397217 -66.15388672 139.10294434 -65.97558594 138.0612793 C-58.30552595 95.71909085 -41.54253319 54.75134081 -16 20 C-15.50790039 19.32743164 -15.01580078 18.65486328 -14.50878906 17.96191406 C-12.908732 15.78179957 -11.30044088 13.60809748 -9.6875 11.4375 C-9.18355713 10.75792236 -8.67961426 10.07834473 -8.16040039 9.37817383 C-5.6292221 6.00961325 -3.09166333 2.88604201 0 0 Z " fill="#6EC474" transform="translate(151,182)"/>
<path d="M0 0 C1.17240234 -0.01160156 2.34480469 -0.02320313 3.55273438 -0.03515625 C18.40360695 0.01404598 33.76003024 3.20529447 45.0625 13.375 C49.011824 17.43486488 51.8356103 20.96996923 52.375 26.6875 C51.8117929 33.33334383 49.01706416 38.8956938 44.0625 43.375 C27.55444257 55.34558052 6.45094817 57.56611302 -13.35546875 55.0703125 C-26.24375428 52.83482227 -38.66793389 47.84978374 -46.9375 37.375 C-50.01919636 32.45653098 -49.72937231 26.96849807 -48.9375 21.375 C-45.48776828 13.32109878 -37.02822487 8.4961166 -29.5625 4.625 C-19.62201223 1.1972456 -10.50847218 -0.10364521 0 0 Z " fill="#F097AF" transform="translate(184.9375,429.625)"/>
<path d="M0 0 C4.51140355 4.14009462 6.39797641 7.78099847 6.75 13.9375 C6.37249248 20.31496752 4.47986302 24.46774093 0 29 C-13.08414927 40.07120322 -30.48564936 42.35900762 -47 42 C-48.14210938 41.98324219 -49.28421875 41.96648437 -50.4609375 41.94921875 C-64.08705939 41.40355025 -78.24023581 37.87755948 -88.05859375 27.91015625 C-93.30359384 22.07417024 -94.36782868 18.886543 -94.2734375 10.9765625 C-93.77198845 5.51793137 -90.78626491 2.61037486 -87 -1 C-64.02050413 -19.5885094 -22.79513474 -18.35563284 0 0 Z " fill="#F097B0" transform="translate(600,443)"/>
<path d="M0 0 C5.74553396 0.04084503 11.17347085 0.8853107 16.77685547 2.04418945 C20.21932676 2.75283677 23.62214642 3.36802619 27.1171875 3.75390625 C27.79031982 3.82883301 28.46345215 3.90375977 29.15698242 3.98095703 C31.01352082 4.17580029 32.87197167 4.3521658 34.73046875 4.52734375 C38.4241629 5.35966216 40.23179538 6.64322425 42.9375 9.25 C45.19498273 13.76496546 44.39962123 19.38895743 43.21875 24.14453125 C39.73864149 34.40243173 34.41749433 39.01803086 25.375 44.5 C24.52486328 45.02851563 23.67472656 45.55703125 22.79882812 46.1015625 C16.57361616 49.94898762 16.57361616 49.94898762 13.71899414 51.29980469 C11.78782299 52.10481951 11.78782299 52.10481951 11.0625 54.0625 C9.3546429 57.38333325 6.91839556 59.01432833 3.9375 61.25 C3.2775 61.25 2.6175 61.25 1.9375 61.25 C1.4425 62.24 1.4425 62.24 0.9375 63.25 C0.009375 62.198125 0.009375 62.198125 -0.9375 61.125 C-7.92923504 54.13326496 -16.95755577 49.98648127 -26.8125 49.875 C-38.58528101 50.0975946 -45.3223783 54.78256269 -54.0625 62.25 C-55.38764831 63.26082132 -56.71819901 64.26479311 -58.0625 65.25 C-62.88814776 55.01123432 -64.90001441 38.40994991 -63.0625 27.25 C-61.68569213 24.43308275 -60.52987076 23.31570575 -58.0625 21.25 C-55.22700548 20.30483516 -53.24537842 20.07906748 -50.29296875 19.9609375 C-39.33410807 19.38149715 -29.16921206 18.18996973 -18.6875 14.8125 C-17.2802063 14.36173096 -17.2802063 14.36173096 -15.84448242 13.90185547 C-10.61744404 12.26560346 -10.61744404 12.26560346 -7.0625 8.25 C-6.70108045 5.92085177 -6.36550475 3.58746522 -6.0625 1.25 C-4.37150929 -0.44099071 -2.3204479 0.03747695 0 0 Z " fill="#6FC473" transform="translate(245.0625,182.75)"/>
<path d="M0 0 C3.36105235 1.7505481 6.12901285 3.8639298 8.4375 6.875 C10.09013471 13.11828669 8.61230877 17.77367 5.5 23.1875 C5.1383374 23.83750977 4.7766748 24.48751953 4.40405273 25.15722656 C-7.0328535 45.40910041 -22.49047089 67.13449664 -45.63745117 74.42651367 C-49.55687382 75.37791636 -53.35647686 75.48929887 -57.375 75.4375 C-58.20572021 75.42992676 -59.03644043 75.42235352 -59.89233398 75.41455078 C-66.5520517 75.23650779 -72.0450287 74.09386945 -78 71 C-78.81210937 70.59910156 -79.62421875 70.19820313 -80.4609375 69.78515625 C-98.6721938 59.87524549 -114.33947402 39.51299821 -121 20 C-121.74592721 13.28665511 -121.74592721 13.28665511 -119.94921875 10.1875 C-117.52005816 7.20658317 -115.67650163 5.18100283 -111.79296875 4.76171875 C-110.93316406 4.73722656 -110.07335937 4.71273438 -109.1875 4.6875 C-108.33542969 4.65011719 -107.48335938 4.61273438 -106.60546875 4.57421875 C-102.97042019 5.16825217 -101.58743457 6.36767304 -99 9 C-97.20190685 11.77774138 -95.69980769 14.68423416 -94.1875 17.625 C-90.39863481 24.7014083 -86.44342024 31.04867442 -81 37 C-80.35417969 37.72574219 -79.70835937 38.45148438 -79.04296875 39.19921875 C-72.76846042 45.89450279 -66.94600294 50.19189245 -57.5625 50.6875 C-50.77235012 50.42542404 -46.30980716 48.07583789 -41 44 C-40.17628906 43.38511719 -39.35257812 42.77023437 -38.50390625 42.13671875 C-29.50255967 34.45538243 -23.74748156 23.50533905 -18.19897461 13.24829102 C-13.87431225 5.35488231 -10.07828493 -1.16287903 0 0 Z " fill="#000201" transform="translate(435,432)"/>
<path d="M0 0 C3.55289982 1.33494475 5.07726924 3.09799558 7.125 6.25 C7.87136719 7.37148438 7.87136719 7.37148438 8.6328125 8.515625 C13.87867259 18.0481022 13.31592793 30.85401163 11.3828125 41.3515625 C9.28674364 47.34298058 5.41395863 51.70545928 0 55 C-3.125 55.75 -3.125 55.75 -6 55 C-13.40838415 50.25863415 -15.95816038 43.32442306 -18 35 C-18.96954189 24.04192185 -18.54160833 13.41450962 -11.4375 4.4375 C-7.55787054 0.55787054 -5.43151616 -0.44338907 0 0 Z " fill="#FAFAFA" transform="translate(238,296)"/>
<path d="M0 0 C5.45408848 3.30199167 9.29205435 7.69787922 11.37890625 13.7265625 C12.22452848 18.18336395 12.39095395 22.53298774 12.4375 27.0625 C12.4478125 27.90127686 12.458125 28.74005371 12.46875 29.60424805 C12.35896158 37.39083895 10.95055816 44.68926052 5.4375 50.5 C4.53837891 51.47453125 4.53837891 51.47453125 3.62109375 52.46875 C1.44574457 54.52353766 0.24079026 54.96716496 -2.75 55.375 C-6.99183509 54.88555749 -9.23706637 53.08293442 -12 50 C-18.31323805 40.88087837 -18.80187829 30.86853503 -18 20 C-16.64780127 12.64680254 -13.9596151 6.9596151 -8.625 1.625 C-5.24589112 -0.46682931 -3.91157723 -0.84367352 0 0 Z " fill="#FBFBFB" transform="translate(507,296)"/>
<path d="M0 0 C2 2 2 2 2.36328125 5.10546875 C1.91896386 9.86874223 0.39920758 13.13310861 -1.8125 17.3125 C-2.34713867 18.38467773 -2.34713867 18.38467773 -2.89257812 19.47851562 C-5.58753135 24.7250209 -5.58753135 24.7250209 -9 27 C-10.56781465 24.2641322 -12.09937632 21.50958401 -13.625 18.75 C-14.07101562 17.97269531 -14.51703125 17.19539063 -14.9765625 16.39453125 C-15.3890625 15.64042969 -15.8015625 14.88632812 -16.2265625 14.109375 C-16.61408691 13.41811523 -17.00161133 12.72685547 -17.40087891 12.01464844 C-18 10 -18 10 -17.26245117 7.84960938 C-15.49104291 5.25433013 -13.4428379 4.22647335 -10.6875 2.75 C-9.74261719 2.22921875 -8.79773438 1.7084375 -7.82421875 1.171875 C-4.91014479 -0.03728432 -3.11327424 -0.40724413 0 0 Z " fill="#6EC476" transform="translate(274,249)"/>
<path d="M0 0 C1.19496094 0.72316406 1.19496094 0.72316406 2.4140625 1.4609375 C3.47367187 2.09257812 4.53328125 2.72421875 5.625 3.375 C7.19121094 4.31472656 7.19121094 4.31472656 8.7890625 5.2734375 C16.40765321 9.37005197 23.46494517 9.82536794 32 9 C34.80378538 8.09224703 37.30502038 7.04208833 39.9140625 5.6796875 C42 5 42 5 44.2109375 5.7578125 C46 7 46 7 47 9 C45.96101562 9.23074219 44.92203125 9.46148437 43.8515625 9.69921875 C33.10958296 12.17516121 24.05366941 15.56712963 15 22 C7.68053987 16.81538241 3.90304548 9.90746876 0 2 C0 1.34 0 0.68 0 0 Z " fill="#09A9E6" transform="translate(496,422)"/>
<path d="M0 0 C0.66 0.33 1.32 0.66 2 1 C-7.9 10.9 -17.8 20.8 -28 31 C-28.66 30.67 -29.32 30.34 -30 30 C-29.35933594 29.3709375 -28.71867187 28.741875 -28.05859375 28.09375 C-22.15235108 22.25453248 -22.15235108 22.25453248 -16.625 16.0625 C-11.91751961 10.54026339 -6.38997517 5.83737519 -1 1 C-0.67 0.67 -0.34 0.34 0 0 Z " fill="#5B4BC4" transform="translate(124,92)"/>
<path d="M0 0 C1.6875 1.3125 1.6875 1.3125 2.6875 3.3125 C-0.9425 3.9725 -4.5725 4.6325 -8.3125 5.3125 C-8.3125 4.3225 -8.3125 3.3325 -8.3125 2.3125 C-2.92660788 -0.87007261 -2.92660788 -0.87007261 0 0 Z " fill="#1CAAE4" transform="translate(540.3125,427.6875)"/>
<path d="M0 0 C7.425 0.99 7.425 0.99 15 2 C14.01 2.33 13.02 2.66 12 3 C12 3.66 12 4.32 12 5 C7.71 4.01 3.42 3.02 -1 2 C-0.67 1.34 -0.34 0.68 0 0 Z " fill="#22A9E3" transform="translate(205,430)"/>
</svg>
