<?xml version="1.0" encoding="UTF-8"?>
<svg version="1.1" xmlns="http://www.w3.org/2000/svg" width="521" height="492">
<path d="M0 0 C0.5053125 0.46567383 1.010625 0.93134766 1.53125 1.41113281 C6.01046783 5.96691099 6.01046783 5.96691099 11.8359375 7.49707031 C14.20838252 6.7347765 16.19607443 5.80005004 18.34375 4.54394531 C22.6715171 2.43554595 26.09518084 2.43376038 30.828125 2.54003906 C34.09540915 2.54511249 37.12933837 2.10297342 40.34375 1.54394531 C39.09681085 -5.31422 36.4545538 -9.87938287 32.34375 -15.45605469 C31.663125 -16.44605469 30.9825 -17.43605469 30.28125 -18.45605469 C27.90531098 -20.9086369 26.70571395 -21.13307125 23.34375 -21.45605469 C16.20584087 -19.45927625 11.83709937 -15.32620618 7.71875 -9.34667969 C6.34375 -7.45605469 6.34375 -7.45605469 4.34375 -6.45605469 C-1.99742647 -5.99487822 -1.99742647 -5.99487822 -4.53125 -7.76855469 C-5.65625 -9.45605469 -5.65625 -9.45605469 -6.65625 -12.45605469 C-3.35278605 -20.4616266 2.58253277 -32.0469044 10.34375 -36.45605469 C18.61488693 -37.47353582 26.82550034 -36.76324601 34.28125 -32.95605469 C42.98598315 -25.85015007 53.37386817 -15.03143345 54.55859375 -3.33496094 C54.7857745 2.05376634 54.05883535 5.86276368 51.34375 10.54394531 C44.77102469 15.98991772 35.62914627 15.86383132 27.515625 16.29785156 C24.96843943 16.49547803 22.7778977 16.81490603 20.34375 17.54394531 C21.1790625 18.56101562 21.1790625 18.56101562 22.03125 19.59863281 C23.64122802 21.5621533 25.24774154 23.52851748 26.8515625 25.49707031 C28.33393893 27.30938005 29.82542207 29.11439616 31.3359375 30.90332031 C63.89745989 70.08523522 76.68375428 121.39005271 73.12841797 171.58398438 C69.18212276 214.22194437 49.67676752 254.66229022 20.34375 285.54394531 C19.85455078 286.06569336 19.36535156 286.58744141 18.86132812 287.125 C5.78186698 300.9969132 -8.91911017 312.40582653 -25.65625 321.54394531 C-26.58074951 322.05151367 -26.58074951 322.05151367 -27.52392578 322.56933594 C-45.20154698 332.14261669 -63.92569963 338.76130961 -83.65625 342.54394531 C-84.50171387 342.70765625 -85.34717773 342.87136719 -86.21826172 343.04003906 C-135.31869811 352.10877068 -187.77514341 341.04758087 -228.94628906 312.75878906 C-233.00551981 309.87490382 -236.91842037 306.80476835 -240.81640625 303.70800781 C-243.35106943 301.77650382 -245.88949854 300.11769385 -248.65625 298.54394531 C-248.82640625 299.23101562 -248.9965625 299.91808594 -249.171875 300.62597656 C-249.41421875 301.52703125 -249.6565625 302.42808594 -249.90625 303.35644531 C-250.13828125 304.24976563 -250.3703125 305.14308594 -250.609375 306.06347656 C-251.83158209 308.95937768 -252.94655495 310.00070947 -255.65625 311.54394531 C-258.40957199 311.40963692 -260.10092446 310.86948097 -262.46875 309.48144531 C-264.45322367 306.24361985 -264.18567554 303.1663306 -263.65625 299.54394531 C-262.49479891 295.14953731 -261.12477237 290.84461797 -259.65625 286.54394531 C-261.63625 284.89394531 -263.61625 283.24394531 -265.65625 281.54394531 C-265.98625 281.87394531 -266.31625 282.20394531 -266.65625 282.54394531 C-269.89189219 282.9659856 -272.48710519 283.23142492 -275.38427734 281.52783203 C-277.13306869 280.09101229 -278.73965155 278.57793239 -280.34375 276.98144531 C-280.89869141 276.46775391 -281.45363281 275.9540625 -282.02539062 275.42480469 C-286.40200612 271.2355354 -290.16818589 266.84397513 -291.08203125 260.66503906 C-291.04464844 259.77945312 -291.00726563 258.89386719 -290.96875 257.98144531 C-290.94425781 257.09328125 -290.91976562 256.20511719 -290.89453125 255.29003906 C-290.65625 252.54394531 -290.65625 252.54394531 -289.82421875 249.86425781 C-289.5549598 244.54169722 -292.23057625 240.61470258 -294.65625 235.98144531 C-303.03071848 219.19517591 -308.33755513 202.41499253 -311.28173828 183.89697266 C-311.61171905 181.82372975 -311.97333692 179.75557506 -312.33984375 177.68847656 C-319.78738002 129.76743287 -306.46566763 78.55870872 -278.13110352 39.43823242 C-247.33069328 -2.01375929 -203.38311456 -30.91360778 -152.00927734 -39.08154297 C-149.93603444 -39.41152373 -147.86787974 -39.77314161 -145.80078125 -40.13964844 C-96.30601211 -47.83176154 -38.12473281 -33.51649565 0 0 Z " fill="#03A7E7" transform="translate(379.65625,99.4560546875)"/>
<path d="M0 0 C17.80448487 9.04333791 32.10988933 21.84390849 46 36 C46.45890625 35.60167969 46.9178125 35.20335937 47.390625 34.79296875 C48.65660631 33.69986304 49.92903144 32.61418603 51.20703125 31.53515625 C52.48678205 30.43942191 53.72683221 29.29661399 54.9375 28.125 C58.36828019 26.25366535 61.12641718 26.63108735 65 27 C66.71484375 28.0625 66.71484375 28.0625 68 30 C68.46875 33.3984375 68.46875 33.3984375 68.5 37.375 C68.54640625 39.33566406 68.54640625 39.33566406 68.59375 41.3359375 C67.85889178 45.87078625 66.59472476 47.2231761 63 50 C60.1875 51.3125 60.1875 51.3125 58 52 C58.556875 52.93457031 59.11375 53.86914062 59.6875 54.83203125 C70.49774327 73.30221305 77.72843255 92.00979078 80.75 113.25 C80.94203003 114.59831909 80.94203003 114.59831909 81.13793945 115.97387695 C81.96511244 122.34118529 82.13901837 128.58352995 82 135 C77.87820386 133.62606795 76.21082972 130.72291934 73.6875 127.375 C72.70003076 126.09572696 71.71175745 124.81707417 70.72265625 123.5390625 C70.25102051 122.92579102 69.77938477 122.31251953 69.29345703 121.68066406 C64.27642824 114.89061963 64.27642824 114.89061963 57 111 C54.01181726 110.68602561 54.01181726 110.68602561 50.9375 110.75 C49.40416016 110.74226563 49.40416016 110.74226563 47.83984375 110.734375 C45.0390422 110.99634818 43.38409096 111.55925438 41 113 C41.57381478 116.32812571 42.59380748 117.69842455 45 120 C45 120.66 45 121.32 45 122 C45.556875 122.268125 46.11375 122.53625 46.6875 122.8125 C49.19712523 124.10122647 51.59334236 125.52926478 54 127 C51.88211113 135.29506476 48.37139756 142.66229696 44 150 C44.81984375 150.31453125 45.6396875 150.6290625 46.484375 150.953125 C47.56203125 151.38109375 48.6396875 151.8090625 49.75 152.25 C51.35101563 152.87648438 51.35101563 152.87648438 52.984375 153.515625 C56.06919332 155.03405889 57.88990506 156.29847702 60 159 C60.80011842 162.08459447 60.63173008 164.88607384 60 168 C58 170.75 58 170.75 55 173 C54.43023437 173.43054688 53.86046875 173.86109375 53.2734375 174.3046875 C44.55765775 180.36627918 34.44528317 182.05564032 24 181 C19.17467038 179.97723992 15.11613695 178.7440913 11 176 C11.04133057 176.89960449 11.04133057 176.89960449 11.08349609 177.81738281 C11.30038233 186.62002882 9.98650085 195.08902402 8.625 203.75 C8.28840195 205.93788734 7.95414555 208.12612198 7.62034607 210.31443787 C7.4003519 211.75541942 7.17922023 213.19622779 6.95692444 214.63685608 C6.03088783 220.67387676 5.22717684 226.722748 4.46118164 232.78198242 C2.9930886 243.02599213 -0.69700546 252.14158867 -6 261 C-10.47375675 263.9825045 -14.75456808 263.48095651 -20 263 C-26.67236145 260.69500241 -29.37224905 256.38588542 -32.4375 250.3125 C-32.85644531 249.44238281 -33.27539062 248.57226562 -33.70703125 247.67578125 C-34.55069416 245.92983234 -35.4220776 244.19693199 -36.32421875 242.48046875 C-42.18869508 231.29745834 -44.26872564 220.61994301 -43.875 208 C-43.82017932 204.97938026 -43.91356473 204.14766025 -45.5 201.4375 C-45.995 200.963125 -46.49 200.48875 -47 200 C-47.721875 200.350625 -48.44375 200.70125 -49.1875 201.0625 C-52.39178572 202.13059524 -53.81067055 201.98133214 -57 201 C-57.66 200.62875 -58.32 200.2575 -59 199.875 C-61.78058119 198.65849573 -63.14684611 199.02575233 -66 200 C-67.175625 200.99 -67.175625 200.99 -68.375 202 C-71.70257317 204.53529384 -73.83258284 205 -78 205 C-80.6875 203 -80.6875 203 -83 201 C-86.05191378 201.17439507 -86.81258515 201.81258515 -89 204 C-89.71927295 206.31765729 -90.3909893 208.65095874 -91 211 C-92.65 211.33 -94.3 211.66 -96 212 C-97.33187305 207.69776259 -96.55607704 204.14953878 -95 200 C-91.90322581 195.4516129 -91.90322581 195.4516129 -89 194 C-83.71089889 193.59746664 -78.78709845 193.44688083 -74 196 C-73.34 195.34 -72.68 194.68 -72 194 C-73.71289976 193.26110207 -75.42653751 192.5238504 -77.14453125 191.796875 C-78.5676851 191.18566787 -79.97524427 190.53804219 -81.375 189.875 C-84.59137034 188.80287655 -87.63730068 188.61721627 -91.01171875 188.44140625 C-93 188 -93 188 -95 185 C-96.67936042 178.55456741 -95.92466895 174.04256126 -93.1796875 168.1171875 C-91.29176747 163.12857763 -90.43456406 157.92522936 -89.48364258 152.68774414 C-88.44078974 147.21458016 -87.46197303 142.88869772 -82.8359375 139.33984375 C-80.23990076 137.86051488 -77.63519875 136.40853502 -75 135 C-73.94619141 134.38898438 -73.94619141 134.38898438 -72.87109375 133.765625 C-65.94180652 130.13662448 -58.67112846 130.16185238 -51 130 C-49.7919873 129.96132813 -49.7919873 129.96132813 -48.55957031 129.921875 C-26.50660386 129.24669807 -26.50660386 129.24669807 -17 134 C-17.25394531 133.44054687 -17.50789063 132.88109375 -17.76953125 132.3046875 C-22.38113999 121.56153906 -24.64437741 110.69425672 -24 99 C-28.52014941 99.30462533 -28.52014941 99.30462533 -32.6015625 101.04296875 C-34.74834311 104.04726228 -35.29511526 107.45045084 -36.0625 111 C-37.75249833 118.6287475 -37.75249833 118.6287475 -40 122 C-42.625 122.1875 -42.625 122.1875 -45 122 C-45.33773437 121.37351563 -45.67546875 120.74703125 -46.0234375 120.1015625 C-46.69246094 118.87566406 -46.69246094 118.87566406 -47.375 117.625 C-48.03628906 116.40683594 -48.03628906 116.40683594 -48.7109375 115.1640625 C-49.9443893 112.89185698 -49.9443893 112.89185698 -52 111 C-59.82881041 110.39402466 -68.01153388 112.40371795 -75 116 C-78.34356954 118.96246359 -80.57693691 122.27482357 -83 126 C-84.24395166 127.50184408 -85.51358551 128.98293047 -86.8125 130.4375 C-87.35519531 131.05496094 -87.89789063 131.67242187 -88.45703125 132.30859375 C-88.96621094 132.86675781 -89.47539062 133.42492187 -90 134 C-90.47050781 134.54914063 -90.94101563 135.09828125 -91.42578125 135.6640625 C-94.42369454 138.20819735 -98.19677286 138.21388975 -102 138 C-105.34778473 136.21926344 -106.59625987 134.78825454 -108.3125 131.4375 C-109.40514818 125.97425911 -110.47777211 120.17268624 -108.04296875 114.9453125 C-101.6631101 106.67172059 -90.66436971 103.29493331 -81.1640625 100.078125 C-78.39954736 99.13614206 -75.69960002 98.11219477 -73 97 C-72.81463902 92.9220585 -73.15234688 90.57982791 -75 87 C-75.125 84.25 -75.125 84.25 -75 82 C-68.35536247 78.67768123 -57.30606155 80.9709833 -50.375 82.5 C-42.43653889 84.24745999 -33.99649006 85.42146066 -26 83.25 C-21.86485168 80.14863876 -20.76190645 76.59971215 -19.04296875 71.8125 C-18 69 -18 69 -16 66 C-16.81984375 65.96261719 -17.6396875 65.92523438 -18.484375 65.88671875 C-19.56203125 65.82097656 -20.6396875 65.75523437 -21.75 65.6875 C-22.81734375 65.62949219 -23.8846875 65.57148438 -24.984375 65.51171875 C-28.1821068 64.96909846 -29.62598691 64.14928855 -32 62 C-31.67 60.35 -31.34 58.7 -31 57 C-27.53058454 57.45822468 -24.32604951 57.89131683 -21 59 C-20.690625 58.195625 -20.38125 57.39125 -20.0625 56.5625 C-19 54 -19 54 -18 53 C-17.49830585 50.16926564 -17.49830585 50.16926564 -18 47 C-21.59187347 42.29340717 -26.75097898 39.22191719 -31.57421875 35.8671875 C-35.38865835 32.93111322 -36.23532345 30.35486268 -37.125 25.8125 C-38.78150881 18.75508226 -41.90680526 12.73989807 -45.2578125 6.37109375 C-47.69937194 1.64673098 -48.97664089 -2.67677054 -48 -8 C-36.50624752 -20.1150364 -12.29559035 -6.05849447 0 0 Z " fill="#6FC473" transform="translate(328,117)"/>
<path d="M0 0 C1.07330845 0.94357483 2.13659679 1.89872122 3.1875 2.8671875 C7.66671783 7.42296568 7.66671783 7.42296568 13.4921875 8.953125 C15.86463252 8.19083119 17.85232443 7.25610473 20 6 C24.3277671 3.89160064 27.75143084 3.88981506 32.484375 3.99609375 C35.75165915 4.00116717 38.78558837 3.55902811 42 3 C40.75306085 -3.85816532 38.1108038 -8.42332818 34 -14 C33.319375 -14.99 32.63875 -15.98 31.9375 -17 C29.56156098 -19.45258221 28.36196395 -19.67701656 25 -20 C17.86209087 -18.00322156 13.49334937 -13.87015149 9.375 -7.890625 C8 -6 8 -6 6 -5 C-0.34117647 -4.53882353 -0.34117647 -4.53882353 -2.875 -6.3125 C-4 -8 -4 -8 -5 -11 C-1.69653605 -19.00557191 4.23878277 -30.59084971 12 -35 C20.27113693 -36.01748113 28.48175034 -35.30719132 35.9375 -31.5 C44.64223315 -24.39409539 55.03011817 -13.57537876 56.21484375 -1.87890625 C56.4420245 3.50982102 55.71508535 7.31881836 53 12 C46.42727469 17.4459724 37.28539627 17.31988601 29.171875 17.75390625 C26.62468943 17.95153272 24.4341477 18.27096071 22 19 C22.556875 19.67804688 23.11375 20.35609375 23.6875 21.0546875 C25.29747802 23.01820799 26.90399154 24.98457217 28.5078125 26.953125 C29.99018893 28.76543474 31.48167207 30.57045085 32.9921875 32.359375 C52.03188942 55.27021964 64.41511278 83.09733423 71 112 C71.20625 112.90234375 71.4125 113.8046875 71.625 114.734375 C72.24598978 118.48618827 72.05656089 122.21042009 72 126 C62.7803517 127.61485118 53.52922708 128.91145946 44.25 130.125 C42.8593504 130.30840733 41.46872524 130.49200004 40.078125 130.67578125 C36.71898442 131.11900119 33.35961206 131.56037076 30 132 C29.65388672 130.20369141 29.65388672 130.20369141 29.30078125 128.37109375 C25.1225262 107.25072358 17.62050822 88.70783677 7 70 C9.01822917 69.31640625 11.03645833 68.6328125 13.0546875 67.94921875 C15.33994905 67.03664453 15.33994905 67.03664453 17 64 C17.19458614 61.43317988 17.279098 59.00054851 17.25 56.4375 C17.25773438 55.75236328 17.26546875 55.06722656 17.2734375 54.36132812 C17.37165302 50.22492724 17.37165302 50.22492724 15 47 C9.7111874 46.27050861 7.00180797 46.59869942 2.6875 49.8125 C0.32182636 51.7559033 -1.84442489 53.82927944 -4 56 C-4.43642822 55.54262451 -4.87285645 55.08524902 -5.32250977 54.61401367 C-26.84562872 32.20241587 -51.48722553 15.47180696 -82 8 C-83.15242188 7.71253906 -84.30484375 7.42507812 -85.4921875 7.12890625 C-102.97327035 3.06036915 -122.19385823 2.62584776 -140 5 C-145.52313391 -23.02069938 -145.52313391 -23.02069938 -145 -37 C-102.66668293 -56.84374238 -33.54984006 -26.49513322 0 0 Z " fill="#145505" transform="translate(378,98)"/>
<path d="M0 0 C0.10957031 0.59200195 0.21914062 1.18400391 0.33203125 1.79394531 C6.39515916 33.77324798 19.41352781 60.5769918 42 84 C42.71542969 84.77859375 43.43085938 85.5571875 44.16796875 86.359375 C68.17365785 111.7612674 106.06669798 127.28117129 140.65625 128.28515625 C150.49961625 128.39174231 160.20805902 128.0206935 170 127 C170.08040527 127.589021 170.16081055 128.17804199 170.24365234 128.78491211 C170.61692475 131.50298485 170.99593079 134.22022988 171.375 136.9375 C171.50132812 137.86369141 171.62765625 138.78988281 171.7578125 139.74414062 C172.37372695 144.13253107 173.06164804 148.4388909 174.09375 152.75 C175.43086456 158.4977978 175.12345048 164.13610218 175 170 C165.97681538 171.83275242 157.2579164 172.35250989 148.0625 172.3125 C147.38469482 172.31034485 146.70688965 172.3081897 146.00854492 172.30596924 C102.82982079 172.08685862 61.56233684 156.95494604 27.83984375 130.1640625 C25.30518057 128.23255851 22.76675146 126.57374853 20 125 C19.82984375 125.68707031 19.6596875 126.37414062 19.484375 127.08203125 C19.24203125 127.98308594 18.9996875 128.88414062 18.75 129.8125 C18.51796875 130.70582031 18.2859375 131.59914063 18.046875 132.51953125 C16.82466791 135.41543237 15.70969505 136.45676415 13 138 C10.24667801 137.86569161 8.55532554 137.32553566 6.1875 135.9375 C4.20302633 132.69967454 4.47057446 129.62238529 5 126 C6.16145109 121.605592 7.53147763 117.30067266 9 113 C7.02 111.35 5.04 109.7 3 108 C2.67 108.33 2.34 108.66 2 109 C-1.23564219 109.42204029 -3.83085519 109.68747961 -6.72802734 107.98388672 C-8.47681869 106.54706698 -10.08340155 105.03398707 -11.6875 103.4375 C-12.24244141 102.92380859 -12.79738281 102.41011719 -13.36914062 101.88085938 C-17.74575612 97.69159008 -21.51193589 93.30002982 -22.42578125 87.12109375 C-22.38839844 86.23550781 -22.35101563 85.34992188 -22.3125 84.4375 C-22.28800781 83.54933594 -22.26351562 82.66117187 -22.23828125 81.74609375 C-22 79 -22 79 -21.16796875 76.3203125 C-20.89872818 70.99811513 -23.57378049 67.07021761 -26 62.4375 C-34.44573411 45.55680439 -43.18335063 25.32806029 -42 6 C-35.15020259 3.7371205 -28.12644202 2.87093134 -21 1.875 C-19.75476563 1.69324219 -18.50953125 1.51148438 -17.2265625 1.32421875 C-16.01742187 1.15277344 -14.80828125 0.98132813 -13.5625 0.8046875 C-12.47066406 0.64983887 -11.37882812 0.49499023 -10.25390625 0.33544922 C-6.81400769 -0.01917418 -3.45568112 -0.05624765 0 0 Z " fill="#145505" transform="translate(111,273)"/>
<path d="M0 0 C0.33 0 0.66 0 1 0 C2.56635549 10.09747882 3.35792129 19.88833873 3.3125 30.125 C3.30926727 31.13046875 3.30926727 31.13046875 3.30596924 32.15625 C3.05587643 81.0067475 -16.44231195 127.67063276 -50 163 C-50.48919922 163.52174805 -50.97839844 164.04349609 -51.48242188 164.58105469 C-64.56188302 178.45296789 -79.26286017 189.86188122 -96 199 C-96.92449951 199.50756836 -96.92449951 199.50756836 -97.86767578 200.02539062 C-118.30871877 211.09519698 -140.73052369 219.15311828 -164 221 C-164.0501123 220.44127197 -164.10022461 219.88254395 -164.15185547 219.30688477 C-164.38690201 216.72483727 -164.63090559 214.14370726 -164.875 211.5625 C-164.95363281 210.68400391 -165.03226562 209.80550781 -165.11328125 208.90039062 C-165.59767433 203.85152429 -166.38330064 199.04193374 -167.55419922 194.10961914 C-168.23194627 190.90238351 -168.43464476 187.70526491 -168.625 184.4375 C-168.69976562 183.21933594 -168.77453125 182.00117188 -168.8515625 180.74609375 C-168.90054687 179.83988281 -168.94953125 178.93367187 -169 178 C-167.84886719 177.79246094 -166.69773437 177.58492187 -165.51171875 177.37109375 C-125.53625654 169.78902878 -89.58749494 147.86177653 -66.41113281 114.13427734 C-45.24577428 82.12258802 -38.02753632 45.87697924 -42 8 C-34.62080843 6.19185372 -27.19540338 5.11575105 -19.66845703 4.14013672 C-17.60776567 3.87276386 -15.5480038 3.59894602 -13.48828125 3.32421875 C-3.42222744 2 -3.42222744 2 0 2 C0 1.34 0 0.68 0 0 Z " fill="#034CAD" transform="translate(450,222)"/>
<path d="M0 0 C-0.02320313 0.62583984 -0.04640625 1.25167969 -0.0703125 1.89648438 C-0.23302451 9.92167326 0.77160605 17.58183903 2 25.5 C2.37670774 27.9893255 2.75178876 30.47889789 3.125 32.96875 C3.29257813 34.05607422 3.46015625 35.14339844 3.6328125 36.26367188 C4 39 4 39 4 42 C2.86046875 42.20753906 1.7209375 42.41507813 0.546875 42.62890625 C-38.18969961 50.02286682 -73.81080099 70.52520398 -96.7734375 103.19140625 C-119.24795003 136.33057599 -126.81022277 172.35439088 -123 212 C-124.26706787 212.17128418 -125.53413574 212.34256836 -126.83959961 212.51904297 C-131.524152 213.1547415 -136.20699406 213.80233915 -140.8894043 214.45361328 C-142.91922821 214.7342281 -144.94950594 215.0115798 -146.98022461 215.28564453 C-149.89301005 215.6793218 -152.80398106 216.08456752 -155.71484375 216.4921875 C-156.6283812 216.6131076 -157.54191864 216.73402771 -158.48313904 216.85861206 C-159.74433311 217.03857224 -159.74433311 217.03857224 -161.03100586 217.22216797 C-161.77491074 217.3243161 -162.51881561 217.42646423 -163.28526306 217.53170776 C-163.85112625 217.6862442 -164.41698944 217.84078064 -165 218 C-165.495 218.99 -165.495 218.99 -166 220 C-174.36040251 172.59950363 -162.51955291 121.80621308 -135.51147461 82.14672852 C-104.39144912 37.94734488 -59.40840592 8.5802891 -6.04858398 -0.85742188 C-3.81403943 -1.01294255 -2.1304036 -0.65486298 0 0 Z " fill="#1A03AD" transform="translate(234,61)"/>
<path d="M0 0 C3.88746591 1.85302542 6.86884835 3.7203493 9.375 7.3125 C9.92344906 11.1516434 9.75406101 13.45462508 8.1875 17 C6.15552465 19.59252027 4.08075382 21.43928581 1.375 23.3125 C0.715 23.3125 0.055 23.3125 -0.625 23.3125 C5.4150604 31.02225552 5.4150604 31.02225552 13.1875 36.5625 C25.38467389 43.25898763 34.13373736 61.58871208 38.375 74.3125 C38.45815752 76.37748892 38.48235878 78.4450789 38.47265625 80.51171875 C38.46782227 82.32446289 38.46782227 82.32446289 38.46289062 84.17382812 C38.45032227 86.0677832 38.45032227 86.0677832 38.4375 88 C38.43298828 89.27423828 38.42847656 90.54847656 38.42382812 91.86132812 C38.41202873 95.01176564 38.39556597 98.16210949 38.375 101.3125 C32.37323781 100.76194197 27.19694173 99.48843467 21.5625 97.375 C20.74499268 97.06925049 19.92748535 96.76350098 19.08520508 96.44848633 C-1.09641361 88.64477276 -18.13153238 77.26574908 -33.625 62.3125 C-34.47707031 61.52359375 -35.32914063 60.7346875 -36.20703125 59.921875 C-47.85218693 48.84522298 -56.26009476 35.49060388 -63.625 21.3125 C-64.19863281 20.219375 -64.77226563 19.12625 -65.36328125 18 C-68.81348707 11.0065909 -68.81348707 11.0065909 -68.046875 8.18359375 C-66.21316249 5.77054899 -64.42600154 4.89975035 -61.6875 3.625 C-60.37458984 3.00044922 -60.37458984 3.00044922 -59.03515625 2.36328125 C-55.59942678 0.86537002 -52.92921775 0.18510661 -49.2109375 0.1796875 C-48.36789063 0.17839844 -47.52484375 0.17710937 -46.65625 0.17578125 C-45.34140625 0.18158203 -45.34140625 0.18158203 -44 0.1875 C-43.11570313 0.18363281 -42.23140625 0.17976563 -41.3203125 0.17578125 C-40.05960938 0.17771484 -40.05960938 0.17771484 -38.7734375 0.1796875 C-38.00177246 0.18081543 -37.23010742 0.18194336 -36.43505859 0.18310547 C-34.625 0.3125 -34.625 0.3125 -33.625 1.3125 C-28.31861518 0.90387205 -28.31861518 0.90387205 -23.30859375 -0.70703125 C-16.27743853 -3.27591038 -6.94527933 -2.57967518 0 0 Z " fill="#6EC473" transform="translate(187.625,296.6875)"/>
<path d="M0 0 C12.16131286 6.48440223 19.14986826 18.96450598 23.75 31.4375 C27.81203981 44.94558506 28.82334575 61.10913891 26 75 C22.66666667 73.66666667 19.33333333 72.33333333 16 71 C15.97421875 70.01902344 15.9484375 69.03804688 15.921875 68.02734375 C15.35307752 52.79726819 12.85064348 37.75643502 1.8125 26.375 C-2.010361 23.38652737 -5.73677764 23.20386255 -10.4765625 23.4765625 C-15.30014645 24.47712016 -17.04042097 27.6139414 -19.6875 31.4375 C-22.95413151 37.81520914 -23.30943011 43.34243742 -23.25 50.375 C-23.25773437 51.2825 -23.26546875 52.19 -23.2734375 53.125 C-23.24838479 61.81829046 -21.27668158 68.78178079 -17.70703125 76.703125 C-16.67992261 80.03980942 -17.48249574 81.96499149 -19 85 C-19.66 85 -20.32 85 -21 85 C-27.77039068 70.81595111 -32.88467772 58.05526236 -32 42 C-36.52014941 42.30462533 -36.52014941 42.30462533 -40.6015625 44.04296875 C-42.74834311 47.04726228 -43.29511526 50.45045084 -44.0625 54 C-45.75249833 61.6287475 -45.75249833 61.6287475 -48 65 C-50.625 65.1875 -50.625 65.1875 -53 65 C-53.33773437 64.37351562 -53.67546875 63.74703125 -54.0234375 63.1015625 C-54.46945312 62.28429687 -54.91546875 61.46703125 -55.375 60.625 C-55.81585938 59.81289062 -56.25671875 59.00078125 -56.7109375 58.1640625 C-57.9443893 55.89185698 -57.9443893 55.89185698 -60 54 C-67.82881041 53.39402466 -76.01153388 55.40371795 -83 59 C-86.34356954 61.96246359 -88.57693691 65.27482357 -91 69 C-92.24395166 70.50184408 -93.51358551 71.98293047 -94.8125 73.4375 C-95.35519531 74.05496094 -95.89789063 74.67242187 -96.45703125 75.30859375 C-96.96621094 75.86675781 -97.47539062 76.42492187 -98 77 C-98.47050781 77.54914063 -98.94101563 78.09828125 -99.42578125 78.6640625 C-102.42369454 81.20819735 -106.19677286 81.21388975 -110 81 C-113.34778473 79.21926344 -114.59625987 77.78825454 -116.3125 74.4375 C-117.40514818 68.97425911 -118.47777211 63.17268624 -116.04296875 57.9453125 C-109.6631101 49.67172059 -98.66436971 46.29493331 -89.1640625 43.078125 C-86.39954736 42.13614206 -83.69960002 41.11219477 -81 40 C-80.81463902 35.9220585 -81.15234688 33.57982791 -83 30 C-83.125 27.25 -83.125 27.25 -83 25 C-76.35536247 21.67768123 -65.30606155 23.9709833 -58.375 25.5 C-50.43653889 27.24745999 -41.99649006 28.42146066 -34 26.25 C-29.87522617 23.15641963 -28.93734004 19.63367278 -27.16796875 14.88671875 C-25.45448603 10.65172301 -23.3599119 8.01838522 -19.1171875 6.1875 C-17.74554253 5.68682351 -16.36488649 5.21018773 -14.9765625 4.7578125 C-12.70141071 3.98051622 -12.70141071 3.98051622 -9.9375 1.8125 C-6.16906637 -0.51270373 -4.36506427 -0.75259729 0 0 Z " fill="#6EC474" transform="translate(336,174)"/>
<path d="M0 0 C-1.60693773 4.47708319 -3.86706072 8.38332546 -6.3125 12.4375 C-6.69083984 13.08009766 -7.06917969 13.72269531 -7.45898438 14.38476562 C-10.68620696 19.76346993 -14.05867356 25.15563598 -19.5625 28.4375 C-24.49254637 31.7847983 -26.30656809 36.17186134 -28.375 41.625 C-30.38993901 45.80987332 -32.23817834 47.33537633 -36 50 C-37.485 50.495 -37.485 50.495 -39 51 C-38.36191406 51.20496094 -37.72382813 51.40992188 -37.06640625 51.62109375 C-36.24011719 51.89050781 -35.41382813 52.15992188 -34.5625 52.4375 C-33.73878906 52.70433594 -32.91507813 52.97117188 -32.06640625 53.24609375 C-30 54 -30 54 -29 55 C-25.84811341 55.20310486 -22.7039488 55.34660661 -19.546875 55.4296875 C-16.68961347 55.56310049 -14.49714345 55.68580534 -12.046875 57.234375 C-9.90957095 60.83908184 -10.55194742 64.96752679 -11 69 C-12.71315789 73.91105261 -16.81643711 76.23545175 -20.85546875 79.23046875 C-23.55277732 81.45611681 -25.13319011 84.06644161 -27 87 C-29.5625 88.9375 -29.5625 88.9375 -32 90 C-32.99 89.67 -33.98 89.34 -35 89 C-41.08784985 88.45707772 -47.22362998 87.97640501 -52.46875 91.51171875 C-55.09091123 94.06029892 -56.95498603 97.05372016 -58.8359375 100.171875 C-59.22007812 100.77515625 -59.60421875 101.3784375 -60 102 C-60.33 102 -60.66 102 -61 102 C-60.9175 100.783125 -60.835 99.56625 -60.75 98.3125 C-60.72270194 93.99258148 -61.65519896 90.47096091 -63 86.375 C-65.10841835 79.89161358 -66.25695205 75.24232042 -63.1875 68.9375 C-62.81496094 68.2671875 -62.44242188 67.596875 -62.05859375 66.90625 C-60.86968216 64.85449591 -60.86968216 64.85449591 -59.75 61.9375 C-57.25677768 57.75244825 -53.76920708 55.02610924 -50 52 C-50.61488281 51.75765625 -51.22976562 51.5153125 -51.86328125 51.265625 C-55.21172141 49.87711712 -58.27644413 48.57458848 -61.125 46.3125 C-62.67134571 42.22572918 -62.64748007 39.0740011 -61 35 C-49.35758967 20.98517398 -19.21056389 0 0 0 Z " fill="#6EC375" transform="translate(216,108)"/>
<path d="M0 0 C4.39770845 -0.2010381 7.03361422 0.511038 10.48828125 3.21875 C13.8150272 6.30207552 16.85831518 9.51731627 19.48828125 13.21875 C19.48828125 14.20875 19.48828125 15.19875 19.48828125 16.21875 C20.08253906 16.44691406 20.67679688 16.67507813 21.2890625 16.91015625 C24.09192198 18.57793232 25.06619497 20.33843957 26.67578125 23.15625 C27.18496094 24.03152344 27.69414062 24.90679687 28.21875 25.80859375 C30.86102682 30.82485466 31.27404287 35.64698576 30.48828125 41.21875 C28.11630086 44.42789993 25.75178215 46.04666778 22.42578125 48.21875 C16.37734773 52.3368324 13.85926756 57.26301062 12.48828125 64.21875 C12.07900425 65.93406378 11.64131987 67.64284353 11.17578125 69.34375 C10.84126953 70.61605469 10.84126953 70.61605469 10.5 71.9140625 C9.28507788 74.6816457 8.08608253 75.71735915 5.48828125 77.21875 C2.73495926 77.08444161 1.04360679 76.54428566 -1.32421875 75.15625 C-3.30869242 71.91842454 -3.04114429 68.84113529 -2.51171875 65.21875 C-1.35026766 60.824342 0.01975888 56.51942266 1.48828125 52.21875 C-0.49171875 50.56875 -2.47171875 48.91875 -4.51171875 47.21875 C-4.84171875 47.54875 -5.17171875 47.87875 -5.51171875 48.21875 C-8.74736094 48.64079029 -11.34257394 48.90622961 -14.23974609 47.20263672 C-15.98853744 45.76581698 -17.5951203 44.25273707 -19.19921875 42.65625 C-19.75416016 42.14255859 -20.30910156 41.62886719 -20.88085938 41.09960938 C-25.26876022 36.89953782 -28.98406999 32.51431894 -29.97265625 26.33984375 C-29.59648585 14.59306809 -29.59648585 14.59306809 -25.26171875 9.65625 C-24.35421875 8.851875 -23.44671875 8.0475 -22.51171875 7.21875 C-21.70734375 6.331875 -20.90296875 5.445 -20.07421875 4.53125 C-14.70916405 0.09985417 -6.61991376 0.57653992 0 0 Z " fill="#9151B4" transform="translate(118.51171875,333.78125)"/>
<path d="M0 0 C14.0777528 9.54894613 20.78645816 24.40735094 24.19921875 40.68359375 C26.51818775 55.06120157 25.80299678 68.87225966 21.19921875 82.68359375 C19.54921875 82.02359375 17.89921875 81.36359375 16.19921875 80.68359375 C16.34359375 79.83796875 16.48796875 78.99234375 16.63671875 78.12109375 C16.91515625 76.41953125 16.91515625 76.41953125 17.19921875 74.68359375 C17.38484375 73.69359375 17.57046875 72.70359375 17.76171875 71.68359375 C19.0440756 62.35548182 18.73664995 52.75418113 16.19921875 43.68359375 C15.95429688 42.77867187 15.709375 41.87375 15.45703125 40.94140625 C13.25492985 33.90637433 9.86055952 28.48044673 4.19921875 23.68359375 C-0.15315333 21.5583325 -4.02219553 20.89847115 -8.80078125 21.68359375 C-15.25540718 25.55636931 -17.45131322 31.38683214 -19.22265625 38.40625 C-21.37263812 50.59432291 -19.33842926 61.0193005 -15.80078125 72.68359375 C-15.47078125 74.33359375 -15.14078125 75.98359375 -14.80078125 77.68359375 C-18.10078125 78.67359375 -21.40078125 79.66359375 -24.80078125 80.68359375 C-25.59290054 78.78794949 -26.38445701 76.89207004 -27.17578125 74.99609375 C-27.61664063 73.94035156 -28.0575 72.88460937 -28.51171875 71.796875 C-28.93710938 70.76949219 -29.3625 69.74210937 -29.80078125 68.68359375 C-30.16171875 67.85214844 -30.52265625 67.02070313 -30.89453125 66.1640625 C-36.52375167 50.75649799 -36.01142287 28.62070002 -29.51171875 13.73046875 C-23.74587913 2.19878952 -13.37291675 -6.28545739 0 0 Z " fill="#F8FBFB" transform="translate(183.80078125,197.31640625)"/>
<path d="M0 0 C12.16131286 6.48440223 19.14986826 18.96450598 23.75 31.4375 C27.81203981 44.94558506 28.82334575 61.10913891 26 75 C22.66666667 73.66666667 19.33333333 72.33333333 16 71 C15.96132813 69.52853516 15.96132813 69.52853516 15.921875 68.02734375 C15.35307752 52.79726819 12.85064348 37.75643502 1.8125 26.375 C-2.010361 23.38652737 -5.73677764 23.20386255 -10.4765625 23.4765625 C-15.30014645 24.47712016 -17.04042097 27.6139414 -19.6875 31.4375 C-22.95413151 37.81520914 -23.30943011 43.34243742 -23.25 50.375 C-23.25773437 51.2825 -23.26546875 52.19 -23.2734375 53.125 C-23.24838479 61.81829046 -21.27668158 68.78178079 -17.70703125 76.703125 C-16.67992261 80.03980942 -17.48249574 81.96499149 -19 85 C-19.66 85 -20.32 85 -21 85 C-31.06920635 63.90489311 -36.30141056 42.36082829 -29.18359375 19.33984375 C-25.65700807 9.38858713 -25.65700807 9.38858713 -20.66796875 6.78125 C-18.93798546 6.09651898 -17.18800334 5.46022596 -15.421875 4.875 C-12.73904871 4.02654445 -12.73904871 4.02654445 -9.8125 1.75 C-6.1196648 -0.54776412 -4.28728965 -0.73918787 0 0 Z " fill="#F9FBFA" transform="translate(336,174)"/>
<path d="M0 0 C9.41424891 6.47229613 13.82267503 15.25570796 16.5234375 26.1796875 C16.8382925 28.16242306 16.95050287 30.05433084 17 32.0625 C17.05800781 33.68671875 17.05800781 33.68671875 17.1171875 35.34375 C17.27331866 43.46257021 16.57372014 50.34133959 14 58.0625 C13.34257812 57.8459375 12.68515625 57.629375 12.0078125 57.40625 C4.51108307 55.21208529 -2.20752866 54.81743242 -9.94287109 55.26171875 C-15.50774855 55.47440462 -15.50774855 55.47440462 -17.890625 53.48046875 C-24.21940294 39.68640698 -25.27373072 24.20885083 -20.28125 9.85546875 C-16.07268903 0.68131906 -9.83071106 -3.07209721 0 0 Z " fill="#060606" transform="translate(186,218.9375)"/>
<path d="M0 0 C11.0526779 3.8781326 18.88598423 14.32090802 24.5625 24.25 C27.05053659 29.67844346 27.49443146 35.47130918 26.0625 41.27734375 C24.97598706 44.19734727 23.77291195 46.07565867 21.375 48.0625 C14.2303809 51.07911696 7.42425854 51.59254785 -0.265625 52.00390625 C-2.82398211 52.20239947 -5.03332341 52.37419281 -7.4375 53.25 C-7.7675 53.91 -8.0975 54.57 -8.4375 55.25 C-9.0975 55.25 -9.7575 55.25 -10.4375 55.25 C-11.95694251 59.80832752 -11.40039132 64.32833248 -11.27734375 69.09765625 C-11.4375 72.25 -11.4375 72.25 -13.4375 74.25 C-16.87828226 74.69879769 -18.71538608 74.74962476 -21.60546875 72.75 C-24.17186247 69.2478849 -23.98606332 66.04524862 -23.875 61.875 C-23.88208984 61.1325 -23.88917969 60.39 -23.89648438 59.625 C-23.82982321 53.8203511 -22.41703377 49.74274623 -18.75 45.125 C-13.07049615 40.51999688 -6.93061899 38.06592141 0.375 38.25 C4.56633638 38.2996751 8.43728817 37.96742814 12.5625 37.25 C11.31556085 30.39183468 8.6733038 25.82667182 4.5625 20.25 C3.881875 19.26 3.20125 18.27 2.5 17.25 C0.12406098 14.79741779 -1.07553605 14.57298344 -4.4375 14.25 C-11.57540913 16.24677844 -15.94415063 20.37984851 -20.0625 26.359375 C-21.4375 28.25 -21.4375 28.25 -23.4375 29.25 C-29.77867647 29.71117647 -29.77867647 29.71117647 -32.3125 27.9375 C-33.4375 26.25 -33.4375 26.25 -34.4375 23.25 C-27.42932005 6.26646713 -19.14492689 -4.11041951 0 0 Z " fill="#9858BC" transform="translate(407.4375,63.75)"/>
<path d="M0 0 C8.99641172 4.89695817 13.28437818 14.37043415 16.15234375 23.78125 C17.23291411 28.36317379 17.22419673 32.81486235 17.125 37.5 C17.11597656 38.32242188 17.10695313 39.14484375 17.09765625 39.9921875 C17.07436865 41.99492083 17.03850959 43.99750154 17 46 C15.81664062 46.07476562 14.63328125 46.14953125 13.4140625 46.2265625 C3.94946198 46.96238664 -3.32431025 47.94267857 -11 54 C-11.74507813 54.55816406 -12.49015625 55.11632812 -13.2578125 55.69140625 C-13.83273437 56.12324219 -14.40765625 56.55507812 -15 57 C-21.94850092 43.40657344 -24.59756923 28.79000335 -21.24609375 13.578125 C-17.29209934 3.34425712 -11.27331594 -2.14298643 0 0 Z " fill="#070707" transform="translate(334,197)"/>
<path d="M0 0 C-1.60693773 4.47708319 -3.86706072 8.38332546 -6.3125 12.4375 C-6.69083984 13.08009766 -7.06917969 13.72269531 -7.45898438 14.38476562 C-10.68620696 19.76346993 -14.05867356 25.15563598 -19.5625 28.4375 C-24.49254637 31.7847983 -26.30656809 36.17186134 -28.375 41.625 C-30.40188486 45.83468394 -32.1839332 47.35211692 -36 50 C-42.34108305 52.18276933 -50.3810764 51.9030771 -56.625 49.75 C-61.63272908 46.06009436 -61.63272908 46.06009436 -62.33984375 42.09375 C-62.40477854 37.99564328 -61.56491035 35.68002416 -58.9296875 32.5078125 C-45.55049868 19.98676407 -19.44523023 0 0 0 Z " fill="#6EC474" transform="translate(216,108)"/>
<path d="M0 0 C2 1 2 1 3.25390625 4.74609375 C3.69797767 6.30767825 4.13382275 7.87161961 4.5625 9.4375 C4.9997568 10.99913142 5.43849175 12.56034993 5.87890625 14.12109375 C6.16616577 15.16414673 6.16616577 15.16414673 6.45922852 16.22827148 C6.9707237 18.08030204 6.9707237 18.08030204 8 20 C8.58286052 25.59546102 7.23968496 29.20603259 5.00390625 34.30859375 C3.93848772 37.16491035 3.48041046 39.79786438 3.0625 42.8125 C2.30661723 47.70871363 2.30661723 47.70871363 -0.5 50.375 C-4.07900091 54.13295095 -3.93219196 57.81676046 -4.5546875 62.84765625 C-6.09440749 73.74725303 -14.596327 82.36661877 -22 90 C-22.33 90 -22.66 90 -23 90 C-23.35548131 75.68230669 -23.22428677 61.99518177 -20 48 C-19.83371094 47.26620117 -19.66742188 46.53240234 -19.49609375 45.77636719 C-15.65349488 29.35993091 -8.95114918 14.26589401 0 0 Z " fill="#6DC375" transform="translate(132,171)"/>
<path d="M0 0 C0.89332031 0.32484375 1.78664063 0.6496875 2.70703125 0.984375 C5.51155791 2.41534608 7.21973664 3.79254211 9.1875 6.25 C9.98761842 9.33459447 9.81923008 12.13607384 9.1875 15.25 C7.1875 18 7.1875 18 4.1875 20.25 C3.61773437 20.68054688 3.04796875 21.11109375 2.4609375 21.5546875 C-6.27559022 27.63070884 -16.34854388 29.26849173 -26.8125 28.25 C-33.04070887 27.13100426 -38.02562856 25.62491431 -41.8125 20.25 C-43.39997869 15.09069424 -42.54603542 11.2588891 -40.9921875 6.265625 C-39.31260176 3.39586923 -37.86312394 2.61601046 -34.8125 1.25 C-31.58785771 0.4764693 -28.34676255 0.00704145 -25.0625 -0.4375 C-24.2065625 -0.56705078 -23.350625 -0.69660156 -22.46875 -0.83007812 C-14.79306018 -1.92909735 -7.39008098 -2.81320799 0 0 Z " fill="#EE97B0" transform="translate(378.8125,269.75)"/>
<path d="M0 0 C2.99735348 1.76382724 5.03132514 3.32875354 7.03125 6.1953125 C7.55670641 9.87350734 7.36693414 12.27777586 6.09375 15.7578125 C-0.37506066 23.40277055 -9.16373582 26.4815454 -18.93896484 27.37548828 C-27.01570244 27.90632687 -34.1414923 28.05316894 -40.96875 23.1953125 C-44.04191132 20.35263828 -44.85397958 18.89668727 -45.53125 14.7578125 C-44.84947704 10.43991708 -43.0701029 8.11865847 -39.96875 5.1953125 C-37.69621343 3.67355124 -35.32911627 2.51561628 -32.84375 1.3828125 C-32.22371094 1.08439453 -31.60367188 0.78597656 -30.96484375 0.47851562 C-21.22920726 -4.15899724 -9.88546926 -4.71207368 0 0 Z " fill="#EF97AF" transform="translate(189.96875,297.8046875)"/>
<path d="M0 0 C4.82608744 1.04914944 6.97808522 4.83142112 9.875 8.625 C10.51179688 9.41519531 11.14859375 10.20539063 11.8046875 11.01953125 C18.92639242 19.92905006 18.92639242 19.92905006 18.8125 23.6875 C17.4857311 26.42948907 15.48270592 27.06037645 12.875 28.625 C9.28396295 32.23403724 6.31572341 36.15034041 3.875 40.625 C0.98566865 39.3297825 -1.18204694 38.15418889 -3.125 35.625 C-3.2923749 32.77533506 -3.057743 30.0629086 -2.83984375 27.21875 C-2.85941088 24.50144442 -2.85941088 24.50144442 -4.97265625 22.8359375 C-7.12124571 21.54451338 -7.12124571 21.54451338 -9.625 20.75 C-12.94207213 19.25731754 -14.25679831 17.73866948 -16.125 14.625 C-16.69838452 10.61130836 -16.53525364 8.42767016 -14.6875 4.8125 C-10.31816754 1.08258205 -5.45722282 1.09144456 0 0 Z " fill="#175308" transform="translate(118.125,345.375)"/>
<path d="M0 0 C4.95290804 1.62250436 8.34513028 4.1335491 11.625 8.1875 C12.62000252 10.77960913 12.68169787 12.35260661 12.625 15.1875 C11.625 16.1875 11.625 16.1875 9.375 16.6875 C6.04010554 16.08115555 5.7117084 15.37128168 3.8125 12.6875 C3.06690915 11.53126065 2.33239483 10.36749478 1.625 9.1875 C-3.99877276 9.81013198 -6.80827859 12.89755473 -10.875 16.5703125 C-13.375 18.1875 -13.375 18.1875 -16.0625 18 C-18.375 17.1875 -18.375 17.1875 -20.375 16.0625 C-23.15558119 14.84599573 -24.52184611 15.21325233 -27.375 16.1875 C-28.15875 16.8475 -28.9425 17.5075 -29.75 18.1875 C-33.07757317 20.72279384 -35.20758284 21.1875 -39.375 21.1875 C-42.0625 19.1875 -42.0625 19.1875 -44.375 17.1875 C-47.42691378 17.36189507 -48.18758515 18.00008515 -50.375 20.1875 C-51.09427295 22.50515729 -51.7659893 24.83845874 -52.375 27.1875 C-54.025 27.5175 -55.675 27.8475 -57.375 28.1875 C-58.70687305 23.88526259 -57.93107704 20.33703878 -56.375 16.1875 C-53.27822581 11.6391129 -53.27822581 11.6391129 -50.375 10.1875 C-41.64361478 9.5229875 -41.64361478 9.5229875 -37.75 11.5625 C-36.96625 11.76875 -36.1825 11.975 -35.375 12.1875 C-33.49796921 10.93305759 -33.49796921 10.93305759 -31.5625 9.25 C-27.96092568 6.25550923 -27.96092568 6.25550923 -25.1875 5.93359375 C-21.64161229 6.35727519 -19.35122388 7.20335075 -16.375 9.1875 C-15.385 9.1875 -14.395 9.1875 -13.375 9.1875 C-12.03604368 7.52534732 -10.70369858 5.85786393 -9.375 4.1875 C-6.1009278 1.42272792 -4.30434514 0.23913029 0 0 Z " fill="#1E2323" transform="translate(289.375,300.8125)"/>
<path d="M0 0 C6.77509455 1.90549534 12.02733828 5.77992159 16.01171875 11.59375 C18.2311206 15.65875971 19.09559214 18.86439106 18.625 23.5703125 C13.875 24.6953125 13.875 24.6953125 11.625 23.5703125 C10.58984375 21.609375 10.58984375 21.609375 9.5625 19.1953125 C9.22089844 18.40382812 8.87929687 17.61234375 8.52734375 16.796875 C7.83099614 15.07861466 7.2112865 13.329172 6.625 11.5703125 C4.2819191 10.44945938 4.2819191 10.44945938 1.625 9.5703125 C1.026875 9.1990625 0.42875 8.8278125 -0.1875 8.4453125 C-3.62617675 7.0698418 -6.80565887 6.65052075 -10.375 7.5703125 C-15.17445529 11.50670785 -18.31406223 16.85703032 -20 22.7578125 C-20.26039063 23.65886719 -20.52078125 24.55992187 -20.7890625 25.48828125 C-20.98242188 26.17535156 -21.17578125 26.86242187 -21.375 27.5703125 C-23.03114657 27.95250017 -24.69957024 28.28426352 -26.375 28.5703125 C-26.705 28.2403125 -27.035 27.9103125 -27.375 27.5703125 C-26.90528968 17.70639577 -24.41647896 9.76241773 -17.05859375 2.9453125 C-11.65090251 -1.4711778 -6.68918396 -1.2102142 0 0 Z " fill="#1F2423" transform="translate(179.375,159.4296875)"/>
<path d="M0 0 C1.6953125 1.078125 1.6953125 1.078125 3 3 C3.46875 6.3984375 3.46875 6.3984375 3.5 10.375 C3.5309375 11.68210938 3.561875 12.98921875 3.59375 14.3359375 C2.86909928 18.80779522 1.47674908 20.20393975 -2 23 C-5.24137902 24.62068951 -8.49664069 24.54928387 -12 24 C-15 22.25 -15 22.25 -17 19 C-17.94564267 14.7745334 -18.05566496 11.21154756 -17 7 C-12.57660511 1.06908039 -7.1988796 -1.24118614 0 0 Z " fill="#8A4CAF" transform="translate(393,144)"/>
<path d="M0 0 C3.19803202 0.16831747 4.71016455 0.75985063 7.1875 2.8125 C11.59025998 8.12617583 11.48144801 12.92392251 11.3828125 19.6875 C11.02758363 22.76131712 10.84758472 24.1848276 8.8125 26.4375 C6 28 6 28 3.5 28.25 C-0.16897742 26.41551129 -2.07707874 23.57219603 -4 20 C-5.67908959 14.75284503 -5.97173343 9.07597597 -3.625 4.0625 C-2 2 -2 2 0 0 Z " fill="#F5F5F5" transform="translate(184,227)"/>
<path d="M0 0 C3.28116907 2.13934733 6.33170243 4.2631048 7.76953125 8 C8.14433476 11.25253213 6.65710222 13.27761778 5 16 C0.75093123 18.83271251 -3.00997911 18.65087229 -8 18 C-11.11136437 16.68078151 -13.45172016 15.09655969 -15 12 C-15.51571681 7.62063431 -15.83341277 4.14953485 -13.1875 0.5 C-8.61399817 -2.63611554 -4.92613977 -1.99026853 0 0 Z " fill="#9C5DBF" transform="translate(128,419)"/>
<path d="M0 0 C3.72828975 0.60870037 4.77094829 1.55371923 7.0625 4.5 C9.47086376 8.20784061 9.39467439 11.64891759 9.4375 16 C9.46585937 17.3096875 9.49421875 18.619375 9.5234375 19.96875 C9.0625 23.5 9.0625 23.5 7.19140625 25.9296875 C5.0625 27.5 5.0625 27.5 2.625 28.125 C-1.27785154 27.17308499 -2.65353151 24.67217845 -4.9375 21.5 C-6.43893464 18.49713071 -6.1625678 15.4160504 -6.1875 12.125 C-6.208125 11.45210937 -6.22875 10.77921875 -6.25 10.0859375 C-6.27452778 6.97090903 -6.10749943 4.81208107 -4.60546875 2.0546875 C-2.9375 0.5 -2.9375 0.5 0 0 Z " fill="#F9F9F9" transform="translate(322.9375,207.5)"/>
<path d="M0 0 C1.625 0.8125 1.625 0.8125 2.4375 2.5 C2.625 4.8125 2.625 4.8125 0.625 7.25 C-7.25123968 13.97762139 -13.30540356 17.09236978 -24.0625 17.125 C-25.98642578 17.15013672 -25.98642578 17.15013672 -27.94921875 17.17578125 C-31.48813543 16.80050274 -32.84947799 16.23572239 -35.375 13.8125 C-35.045 12.1625 -34.715 10.5125 -34.375 8.8125 C-33.405625 8.9775 -32.43625 9.1425 -31.4375 9.3125 C-30.08494209 9.49175466 -28.73054448 9.65743772 -27.375 9.8125 C-26.67632812 9.89242187 -25.97765625 9.97234375 -25.2578125 10.0546875 C-18.05614148 10.49037578 -12.12253803 7.85386384 -6.55078125 3.33203125 C-5.78314453 2.64173828 -5.78314453 2.64173828 -5 1.9375 C-2.375 -0.1875 -2.375 -0.1875 0 0 Z " fill="#222625" transform="translate(331.375,165.1875)"/>
<path d="M0 0 C2.10353495 -0.0810206 4.20795952 -0.13919907 6.3125 -0.1875 C7.48425781 -0.22230469 8.65601563 -0.25710937 9.86328125 -0.29296875 C13 0 13 0 14.89453125 1.20703125 C17.10423953 4.79097507 16.47269638 8.95294193 16 13 C14.27712781 17.26184172 12.04540053 18.92263216 8 21 C8.103125 19.865625 8.20625 18.73125 8.3125 17.5625 C8.33708286 10.64242551 4.06330522 5.29063788 0 0 Z " fill="#6CC174" transform="translate(189,164)"/>
<path d="M0 0 C0.33 1.32 0.66 2.64 1 4 C-2.72026686 7.23501466 -7.29146387 9.57417568 -12 11 C-14.28125 10.609375 -14.28125 10.609375 -16 10 C-11.10810865 2.31274217 -9.19701793 -0.61313453 0 0 Z " fill="#04A5E2" transform="translate(177,166)"/>
<path d="M0 0 C0.3457886 5.64788053 -0.43935947 9.07569129 -3 14 C-3.99 14.495 -3.99 14.495 -5 15 C-6.98 12.03 -8.96 9.06 -11 6 C-4.5 0 -4.5 0 0 0 Z " fill="#6EC476" transform="translate(202,197)"/>
</svg>
