<?xml version="1.0" encoding="UTF-8"?>
<svg version="1.1" xmlns="http://www.w3.org/2000/svg" width="585" height="572">
<path d="M0 0 C1.5137063 1.32452272 3.01882575 2.65883864 4.52368164 3.9934082 C5.44149414 4.80036133 6.35930664 5.60731445 7.30493164 6.4387207 C15.89434029 14.07087598 23.37582634 21.98547272 30.52368164 30.9934082 C31.75151367 32.51321289 31.75151367 32.51321289 33.00415039 34.0637207 C38.83910952 41.37526785 43.84946781 48.98592796 48.4621582 57.12133789 C49.149923 58.33425889 49.84419794 59.54352071 50.54614258 60.74829102 C58.87765454 75.07849159 64.90216766 90.83706375 69.67211914 106.6887207 C70.65347511 109.34468412 72.06528175 111.57360503 73.52368164 113.9934082 C73.52368164 114.6534082 73.52368164 115.3134082 73.52368164 115.9934082 C74.51368164 115.9934082 75.50368164 115.9934082 76.52368164 115.9934082 C76.79180664 115.3746582 77.05993164 114.7559082 77.33618164 114.1184082 C78.52368164 111.9934082 78.52368164 111.9934082 81.52368164 109.9934082 C87.65881211 110.32207591 87.65881211 110.32207591 90.19946289 112.29418945 C92.27612155 114.95892844 92.23546061 117.06928974 92.14868164 120.37231445 C90.65221381 126.6481264 85.81410827 132.46645712 80.52368164 135.9934082 C78.87368164 135.9934082 77.22368164 135.9934082 75.52368164 135.9934082 C76.18368164 141.6034082 76.84368164 147.2134082 77.52368164 152.9934082 C78.84368164 152.0034082 80.16368164 151.0134082 81.52368164 149.9934082 C84.74959692 149.59016879 86.82340309 149.7095115 89.83618164 150.9309082 C92.50526139 154.19311679 92.35157048 157.88855696 92.52368164 161.9934082 C93.59618164 162.0759082 94.66868164 162.1584082 95.77368164 162.2434082 C99.52368164 162.9934082 99.52368164 162.9934082 102.02368164 164.6184082 C103.52368164 166.9934082 103.52368164 166.9934082 103.52368164 170.5559082 C102.52368164 173.9934082 102.52368164 173.9934082 100.96118164 175.8684082 C97.49020439 177.4703977 94.33035069 177.67618578 90.52368164 177.9934082 C90.15243164 179.3855957 90.15243164 179.3855957 89.77368164 180.8059082 C88.42357145 184.24868919 87.86068732 185.46018938 84.52368164 186.9934082 C78.087318 186.55704457 78.087318 186.55704457 76.52368164 184.9934082 C76.43393066 185.63552246 76.34417969 186.27763672 76.25170898 186.93920898 C69.11226359 237.00423642 49.47636576 279.50208796 14.52368164 315.9934082 C13.46020508 317.11875977 13.46020508 317.11875977 12.37524414 318.2668457 C-22.67749219 354.46416117 -76.36117525 377.3356815 -126.55834961 378.3293457 C-129.80210448 378.36999457 -133.04484409 378.37625202 -136.28881836 378.3684082 C-137.1401535 378.36786438 -137.99148865 378.36732056 -138.86862183 378.36676025 C-153.68927061 378.32345997 -167.96975587 377.20826884 -182.47631836 373.9934082 C-183.40573242 373.78973633 -184.33514648 373.58606445 -185.29272461 373.3762207 C-238.87639356 361.16728347 -287.68207434 327.09058607 -317.0847168 280.55151367 C-318.2271064 278.70576851 -319.35413577 276.85150282 -320.47631836 274.9934082 C-320.87318848 274.34339844 -321.27005859 273.69338867 -321.67895508 273.02368164 C-350.14519916 225.89234375 -358.20031366 167.04424533 -345.16381836 113.6809082 C-344.31292171 110.43817342 -343.40583506 107.21438566 -342.47631836 103.9934082 C-342.27200195 103.26412109 -342.06768555 102.53483398 -341.85717773 101.78344727 C-330.37282747 61.51530485 -304.23974374 23.8454568 -271.47631836 -2.0065918 C-270.50049805 -2.79936523 -269.52467773 -3.59213867 -268.51928711 -4.40893555 C-195.86510745 -62.25811256 -89.96782418 -63.85861757 0 0 Z " fill="#03A8E7" transform="translate(425.476318359375,121.006591796875)"/>
<path d="M0 0 C1.5137063 1.32452272 3.01882575 2.65883864 4.52368164 3.9934082 C5.44149414 4.80036133 6.35930664 5.60731445 7.30493164 6.4387207 C15.89434029 14.07087598 23.37582634 21.98547272 30.52368164 30.9934082 C31.75151367 32.51321289 31.75151367 32.51321289 33.00415039 34.0637207 C39.29484461 41.94633074 44.57437217 50.21470601 49.52368164 58.9934082 C49.87172852 59.60442383 50.21977539 60.21543945 50.57836914 60.8449707 C54.68523376 68.10146082 58.3066123 75.48662715 61.52368164 83.1809082 C61.97831787 84.25961182 61.97831787 84.25961182 62.44213867 85.36010742 C63.85176727 88.83741202 64.52368164 91.18659009 64.52368164 94.9934082 C63.90879883 94.97020508 63.29391602 94.94700195 62.66040039 94.9230957 C61.8521582 94.90504883 61.04391602 94.88700195 60.21118164 94.8684082 C59.41067383 94.84520508 58.61016602 94.82200195 57.78540039 94.7980957 C55.23979588 94.83523498 55.23979588 94.83523498 52.52368164 96.9934082 C52.20207795 100.37485071 52.20207795 100.37485071 52.27368164 104.2434082 C51.92669518 112.76676742 51.92669518 112.76676742 49.02368164 115.8684082 C43.97027438 119.26912881 37.26780994 118.80757842 31.38696289 118.88793945 C28.4109189 118.96918636 26.316015 119.20994219 23.52368164 119.9934082 C22.06452833 116.76791142 20.71648716 113.59381137 19.63305664 110.2199707 C14.41206436 94.12840495 6.25833645 78.11102022 -4.47631836 64.9934082 C-5.09635742 64.18645508 -5.71639648 63.37950195 -6.35522461 62.5480957 C-17.33567106 48.39552028 -29.49735892 36.89061696 -44.47631836 26.9934082 C-45.43924805 26.35661133 -46.40217773 25.71981445 -47.39428711 25.0637207 C-62.80245921 15.22545926 -78.96251481 9.05982519 -96.47631836 3.9934082 C-97.69061523 3.64149414 -98.90491211 3.28958008 -100.15600586 2.92700195 C-123.57803248 -3.36956884 -155.33007748 -3.06269741 -178.47631836 3.9934082 C-179.72904541 4.35547363 -179.72904541 4.35547363 -181.00708008 4.72485352 C-199.48165565 10.13154874 -216.72151206 17.90809871 -232.47631836 28.9934082 C-234.01932617 30.06075195 -234.01932617 30.06075195 -235.59350586 31.1496582 C-266.37092505 53.56114549 -287.69308263 86.39467694 -297.47631836 122.9934082 C-297.7726416 124.01893799 -297.7726416 124.01893799 -298.07495117 125.06518555 C-301.76128031 138.2086684 -301.89929641 151.50630281 -301.97631836 165.0559082 C-301.98676178 165.93929871 -301.9972052 166.82268921 -302.00796509 167.73284912 C-302.16197387 184.44754801 -299.86550917 200.59223892 -294.35131836 216.4309082 C-294.059104 217.28378418 -293.76688965 218.13666016 -293.46582031 219.01538086 C-283.06060667 248.36039143 -265.31398418 274.96734107 -240.47631836 293.9934082 C-239.53014648 294.74364258 -238.58397461 295.49387695 -237.60913086 296.2668457 C-230.30438316 301.94401036 -222.65541255 306.70468109 -214.47631836 310.9934082 C-213.53175781 311.49420898 -213.53175781 311.49420898 -212.56811523 312.00512695 C-200.42023391 318.35266855 -187.69477256 322.45960016 -174.47631836 325.9934082 C-173.76419189 326.18499512 -173.05206543 326.37658203 -172.31835938 326.57397461 C-165.12620056 328.34153194 -157.77003739 328.90741049 -150.41381836 329.6184082 C-143.51475586 330.2990332 -143.51475586 330.2990332 -136.47631836 330.9934082 C-136.47631836 346.5034082 -136.47631836 362.0134082 -136.47631836 377.9934082 C-159.80463811 377.9934082 -159.80463811 377.9934082 -169.35131836 376.3684082 C-170.44371826 376.18874512 -171.53611816 376.00908203 -172.66162109 375.82397461 C-228.10491382 366.25965469 -278.83875431 335.01550519 -311.47631836 288.9934082 C-314.65083721 284.43164767 -317.6036729 279.74989535 -320.47631836 274.9934082 C-320.87318848 274.34339844 -321.27005859 273.69338867 -321.67895508 273.02368164 C-350.14519916 225.89234375 -358.20031366 167.04424533 -345.16381836 113.6809082 C-344.31292171 110.43817342 -343.40583506 107.21438566 -342.47631836 103.9934082 C-342.27200195 103.26412109 -342.06768555 102.53483398 -341.85717773 101.78344727 C-330.37282747 61.51530485 -304.23974374 23.8454568 -271.47631836 -2.0065918 C-270.50049805 -2.79936523 -269.52467773 -3.59213867 -268.51928711 -4.40893555 C-195.86510745 -62.25811256 -89.96782418 -63.85861757 0 0 Z " fill="#1A04AD" transform="translate(425.476318359375,121.006591796875)"/>
<path d="M0 0 C2.66030365 1.91421282 5.25019055 3.88855067 7.8203125 5.921875 C8.635 6.54578125 9.4496875 7.1696875 10.2890625 7.8125 C21.06080851 16.19809974 30.50716921 25.07996135 38.8203125 35.921875 C39.55894531 36.84484375 40.29757812 37.7678125 41.05859375 38.71875 C53.63004678 54.78589205 63.60182458 74.18088452 68.8203125 93.921875 C69.39990723 93.75977539 69.97950195 93.59767578 70.57666016 93.43066406 C74.74592723 92.48520676 79.17458638 92.67538321 83.4453125 92.66796875 C87.30105201 92.5385358 90.13448651 92.12823257 93.3203125 89.8515625 C96.49323876 86.13328954 96.49293255 84.12554783 96.4453125 79.296875 C96.40466163 72.39977773 96.40466163 72.39977773 98.515625 69.97265625 C101.23579352 68.73244382 103.09330565 68.61686157 106.0703125 68.734375 C107.40835938 68.77498047 107.40835938 68.77498047 108.7734375 68.81640625 C109.44890625 68.85121094 110.124375 68.88601562 110.8203125 68.921875 C111.14644531 69.94667969 111.47257813 70.97148437 111.80859375 72.02734375 C112.24967497 73.38812623 112.69109943 74.74879749 113.1328125 76.109375 C113.34615234 76.78291016 113.55949219 77.45644531 113.77929688 78.15039062 C115.06803613 82.09354803 116.6134465 85.38182896 118.8203125 88.921875 C118.8203125 89.581875 118.8203125 90.241875 118.8203125 90.921875 C119.8103125 90.921875 120.8003125 90.921875 121.8203125 90.921875 C122.0884375 90.303125 122.3565625 89.684375 122.6328125 89.046875 C123.8203125 86.921875 123.8203125 86.921875 126.8203125 84.921875 C132.95544296 85.2505427 132.95544296 85.2505427 135.49609375 87.22265625 C137.5727524 89.88739523 137.53209147 91.99775654 137.4453125 95.30078125 C135.94884467 101.5765932 131.11073913 107.39492391 125.8203125 110.921875 C124.1703125 110.921875 122.5203125 110.921875 120.8203125 110.921875 C121.4803125 116.531875 122.1403125 122.141875 122.8203125 127.921875 C124.1403125 126.931875 125.4603125 125.941875 126.8203125 124.921875 C130.04622778 124.51863559 132.12003395 124.63797829 135.1328125 125.859375 C137.80189225 129.12158359 137.64820134 132.81702376 137.8203125 136.921875 C138.8928125 137.004375 139.9653125 137.086875 141.0703125 137.171875 C144.8203125 137.921875 144.8203125 137.921875 147.3203125 139.546875 C148.8203125 141.921875 148.8203125 141.921875 148.8203125 145.484375 C147.8203125 148.921875 147.8203125 148.921875 146.2578125 150.796875 C142.78683525 152.3988645 139.62698155 152.60465258 135.8203125 152.921875 C135.4490625 154.3140625 135.4490625 154.3140625 135.0703125 155.734375 C133.72020231 159.17715599 133.15731818 160.38865617 129.8203125 161.921875 C123.49303977 161.59460227 123.49303977 161.59460227 120.8203125 158.921875 C120.40625 156.7578125 120.40625 156.7578125 120.1953125 154.296875 C120.08316406 153.07097656 120.08316406 153.07097656 119.96875 151.8203125 C119.91976562 151.19382812 119.87078125 150.56734375 119.8203125 149.921875 C118.88445312 149.71111328 118.88445312 149.71111328 117.9296875 149.49609375 C115.31609125 148.78461477 114.36070593 148.15544547 112.8203125 145.921875 C112.8203125 143.941875 112.8203125 141.961875 112.8203125 139.921875 C100.2803125 139.921875 87.7403125 139.921875 74.8203125 139.921875 C74.8203125 142.891875 74.8203125 145.861875 74.8203125 148.921875 C74.53707965 151.61511589 74.20667504 154.30398485 73.8203125 156.984375 C73.67722656 157.99661133 73.67722656 157.99661133 73.53125 159.02929688 C73.29980963 160.66095149 73.0608886 162.29154234 72.8203125 163.921875 C69.4395997 160.82037286 67.18099765 157.53309192 64.8203125 153.609375 C64.47000977 153.03123047 64.11970703 152.45308594 63.75878906 151.85742188 C61.97807526 148.90671438 60.24563586 145.93346818 58.5703125 142.921875 C55.2164852 137.17245677 52.88395213 134.37264998 46.48046875 132.48046875 C41.64061664 131.46417088 36.75161995 131.16385117 31.8203125 130.921875 C31.8203125 133.891875 31.8203125 136.861875 31.8203125 139.921875 C33.2021875 139.839375 34.5840625 139.756875 36.0078125 139.671875 C39.59077764 139.66059007 40.66593265 139.82538759 43.8203125 141.796875 C47.15234085 145.33715513 47.45733997 148.29065078 47.4296875 153.046875 C46.21423767 158.78130495 42.04205191 163.04226432 37.8203125 166.921875 C35.8302613 167.94152995 33.83123946 168.94403414 31.8203125 169.921875 C29.45329191 172.96984873 29.45329191 172.96984873 27.8203125 175.921875 C28.6246875 175.963125 29.4290625 176.004375 30.2578125 176.046875 C36.20303584 177.50710529 41.41218147 180.80967845 44.8203125 185.921875 C45.38744329 190.86401471 45.45019544 192.89831522 42.8203125 197.171875 C37.24237071 202.97041336 28.66404291 205.86091818 20.76953125 206.22265625 C19.34908413 206.24196074 17.92834758 206.24545411 16.5078125 206.234375 C15.76088135 206.22946045 15.0139502 206.2245459 14.24438477 206.21948242 C4.49986651 206.01350074 -2.09607395 203.1454568 -10.1796875 197.921875 C-10.3655542 198.62570312 -10.5514209 199.32953125 -10.74291992 200.0546875 C-13.96977601 212.24215999 -17.20752568 224.39833417 -21.06640625 236.40234375 C-22.17674749 239.91258045 -23.18968141 243.43849662 -24.1796875 246.984375 C-24.84154663 249.29825555 -25.50829693 251.61074208 -26.1796875 253.921875 C-26.53546875 255.14777344 -26.89125 256.37367188 -27.2578125 257.63671875 C-30.59206656 268.40635937 -35.14550403 280.65727386 -44.1796875 287.921875 C-49.77490345 288.98629656 -55.3556597 288.52988427 -60.7421875 286.734375 C-66.43209859 282.50341547 -67.76343177 278.34909269 -69.3984375 271.67578125 C-70.10134614 269.19802829 -70.92851244 267.27908505 -72.1796875 265.046875 C-77.51764736 254.9930636 -77.586217 243.71248592 -77.3671875 232.609375 C-77.35208586 231.27149975 -77.33840731 229.93360766 -77.32617188 228.59570312 C-77.29124347 225.37064752 -77.24219874 222.14649352 -77.1796875 218.921875 C-76.23061523 218.45362305 -75.28154297 217.98537109 -74.30371094 217.50292969 C-63.00407486 211.78423297 -55.16002436 199.29391453 -50.1796875 187.921875 C-50.15881612 184.70780528 -50.15881612 184.70780528 -51.1796875 181.921875 C-54.42121916 179.7608539 -55.41661651 179.27939947 -59.1796875 179.921875 C-62.31376473 183.39288142 -64.5914981 187.20051519 -66.9296875 191.234375 C-71.25614699 198.45809939 -75.91478489 205.19732509 -84.1796875 207.921875 C-88.68416504 208.41327255 -91.82032183 208.24211759 -95.51171875 205.44140625 C-101.96990582 199.55795246 -107.70830159 193.01596073 -111.1796875 184.921875 C-111.1796875 184.261875 -111.1796875 183.601875 -111.1796875 182.921875 C-112.4378125 182.90125 -113.6959375 182.880625 -114.9921875 182.859375 C-116.05373047 182.84197266 -116.05373047 182.84197266 -117.13671875 182.82421875 C-119.38274211 182.83924283 -119.38274211 182.83924283 -122.1796875 183.921875 C-123.1796875 182.921875 -123.1796875 182.921875 -123.5546875 179.421875 C-123.45521685 171.62586297 -120.71376824 164.21382162 -118.1796875 156.921875 C-117.78007812 155.74882812 -117.38046875 154.57578125 -116.96875 153.3671875 C-114.42449433 147.18387524 -111.93411886 144.24205588 -105.8671875 141.296875 C-103.65961572 140.44684736 -101.43055951 139.64953929 -99.1796875 138.921875 C-97.96345703 138.52742188 -97.96345703 138.52742188 -96.72265625 138.125 C-85.08131189 135.0206415 -68.59514862 136.11672129 -57.1796875 139.921875 C-55.9921875 142.484375 -55.9921875 142.484375 -55.1796875 144.921875 C-51.38253053 145.46915207 -47.95713279 145.6815554 -44.1796875 144.921875 C-42.12422287 142.93837412 -40.99959975 140.93534412 -39.625 138.4375 C-35.79782505 131.77614684 -28.71524142 124.99850455 -21.1796875 122.921875 C-14.37261707 123.41970552 -10.83968406 126.15628939 -6.1796875 130.921875 C-3.13604735 133.19472317 -0.03805891 135.37096525 3.078125 137.54296875 C6.06550926 140.13458843 7.36461468 142.27259115 8.8203125 145.921875 C8.8203125 146.581875 8.8203125 147.241875 8.8203125 147.921875 C10.40258215 148.11814891 11.98620521 148.30353038 13.5703125 148.484375 C14.45203125 148.58878906 15.33375 148.69320312 16.2421875 148.80078125 C18.75019857 148.91858177 20.49133512 148.84722762 22.8203125 147.921875 C24.68903623 143.90411898 25.28819659 140.31998546 24.8203125 135.921875 C22.93390435 131.65263551 20.78623829 130.18811831 16.8203125 127.921875 C12.22411298 123.75322892 12.22411298 123.75322892 10.7578125 120.734375 C9.52083183 118.34287904 8.22548052 118.08181419 5.8203125 116.921875 C4.41180929 116.00352014 3.01655247 115.06463447 1.6328125 114.109375 C-9.77267579 106.19726011 -9.77267579 106.19726011 -23.1796875 104.921875 C-27.27426894 106.38751992 -31.2295381 108.10571436 -35.1796875 109.921875 C-35.8396875 109.261875 -36.4996875 108.601875 -37.1796875 107.921875 C-39.2460488 107.48973204 -39.2460488 107.48973204 -41.5546875 107.484375 C-42.32554687 107.44441406 -43.09640625 107.40445313 -43.890625 107.36328125 C-47.33486266 108.20376928 -48.28037739 109.99558928 -50.1796875 112.921875 C-51.11111367 115.07761205 -51.96423587 117.26862497 -52.7421875 119.484375 C-55.34959802 126.87916222 -55.34959802 126.87916222 -58.1796875 129.921875 C-60.7421875 130.296875 -60.7421875 130.296875 -63.1796875 129.921875 C-65.88238775 127.21917475 -65.8507148 124.80151787 -66.421875 121.11328125 C-67.43510525 118.18327005 -68.4481991 117.36983791 -71.1796875 115.921875 C-75.86353652 115.30621443 -80.47526114 115.6102253 -85.1796875 115.921875 C-86.18902344 115.97214844 -87.19835937 116.02242187 -88.23828125 116.07421875 C-97.56609539 117.40314749 -102.66198471 123.73276039 -108.734375 130.35546875 C-113.48997074 135.45708238 -117.96246634 138.63377072 -124.9921875 139.15625 C-128.96575733 138.73051038 -130.56227846 136.86646017 -133.1796875 133.921875 C-135.31536044 127.97913292 -135.63204065 119.50022595 -133.26171875 113.66015625 C-124.53415656 102.27081556 -108.45826131 101.16344106 -95.35546875 99.41015625 C-92.16679803 99.01112716 -92.16679803 99.01112716 -89.1796875 97.921875 C-89.64309531 93.57372942 -90.1133538 89.24046601 -90.8046875 84.921875 C-90.9284375 83.931875 -91.0521875 82.941875 -91.1796875 81.921875 C-89.48286844 80.22505594 -87.44785437 80.62843266 -85.1171875 80.546875 C-75.85402871 80.61296175 -67.46679858 83.96345397 -58.87890625 87.14453125 C-50.81644942 90.06207399 -43.95434076 91.15669912 -35.5546875 88.984375 C-33.02164686 87.21023445 -33.02164686 87.21023445 -32.77734375 84.89453125 C-32.66948987 83.31355118 -32.57866816 81.73132761 -32.50390625 80.1484375 C-32.1796875 77.921875 -32.1796875 77.921875 -29.9296875 74.921875 C-27.18660675 72.92690718 -25.5226429 72.20841403 -22.1796875 71.921875 C-23.0046875 71.385625 -23.8296875 70.849375 -24.6796875 70.296875 C-27.1796875 67.921875 -27.1796875 67.921875 -27.7421875 64.984375 C-27.06340687 61.28879159 -25.57854664 59.75689035 -23.1796875 56.921875 C-22.16468446 54.57715408 -22.16468446 54.57715408 -22.1796875 51.921875 C-23.78111574 49.36940251 -23.78111574 49.36940251 -26.1796875 47.046875 C-27.00597656 46.180625 -27.83226562 45.314375 -28.68359375 44.421875 C-31.35149864 41.74979499 -34.01937732 39.07980278 -36.76953125 36.4921875 C-40.31559735 32.54338259 -40.52774997 28.74245088 -40.9921875 23.546875 C-41.72428171 16.49266488 -43.43973487 10.52335775 -46.05859375 3.91015625 C-48.09183763 -1.50946594 -48.54993887 -6.3392287 -48.1796875 -12.078125 C-46.57684228 -14.90667538 -44.94793082 -15.16558035 -41.8671875 -16.328125 C-28.43630866 -19.05982917 -10.97895679 -7.17543613 0 0 Z " fill="#6EC473" transform="translate(380.1796875,146.078125)"/>
<path d="M0 0 C15.18 0 30.36 0 46 0 C46.66 6.93 47.32 13.86 48 21 C55.1145364 63.1602157 74.52682848 102.59297446 109 129 C109.94617188 129.75023437 110.89234375 130.50046875 111.8671875 131.2734375 C119.1719352 136.95060216 126.82090581 141.71127289 135 146 C135.94456055 146.50080078 135.94456055 146.50080078 136.90820312 147.01171875 C149.05608445 153.35926034 161.7815458 157.46619196 175 161 C175.71212646 161.19158691 176.42425293 161.38317383 177.15795898 161.58056641 C184.3501178 163.34812373 191.70628097 163.91400229 199.0625 164.625 C203.661875 165.07875 208.26125 165.5325 213 166 C213 181.51 213 197.02 213 213 C189.67168025 213 189.67168025 213 180.125 211.375 C178.48640015 211.10550537 178.48640015 211.10550537 176.81469727 210.83056641 C121.37140454 201.26624649 70.63756405 170.02209699 38 124 C34.82548115 119.43823947 31.87264546 114.75648714 29 110 C28.60312988 109.34999023 28.20625977 108.69998047 27.79736328 108.03027344 C16.013474 88.51978004 8.07489903 67.17822198 3 45 C2.82355957 44.25298828 2.64711914 43.50597656 2.46533203 42.73632812 C-0.76854583 28.57008415 -0.21934544 14.47679895 0 0 Z " fill="#145404" transform="translate(76,286)"/>
<path d="M0 0 C12.54 0 25.08 0 38 0 C38.99 3.465 38.99 3.465 40 7 C41.64142963 8.0409066 43.30712215 9.04504326 45 10 C53.16216612 39.30268334 33.76585394 80.48714261 20 105.5625 C10.5190569 122.3504711 -1.81821803 137.01277383 -15 151 C-15.68964844 151.7321875 -16.37929688 152.464375 -17.08984375 153.21875 C-47.60884333 184.67391521 -89.49723695 203.10919167 -132 211 C-132.71381836 211.13277344 -133.42763672 211.26554688 -134.16308594 211.40234375 C-144.90063107 213.31267162 -154.92457491 213 -166 213 C-166 197.49 -166 181.98 -166 166 C-169.63 166 -173.26 166 -177 166 C-177 165.67 -177 165.34 -177 165 C-175.66376587 164.97812622 -175.66376587 164.97812622 -174.30053711 164.95581055 C-170.91734282 164.89386011 -167.5348456 164.8195616 -164.15209961 164.73754883 C-162.70265513 164.70479212 -161.25309809 164.67661659 -159.8034668 164.65356445 C-146.08576052 164.42977681 -133.28300615 162.29187458 -120.125 158.25 C-119.28767334 157.99468506 -118.45034668 157.73937012 -117.58764648 157.47631836 C-75.25744142 144.23287992 -41.26349583 115.83006159 -20 77 C-7.28587806 52.58175645 -2.46428055 27.10708606 0 0 Z " fill="#024CAD" transform="translate(455,286)"/>
<path d="M0 0 C10.14235742 7.3119321 15.41216056 14.61799711 18.9375 26.625 C19.19273437 27.45322266 19.44796875 28.28144531 19.7109375 29.13476562 C25.76270623 49.0259739 25.48348972 73.95963923 15.8203125 92.734375 C10.33461335 102.16892373 4.69196907 108.54957497 -5.3125 112.9375 C-4.879375 113.37320313 -4.44625 113.80890625 -4 114.2578125 C-1.3853434 117.05404248 0.46807375 119.1441897 1.5 122.875 C-0.09582334 128.89002643 -4.49008461 132.87718559 -9.75 135.9375 C-10.595625 136.2675 -11.44125 136.5975 -12.3125 136.9375 C-9.07543257 143.15266947 -5.12576879 149.84499873 1.171875 153.30078125 C11.74990723 160.1830724 16.87391416 180.49674249 20.6875 191.9375 C21.5482417 202.24984771 21.38663364 217.53923272 16.6875 226.9375 C-2.66827475 223.61350326 -21.44313383 208.04201142 -35.3125 194.9375 C-36.66258458 193.78685973 -38.01661589 192.6408304 -39.375 191.5 C-61.03544092 172.43362386 -80.73549013 140.16890573 -84.6875 111.1875 C-84.3125 108.9375 -84.3125 108.9375 -82.5625 107.40234375 C-74.09659652 101.89068784 -62.95399036 101.5936965 -53.30078125 103.546875 C-49.49799179 104.63497242 -46.62262579 105.73074947 -43.3125 107.9375 C-41.17594036 108.03091009 -41.17594036 108.03091009 -38.86328125 107.6953125 C-37.59194336 107.55029297 -37.59194336 107.55029297 -36.29492188 107.40234375 C-34.97331055 107.23412109 -34.97331055 107.23412109 -33.625 107.0625 C-32.28598633 106.90587891 -32.28598633 106.90587891 -30.91992188 106.74609375 C-28.71601151 106.48681018 -26.51393331 106.21691634 -24.3125 105.9375 C-25.09173828 104.93783203 -25.09173828 104.93783203 -25.88671875 103.91796875 C-41.23451556 83.63391197 -42.85046728 59.71177458 -39.69189453 34.97998047 C-39.04294516 31.48634442 -37.9149573 28.24094964 -36.625 24.9375 C-36.3580835 24.24470947 -36.09116699 23.55191895 -35.81616211 22.83813477 C-32.21622381 13.81768473 -26.82638546 5.14906388 -18.5 -0.234375 C-12.86210194 -2.36872212 -5.64705294 -1.81131887 0 0 Z " fill="#F9FAFB" transform="translate(211.3125,213.0625)"/>
<path d="M0 0 C17.00956575 -0.3507127 32.47423209 -0.00175546 49 4 C49.85722656 4.20367187 50.71445312 4.40734375 51.59765625 4.6171875 C85.06608 12.7949924 115.31097179 29.21788814 141 52 C142.37671875 53.21042969 142.37671875 53.21042969 143.78125 54.4453125 C152.37065865 62.07746778 159.8521447 69.99206452 167 79 C167.81855469 80.01320313 168.63710938 81.02640625 169.48046875 82.0703125 C175.77116297 89.95292254 181.05069053 98.2212978 186 107 C186.52207031 107.91652344 186.52207031 107.91652344 187.0546875 108.8515625 C191.16155212 116.10805262 194.78293066 123.49321895 198 131.1875 C198.30309082 131.90663574 198.60618164 132.62577148 198.91845703 133.36669922 C200.32808563 136.84400381 201 139.19318189 201 143 C200.38511719 142.97679687 199.77023437 142.95359375 199.13671875 142.9296875 C198.32847656 142.91164062 197.52023437 142.89359375 196.6875 142.875 C195.88699219 142.85179687 195.08648437 142.82859375 194.26171875 142.8046875 C191.71611424 142.84182678 191.71611424 142.84182678 189 145 C188.67839631 148.38144251 188.67839631 148.38144251 188.75 152.25 C188.40301354 160.77335922 188.40301354 160.77335922 185.5 163.875 C180.44659274 167.27572061 173.7441283 166.81417021 167.86328125 166.89453125 C164.88723725 166.97577815 162.79233336 167.21653398 160 168 C158.54084669 164.77450321 157.19280552 161.60040316 156.109375 158.2265625 C150.88838272 142.13499674 142.73465481 126.11761201 132 113 C131.37996094 112.19304687 130.75992188 111.38609375 130.12109375 110.5546875 C119.1406473 96.40211208 106.97895944 84.89720875 92 75 C91.03707031 74.36320312 90.07414062 73.72640625 89.08203125 73.0703125 C73.71226726 63.256575 57.51341228 56.9447971 40 52 C39.06978027 51.73421143 38.13956055 51.46842285 37.18115234 51.19458008 C29.26694016 49.06322135 21.3961824 48.09130765 13.25 47.3125 C8.8775 46.879375 4.505 46.44625 0 46 C0 30.82 0 15.64 0 0 Z " fill="#145404" transform="translate(289,73)"/>
<path d="M0 0 C1.1875 2.5625 1.1875 2.5625 2 5 C3.74991334 5.02715383 5.49994945 5.04646551 7.25 5.0625 C8.22453125 5.07410156 9.1990625 5.08570313 10.203125 5.09765625 C12.92171981 5.11400989 12.92171981 5.11400989 15.140625 4.39453125 C17 4 17 4 20.5 5.625 C24.91713521 8.98687881 25.48548178 13.40106905 26.83984375 18.56640625 C29.70476235 27.04540776 36.17884574 33.53430195 42.6875 39.4375 C46.29968949 41.14136297 46.68813469 41.16216064 50.25 40 C52.62510007 39.0695889 54.89562747 38.05322059 57.16796875 36.89453125 C66.23778872 32.57036579 76.97304408 32.41190362 86.6171875 34.953125 C92.37593292 37.22215686 99.09483065 40.1896613 102 46 C102.49013502 50.90135019 102.61120094 53.00679846 100 57.25 C94.42205821 63.04853836 85.84373041 65.93904318 77.94921875 66.30078125 C76.52877163 66.32008574 75.10803508 66.32357911 73.6875 66.3125 C72.94056885 66.30758545 72.1936377 66.3026709 71.42407227 66.29760742 C61.67955401 66.09162574 55.08361355 63.2235818 47 58 C46.8141333 58.70382812 46.6282666 59.40765625 46.43676758 60.1328125 C43.20991149 72.32028499 39.97216182 84.47645917 36.11328125 96.48046875 C35.00294001 99.99070545 33.99000609 103.51662162 33 107.0625 C32.33814087 109.37638055 31.67139057 111.68886708 31 114 C30.64421875 115.22589844 30.2884375 116.45179688 29.921875 117.71484375 C26.58762094 128.48448437 22.03418347 140.73539886 13 148 C7.40478405 149.06442156 1.8240278 148.60800927 -3.5625 146.8125 C-9.25241109 142.58154047 -10.58374427 138.42721769 -12.21875 131.75390625 C-12.92165864 129.27615329 -13.74882494 127.35721005 -15 125.125 C-20.33795986 115.0711886 -20.4065295 103.79061092 -20.1875 92.6875 C-20.17239836 91.34962475 -20.15871981 90.01173266 -20.14648438 88.67382812 C-20.11155597 85.44877252 -20.06251124 82.22461852 -20 79 C-19.05092773 78.53174805 -18.10185547 78.06349609 -17.12402344 77.58105469 C-5.82438736 71.86235797 2.01966314 59.37203953 7 48 C7.02087138 44.78593028 7.02087138 44.78593028 6 42 C2.75846834 39.8389789 1.76307099 39.35752447 -2 40 C-5.13407723 43.47100642 -7.4118106 47.27864019 -9.75 51.3125 C-14.07645949 58.53622439 -18.73509739 65.27545009 -27 68 C-31.50447754 68.49139755 -34.64063433 68.32024259 -38.33203125 65.51953125 C-44.79021832 59.63607746 -50.52861409 53.09408573 -54 45 C-54 44.34 -54 43.68 -54 43 C-55.258125 42.979375 -56.51625 42.95875 -57.8125 42.9375 C-58.52019531 42.92589844 -59.22789062 42.91429687 -59.95703125 42.90234375 C-62.20305461 42.91736783 -62.20305461 42.91736783 -65 44 C-66 43 -66 43 -66.375 39.5 C-66.27552935 31.70398797 -63.53408074 24.29194662 -61 17 C-60.60039062 15.82695312 -60.20078125 14.65390625 -59.7890625 13.4453125 C-57.24480683 7.26200024 -54.75443136 4.32018088 -48.6875 1.375 C-46.47992822 0.52497236 -44.25087201 -0.27233571 -42 -1 C-41.18917969 -1.26296875 -40.37835938 -1.5259375 -39.54296875 -1.796875 C-27.90162439 -4.9012335 -11.41546112 -3.80515371 0 0 Z " fill="#6FC473" transform="translate(323,286)"/>
<path d="M0 0 C0 0.66 0 1.32 0 2 C-0.60328125 2.23074219 -1.2065625 2.46148437 -1.828125 2.69921875 C-8.59247097 5.4114276 -8.59247097 5.4114276 -13 11 C-13.72130193 14.19264791 -13.82438033 16.82024732 -13 20 C-8.9039923 25.72946092 -2.28561344 27.94687997 4.2890625 29.5625 C13.19788662 31.0002353 22.34410504 30.4297249 31 28 C31.26425781 28.7321875 31.52851563 29.464375 31.80078125 30.21875 C34.22160079 35.83315884 38.10440872 41.09283923 43.4375 44.1875 C54.70150242 51.68007304 59.92655848 71.77967545 64 84 C64.8607417 94.31234771 64.69913364 109.60173272 60 119 C40.64422525 115.67600326 21.86936617 100.10451142 8 87 C6.64991542 85.84935973 5.29588411 84.7033304 3.9375 83.5625 C-17.72294092 64.49612386 -37.42299013 32.23140573 -41.375 3.25 C-41 1 -41 1 -39.25 -0.53515625 C-28.16051002 -7.75487629 -10.90673686 -7.27115791 0 0 Z " fill="#6FC473" transform="translate(168,321)"/>
<path d="M0 0 C3.25 1.5625 3.25 1.5625 6 4 C6.50144531 4.41636719 7.00289062 4.83273438 7.51953125 5.26171875 C15.17706831 12.64784943 17.19682335 24.51240419 17.44140625 34.70654297 C17.42166137 47.87884333 16.67677853 60.87634039 7.12109375 70.98828125 C2.31647929 75.19106509 -0.96318441 76.50716346 -7.40234375 76.38671875 C-11.94014448 75.71116646 -14.26828296 73.58203092 -17 70 C-25.47234375 56.27240529 -28.05022331 41.53020483 -25.25 25.6875 C-24.86712174 24.11637887 -24.44933641 22.55342015 -24 21 C-23.74347656 20.08605469 -23.48695313 19.17210937 -23.22265625 18.23046875 C-19.4964229 6.54001132 -12.90500083 -1.59545394 0 0 Z " fill="#040404" transform="translate(210,237)"/>
<path d="M0 0 C1.33804688 0.04060547 1.33804688 0.04060547 2.703125 0.08203125 C3.37859375 0.11683594 4.0540625 0.15164062 4.75 0.1875 C5.23919922 1.72470703 5.23919922 1.72470703 5.73828125 3.29296875 C6.17936247 4.65375123 6.62078693 6.01442249 7.0625 7.375 C7.38250977 8.38530273 7.38250977 8.38530273 7.70898438 9.41601562 C8.99772363 13.35917303 10.543134 16.64745396 12.75 20.1875 C12.75 20.8475 12.75 21.5075 12.75 22.1875 C13.74 22.1875 14.73 22.1875 15.75 22.1875 C16.018125 21.56875 16.28625 20.95 16.5625 20.3125 C17.75 18.1875 17.75 18.1875 20.75 16.1875 C26.88513046 16.5161677 26.88513046 16.5161677 29.42578125 18.48828125 C31.5024399 21.15302023 31.46177897 23.26338154 31.375 26.56640625 C29.87853217 32.8422182 25.04042663 38.66054891 19.75 42.1875 C15.51593144 41.81113835 11.75593335 40.5507465 7.75 39.1875 C7.64042969 40.14011719 7.53085937 41.09273437 7.41796875 42.07421875 C7.18013672 43.95560547 7.18013672 43.95560547 6.9375 45.875 C6.78667969 47.11636719 6.63585937 48.35773438 6.48046875 49.63671875 C5.55125643 54.15358506 3.98891977 56.94858023 0.75 60.1875 C-2.125 60.625 -2.125 60.625 -5.25 60.1875 C-7.52756666 58.08952641 -9.04817986 56.40074594 -9.56787109 53.27661133 C-9.64321578 51.12524236 -9.59917713 49.02595876 -9.5 46.875 C-9.4175 44.338125 -9.335 41.80125 -9.25 39.1875 C-18.49 39.5175 -27.73 39.8475 -37.25 40.1875 C-40.25 35.1875 -40.25 35.1875 -40.3125 31.625 C-39.25 28.1875 -39.25 28.1875 -36.71484375 26 C-31.89739184 23.47993497 -27.85751432 23.69811707 -22.52734375 23.78710938 C-18.68301872 23.72865363 -15.93849675 23.4033831 -12.7578125 21.12890625 C-9.58037843 17.40210273 -9.57729003 15.40029074 -9.625 10.5625 C-9.66565087 3.66540273 -9.66565087 3.66540273 -7.5546875 1.23828125 C-4.83451898 -0.00193118 -2.97700685 -0.11751343 0 0 Z " fill="#F7D134" transform="translate(486.25,214.8125)"/>
<path d="M0 0 C1.26057908 0.6033783 2.50928886 1.23175753 3.75 1.875 C4.60980469 2.31199219 5.46960938 2.74898437 6.35546875 3.19921875 C14.32408462 7.38686378 21.29500724 11.60167632 26.75 18.875 C27.74 19.535 28.73 20.195 29.75 20.875 C29.75 21.535 29.75 22.195 29.75 22.875 C30.4925 23.08125 31.235 23.2875 32 23.5 C35.7598454 25.3799227 36.95472281 27.07729826 38.75 30.875 C39.07880275 35.39212346 38.60916134 38.76640473 35.8125 42.375 C32.28551489 44.94008008 30.10849839 45.1365099 25.75 44.875 C22.73322982 43.92687223 21.86645175 43.03720065 20 40.4375 C18.75 37.875 18.75 37.875 18.75 34.875 C18.1828125 34.61460937 17.615625 34.35421875 17.03125 34.0859375 C14.54525405 32.76631636 12.46394643 31.23627991 10.25 29.5 C9.12078125 28.62214844 9.12078125 28.62214844 7.96875 27.7265625 C5.75 25.875 5.75 25.875 3.76171875 23.77734375 C0.2988614 20.50275825 -3.53979413 19.28488517 -8.25 18.875 C-15.61779138 20.80935326 -21.49402411 27.22025701 -26.25 32.875 C-27.11574681 34.37761803 -27.952684 35.89747868 -28.75 37.4375 C-30.14925936 39.88010955 -30.67860528 40.70657805 -33.41015625 41.51171875 C-37.15636702 41.68836934 -39.56107865 41.27827103 -42.8125 39.375 C-44.80416416 35.91123624 -44.83001577 32.74029251 -44.25 28.875 C-42.87775929 26.23854605 -41.6616715 24.24041586 -39.875 21.9375 C-39.42092773 21.33413818 -38.96685547 20.73077637 -38.49902344 20.10913086 C-30.03259086 9.15747559 -15.06936054 -5.21631711 0 0 Z " fill="#010302" transform="translate(367.25,251.125)"/>
<path d="M0 0 C-2.82409859 5.30197356 -6.03550006 9.6881851 -10 14.1875 C-10.52078125 14.79013672 -11.0415625 15.39277344 -11.578125 16.01367188 C-19.37043055 24.97679102 -19.37043055 24.97679102 -23.8125 26.75 C-30.21557272 29.79681527 -34.04154556 35.15194 -37.375 41.25 C-39.72339279 45.11078814 -42.19178838 46.801601 -46.40625 48.375 C-53.6000761 50.10845207 -60.8327472 50.10516659 -67.30859375 46.265625 C-71.08496647 43.43988652 -73.66061616 40.81004715 -74.5625 36 C-73.63029995 31.02826641 -71.82374092 28.39304196 -67.8828125 25.3828125 C-64.980557 23.46855887 -62.02038263 21.72242494 -59 20 C-58.38431152 19.64502441 -57.76862305 19.29004883 -57.13427734 18.92431641 C-41.09285428 9.75835801 -18.97975318 -1.54936761 0 0 Z " fill="#6EC375" transform="translate(263,122)"/>
<path d="M0 0 C2.50476668 3.75715002 2.64499881 7.18781361 3.0625 11.5625 C3.39888136 16.94485043 3.39888136 16.94485043 5 22 C5.46009693 27.52116313 4.5397015 30.54947744 1.6875 35.25 C-0.77717578 39.52013688 -2.47707584 43.17857401 -3.5 48 C-4.56316726 52.63142238 -4.56316726 52.63142238 -6.625 54.37109375 C-7.24375 54.72300781 -7.8625 55.07492188 -8.5 55.4375 C-11.15906471 56.9696542 -11.8783267 57.65116839 -12.91015625 60.609375 C-13.35213005 62.69485619 -13.78546617 64.78218332 -14.2109375 66.87109375 C-17.31860428 79.19406946 -27.99926137 87.99729462 -38 95 C-38.33 95 -38.66 95 -39 95 C-38.92800868 74.8784263 -32.68843254 54.97207265 -24 37 C-23.48397217 35.91066162 -23.48397217 35.91066162 -22.95751953 34.79931641 C-17.84887053 24.13664901 -11.55446103 14.81765251 -4.22753906 5.55615234 C-2.78556512 3.72816071 -1.38558724 1.87101407 0 0 Z " fill="#6DC375" transform="translate(162,177)"/>
<path d="M0 0 C20.3183747 -0.84269757 20.3183747 -0.84269757 26.3828125 3.83984375 C28.38309107 6.51171344 28.57908343 8.62405185 28.359375 11.92578125 C27.44681499 17.19283954 25.49351872 19.88798969 21.30859375 23.00390625 C19.2131176 24.38602882 17.10060523 25.74263464 14.97265625 27.07421875 C12.45413913 28.70579423 10.3250533 30.3521322 8.125 32.375 C5.26598819 34.91480176 2.8502363 36.33039369 -1 37 C-1.75152344 36.68804687 -2.50304687 36.37609375 -3.27734375 36.0546875 C-8.33486234 34.09553396 -13.66655905 34.47407283 -19 35 C-24.05038084 37.24461371 -27.11282952 41.19388649 -30.58203125 45.390625 C-31.04996094 45.92171875 -31.51789063 46.4528125 -32 47 C-32.33 47 -32.66 47 -33 47 C-33.08087344 43.68418913 -32.9474275 40.66119944 -32.4375 37.375 C-31.81783026 34.25678031 -31.81783026 34.25678031 -32.44921875 32.29296875 C-33.27232186 28.86629124 -33.30558954 25.44272808 -33.375 21.9375 C-33.41238281 21.21755859 -33.44976562 20.49761719 -33.48828125 19.75585938 C-33.5234375 17.65234375 -33.5234375 17.65234375 -33 14 C-29.43943665 10.68083077 -25.52994036 10.46929977 -20.8125 10 C-11.61865981 9.07777881 -11.61865981 9.07777881 -3 6 C-0.79236335 3.01369695 -0.79236335 3.01369695 0 0 Z " fill="#6FC475" transform="translate(214,178)"/>
<path d="M0 0 C2.13121848 1.68491626 3.74923197 3.17815145 4.97265625 5.625 C5.46279127 10.52635019 5.58385719 12.63179846 2.97265625 16.875 C-2.60528554 22.67353836 -11.18361334 25.56404318 -19.078125 25.92578125 C-20.49857212 25.94508574 -21.91930867 25.94857911 -23.33984375 25.9375 C-24.0867749 25.93258545 -24.83370605 25.9276709 -25.60327148 25.92260742 C-35.8281337 25.70647212 -44.37830365 22.74444259 -52.02734375 15.8125 C-53.57381353 12.42959735 -53.65269535 9.22616264 -53.02734375 5.625 C-50.28579824 0.59883323 -46.09834728 -1.23695527 -41.02734375 -3.375 C-40.40472656 -3.67664063 -39.78210938 -3.97828125 -39.140625 -4.2890625 C-26.63000848 -9.54892878 -11.01951409 -7.47373595 0 0 Z " fill="#EF97B0" transform="translate(420.02734375,326.375)"/>
<path d="M0 0 C2.37072251 1.54048973 4.26475374 1.76878127 7.0546875 2.12890625 C11.81216008 2.90713479 14.10913218 4.49503998 16.91796875 8.3984375 C18.57802527 11.44294269 18.82907887 12.86389264 17.9296875 16.25390625 C13.99242775 22.51220492 8.96994417 26.14540298 1.9296875 28.25390625 C-9.97470278 30.70384292 -22.77466546 30.36599822 -33.5078125 24.31640625 C-34.3534375 23.63578125 -35.1990625 22.95515625 -36.0703125 22.25390625 C-36.8540625 21.69703125 -37.6378125 21.14015625 -38.4453125 20.56640625 C-40.61073976 17.48483669 -40.70284693 15.21174892 -40.5078125 11.5 C-39.78461756 7.78716884 -38.00337705 5.47407317 -35.0703125 3.25390625 C-32.16057093 1.63322298 -29.19997742 0.38449128 -26.0703125 -0.74609375 C-25.12800781 -1.09285156 -24.18570313 -1.43960937 -23.21484375 -1.796875 C-15.03596272 -4.26577946 -6.96552975 -5.48572837 0 0 Z " fill="#EF97B0" transform="translate(194.0703125,322.74609375)"/>
<path d="M0 0 C3.87018 0.73717714 5.31513713 2.37489141 7.625 5.5 C6.9301246 16.64888969 -2.65894059 28.26768309 -10.63671875 35.5703125 C-17.7119242 41.31216005 -23.94765578 44.23107967 -33.1796875 43.9765625 C-42.07855284 42.64934786 -49.93953954 37.5660986 -55.375 30.5 C-67.04444196 14.13163832 -67.04444196 14.13163832 -66.375 6.5 C-64.14179398 3.83733129 -62.7549883 3.54652918 -59.3125 3.125 C-55.93274853 3.55645763 -55.4931265 3.97948535 -53.375 6.5 C-52.4662074 8.00088475 -51.5943338 9.52442995 -50.75 11.0625 C-46.9164611 17.58909997 -41.73051865 25.69719148 -34.375 28.5 C-28.31343077 29.06125641 -24.58845943 27.95094363 -19.76171875 24.26953125 C-14.83360305 19.86254963 -11.71920661 14.43064536 -8.4831543 8.74316406 C-3.97227199 0.83626779 -3.97227199 0.83626779 0 0 Z " fill="#010303" transform="translate(323.375,324.5)"/>
<path d="M0 0 C0.98291016 0.00322266 1.96582031 0.00644531 2.97851562 0.00976562 C4.51475586 0.02233398 4.51475586 0.02233398 6.08203125 0.03515625 C7.11779297 0.03966797 8.15355469 0.04417969 9.22070312 0.04882812 C11.77870391 0.06061615 14.33658858 0.0770711 16.89453125 0.09765625 C16.93191406 1.20625 16.96929687 2.31484375 17.0078125 3.45703125 C17.07348573 4.92060599 17.1399326 6.38414616 17.20703125 7.84765625 C17.22958984 8.57726562 17.25214844 9.306875 17.27539062 10.05859375 C17.48503969 14.25157499 17.71907336 17.17864864 20.89453125 20.09765625 C23.92118929 20.53904388 25.89806087 20.78242284 28.48046875 19.0078125 C30.54300681 16.22167683 30.87768548 13.48321635 31.51953125 10.09765625 C32.84975513 3.23198461 32.84975513 3.23198461 33.89453125 0.09765625 C36.26953125 -0.08984375 36.26953125 -0.08984375 38.89453125 0.09765625 C43.74981193 7.38057726 41.99510979 18.61553236 41.89453125 27.09765625 C36.22316484 30.94739176 32.23720776 31.65505922 25.4609375 31.48828125 C24.14403175 31.47979156 24.14403175 31.47979156 22.80052185 31.47113037 C20.01878445 31.44888478 17.23837393 31.39871216 14.45703125 31.34765625 C12.56186767 31.3275759 10.66668373 31.30932783 8.77148438 31.29296875 C4.14532841 31.24905895 -0.47984584 31.18011507 -5.10546875 31.09765625 C-5.16081787 30.47310547 -5.21616699 29.84855469 -5.27319336 29.20507812 C-5.52831657 26.33580477 -5.78562803 23.46673154 -6.04296875 20.59765625 C-6.17348633 19.12425781 -6.17348633 19.12425781 -6.30664062 17.62109375 C-6.80387967 12.09621543 -7.3787499 6.59715027 -8.10546875 1.09765625 C-5.10530963 0.09760321 -3.13123119 -0.0180996 0 0 Z " fill="#175605" transform="translate(460.10546875,253.90234375)"/>
<path d="M0 0 C2.3125 0.9375 2.3125 0.9375 4 3 C4.63117457 5.99144924 4.87206898 8.94884515 5 12 C6.0725 12.0825 7.145 12.165 8.25 12.25 C12 13 12 13 14.5 14.625 C16 17 16 17 16 20.5625 C15 24 15 24 13.4375 25.875 C9.96652275 27.4769895 6.80666905 27.68277758 3 28 C2.7525 28.928125 2.505 29.85625 2.25 30.8125 C0.89988981 34.25528099 0.33700568 35.46678117 -3 37 C-9.32727273 36.67272727 -9.32727273 36.67272727 -12 34 C-12.4140625 31.8359375 -12.4140625 31.8359375 -12.625 29.375 C-12.69976562 28.55773437 -12.77453125 27.74046875 -12.8515625 26.8984375 C-12.92503906 25.95871094 -12.92503906 25.95871094 -13 25 C-13.61875 24.87625 -14.2375 24.7525 -14.875 24.625 C-17 24 -17 24 -19 22 C-19.2790013 19.07048631 -19.4788142 16.84368924 -19 14 C-17.06051307 11.92197828 -15.53119729 11.1874814 -12.875 10.25 C-9.91775421 8.27850281 -9.8901158 5.32309899 -9 2 C-5.51131349 -0.32579101 -4.10281481 -0.41865457 0 0 Z " fill="#FBD53F" transform="translate(513,271)"/>
<path d="M0 0 C-1 3 -1 3 -3.375 5.3125 C-6.18360563 8.18797719 -7.55940561 10.25623309 -9 14 C-8.83491563 17.6571171 -8.83491563 17.6571171 -7.875 21.3125 C-7.60429687 22.54613281 -7.33359375 23.77976562 -7.0546875 25.05078125 C-6.70664062 26.02402344 -6.35859375 26.99726563 -6 28 C-5.01 28.33 -4.02 28.66 -3 29 C-1.82421875 30.78515625 -1.82421875 30.78515625 -0.6875 33.0625 C2.97378807 40.02040239 2.97378807 40.02040239 8 46 C11.55107891 46.98407238 11.55107891 46.98407238 15 47 C15.63421875 47.32871094 16.2684375 47.65742188 16.921875 47.99609375 C19.33508557 49.16187404 20.96136045 49.23649671 23.625 49.1875 C24.78902344 49.17783203 24.78902344 49.17783203 25.9765625 49.16796875 C28.0687268 49.12050633 28.0687268 49.12050633 30 48 C30 48.99 30 49.98 30 51 C27.6035023 51.98561596 25.20321894 52.95095712 22.78515625 53.8828125 C20.04357042 54.93432169 20.04357042 54.93432169 17.68359375 56.1796875 C15.32350609 57.26895873 13.60214281 57.87545299 11 58 C1.49286334 54.38105874 -4.20066505 45.01523761 -8.3125 36.1796875 C-9.62587456 32.94453694 -10.77689942 29.67328569 -11.875 26.359375 C-13.14885918 23.68780921 -14.02018876 22.98990562 -16.625 21.6875 C-17.73875 21.130625 -18.8525 20.57375 -20 20 C-17.85283379 11.81691101 -11.32525993 6.10537817 -4.5 1.375 C-2 0 -2 0 0 0 Z " fill="#08A8E2" transform="translate(358,270)"/>
<path d="M0 0 C6.16678346 0.22424667 6.16678346 0.22424667 8.8125 2.6875 C11.98867079 8.87267469 13.29722758 15.17090463 11.46484375 21.9921875 C10.00002361 25.72227595 8.23411753 28.62197241 5 31 C2.5625 31.6875 2.5625 31.6875 0 31 C-5.3131897 25.53798145 -6.34776096 20.01728243 -6.29296875 12.609375 C-5.73334183 7.62496455 -3.51976951 3.51976951 0 0 Z " fill="#F4F4F4" transform="translate(209,248)"/>
<path d="M0 0 C2.0321396 1.50528859 2.89813235 2.78989796 4 5.0625 C4.97325058 7.33242155 4.97325058 7.33242155 8 9 C8.98478953 13.84188185 8.98478953 13.84188185 8 17 C4.68163641 20.892972 1.07953812 23.74536268 -4.0625 24.375 C-8.42837762 22.33139771 -11.91645708 19.72309257 -15 16 C-15.6875 12.75 -15.6875 12.75 -15 10 C-13.625 8.125 -13.625 8.125 -12 7 C-11.34 7 -10.68 7 -10 7 C-9.9175 6.401875 -9.835 5.80375 -9.75 5.1875 C-8.15864689 0.54605343 -4.63656465 -0.71331764 0 0 Z " fill="#F5CF34" transform="translate(474,290)"/>
<path d="M0 0 C0.63366306 7.76237254 -2.24185472 12.0523184 -7 18 C-7.71614583 16.27473958 -8.43229167 14.54947917 -9.1484375 12.82421875 C-10.06806692 10.73466068 -10.06806692 10.73466068 -12 8 C-12.0625 6.0625 -12.0625 6.0625 -11 4 C-7.29486108 1.15810025 -4.73118747 0 0 0 Z " fill="#6EC479" transform="translate(234,216)"/>
</svg>
