<?xml version="1.0" encoding="UTF-8"?>
<svg version="1.1" xmlns="http://www.w3.org/2000/svg" width="770" height="675">
<path d="M0 0 C0.97027634 -0.00979385 1.94055267 -0.01958771 2.94023132 -0.02967834 C24.80613771 -0.2048131 46.04806919 0.01120167 67.578125 4.23828125 C68.62758301 4.44195312 69.67704102 4.645625 70.75830078 4.85546875 C125.56616008 15.91431752 178.63155357 42.72339151 217.578125 83.23828125 C220.05464 85.73499621 222.54642701 88.20791635 225.0859375 90.640625 C231.77807818 97.12301202 237.61442125 103.98054155 243.21191406 111.42333984 C244.54928886 113.19997391 245.90284772 114.96332673 247.2578125 116.7265625 C275.51870617 153.92330116 294.13217833 198.14925024 301.578125 244.23828125 C301.80242187 245.58889648 301.80242187 245.58889648 302.03125 246.96679688 C313.65191099 320.04672954 295.59699115 398.60600939 252.3984375 458.73046875 C249.53438314 462.62692006 246.57982442 466.44723396 243.578125 470.23828125 C242.79824219 471.23085938 242.01835938 472.2234375 241.21484375 473.24609375 C228.09074554 489.61042225 213.23999233 505.44564291 196.578125 518.23828125 C195.57652344 519.03363281 194.57492187 519.82898438 193.54296875 520.6484375 C185.52768632 526.981409 177.20460382 532.7698251 168.578125 538.23828125 C167.94487305 538.64014648 167.31162109 539.04201172 166.65917969 539.45605469 C135.2283492 559.16583773 100.50474075 571.72058877 64.140625 578.55078125 C63.36315918 578.69813721 62.58569336 578.84549316 61.78466797 578.99731445 C45.78588467 581.7868878 29.66502925 582.62078001 13.453125 582.55078125 C12.56626007 582.54895844 11.67939514 582.54713562 10.76565552 582.54525757 C-61.22837579 582.29767804 -129.9740365 554.84206339 -183.078125 506.359375 C-185.22111812 504.41996622 -187.40532138 502.54498826 -189.609375 500.67578125 C-192.83994963 497.85625389 -195.62992696 494.8466075 -198.39453125 491.57421875 C-200.39373344 489.2707064 -202.47644326 487.06283093 -204.57958984 484.85449219 C-224.34190649 463.97569611 -239.06972845 439.04776642 -251.421875 413.23828125 C-251.98390625 412.08070313 -252.5459375 410.923125 -253.125 409.73046875 C-263.47272489 387.34263405 -270.09702037 363.45302005 -274.421875 339.23828125 C-274.59831543 338.32208008 -274.77475586 337.40587891 -274.95654297 336.46191406 C-280.50105881 306.95344026 -280.03242671 272.69367773 -274.421875 243.23828125 C-274.25558594 242.2937207 -274.08929688 241.34916016 -273.91796875 240.37597656 C-264.90296139 189.54135173 -242.59404979 141.0283175 -208.421875 102.23828125 C-207.78636719 101.50351563 -207.15085937 100.76875 -206.49609375 100.01171875 C-205.38182396 98.72582579 -204.26092761 97.44563878 -203.1328125 96.171875 C-201.91817282 94.79916577 -200.71630102 93.4151116 -199.5234375 92.0234375 C-187.63313963 78.38716652 -173.8715245 67.03157175 -159.421875 56.23828125 C-159.65970703 55.24248047 -159.65970703 55.24248047 -159.90234375 54.2265625 C-161.1741765 46.91113354 -161.94491647 37.33657333 -158.734375 30.48828125 C-155.61108674 26.09879505 -152.34081734 23.36957711 -147.421875 21.23828125 C-144.28520318 20.83169572 -141.14483029 20.91380075 -137.984375 20.92578125 C-137.13810547 20.90966797 -136.29183594 20.89355469 -135.41992188 20.87695312 C-130.60717211 20.87318433 -127.29246127 21.06203679 -123.421875 24.23828125 C-121.109375 27.42578125 -121.109375 27.42578125 -119.421875 30.23828125 C-114.80142283 28.84299619 -110.51998539 26.96147196 -106.14038086 24.96362305 C-73.16598099 10.02930869 -36.37346583 0.30521628 0 0 Z " fill="#03A8E7" transform="translate(358.421875,60.76171875)"/>
<path d="M0 0 C0.97027634 -0.00979385 1.94055267 -0.01958771 2.94023132 -0.02967834 C24.80613771 -0.2048131 46.04806919 0.01120167 67.578125 4.23828125 C68.62758301 4.44195312 69.67704102 4.645625 70.75830078 4.85546875 C125.56616008 15.91431752 178.63155357 42.72339151 217.578125 83.23828125 C220.05464 85.73499621 222.54642701 88.20791635 225.0859375 90.640625 C231.77807818 97.12301202 237.61442125 103.98054155 243.21191406 111.42333984 C244.54928886 113.19997391 245.90284772 114.96332673 247.2578125 116.7265625 C275.51870617 153.92330116 294.13217833 198.14925024 301.578125 244.23828125 C301.80242187 245.58889648 301.80242187 245.58889648 302.03125 246.96679688 C313.65191099 320.04672954 295.59699115 398.60600939 252.3984375 458.73046875 C249.53438314 462.62692006 246.57982442 466.44723396 243.578125 470.23828125 C242.79824219 471.23085938 242.01835938 472.2234375 241.21484375 473.24609375 C228.09074554 489.61042225 213.23999233 505.44564291 196.578125 518.23828125 C195.57652344 519.03363281 194.57492187 519.82898438 193.54296875 520.6484375 C185.52768632 526.981409 177.20460382 532.7698251 168.578125 538.23828125 C167.94487305 538.64014648 167.31162109 539.04201172 166.65917969 539.45605469 C135.2283492 559.16583773 100.50474075 571.72058877 64.140625 578.55078125 C63.36315918 578.69813721 62.58569336 578.84549316 61.78466797 578.99731445 C45.78588467 581.7868878 29.66502925 582.62078001 13.453125 582.55078125 C12.56626007 582.54895844 11.67939514 582.54713562 10.76565552 582.54525757 C-61.22837579 582.29767804 -129.9740365 554.84206339 -183.078125 506.359375 C-185.22111812 504.41996622 -187.40532138 502.54498826 -189.609375 500.67578125 C-192.83994963 497.85625389 -195.62992696 494.8466075 -198.39453125 491.57421875 C-200.39373344 489.2707064 -202.47644326 487.06283093 -204.57958984 484.85449219 C-224.34190649 463.97569611 -239.06972845 439.04776642 -251.421875 413.23828125 C-251.98390625 412.08070313 -252.5459375 410.923125 -253.125 409.73046875 C-263.47272489 387.34263405 -270.09702037 363.45302005 -274.421875 339.23828125 C-274.59831543 338.32208008 -274.77475586 337.40587891 -274.95654297 336.46191406 C-280.50105881 306.95344026 -280.03242671 272.69367773 -274.421875 243.23828125 C-274.25558594 242.2937207 -274.08929688 241.34916016 -273.91796875 240.37597656 C-264.90296139 189.54135173 -242.59404979 141.0283175 -208.421875 102.23828125 C-207.78636719 101.50351563 -207.15085937 100.76875 -206.49609375 100.01171875 C-205.38182396 98.72582579 -204.26092761 97.44563878 -203.1328125 96.171875 C-201.91817282 94.79916577 -200.71630102 93.4151116 -199.5234375 92.0234375 C-187.63313963 78.38716652 -173.8715245 67.03157175 -159.421875 56.23828125 C-159.65970703 55.24248047 -159.65970703 55.24248047 -159.90234375 54.2265625 C-161.1741765 46.91113354 -161.94491647 37.33657333 -158.734375 30.48828125 C-155.61108674 26.09879505 -152.34081734 23.36957711 -147.421875 21.23828125 C-144.28520318 20.83169572 -141.14483029 20.91380075 -137.984375 20.92578125 C-137.13810547 20.90966797 -136.29183594 20.89355469 -135.41992188 20.87695312 C-130.60717211 20.87318433 -127.29246127 21.06203679 -123.421875 24.23828125 C-121.109375 27.42578125 -121.109375 27.42578125 -119.421875 30.23828125 C-114.80142283 28.84299619 -110.51998539 26.96147196 -106.14038086 24.96362305 C-73.16598099 10.02930869 -36.37346583 0.30521628 0 0 Z M-36.421875 69.23828125 C-37.64946533 69.51115967 -37.64946533 69.51115967 -38.90185547 69.78955078 C-44.16860966 71.00897928 -49.29630827 72.52468813 -54.421875 74.23828125 C-55.29150879 74.52719238 -56.16114258 74.81610352 -57.05712891 75.11376953 C-69.34720225 79.25777151 -81.03216316 84.03635967 -92.421875 90.23828125 C-93.57558594 90.851875 -94.72929687 91.46546875 -95.91796875 92.09765625 C-109.70139945 99.66993827 -122.52919241 108.96390674 -134.421875 119.23828125 C-135.2365625 119.94210938 -136.05125 120.6459375 -136.890625 121.37109375 C-148.31770231 131.46019049 -158.30365605 142.0468714 -167.421875 154.23828125 C-168.14246094 155.18703125 -168.86304688 156.13578125 -169.60546875 157.11328125 C-187.03708038 180.49134909 -199.12564753 206.73791967 -206.734375 234.80078125 C-206.96495605 235.63673828 -207.19553711 236.47269531 -207.43310547 237.33398438 C-211.79218995 254.36035697 -212.94939104 271.54622153 -212.796875 289.05078125 C-212.79222229 290.00940063 -212.78756958 290.96802002 -212.78277588 291.95568848 C-212.44577785 351.33399994 -190.86931185 407.06359705 -148.98242188 449.64697266 C-147.57553658 451.08159067 -146.19246474 452.53946846 -144.8125 454 C-138.24512415 460.83565101 -130.98730512 466.56678474 -123.421875 472.23828125 C-122.86516113 472.66109375 -122.30844727 473.08390625 -121.73486328 473.51953125 C-74.13458786 509.51855786 -13.79070329 523.62260602 45.10424805 516.05566406 C56.79931629 514.29249419 68.28582586 511.75025195 79.578125 508.23828125 C80.35075684 508.00302734 81.12338867 507.76777344 81.91943359 507.52539062 C115.16177222 497.22590455 144.57508734 479.26570129 169.578125 455.23828125 C170.17270508 454.67093262 170.76728516 454.10358398 171.37988281 453.51904297 C194.99993389 430.86742617 212.68892238 403.60534855 224.78222656 373.22509766 C225.44148831 371.57937001 226.12747328 369.94437603 226.8203125 368.3125 C231.45793324 357.32960748 233.96517767 345.8909989 236.265625 334.23828125 C236.58744751 332.63726562 236.58744751 332.63726562 236.91577148 331.00390625 C242.24445067 303.09481605 241.95969969 270.89666166 235.578125 243.23828125 C235.36913574 242.31917969 235.16014648 241.40007812 234.94482422 240.453125 C225.09851185 198.50119633 204.26324269 162.18525304 174.578125 131.23828125 C173.40443359 130.00271484 173.40443359 130.00271484 172.20703125 128.7421875 C166.70487155 123.08310346 160.79104242 118.09819788 154.578125 113.23828125 C154.0020752 112.78050293 153.42602539 112.32272461 152.83251953 111.85107422 C131.45345419 94.92102803 106.82681503 81.77326128 80.578125 74.23828125 C79.23596924 73.8518042 79.23596924 73.8518042 77.86669922 73.45751953 C74.96324904 72.63470152 72.05411783 71.83726351 69.140625 71.05078125 C68.27260254 70.81262695 67.40458008 70.57447266 66.51025391 70.32910156 C49.42821383 65.88808257 32.67408576 64.69435897 15.078125 64.80078125 C14.02663269 64.8034903 12.97514038 64.80619934 11.89178467 64.80899048 C-4.49692792 64.87293717 -20.37566644 65.61590399 -36.421875 69.23828125 Z " fill="#024BAD" transform="translate(358.421875,60.76171875)"/>
<path d="M0 0 C0.88171875 0.65226562 1.7634375 1.30453125 2.671875 1.9765625 C3.69796875 2.73195312 4.7240625 3.48734375 5.78125 4.265625 C22.76312869 16.96753878 38.7477915 31.08969381 51.671875 47.9765625 C52.10209961 48.53569336 52.53232422 49.09482422 52.97558594 49.67089844 C59.90609098 58.72629928 66.05583946 68.05690722 71.671875 77.9765625 C72.04022461 78.61223145 72.40857422 79.24790039 72.78808594 79.90283203 C83.69884875 98.82396841 90.84008277 119.72710771 95.671875 140.9765625 C95.88215332 141.88792969 96.09243164 142.79929687 96.30908203 143.73828125 C100.47252052 162.646819 107.17488295 205.28854835 96.671875 222.9765625 C95.554084 221.14744996 94.43634899 219.3183032 93.31884766 217.48901367 C92.33636843 215.88184332 91.35295208 214.2752455 90.36865234 212.66918945 C87.77976541 208.44199037 85.20651864 204.20686561 82.66796875 199.94921875 C82.18626221 199.14661621 81.70455566 198.34401367 81.20825195 197.51708984 C80.28817453 195.98315001 79.3736639 194.44585315 78.46557617 192.90478516 C73.35726263 184.42228843 68.40230166 180.65916917 58.921875 178.2890625 C49.36140757 177.07496972 49.36140757 177.07496972 40.671875 179.9765625 C40.82119944 186.99481098 43.99510074 190.92943595 48.671875 195.9765625 C51.5836358 198.75450228 54.57889745 201.40258798 57.671875 203.9765625 C56.2158844 209.10833266 53.94006301 213.20371464 51.109375 217.6640625 C50.67189941 218.36015625 50.23442383 219.05625 49.78369141 219.7734375 C45.85793587 225.90557775 41.47582733 231.4995927 36.671875 236.9765625 C37.83203125 237.41355469 37.83203125 237.41355469 39.015625 237.859375 C46.68332373 240.87710791 53.14636193 244.0103603 58.671875 250.2265625 C60.25342777 254.5758326 60.62209394 258.42660905 59.671875 262.9765625 C55.23231065 270.94288358 47.15175038 275.10149493 38.68359375 277.5859375 C32.3407225 279.25514204 26.2652182 279.4563956 19.734375 279.4140625 C18.64447266 279.43404297 17.55457031 279.45402344 16.43164062 279.47460938 C4.86932343 279.46773931 -6.93786553 276.36682197 -15.328125 267.9765625 C-15.57457764 268.82661865 -15.82103027 269.6766748 -16.07495117 270.55249023 C-17.01253983 273.78580357 -17.95044967 277.01902345 -18.88851929 280.25219727 C-19.30681382 281.69421318 -19.72496553 283.13627053 -20.14297485 284.57836914 C-22.22136694 291.74862482 -24.30180736 298.91774696 -26.44458008 306.0690918 C-28.58091737 313.20513425 -30.4804807 320.38534618 -32.328125 327.6015625 C-34.63067253 336.54610213 -37.15422627 345.29472875 -40.328125 353.9765625 C-40.77800781 355.21535156 -41.22789062 356.45414063 -41.69140625 357.73046875 C-45.04374804 366.67386589 -49.1593822 374.94285941 -54.328125 382.9765625 C-54.93269531 383.9253125 -55.53726563 384.8740625 -56.16015625 385.8515625 C-58.88064949 389.51706918 -60.8028173 391.62990166 -65.3359375 392.66015625 C-73.53338975 392.97991503 -81.96593563 391.51584801 -88.4609375 386.24609375 C-93.3553754 381.11614943 -95.24031069 375.6933967 -96.8046875 368.91015625 C-97.60442821 365.44687231 -98.47519259 362.53375369 -100.203125 359.4140625 C-106.04262913 348.3911783 -107.50480276 335.25803738 -107.578125 322.9765625 C-107.59875 322.11289062 -107.619375 321.24921875 -107.640625 320.359375 C-107.67494818 314.71321238 -106.78487794 311.04203249 -104.328125 305.9765625 C-103.54535916 302.32365523 -103.59143297 299.28112131 -105.453125 295.984375 C-106.34162433 294.76773672 -107.26727665 293.57702025 -108.234375 292.421875 C-109.328125 290.9765625 -109.328125 290.9765625 -109.328125 288.9765625 C-110.318125 288.6465625 -111.308125 288.3165625 -112.328125 287.9765625 C-113.71389423 286.35323283 -115.05453768 284.68931785 -116.328125 282.9765625 C-116.885 283.8015625 -117.441875 284.6265625 -118.015625 285.4765625 C-120.328125 287.9765625 -120.328125 287.9765625 -122.953125 288.4765625 C-125.328125 287.9765625 -125.328125 287.9765625 -127.328125 284.9765625 C-127.58572779 282.28203729 -127.41712553 279.69107875 -127.328125 276.9765625 C-128.30652344 276.93917969 -129.28492188 276.90179688 -130.29296875 276.86328125 C-140.33131128 276.35988354 -147.98153838 275.62374709 -156.140625 269.4140625 C-160.88649768 265.865816 -164.91648808 264.97915873 -170.76171875 264.4609375 C-173.328125 263.9765625 -173.328125 263.9765625 -175.14453125 262.94140625 C-177.06187969 259.75848128 -176.85707177 256.39891714 -176.828125 252.7890625 C-176.82530518 252.02327881 -176.82248535 251.25749512 -176.81958008 250.46850586 C-176.65234857 244.64027032 -175.64757907 240.1743418 -171.328125 235.9765625 C-170.338125 235.3165625 -169.348125 234.6565625 -168.328125 233.9765625 C-167.4815934 232.15372279 -167.4815934 232.15372279 -166.96875 230.00390625 C-166.74461426 229.19469727 -166.52047852 228.38548828 -166.28955078 227.55175781 C-166.05478027 226.68131836 -165.82000977 225.81087891 -165.578125 224.9140625 C-165.04395452 223.09360949 -164.50479389 221.27461412 -163.9609375 219.45703125 C-163.16891136 216.80779224 -162.379806 214.15946424 -161.62792969 211.49853516 C-159.35276595 203.67867696 -157.20778212 197.33517259 -149.83642578 193.16503906 C-146.4134614 191.51045831 -142.92606864 190.19570043 -139.328125 188.9765625 C-138.09707031 188.52925781 -136.86601562 188.08195313 -135.59765625 187.62109375 C-123.7414924 183.76553769 -112.3620343 184.85321387 -100.140625 186.2890625 C-98.95952148 186.42586426 -97.77841797 186.56266602 -96.56152344 186.70361328 C-61.93468046 190.82495521 -61.93468046 190.82495521 -49.328125 198.9765625 C-49.53308594 198.09613281 -49.73804688 197.21570313 -49.94921875 196.30859375 C-50.21863281 195.14714844 -50.48804688 193.98570312 -50.765625 192.7890625 C-51.03246094 191.64050781 -51.29929687 190.49195313 -51.57421875 189.30859375 C-51.82300781 188.20902344 -52.07179688 187.10945312 -52.328125 185.9765625 C-52.50593506 185.22914795 -52.68374512 184.4817334 -52.86694336 183.71166992 C-53.42542926 180.39948489 -53.45788357 177.24213763 -53.4609375 173.8828125 C-53.46189423 173.21366821 -53.46285095 172.54452393 -53.46383667 171.85510254 C-53.4645143 170.44653224 -53.46268921 169.03795875 -53.45849609 167.62939453 C-53.45314188 165.48332654 -53.4584552 163.3374678 -53.46484375 161.19140625 C-53.46418289 159.81770788 -53.46290158 158.44400963 -53.4609375 157.0703125 C-53.45980957 155.82958984 -53.45868164 154.58886719 -53.45751953 153.31054688 C-53.34448069 150.39798394 -53.00402374 147.80365831 -52.328125 144.9765625 C-60.24203303 144.97671492 -60.24203303 144.97671492 -67.328125 147.9765625 C-70.93575854 153.38801281 -73.07793891 158.90359566 -74.765625 165.1640625 C-76.13657546 169.88868208 -77.61579305 172.69589706 -81.328125 175.9765625 C-84.453125 176.6015625 -84.453125 176.6015625 -87.328125 175.9765625 C-91.09627472 172.05806267 -91.73151647 167.10619686 -92.97265625 161.97265625 C-94.10425231 158.78869835 -94.10425231 158.78869835 -97.03515625 157.09765625 C-107.37056719 153.57895762 -121.00221777 155.80642858 -131.328125 158.9765625 C-134.6432829 160.80639412 -136.81438013 163.17008948 -139.328125 165.9765625 C-141.61810847 168.35308393 -143.94057129 170.69689708 -146.265625 173.0390625 C-146.872854 173.65467041 -147.48008301 174.27027832 -148.10571289 174.90454102 C-154.7391393 181.54513192 -161.63420531 187.24186318 -171.203125 188.4765625 C-175.47259042 188.36335698 -177.74946805 186.62942838 -180.8828125 183.875 C-184.62377551 178.96119453 -184.66673959 173.44618304 -184.640625 167.5390625 C-184.65673828 166.81396484 -184.67285156 166.08886719 -184.68945312 165.34179688 C-184.69483238 159.3546874 -183.644786 154.60006601 -179.55859375 149.97265625 C-166.53463174 140.03659345 -151.22389509 136.20403615 -135.2019043 134.70996094 C-131.2692112 134.32197812 -127.85859263 133.80543852 -124.328125 131.9765625 C-122.78403603 128.88838457 -123.10692887 126.40510251 -123.328125 122.9765625 C-123.80492387 121.58567961 -124.32730305 120.20970857 -124.890625 118.8515625 C-126.26698067 115.5237542 -126.60055286 113.47573912 -125.328125 109.9765625 C-123.46708198 108.11551948 -120.50775702 108.7592462 -118.015625 108.7265625 C-102.48471193 108.91330695 -86.9328316 115.13992158 -72.69799805 121.07275391 C-65.5863148 123.78496688 -57.01586143 122.43797961 -50.1328125 119.6328125 C-48.328125 118.9765625 -48.328125 118.9765625 -45.328125 118.9765625 C-45.121875 118.1928125 -44.915625 117.4090625 -44.703125 116.6015625 C-41.70806492 108.70549502 -36.98758625 102.17502006 -31.328125 95.9765625 C-31.95460938 95.71101563 -32.58109375 95.44546875 -33.2265625 95.171875 C-34.04382813 94.81867188 -34.86109375 94.46546875 -35.703125 94.1015625 C-36.51523437 93.75351562 -37.32734375 93.40546875 -38.1640625 93.046875 C-40.328125 91.9765625 -40.328125 91.9765625 -42.328125 89.9765625 C-42.6953125 87.546875 -42.6953125 87.546875 -42.328125 84.9765625 C-40.6484375 83.28125 -40.6484375 83.28125 -38.453125 81.8515625 C-35.57876088 79.94562213 -34.29481714 78.92660071 -32.328125 75.9765625 C-31.87675624 71.98947177 -31.9923786 69.63406586 -33.828125 66.0390625 C-37.9566068 60.98167229 -42.49535663 56.39139839 -47.578125 52.2890625 C-51.2097612 49.2351866 -53.81814525 46.50650174 -55.328125 41.9765625 C-55.40664934 40.16468601 -55.46611794 38.35196392 -55.515625 36.5390625 C-56.40036901 23.78162466 -61.38076419 11.37849495 -65.56640625 -0.61328125 C-67.25490724 -5.95587157 -68.20049015 -11.44435803 -67.328125 -17.0234375 C-64.47982794 -21.11786452 -61.09243163 -22.84934072 -56.5859375 -24.640625 C-39.4212197 -27.55090587 -13.35170805 -9.37706664 0 0 Z " fill="#FBFCFB" transform="translate(498.328125,163.0234375)"/>
<path d="M0 0 C0 21.45 0 42.9 0 65 C-7.59 65.33 -15.18 65.66 -23 66 C-27.66078342 66.49392198 -32.19985853 67.0147617 -36.8125 67.75 C-37.94647217 67.9262793 -39.08044434 68.10255859 -40.2487793 68.28417969 C-49.74808907 69.82996726 -58.87569864 71.94953928 -68 75 C-69.30445068 75.4333667 -69.30445068 75.4333667 -70.63525391 75.87548828 C-82.92532725 80.01949026 -94.61028816 84.79807842 -106 91 C-107.15371094 91.61359375 -108.30742187 92.2271875 -109.49609375 92.859375 C-136.85513291 107.88976655 -161.29638107 129.07405644 -180 154 C-180.721875 154.95003906 -181.44375 155.90007812 -182.1875 156.87890625 C-212.09951947 197.0147605 -223.93811508 241.51476188 -226 291 C-247.45 291 -268.9 291 -291 291 C-291 263.13911421 -291 263.13911421 -289.8125 255 C-289.6117688 253.53602783 -289.6117688 253.53602783 -289.40698242 252.04248047 C-281.47449416 196.82882681 -258.99311964 143.99218986 -222 102 C-221.36449219 101.26523438 -220.72898437 100.53046875 -220.07421875 99.7734375 C-218.95994896 98.48754454 -217.83905261 97.20735753 -216.7109375 95.93359375 C-215.49629782 94.56088452 -214.29442602 93.17683035 -213.1015625 91.78515625 C-201.21126463 78.14888527 -187.4496495 66.7932905 -173 56 C-173.23783203 55.00419922 -173.23783203 55.00419922 -173.48046875 53.98828125 C-174.7523015 46.67285229 -175.52304147 37.09829208 -172.3125 30.25 C-169.18921174 25.8605138 -165.91894234 23.13129586 -161 21 C-157.86332818 20.59341447 -154.72295529 20.6755195 -151.5625 20.6875 C-150.71623047 20.67138672 -149.86996094 20.65527344 -148.99804688 20.63867188 C-144.18529711 20.63490308 -140.87058627 20.82375554 -137 24 C-134.6875 27.1875 -134.6875 27.1875 -133 30 C-128.37954783 28.60471494 -124.09811039 26.72319071 -119.71850586 24.7253418 C-81.30290374 7.32667251 -42.03795913 0 0 0 Z " fill="#1902AD" transform="translate(372,61)"/>
<path d="M0 0 C21.45 0 42.9 0 65 0 C65.99 14.85 65.99 14.85 67 30 C68.08342686 37.51173028 68.08342686 37.51173028 69.53613281 44.91259766 C69.86766136 46.40447611 70.18584399 47.89934563 70.49511719 49.39599609 C79.02077478 90.59808808 100.04305791 128.51707806 129.48681641 158.45605469 C130.80419344 159.80021286 132.09765999 161.16772339 133.38671875 162.5390625 C139.66422234 169.10665405 146.75668398 174.55382421 154 180 C154.83724609 180.63639404 154.83724609 180.63639404 155.69140625 181.28564453 C185.45654921 203.79421452 221.45447788 218.73641779 258.4375 223.75 C259.70267456 223.92354004 259.70267456 223.92354004 260.9934082 224.10058594 C270.99454578 225.32343245 280.87387787 225.51780371 291 226 C291 247.12 291 268.24 291 290 C220.78145619 290 153.95139521 268.10211318 101 221 C99.58361977 219.77050328 98.16698896 218.54129511 96.75 217.3125 C96.13769531 216.77109375 95.52539062 216.2296875 94.89453125 215.671875 C93.52571328 214.46392842 92.14678962 213.26740052 90.76171875 212.078125 C86.49949706 208.38181173 82.62671608 204.6136435 78.9921875 200.30078125 C77.00708041 198.00817718 74.93562659 195.81402309 72.84448242 193.6184082 C53.08076485 172.73973349 38.35248685 147.81019621 26 122 C25.43796875 120.84242188 24.8759375 119.68484375 24.296875 118.4921875 C6.97322474 81.01157968 0 41.10622697 0 0 Z " fill="#135404" transform="translate(81,352)"/>
<path d="M0 0 C27.98160355 0 27.98160355 0 38.9375 1.625 C40.195625 1.80466309 41.45375 1.98432617 42.75 2.16943359 C102.84617809 11.18234426 161.62842162 38.92218357 204 83 C206.476515 85.49671496 208.96830201 87.9696351 211.5078125 90.40234375 C218.19995318 96.88473077 224.03629625 103.7422603 229.63378906 111.18505859 C230.97116386 112.96169266 232.32472272 114.72504548 233.6796875 116.48828125 C272.60392497 167.72001885 290 227.18062454 290 291 C268.88 291 247.76 291 226 291 C225.67 283.41 225.34 275.82 225 268 C224.53227796 263.73773303 224.04576976 259.63908758 223.3125 255.4375 C223.13807373 254.40633057 222.96364746 253.37516113 222.78393555 252.31274414 C214.52002829 205.70287934 192.56603101 164.99960538 160 131 C159.29101562 130.24976563 158.58203125 129.49953125 157.8515625 128.7265625 C152.62767553 123.33209963 146.90212146 118.62876713 141 114 C140.4225 113.54077148 139.845 113.08154297 139.25 112.60839844 C117.87223292 95.68055851 93.24626121 82.53428281 67 75 C66.10522949 74.74234863 65.21045898 74.48469727 64.28857422 74.21923828 C42.58314725 68.06806802 22.99555492 65.9198222 0 65 C0 43.55 0 22.1 0 0 Z " fill="#135404" transform="translate(372,61)"/>
<path d="M0 0 C1.77165527 0.20520264 1.77165527 0.20520264 3.57910156 0.41455078 C40.30805427 4.78608915 40.30805427 4.78608915 50.8125 12.6875 C52.11328125 15.078125 52.11328125 15.078125 53.125 17.9375 C58.78730598 32.53563261 65.50959682 46.25170956 80.046875 53.6015625 C84.04524844 55.17154529 87.53123026 55.5471305 91.8125 55.6875 C89.59327954 57.90672046 87.37024545 60.11946956 85.125 62.3125 C81.94547263 65.57796054 81.65762932 67.18088695 81.625 71.625 C81.61082031 72.50027344 81.59664062 73.37554687 81.58203125 74.27734375 C81.64586651 76.94994335 81.64586651 76.94994335 83.8125 79.6875 C83.52637343 87.2171467 81.40894472 94.02680854 79.1875 101.1875 C78.45930765 103.58674551 77.73278371 105.98649795 77.0078125 108.38671875 C76.64075195 109.5989209 76.27369141 110.81112305 75.89550781 112.06005859 C74.21536449 117.68755397 72.63347195 123.34122004 71.0625 129 C70.7725415 130.04188477 70.48258301 131.08376953 70.18383789 132.15722656 C69.63628486 134.12569316 69.08914107 136.09427366 68.54248047 138.06298828 C66.99851446 143.61403664 65.42444326 149.15576521 63.8125 154.6875 C63.50957031 155.74324219 63.20664062 156.79898438 62.89453125 157.88671875 C58.8106911 171.70510031 53.61532 184.55968835 45.8125 196.6875 C45.20792969 197.63625 44.60335937 198.585 43.98046875 199.5625 C41.25997551 203.22800668 39.3378077 205.34083916 34.8046875 206.37109375 C26.60723525 206.69085253 18.17468937 205.22678551 11.6796875 199.95703125 C6.7852496 194.82708693 4.90031431 189.4043342 3.3359375 182.62109375 C2.53619679 179.15780981 1.66543241 176.24469119 -0.0625 173.125 C-5.90200413 162.1021158 -7.36417776 148.96897488 -7.4375 136.6875 C-7.458125 135.82382812 -7.47875 134.96015625 -7.5 134.0703125 C-7.53432318 128.42414988 -6.64425294 124.75296999 -4.1875 119.6875 C-3.40473416 116.03459273 -3.45080797 112.99205881 -5.3125 109.6953125 C-6.20099933 108.47867422 -7.12665165 107.28795775 -8.09375 106.1328125 C-9.1875 104.6875 -9.1875 104.6875 -9.1875 102.6875 C-10.6725 102.1925 -10.6725 102.1925 -12.1875 101.6875 C-13.57326923 100.06417033 -14.91391268 98.40025535 -16.1875 96.6875 C-16.744375 97.5125 -17.30125 98.3375 -17.875 99.1875 C-20.1875 101.6875 -20.1875 101.6875 -22.8125 102.1875 C-25.1875 101.6875 -25.1875 101.6875 -27.1875 98.6875 C-27.44510279 95.99297479 -27.27650053 93.40201625 -27.1875 90.6875 C-28.16589844 90.65011719 -29.14429688 90.61273438 -30.15234375 90.57421875 C-40.19068628 90.07082104 -47.84091338 89.33468459 -56 83.125 C-60.74587268 79.5767535 -64.77586308 78.69009623 -70.62109375 78.171875 C-73.1875 77.6875 -73.1875 77.6875 -75.00390625 76.65234375 C-76.92125469 73.46941878 -76.71644677 70.10985464 -76.6875 66.5 C-76.68468018 65.73421631 -76.68186035 64.96843262 -76.67895508 64.17944336 C-76.51172357 58.35120782 -75.50695407 53.8852793 -71.1875 49.6875 C-70.1975 49.0275 -69.2075 48.3675 -68.1875 47.6875 C-67.3409684 45.86466029 -67.3409684 45.86466029 -66.828125 43.71484375 C-66.49192139 42.50103027 -66.49192139 42.50103027 -66.14892578 41.26269531 C-65.79677002 39.95703613 -65.79677002 39.95703613 -65.4375 38.625 C-64.90332952 36.80454699 -64.36416889 34.98555162 -63.8203125 33.16796875 C-63.02828636 30.51872974 -62.239181 27.87040174 -61.48730469 25.20947266 C-59.21214095 17.38961446 -57.06715712 11.04611009 -49.69580078 6.87597656 C-46.2728364 5.22139581 -42.78544364 3.90663793 -39.1875 2.6875 C-37.95644531 2.24019531 -36.72539062 1.79289062 -35.45703125 1.33203125 C-23.6008674 -2.52352481 -12.2214093 -1.43584863 0 0 Z " fill="#6FC473" transform="translate(398.1875,349.3125)"/>
<path d="M0 0 C0.88171875 0.65226562 1.7634375 1.30453125 2.671875 1.9765625 C3.69796875 2.73195312 4.7240625 3.48734375 5.78125 4.265625 C22.76312869 16.96753878 38.7477915 31.08969381 51.671875 47.9765625 C52.10209961 48.53569336 52.53232422 49.09482422 52.97558594 49.67089844 C59.90609098 58.72629928 66.05583946 68.05690722 71.671875 77.9765625 C72.04022461 78.61223145 72.40857422 79.24790039 72.78808594 79.90283203 C83.69884875 98.82396841 90.84008277 119.72710771 95.671875 140.9765625 C95.88215332 141.88792969 96.09243164 142.79929687 96.30908203 143.73828125 C100.47252052 162.646819 107.17488295 205.28854835 96.671875 222.9765625 C95.554084 221.14744996 94.43634899 219.3183032 93.31884766 217.48901367 C92.33636843 215.88184332 91.35295208 214.2752455 90.36865234 212.66918945 C87.77976541 208.44199037 85.20651864 204.20686561 82.66796875 199.94921875 C82.18626221 199.14661621 81.70455566 198.34401367 81.20825195 197.51708984 C80.28817453 195.98315001 79.3736639 194.44585315 78.46557617 192.90478516 C73.35726263 184.42228843 68.40230166 180.65916917 58.921875 178.2890625 C49.36140757 177.07496972 49.36140757 177.07496972 40.671875 179.9765625 C40.82119944 186.99481098 43.99510074 190.92943595 48.671875 195.9765625 C51.5836358 198.75450228 54.57889745 201.40258798 57.671875 203.9765625 C55.53957904 211.49203185 51.21740136 217.54889796 46.92871094 223.98193359 C45.49969702 226.17163914 45.49969702 226.17163914 43.9609375 229.46484375 C41.79818443 233.23742886 40.52383736 234.85952047 36.671875 236.9765625 C28.69503655 238.15098537 20.58714874 237.61304863 12.57519531 237.03759766 C9.76075361 236.97843095 7.39757101 237.3105184 4.671875 237.9765625 C5.3525 237.3165625 6.033125 236.6565625 6.734375 235.9765625 C7.71570894 234.97868923 8.69465243 233.9784624 9.671875 232.9765625 C10.20296875 232.45320313 10.7340625 231.92984375 11.28125 231.390625 C30.11089233 211.61086311 33.23514688 182.64020494 32.953125 156.65234375 C32.70075244 147.77513897 31.10794109 139.49194494 28.671875 130.9765625 C28.47932129 130.28997559 28.28676758 129.60338867 28.08837891 128.89599609 C23.63360903 113.40292425 16.54070253 99.53164675 2.59375 90.62109375 C-1.89910759 89.11434273 -6.0338884 91.66138122 -10.078125 93.5390625 C-15.5209247 95.83565847 -19.4977789 96.70052932 -25.328125 95.9765625 C-26.33359375 95.86957031 -27.3390625 95.76257813 -28.375 95.65234375 C-38.9075464 94.25228575 -38.9075464 94.25228575 -42.328125 89.9765625 C-42.6796875 87.53515625 -42.6796875 87.53515625 -42.328125 84.9765625 C-40.6484375 83.28125 -40.6484375 83.28125 -38.453125 81.8515625 C-35.57876088 79.94562213 -34.29481714 78.92660071 -32.328125 75.9765625 C-31.87675624 71.98947177 -31.9923786 69.63406586 -33.828125 66.0390625 C-37.9566068 60.98167229 -42.49535663 56.39139839 -47.578125 52.2890625 C-51.2097612 49.2351866 -53.81814525 46.50650174 -55.328125 41.9765625 C-55.40664934 40.16468601 -55.46611794 38.35196392 -55.515625 36.5390625 C-56.40036901 23.78162466 -61.38076419 11.37849495 -65.56640625 -0.61328125 C-67.25490724 -5.95587157 -68.20049015 -11.44435803 -67.328125 -17.0234375 C-64.47982794 -21.11786452 -61.09243163 -22.84934072 -56.5859375 -24.640625 C-39.4212197 -27.55090587 -13.35170805 -9.37706664 0 0 Z " fill="#6FC473" transform="translate(498.328125,163.0234375)"/>
<path d="M0 0 C1.11310547 -0.00717041 2.22621094 -0.01434082 3.37304688 -0.02172852 C11.49907722 0.09731901 16.9156526 1.47546075 24.13671875 5.22265625 C28.38945064 7.16218669 31.54037973 6.70983385 35.9375 5.5 C49.85007142 1.93734152 62.746019 2.47868707 75.34375 9.64453125 C80.13684666 13.07332781 85.2173226 18.57243458 86.31640625 24.56640625 C86.72023325 30.05673508 86.04192465 33.12163784 82.4375 37.375 C78.5962093 41.22993649 74.99588363 43.52808774 69.9375 45.5 C68.9475 45.5 67.9575 45.5 66.9375 45.5 C68.79842003 48.23901063 70.67867994 50.96419984 72.5625 53.6875 C73.08457031 54.45642578 73.60664063 55.22535156 74.14453125 56.01757812 C77.98177708 61.53657985 81.62419458 65.6570964 87.578125 68.96875 C102.07027933 78.37425414 110.54252806 109.42935804 114.640625 125.20703125 C115.81037753 134.24183041 113.45571398 143.68234122 111.703125 152.53125 C110.5944258 158.15748473 109.76328442 163.82637529 108.9375 169.5 C80.36849652 160.57060766 54.7598111 142.61263553 33.41210938 121.92773438 C31.9782908 120.53949414 30.52840719 119.1679068 29.078125 117.796875 C21.93548405 110.89635747 15.8613385 103.4389859 9.9375 95.5 C9.51082031 94.93410156 9.08414063 94.36820312 8.64453125 93.78515625 C-8.33178278 71.16748248 -30.0625 36.76755185 -30.0625 7.5 C-28.37801982 6.70192802 -26.68973873 5.91187699 -25 5.125 C-24.06027344 4.68414062 -23.12054688 4.24328125 -22.15234375 3.7890625 C-14.69509302 0.67794652 -7.9990594 0.04841033 0 0 Z " fill="#6FC473" transform="translate(181.0625,393.5)"/>
<path d="M0 0 C15.53091307 0.18674445 31.0827934 6.41335908 45.31762695 12.34619141 C52.4293102 15.05840438 60.99976357 13.71141711 67.8828125 10.90625 C69.6875 10.25 69.6875 10.25 72.6875 10.25 C72.254375 11.405 71.82125 12.56 71.375 13.75 C69.58460612 19.04481411 68.6297704 24.43193312 67.69018555 29.92773438 C66.78300496 35.15449504 66.78300496 35.15449504 65.6875 36.25 C63.77194032 36.3557671 61.85485994 36.43452917 59.9375 36.5 C55.9322007 36.82270184 54.07535455 36.9914303 50.6875 39.25 C47.07986646 44.66145031 44.93768609 50.17703316 43.25 56.4375 C41.87904954 61.16211958 40.39983195 63.96933456 36.6875 67.25 C33.5625 67.875 33.5625 67.875 30.6875 67.25 C26.91935028 63.33150017 26.28410853 58.37963436 25.04296875 53.24609375 C23.91137269 50.06213585 23.91137269 50.06213585 20.98046875 48.37109375 C10.64505781 44.85239512 -2.98659277 47.07986608 -13.3125 50.25 C-16.6276579 52.07983162 -18.79875513 54.44352698 -21.3125 57.25 C-23.60248347 59.62652143 -25.92494629 61.97033458 -28.25 64.3125 C-28.857229 64.92810791 -29.46445801 65.54371582 -30.09008789 66.17797852 C-36.7235143 72.81856942 -43.61858031 78.51530068 -53.1875 79.75 C-57.45696542 79.63679448 -59.73384305 77.90286588 -62.8671875 75.1484375 C-66.60815051 70.23463203 -66.65111459 64.71962054 -66.625 58.8125 C-66.64111328 58.08740234 -66.65722656 57.36230469 -66.67382812 56.61523438 C-66.67920738 50.6281249 -65.629161 45.87350351 -61.54296875 41.24609375 C-48.51900674 31.31003095 -33.20827009 27.47747365 -17.1862793 25.98339844 C-13.2535862 25.59541562 -9.84296763 25.07887602 -6.3125 23.25 C-4.76841103 20.16182207 -5.09130387 17.67854001 -5.3125 14.25 C-5.78929887 12.85911711 -6.31167805 11.48314607 -6.875 10.125 C-8.25135567 6.7971917 -8.58492786 4.74917662 -7.3125 1.25 C-5.45145698 -0.61104302 -2.49213202 0.0326837 0 0 Z " fill="#6FC474" transform="translate(380.3125,271.75)"/>
<path d="M0 0 C16.22831334 11.32207908 24.0371022 29.79344188 27.48901367 48.74145508 C31.78884116 75.26446391 29.75007576 102.79505749 17.078125 126.78125 C13.31124636 126.78125 12.16622195 126.54587683 9.078125 124.78125 C9.72053715 120.53815743 11.21034533 117.09855644 13.015625 113.21875 C20.83367354 95.40711542 20.89170278 70.65580006 13.828125 52.53125 C9.85627416 43.75380704 5.49797803 36.80802793 -2.921875 31.78125 C-8.18432565 30.02709978 -12.93036381 30.0492256 -17.984375 32.28125 C-28.05369826 37.8797146 -32.65110176 48.39057894 -36.08984375 58.81640625 C-38.18828393 66.2939466 -38.13945906 73.63280826 -38.171875 81.34375 C-38.1925 82.54322266 -38.213125 83.74269531 -38.234375 84.97851562 C-38.28280307 96.1956682 -36.32606074 106.29270553 -31.7890625 116.5625 C-30.85590465 118.950039 -30.35698145 121.25940854 -29.921875 123.78125 C-34.89041985 126.05849973 -39.60459851 127.50731917 -44.921875 128.78125 C-54.81500966 110.723878 -58.15452143 93.84875878 -58.171875 73.28125 C-58.17254974 72.56438019 -58.17322449 71.84751038 -58.17391968 71.10891724 C-58.15835234 60.7115386 -57.82411456 50.85782577 -54.921875 40.78125 C-54.65648926 39.83475586 -54.65648926 39.83475586 -54.38574219 38.86914062 C-49.63951767 22.26145346 -41.52492985 6.3805709 -25.95703125 -2.31640625 C-17.16582001 -6.18166273 -7.98396167 -5.06300008 0 0 Z " fill="#FAFBFC" transform="translate(267.921875,254.21875)"/>
<path d="M0 0 C12.49773584 8.53503911 16.84854452 20.90916686 20.10668945 35.12426758 C23.38618608 54.01606523 21.05609094 74.45540482 10.71484375 90.73828125 C6.95752578 95.99579877 2.11358688 101.34619567 -4.4375 102.75 C-10.5600315 103.51664742 -15.38235034 103.20351757 -20.4921875 99.5625 C-33.63602082 87.31603682 -38.27908985 69.95461205 -38.91479492 52.54882812 C-39.07911682 35.45935093 -35.48262096 16.71099161 -23.25 4 C-16.61676037 -2.21444039 -8.55367551 -3.11042746 0 0 Z " fill="#030303" transform="translate(492.4375,286.25)"/>
<path d="M0 0 C10.39152865 6.42774968 14.82525309 16.5364374 18.75 27.75 C23.26444592 49.0910171 21.2470785 70.61220098 11.4375 90 C10.7775 90.66 10.1175 91.32 9.4375 92 C7.39501922 91.51534354 5.35350024 91.02635239 3.31640625 90.51953125 C-6.71788229 88.7087302 -17.47877789 90.04774294 -27.5625 91 C-36.67476093 78.63336016 -37.90831451 64.76754775 -37.8125 49.8125 C-37.82023438 48.59369141 -37.82796875 47.37488281 -37.8359375 46.11914062 C-37.82200752 39.70090356 -37.46944185 34.13092056 -35.5625 28 C-35.29050781 26.99195313 -35.01851562 25.98390625 -34.73828125 24.9453125 C-31.34500206 13.85957685 -25.40369196 4.42323649 -15.125 -1.375 C-9.38011944 -2.77619038 -5.24800914 -2.65529594 0 0 Z " fill="#030303" transform="translate(266.5625,286)"/>
<path d="M0 0 C-4.0295067 9.05555808 -11.92891678 17.04034192 -18.3125 24.5625 C-18.80347168 25.14563965 -19.29444336 25.7287793 -19.80029297 26.32958984 C-23.5611246 30.70850043 -27.34262808 34.48537415 -32.75 36.75 C-41.49958962 41.00074581 -46.80680424 47.42228397 -51 56 C-54.36242599 62.24450542 -59.2210392 65.44953633 -65.90234375 67.6171875 C-76.11952133 69.48177484 -85.51276212 67.86902259 -94.390625 62.57421875 C-97.35700479 60.50949037 -99.5700358 58.65354558 -101.5625 55.625 C-102.60074352 49.39553886 -101.2930492 44.29312202 -98 39 C-95.71963749 36.97280487 -93.22242475 35.40376067 -90.625 33.8125 C-89.88403076 33.34690674 -89.14306152 32.88131348 -88.37963867 32.40161133 C-63.05346693 16.77415561 -30.52096941 0 0 0 Z " fill="#6EC474" transform="translate(338,128)"/>
<path d="M0 0 C2.16769014 3.25153521 2.40619843 4.84019386 2.81640625 8.65625 C2.94080078 9.76097656 3.06519531 10.86570313 3.19335938 12.00390625 C3.31517578 13.15761719 3.43699219 14.31132812 3.5625 15.5 C3.81104892 17.78155161 4.0622301 20.06281844 4.31640625 22.34375 C4.42412354 23.35630859 4.53184082 24.36886719 4.64282227 25.41210938 C4.93437245 28.10903663 4.93437245 28.10903663 6 31 C6.86671109 39.49376872 3.0708032 46.22160244 -1.0625 53.375 C-3.33333527 57.36170331 -4.57021437 60.88562085 -5.5 65.375 C-6.74948179 71.07116698 -8.18019313 72.81892747 -13 76 C-17.52491731 79.77648637 -18.89164981 83.05108602 -19.9375 88.6875 C-23.87473897 106.11823061 -38.13812467 120.42663615 -53 130 C-53.33 130 -53.66 130 -54 130 C-52.37991623 82.53154546 -31.23814046 35.32800986 0 0 Z " fill="#6EC374" transform="translate(200,204)"/>
<path d="M0 0 C7.42258332 -0.40001946 14.54858784 0.19412039 21.875 1.3125 C22.68300049 1.43020752 23.49100098 1.54791504 24.32348633 1.66918945 C29.01512729 2.4290107 32.89662704 3.45892041 37 6 C39.55146677 9.82720015 39.43512537 11.4311836 39 16 C36.04775489 27.64081456 28.36632185 32.2683674 18.59765625 38.234375 C16.14775551 39.89957069 14.35413172 41.5642304 12.375 43.75 C8.8448576 47.5002472 5.11016203 49.28999577 0 50 C-3.25 49.3125 -3.25 49.3125 -6 48 C-12.91971924 44.87979382 -19.98222633 44.98164298 -27.125 47.5 C-34.45036039 50.77774884 -40.34878855 56.52874929 -45 63 C-44.09823352 55.39939681 -44.09823352 55.39939681 -43.40625 52.5859375 C-42.92995764 49.55415345 -43.32452338 47.31328099 -43.9375 44.3125 C-46.49218588 29.73471206 -46.49218588 29.73471206 -42.5 23.3125 C-39.18466404 18.89725258 -35.38958817 15.32884289 -31 12 C-30.45730469 11.56429687 -29.91460937 11.12859375 -29.35546875 10.6796875 C-23.19660525 6.39395767 -15.51715605 7.44465957 -8.4375 8.5625 C-7.633125 8.706875 -6.82875 8.85125 -6 9 C-2.91240441 8.35932024 -2.91240441 8.35932024 -2.05078125 6.15234375 C-1.80714844 5.42144531 -1.56351562 4.69054687 -1.3125 3.9375 C-0.93544922 2.83728516 -0.93544922 2.83728516 -0.55078125 1.71484375 C-0.36902344 1.14894531 -0.18726563 0.58304688 0 0 Z " fill="#6FC474" transform="translate(270,205)"/>
<path d="M0 0 C5.3914012 5.6476826 8.63759414 10.36598527 8.5234375 18.265625 C7.51147579 23.55199212 4.09733674 26.73503561 0 30 C-9.81698821 35.82484105 -19.52883566 37.37218704 -30.75 37.3125 C-31.81605469 37.30831055 -32.88210937 37.30412109 -33.98046875 37.29980469 C-41.32979521 37.19410752 -48.08521784 36.67556898 -55 34 C-55.73863281 33.73316406 -56.47726563 33.46632813 -57.23828125 33.19140625 C-63.23718767 30.64949675 -68.0809027 25.83819461 -71 20 C-71.54651477 15.52037071 -71.43001211 11.95350512 -69.5625 7.8125 C-63.31683524 0.95750209 -55.71119896 -2.25954683 -47 -5 C-45.7625 -5.391875 -44.525 -5.78375 -43.25 -6.1875 C-28.20158731 -9.94960317 -12.8554102 -9.19626482 0 0 Z " fill="#EF97B0" transform="translate(259,405)"/>
<path d="M0 0 C1.23556641 0.01522705 1.23556641 0.01522705 2.49609375 0.03076172 C14.96389841 0.34294083 27.28963295 2.58250839 36.82421875 11.19140625 C40.48128549 15.41109864 41.8308074 19.32998594 41.453125 24.91796875 C39.8312716 31.13836989 34.86683009 34.97622989 29.5625 38.1875 C20.24367563 42.74447341 11.15695885 43.87914794 0.875 43.8125 C-0.21490234 43.83248047 -1.30480469 43.85246094 -2.42773438 43.87304688 C-14.94448239 43.86560971 -26.68219002 40.10903965 -35.6875 31.1875 C-38.60931993 27.53123353 -38.95014876 24.33134852 -38.63671875 19.734375 C-37.68047709 14.71202749 -34.88793474 11.74359754 -31 8.6875 C-26.99093955 6.01194366 -22.76912015 4.73710329 -18.1875 3.375 C-17.5370874 3.13088379 -16.8866748 2.88676758 -16.21655273 2.63525391 C-10.68332401 0.60642344 -5.87750156 -0.1061758 0 0 Z " fill="#F097B0" transform="translate(517.1875,398.625)"/>
<path d="M0 0 C4.18011028 2.82389673 6.20812469 7.53843657 7.7578125 12.1875 C8.74200292 22.48412506 9.47816502 33.69863366 2.7578125 42.1875 C-1.13248697 46.51005497 -5.62007825 47.59661371 -11.2421875 48.1875 C-17.51910415 48.50893528 -21.93461476 47.9855877 -26.8046875 43.8125 C-31.15064643 39.5659289 -32.52524996 36.68610117 -32.67260742 30.72509766 C-32.6975693 21.77841603 -32.09530008 14.97982161 -27.2421875 7.1875 C-26.76523438 6.31480469 -26.28828125 5.44210938 -25.796875 4.54296875 C-20.32473327 -3.74773844 -8.33967547 -3.5114423 0 0 Z " fill="#0F80D9" transform="translate(156.2421875,83.8125)"/>
<path d="M0 0 C6.37752586 2.46797565 10.52389227 7.25058998 14 13 C16.20434702 19.61304105 16.31624908 29.04557927 14.09375 35.72265625 C12.88324019 37.73629276 11.64378007 39.32585987 10 41 C9.54238281 41.49757812 9.08476563 41.99515625 8.61328125 42.5078125 C3.75115167 47.17012853 -1.96680239 48.02553724 -8.4375 48.375 C-15.09629885 48.17982831 -20.76584856 45.60523577 -25.5625 41 C-28.63804672 36.97086198 -28.78830333 33.14299691 -28.515625 28.19140625 C-26.76388897 17.34922185 -21.32030428 9.61093037 -13.1875 2.5625 C-8.87477771 -0.51801592 -5.19782974 -0.71522137 0 0 Z " fill="#0E7FD9" transform="translate(73,91)"/>
<path d="M0 0 C1.2694043 -0.02416992 1.2694043 -0.02416992 2.56445312 -0.04882812 C7.35040885 -0.05257594 10.84654397 -0.01023317 14.5625 3.3125 C19.09216182 8.42272633 20.15033494 12.84540495 19.84179688 19.59179688 C19.77025391 20.55150391 19.69871094 21.51121094 19.625 22.5 C19.58826172 23.47130859 19.55152344 24.44261719 19.51367188 25.44335938 C19.25604959 29.86537017 18.96208479 32.65885324 16.62109375 36.48828125 C14.5625 38.3125 14.5625 38.3125 12.5625 38.3125 C12.2325 39.3025 11.9025 40.2925 11.5625 41.3125 C1.86467776 43.46757161 -6.74474929 43.19326577 -15.4375 38.3125 C-16.406875 37.838125 -17.37625 37.36375 -18.375 36.875 C-21.03160037 34.86242396 -21.45219302 33.49646141 -22.4375 30.3125 C-23.21465749 21.73665747 -23.60534319 13.57541475 -18.4375 6.3125 C-12.52577526 0.6963615 -7.84646709 -0.029744 0 0 Z " fill="#0A7BD7" transform="translate(220.4375,81.6875)"/>
<path d="M0 0 C2.3828125 1.16796875 2.3828125 1.16796875 3.953125 2.8046875 C5.53604134 4.62803503 5.53604134 4.62803503 9.3828125 4.16796875 C11.65158785 1.74915946 11.65158785 1.74915946 13.3828125 -0.83203125 C15.3628125 -0.50203125 17.3428125 -0.17203125 19.3828125 0.16796875 C19.8956042 6.32146916 18.3226629 9.84231667 15.3828125 15.16796875 C14.10477703 18.07904954 13.18994355 20.8486827 12.3203125 23.91796875 C11.3828125 27.16796875 11.3828125 27.16796875 10.3828125 28.16796875 C6.8828125 27.85546875 6.8828125 27.85546875 3.3828125 27.16796875 C2.11424387 24.63083149 2.48248351 23.10564987 2.6953125 20.29296875 C2.78974256 17.6231749 2.78974256 17.6231749 2.3828125 15.16796875 C-0.13583874 12.48882434 -0.13583874 12.48882434 -3.6171875 11.16796875 C-4.5453125 10.75546875 -5.4734375 10.34296875 -6.4296875 9.91796875 C-11.97556603 8.61305615 -16.58720331 8.27009113 -21.8671875 10.60546875 C-27.97848699 16.30008873 -30.10808767 22.61445555 -31.0625 30.78515625 C-31.69719447 33.51166066 -32.39597141 34.50340778 -34.6171875 36.16796875 C-37.1796875 36.54296875 -37.1796875 36.54296875 -39.6171875 36.16796875 C-41.95693565 32.65834653 -41.72707411 30.9074499 -41.15625 26.83203125 C-40.12929189 21.75677451 -38.52220343 16.97649171 -36.6171875 12.16796875 C-36.32585937 11.41 -36.03453125 10.65203125 -35.734375 9.87109375 C-28.98308454 -3.84412624 -12.41010567 -4.61401365 0 0 Z " fill="#202321" transform="translate(412.6171875,414.83203125)"/>
<path d="M0 0 C4.36763525 2.33617699 6.44814828 5.69378421 8.2734375 10.16796875 C10.38159441 18.38524704 10.34551982 27.59652178 6 35 C5.525625 35.928125 5.05125 36.85625 4.5625 37.8125 C2.78608571 40.29948 1.94137099 41.1829525 -1 42 C-4.375 42.25 -4.375 42.25 -8 41 C-14.69189424 32.87412842 -15.9296795 24.25194513 -15 14 C-12.76601578 5.51548997 -9.86542994 -1.38462175 0 0 Z " fill="#F7F7F7" transform="translate(478,300)"/>
<path d="M0 0 C4.10237581 0.73842765 6.50560933 2.43313946 9.125 5.5625 C13.27891163 12.90107721 13.0036389 21.3700058 12.125 29.5625 C10.37844835 35.15562373 8.15037816 39.38138684 3.125 42.5625 C0.1875 43.125 0.1875 43.125 -2.875 42.5625 C-7.79210936 37.8740934 -10.88068345 32.29516953 -11.30859375 25.44140625 C-11.33163534 24.00278809 -11.33245686 22.56366426 -11.3125 21.125 C-11.30637695 20.37581299 -11.30025391 19.62662598 -11.29394531 18.85473633 C-11.09345494 11.78745079 -9.27582506 7.76360009 -5 2.0625 C-2.875 0.5625 -2.875 0.5625 0 0 Z " fill="#FAFAFA" transform="translate(265.875,299.4375)"/>
<path d="M0 0 C5.14272301 3.77938369 9.04452041 9.80043149 11.328125 15.7109375 C11.07211088 18.78310694 10.54248606 19.49657644 8.328125 21.7109375 C5.421875 21.71484375 5.421875 21.71484375 2.328125 20.7109375 C0.22576296 17.7081786 -1.19178497 14.6066168 -2.765625 11.30078125 C-4.44545516 8.37992557 -4.44545516 8.37992557 -7.70703125 8.24609375 C-14.89190583 9.37257606 -19.48084096 15.18301666 -23.671875 20.7109375 C-25.50788609 23.96036244 -25.50788609 23.96036244 -26.671875 26.7109375 C-27.671875 27.7109375 -27.671875 27.7109375 -30.609375 27.8984375 C-33.671875 27.7109375 -33.671875 27.7109375 -35.671875 25.7109375 C-36.43951479 21.00914376 -35.64483098 18.14213111 -33.171875 14.2109375 C-29.88142743 9.66624874 -26.13113896 6.09261901 -21.671875 2.7109375 C-21.12917969 2.27523437 -20.58648437 1.83953125 -20.02734375 1.390625 C-14.3520692 -2.55859281 -6.18292856 -2.98299185 0 0 Z " fill="#1F2221" transform="translate(260.671875,214.2890625)"/>
<path d="M0 0 C2.875 0.3125 2.875 0.3125 4.875 1.3125 C5.3125 4.4375 5.3125 4.4375 4.875 8.3125 C0.09512995 14.52486933 -8.68249071 18.48984466 -16.125 20.3125 C-24.09411817 21.07906848 -33.34139 20.42259019 -40.375 16.5 C-42.125 14.3125 -42.125 14.3125 -42.5625 11.6875 C-42.125 9.3125 -42.125 9.3125 -40.125 7.3125 C-38.1640625 7.3359375 -38.1640625 7.3359375 -35.75 7.6875 C-25.58355518 8.87236623 -16.4219795 9.26681144 -7.125 4.3125 C-6.42632812 3.61253906 -5.72765625 2.91257813 -5.0078125 2.19140625 C-3.125 0.3125 -3.125 0.3125 0 0 Z " fill="#212221" transform="translate(498.125,238.6875)"/>
<path d="M0 0 C1 1 1 1 1.375 3.9375 C1.29727133 10.20761274 -2.27685797 15.93222956 -6.1875 20.625 C-8 22 -8 22 -10 22 C-11.01034498 20.25595212 -12.00792422 18.50450439 -13 16.75 C-13.8353125 15.28820312 -13.8353125 15.28820312 -14.6875 13.796875 C-16 11 -16 11 -16 7 C-13.76953125 5.078125 -13.76953125 5.078125 -10.8125 3.25 C-9.84957031 2.63640625 -8.88664062 2.0228125 -7.89453125 1.390625 C-4.9221047 -0.03742338 -3.24282894 -0.39167383 0 0 Z " fill="#6EC477" transform="translate(297,257)"/>
<path d="M0 0 C3.5625 0.3125 3.5625 0.3125 5.5625 1.375 C7.19628851 4.54046524 6.41517564 6.96270286 5.5625 10.3125 C2.5625 12.3125 2.5625 12.3125 -1 12.125 C-4.4375 11.3125 -4.4375 11.3125 -6.4375 8.3125 C-6.01108868 3.08896136 -5.66029921 0.51457266 0 0 Z " fill="#1E07AF" transform="translate(146.4375,268.6875)"/>
<path d="M0 0 C0.66 0.33 1.32 0.66 2 1 C-7.57 10.57 -17.14 20.14 -27 30 C-27.66 29.67 -28.32 29.34 -29 29 C-19.69597046 18.90249201 -10.26645794 9.12378711 0 0 Z " fill="#5746C3" transform="translate(181,131)"/>
<path d="M0 0 C3.5625 0.3125 3.5625 0.3125 5.5625 1.375 C7.19628851 4.54046524 6.41517564 6.96270286 5.5625 10.3125 C2.5625 12.3125 2.5625 12.3125 -1 12.125 C-4.4375 11.3125 -4.4375 11.3125 -6.4375 8.3125 C-6.01108868 3.08896136 -5.66029921 0.51457266 0 0 Z M-4.4375 3.3125 C-4.85416667 5.8125 -4.85416667 5.8125 -4.4375 8.3125 C-2.54642859 10.64528733 -2.54642859 10.64528733 0.625 10.5 C3.45083136 10.64437793 3.45083136 10.64437793 4.5625 9.3125 C4.89590471 6.35445427 4.89590471 6.35445427 4.5625 3.3125 C0.55240901 0.63910601 -0.42740901 0.63910601 -4.4375 3.3125 Z " fill="#D0CBED" transform="translate(146.4375,268.6875)"/>
<path d="M0 0 C-0.93307421 1.44037669 -1.87165077 2.87718985 -2.8125 4.3125 C-3.33457031 5.11300781 -3.85664063 5.91351563 -4.39453125 6.73828125 C-5.80389849 8.7237402 -7.22096657 10.3491852 -9 12 C-9.621881 3.76007678 -9.621881 3.76007678 -7.3125 0.9375 C-4.70345794 -0.12021975 -2.78813892 -0.06935669 0 0 Z " fill="#67BD76" transform="translate(234,221)"/>
<path d="M0 0 C0.9590625 0.4640625 0.9590625 0.4640625 1.9375 0.9375 C5.92049104 2.31935403 9.81650849 2.6536543 14 3 C12.14901982 5.04929949 10.49392628 6.7291372 8.0625 8.0625 C6 8 6 8 3.3125 5.75 C1 3 1 3 0 0 Z " fill="#1BACE2" transform="translate(476,402)"/>
<path d="M0 0 C0.66 0.33 1.32 0.66 2 1 C1.01 1.33 0.02 1.66 -1 2 C-1.30679688 2.61359375 -1.61359375 3.2271875 -1.9296875 3.859375 C-3.244422 6.48884401 -4.74223713 7.559007 -7.125 9.25 C-7.84945312 9.77078125 -8.57390625 10.2915625 -9.3203125 10.828125 C-9.87460937 11.21484375 -10.42890625 11.6015625 -11 12 C-9.60609461 8.84280428 -7.96365028 6.7187347 -5.5 4.3125 C-4.8915625 3.71050781 -4.283125 3.10851562 -3.65625 2.48828125 C-2 1 -2 1 0 0 Z " fill="#72B4E9" transform="translate(62,92)"/>
<path d="M0 0 C0.66 0.33 1.32 0.66 2 1 C-1.625 5.875 -1.625 5.875 -5 7 C-3.75023244 3.34683329 -3.32901247 2.21934164 0 0 Z " fill="#5DA9E5" transform="translate(135,84)"/>
<path d="M0 0 C0.5775 0.78375 1.155 1.5675 1.75 2.375 C3.82897637 4.80047244 5.09040333 5.85694417 8 7 C6.25 7.75 6.25 7.75 4 8 C1.75 6.3125 1.75 6.3125 0 4 C0 2.68 0 1.36 0 0 Z " fill="#A8A0DE" transform="translate(140,273)"/>
</svg>
