<?xml version="1.0" encoding="UTF-8"?>
<svg version="1.1" xmlns="http://www.w3.org/2000/svg" width="682" height="636">
<path d="M0 0 C7.67950879 4.91023138 13.66035884 11.93367242 16.453125 20.7109375 C16.46484375 23.1328125 16.46484375 23.1328125 16.140625 25.4609375 C16.04136719 26.23953125 15.94210937 27.018125 15.83984375 27.8203125 C15.453125 29.7109375 15.453125 29.7109375 14.453125 30.7109375 C14.34622929 32.20821015 14.30691969 33.71038627 14.29541016 35.21142578 C14.28514801 36.16977325 14.27488586 37.12812073 14.26431274 38.11550903 C14.25701141 39.16020355 14.24971008 40.20489807 14.2421875 41.28125 C14.21410477 43.47917393 14.18544022 45.6770905 14.15625 47.875 C14.11506858 51.35090826 14.0781954 54.826681 14.05175781 58.30273438 C14.02407052 61.65003218 13.97818006 64.99669744 13.9296875 68.34375 C13.92643463 69.37629913 13.92318176 70.40884827 13.91983032 71.47268677 C13.84586696 75.83580588 13.78259136 79.54990435 11.92333984 83.54638672 C10.32093951 86.99545898 9.90860713 88.96139519 10.453125 92.7109375 C11.92191362 95.02580371 11.92191362 95.02580371 14.03125 97.0078125 C18.20717243 101.40410023 21.74651188 105.98592851 25.203125 110.9609375 C25.80020264 111.81937256 26.39728027 112.67780762 27.01245117 113.56225586 C51.98105058 150.02785508 66.67953904 191.00951379 72.453125 234.7109375 C72.5577002 235.4635083 72.66227539 236.2160791 72.77001953 236.99145508 C73.84283738 245.86859097 73.69704008 254.84542196 73.703125 263.7734375 C73.70413712 265.10760208 73.70413712 265.10760208 73.70516968 266.46871948 C73.61812941 338.88052664 44.13216951 404.77162559 -6.484375 455.9609375 C-13.57625587 463.03230439 -20.78655939 469.61016627 -28.89013672 475.49414062 C-30.58440386 476.7385007 -32.24009236 478.02357718 -33.89453125 479.3203125 C-74.37696284 510.62467911 -128.7391974 530.63603797 -180.0859375 530.9140625 C-180.96132172 530.92112213 -181.83670593 530.92818176 -182.73861694 530.93545532 C-219.52421276 531.16466048 -219.52421276 531.16466048 -237.546875 527.7109375 C-238.60648438 527.51226074 -239.66609375 527.31358398 -240.7578125 527.10888672 C-264.45075137 522.54334495 -286.87459192 515.31623948 -308.546875 504.7109375 C-309.32836914 504.33243652 -310.10986328 503.95393555 -310.91503906 503.56396484 C-332.78750605 492.86321133 -353.1078522 478.88851442 -370.8515625 462.21875 C-373.01686826 460.2040742 -375.21317651 458.28951909 -377.484375 456.3984375 C-423.90337211 415.95034873 -452.50102029 350.11682159 -457.546875 289.7109375 C-457.70746621 286.17316099 -457.75650213 282.63873442 -457.78515625 279.09765625 C-457.7949501 278.09820984 -457.80474396 277.09876343 -457.81483459 276.06903076 C-457.98143072 254.65888928 -458.05383119 233.74339972 -453.546875 212.7109375 C-453.33256836 211.68935547 -453.11826172 210.66777344 -452.89746094 209.61523438 C-444.81594255 172.18380567 -429.0635631 136.05924082 -405.546875 105.7109375 C-405.06283203 105.08558105 -404.57878906 104.46022461 -404.08007812 103.81591797 C-379.98100735 72.94753065 -351.12536056 48.15335968 -316.546875 29.7109375 C-315.90669434 29.36820801 -315.26651367 29.02547852 -314.60693359 28.67236328 C-292.59871214 17.00057485 -269.07085847 8.84844172 -244.671875 3.8984375 C-243.71128174 3.70354736 -242.75068848 3.50865723 -241.76098633 3.30786133 C-225.40483063 0.17682975 -209.35722689 -0.69856115 -192.734375 -0.6640625 C-191.18259048 -0.66274826 -191.18259048 -0.66274826 -189.59945679 -0.66140747 C-172.93593335 -0.61497486 -156.8956363 0.22591951 -140.546875 3.7109375 C-139.39815918 3.95231445 -138.24944336 4.19369141 -137.06591797 4.44238281 C-101.486817 12.14642347 -57.06305012 27.19476238 -30.546875 53.7109375 C-30.54800293 52.85564453 -30.54913086 52.00035156 -30.55029297 51.11914062 C-30.43464923 13.77124126 -30.43464923 13.77124126 -19.546875 1.7109375 C-13.29279724 -3.08340905 -6.97390381 -3.52973659 0 0 Z " fill="#03A8E7" transform="translate(520.546875,56.2890625)"/>
<path d="M0 0 C1.09546143 0.52972412 2.19092285 1.05944824 3.31958008 1.60522461 C23.05191305 11.33173799 40.07379913 24.35943079 55.9375 39.5 C56.73929688 40.26054687 57.54109375 41.02109375 58.3671875 41.8046875 C89.95135841 72.5145561 109.40422641 115.26006502 115.6875 158.5 C115.81527832 159.34054932 115.94305664 160.18109863 116.07470703 161.04711914 C117.23867987 169.69014954 116.9375 177.53543364 116.9375 186.5 C136.0775 186.5 155.2175 186.5 174.9375 186.5 C174.9375 179.9 174.9375 173.3 174.9375 166.5 C175.2675 166.5 175.5975 166.5 175.9375 166.5 C175.9375 179.7 175.9375 192.9 175.9375 206.5 C175.6075 206.5 175.2775 206.5 174.9375 206.5 C174.9375 200.23 174.9375 193.96 174.9375 187.5 C155.7975 187.5 136.6575 187.5 116.9375 187.5 C116.9375 191.13 116.9375 194.76 116.9375 198.5 C116.65202462 201.91296008 116.33566392 205.2896552 115.9375 208.6875 C115.84210938 209.54408203 115.74671875 210.40066406 115.6484375 211.28320312 C115.41683157 213.35607617 115.17796505 215.42813598 114.9375 217.5 C110.31989274 213.38159353 107.60343825 208.82227412 104.625 203.4375 C103.65319748 201.73574626 102.67923487 200.03522425 101.703125 198.3359375 C100.40197746 196.06292327 99.10108896 193.79005034 97.81445312 191.50878906 C94.21400364 185.20281947 91.10610864 180.2016455 83.9375 177.97265625 C77.83902266 177.01182844 68.56053431 175.68848284 62.9375 178.5 C62.56359061 182.28373975 62.67759355 184.08664116 64.73046875 187.3515625 C65.52066406 188.26679688 66.31085938 189.18203125 67.125 190.125 C67.90230469 191.04539062 68.67960938 191.96578125 69.48046875 192.9140625 C71.82442087 195.38098826 74.24535729 197.4277288 76.9375 199.5 C77.5975 200.16 78.2575 200.82 78.9375 201.5 C73.35878237 211.77578506 67.53123798 222.39423453 58.9375 230.5 C60.11505859 230.93699219 60.11505859 230.93699219 61.31640625 231.3828125 C75.11240089 236.76578955 75.11240089 236.76578955 79.08203125 243.41796875 C80.62191788 247.16572936 80.76429114 250.54181882 79.9375 254.5 C76.22734241 261.18066961 69.97885725 264.98383633 62.9375 267.5 C56.81688731 269.22855138 50.97079537 269.85687163 44.625 269.8125 C43.79830811 269.80831055 42.97161621 269.80412109 42.11987305 269.79980469 C30.44994979 269.5857821 20.21634114 266.66261421 10.9375 259.5 C10.81632813 260.23605469 10.69515625 260.97210938 10.5703125 261.73046875 C10.31894531 263.19419922 10.31894531 263.19419922 10.0625 264.6875 C9.90007812 265.65042969 9.73765625 266.61335938 9.5703125 267.60546875 C8.95321226 270.42813095 8.03725307 272.83505529 6.9375 275.5 C6.30865353 277.57601716 5.7068417 279.66032171 5.125 281.75 C3.43757078 287.74628906 1.69967453 293.72481027 -0.07006836 299.69726562 C-1.23052637 303.62806055 -2.36621645 307.56425489 -3.46875 311.51171875 C-16.42333736 357.86083736 -16.42333736 357.86083736 -30.0625 371.5 C-35.22655357 374.08202679 -42.57462549 372.9078425 -47.9375 371.3125 C-53.83287322 369.05313237 -57.23454155 365.00750716 -60.234375 359.5078125 C-61.17128171 357.23625566 -61.59012187 355.10881712 -62 352.6875 C-62.80992731 347.9074826 -64.56613991 344.26028496 -66.82421875 340.00390625 C-70.18698899 333.20410901 -71.64694949 326.02365127 -72.0625 318.5 C-72.17335938 317.22125 -72.28421875 315.9425 -72.3984375 314.625 C-73.08356705 303.96220766 -73.08356705 303.96220766 -70.453125 300.1953125 C-68.375 298.5 -68.375 298.5 -66.1640625 297 C-60.91292615 293.25197703 -58.24146979 286.36363218 -56.0625 280.5 C-55.75613926 277.76759336 -55.58375466 275.34326426 -55.625 272.625 C-55.63257324 271.92246094 -55.64014648 271.21992188 -55.64794922 270.49609375 C-55.83254699 264.66442107 -56.92503309 260.37724607 -60.0625 255.5 C-60.48660156 254.80519531 -60.91070312 254.11039062 -61.34765625 253.39453125 C-64.99800827 247.97492783 -69.43181616 244.7103899 -75.0625 241.5 C-76.609375 240.571875 -76.609375 240.571875 -78.1875 239.625 C-85.35249418 236.82931302 -95.12735096 237.24421867 -102.125 240.25 C-105.60083626 242.08937851 -108.82912058 244.2674285 -112.0625 246.5 C-113.0525 246.83 -114.0425 247.16 -115.0625 247.5 C-116.12966704 249.29932579 -116.12966704 249.29932579 -117.0625 251.5 C-118.05229227 253.17274894 -119.05120743 254.84016111 -120.0625 256.5 C-122.18813103 256.38623383 -124.3130261 256.25864369 -126.4375 256.125 C-127.62085938 256.05539062 -128.80421875 255.98578125 -130.0234375 255.9140625 C-133.0625 255.5 -133.0625 255.5 -135.0625 253.5 C-135.31622398 250.70313571 -135.43279754 248.04796563 -135.4375 245.25 C-135.46199219 244.49847656 -135.48648437 243.74695313 -135.51171875 242.97265625 C-135.53934575 237.69590002 -134.57527127 234.66857515 -131.0625 230.5 C-130.340625 230.21125 -129.61875 229.9225 -128.875 229.625 C-128.276875 229.25375 -127.67875 228.8825 -127.0625 228.5 C-126.81908765 226.72656719 -126.5965556 224.94867631 -126.45703125 223.1640625 C-125.74422067 218.3508267 -124.05444648 213.8190986 -122.41015625 209.2578125 C-121.5953125 206.98569747 -120.83561134 204.69126799 -120.18359375 202.3671875 C-118.27069232 196.62047945 -115.76486963 193.89785835 -110.55664062 191.04858398 C-94.76542175 183.23484147 -81.49209341 182.91669998 -64.1875 184.875 C-63.01058594 185.00132812 -61.83367187 185.12765625 -60.62109375 185.2578125 C-38.09534593 187.73589257 -38.09534593 187.73589257 -29.4375 191 C-28.29023438 191.4228125 -27.14296875 191.845625 -25.9609375 192.28125 C-23.0625 193.5 -23.0625 193.5 -20.0625 195.5 C-20.2790625 194.71625 -20.495625 193.9325 -20.71875 193.125 C-24.20409343 178.15093191 -23.33348479 162.77520412 -23.0625 147.5 C-24.32707031 147.48195313 -25.59164062 147.46390625 -26.89453125 147.4453125 C-27.60585205 147.43516113 -28.31717285 147.42500977 -29.05004883 147.41455078 C-32.31007346 147.55297231 -33.64741175 148.28072971 -36.0625 150.5 C-38.96028189 155.17105141 -41.00165316 160.07391588 -42.625 165.3125 C-43.82306821 169.073103 -45.08473253 171.77746974 -48.0625 174.5 C-51.3125 175.3125 -51.3125 175.3125 -54.0625 175.5 C-56.87640331 171.48013813 -57.98446754 167.50846137 -59.12109375 162.8046875 C-60.27269565 159.98541313 -61.4784332 159.05527011 -64.0625 157.5 C-72.95251391 154.53666203 -85.30149263 156.45201942 -94.0625 159.5 C-98.05639585 161.97621542 -100.94476558 165.01147975 -104.0625 168.5 C-105.93694478 170.43811023 -107.84332854 172.34365148 -109.75 174.25 C-110.66394531 175.17167969 -111.57789063 176.09335937 -112.51953125 177.04296875 C-117.83826674 182.18196203 -123.02999499 185.98677209 -130.5 186.9375 C-134.91164018 186.39571963 -137.32253513 184.87929 -140.0625 181.5 C-143.80292002 174.6425633 -143.97204929 167.18658322 -143.0625 159.5 C-139.83524393 151.39731734 -133.36114767 147.31525575 -125.625 143.8125 C-114.70082763 139.57118659 -102.82091392 137.56711745 -91.25 135.9921875 C-88.86683748 135.66076529 -88.86683748 135.66076529 -87.0625 133.5 C-86.68600124 128.60551618 -87.50041327 125.08862977 -89.0625 120.5 C-89.1875 117.125 -89.1875 117.125 -89.0625 114.5 C-80.9182915 110.42789575 -67.55562771 115.16101186 -59.5625 117.8125 C-54.90085021 119.37778575 -50.45276735 121.22545059 -46 123.3125 C-39.32607844 126.1599201 -33.21148358 126.20317871 -26.0625 125.5 C-25.10601562 125.41234375 -24.14953125 125.3246875 -23.1640625 125.234375 C-20.30895597 124.7027936 -18.46972668 124.13602258 -16.0625 122.5 C-14.14230719 119.63268506 -12.79512707 116.77164879 -11.4453125 113.59765625 C-9.57149275 109.40008827 -6.98198477 106.01994618 -4.0625 102.5 C-5.073125 101.654375 -6.08375 100.80875 -7.125 99.9375 C-9.6637345 97.36861426 -10.03745326 96.84439271 -10.3125 93.0625 C-8.92943277 89.12075838 -7.26380063 87.16295289 -4.2421875 84.37109375 C-2.79568024 82.45871579 -2.79568024 82.45871579 -3.12890625 79.59375 C-4.20898531 76.01457588 -5.56730648 74.26935575 -8.125 71.5625 C-8.93453125 70.70140625 -9.7440625 69.8403125 -10.578125 68.953125 C-13.33062371 66.23524892 -16.18569799 63.73751267 -19.23828125 61.36328125 C-24.16408018 56.33200483 -25.55076167 51.48235405 -25.9375 44.625 C-26.61311232 36.6663221 -28.74581532 29.8166551 -31.625 22.40234375 C-34.70338162 14.34078138 -36.3919756 6.14747406 -35.0625 -2.5 C-32.5 -5.1875 -32.5 -5.1875 -29.0625 -6.5 C-27.99 -6.974375 -26.9175 -7.44875 -25.8125 -7.9375 C-16.88808452 -9.27616232 -7.83799483 -3.79566702 0 0 Z " fill="#FAFCFB" transform="translate(418.0625,134.5)"/>
<path d="M0 0 C19.47 0 38.94 0 59 0 C59.226875 4.434375 59.45375 8.86875 59.6875 13.4375 C61.1649077 36.95567983 66.33594721 58.07621473 75 80 C75.27457031 80.71752441 75.54914063 81.43504883 75.83203125 82.17431641 C85.27795145 106.84357456 102.07804014 127.95121033 120 147 C120.98226562 148.06347656 120.98226562 148.06347656 121.984375 149.1484375 C148.51326993 176.92441724 187.37812231 195.53194727 224.77832031 202.578125 C226.24130679 202.85593166 227.70179703 203.14727898 229.15917969 203.453125 C261.86146785 210.26059997 298.69430664 207.07237334 330 196 C330.70511719 195.75491699 331.41023438 195.50983398 332.13671875 195.25732422 C336.80614701 193.62017712 341.41010029 191.84712639 346 190 C346.64356445 189.74669922 347.28712891 189.49339844 347.95019531 189.23242188 C369.54975344 180.66133914 389.29452049 167.09579047 406 151 C406.58217285 150.44892578 407.1643457 149.89785156 407.76416016 149.33007812 C450.33761281 108.88583308 466.96130292 58.18921191 472 1 C491.14 1 510.28 1 530 1 C531.30139791 70.95013746 504.72335687 135.58434335 456.23046875 185.98828125 C447.52358035 194.91377697 438.75631579 203.44994119 428.65673828 210.78320312 C426.96247114 212.0275632 425.30678264 213.31263968 423.65234375 214.609375 C383.16991216 245.91374161 328.8076776 265.92510047 277.4609375 266.203125 C276.14786118 266.21371445 276.14786118 266.21371445 274.80825806 266.22451782 C238.02266224 266.45372298 238.02266224 266.45372298 220 263 C218.41058594 262.70198486 218.41058594 262.70198486 216.7890625 262.39794922 C193.09612363 257.83240745 170.67228308 250.60530198 149 240 C148.21850586 239.62149902 147.43701172 239.24299805 146.63183594 238.85302734 C124.75936895 228.15227383 104.4390228 214.17757692 86.6953125 197.5078125 C84.53000674 195.4931367 82.33369849 193.57858159 80.0625 191.6875 C32.79360644 150.49883756 6.76873025 85.91857227 0 25 C0 16.75 0 8.5 0 0 Z " fill="#024BAD" transform="translate(63,321)"/>
<path d="M0 0 C-4.56381553 7.01553968 -9.72229399 13.51122187 -15 20 C-15.65524658 20.80969238 -15.65524658 20.80969238 -16.32373047 21.63574219 C-21.23783832 27.62818686 -25.57222751 31.7797546 -32.6796875 34.91015625 C-40.06969863 38.38122208 -43.41758452 43.94909744 -47 51 C-50.22826637 56.70327059 -53.51921193 59.47335982 -59.765625 61.6015625 C-62.94225176 62.16802392 -66.02669454 62.09234542 -69.25 62.0625 C-70.51328125 62.05347656 -71.7765625 62.04445312 -73.078125 62.03515625 C-74.04234375 62.02355469 -75.0065625 62.01195312 -76 62 C-76 62.66 -76 63.32 -76 64 C-74.948125 64.0825 -73.89625 64.165 -72.8125 64.25 C-68.71267873 65.05652222 -66.92278322 66.07721678 -64 69 C-64 69.66 -64 70.32 -64 71 C-63.34 70.67 -62.68 70.34 -62 70 C-54.44116682 70.04381932 -46.88666288 71.01567596 -39.4375 72.25 C-38.13683594 72.46140625 -36.83617187 72.6728125 -35.49609375 72.890625 C-31.39482483 74.19203324 -29.59116822 75.58639598 -27 79 C-26.12511908 83.70440357 -27.52173841 88.7503772 -29.625 93 C-33.23987294 98.24739621 -39.0373125 101.26299195 -44.33203125 104.59375 C-47.33743966 106.50552157 -49.92218838 108.5910421 -52.5 111.0625 C-55.92585775 114.26297237 -58.34197912 114.9029579 -63 115 C-62.29875 115.680625 -61.5975 116.36125 -60.875 117.0625 C-59.91564509 118.04066579 -58.9573721 119.01989347 -58 120 C-57.071875 120.928125 -56.14375 121.85625 -55.1875 122.8125 C-47.47792023 131.95642019 -42.75004035 144.53667391 -40 156 C-39.66355469 157.37671875 -39.66355469 157.37671875 -39.3203125 158.78125 C-36.18074918 174.78012061 -36.90540473 192.05878079 -40.1875 207.9375 C-40.4815271 209.36412964 -40.4815271 209.36412964 -40.78149414 210.81958008 C-43.17179908 221.22341211 -47.6516483 230.44626558 -54 239 C-54.48855469 239.68964844 -54.97710937 240.37929688 -55.48046875 241.08984375 C-60.4201527 247.44435076 -66.8778955 250.57282189 -74 254 C-73.51789063 254.38671875 -73.03578125 254.7734375 -72.5390625 255.171875 C-71.90742188 255.69265625 -71.27578125 256.2134375 -70.625 256.75 C-69.99851562 257.26046875 -69.37203125 257.7709375 -68.7265625 258.296875 C-66.28054988 260.70968383 -65.0925813 262.69436629 -64.84765625 266.1484375 C-65.28410638 270.67164798 -65.9414473 274.1391964 -69.19140625 277.58203125 C-73.09619332 280.64345178 -77.56645109 282.81040142 -82 285 C-80.44347006 287.2335449 -78.88009379 289.46173918 -77.3125 291.6875 C-76.87744141 292.31333984 -76.44238281 292.93917969 -75.99414062 293.58398438 C-72.68412815 298.26703906 -69.3957924 302.57042673 -64.39453125 305.5546875 C-51.23340066 313.49859993 -43.72009386 339.8982286 -39.82421875 354.05859375 C-36.65314905 367.38578759 -41.96366856 383.92041843 -45 397 C-52.10941854 394.84165345 -58.49326362 391.95630159 -65.0625 388.5 C-66.57215332 387.70758911 -66.57215332 387.70758911 -68.11230469 386.89916992 C-117.70654525 360.39067682 -153.13941661 314.06411115 -169.35546875 260.68359375 C-178.30021232 228.36599535 -179.45632344 191.7249751 -172 159 C-171.78569336 158.05141113 -171.57138672 157.10282227 -171.35058594 156.12548828 C-168.2432753 142.82556554 -163.76027123 130.36974275 -158 118 C-157.67773438 117.30181152 -157.35546875 116.60362305 -157.0234375 115.88427734 C-149.34458948 99.42235672 -139.66754216 84.89035285 -128 71 C-127.39800781 70.26652344 -126.79601562 69.53304687 -126.17578125 68.77734375 C-116.37663854 57.15166059 -105.22099882 46.99990092 -93 38 C-92.15050781 37.36707031 -91.30101562 36.73414063 -90.42578125 36.08203125 C-66.72134159 18.95998145 -30.04690988 -2.06153756 0 0 Z " fill="#04A8E7" transform="translate(298,117)"/>
<path d="M0 0 C7.67950879 4.91023138 13.66035884 11.93367242 16.453125 20.7109375 C16.46484375 23.1328125 16.46484375 23.1328125 16.140625 25.4609375 C16.04136719 26.23953125 15.94210937 27.018125 15.83984375 27.8203125 C15.453125 29.7109375 15.453125 29.7109375 14.453125 30.7109375 C14.34622929 32.20821015 14.30691969 33.71038627 14.29541016 35.21142578 C14.28514801 36.16977325 14.27488586 37.12812073 14.26431274 38.11550903 C14.25701141 39.16020355 14.24971008 40.20489807 14.2421875 41.28125 C14.21410477 43.47917393 14.18544022 45.6770905 14.15625 47.875 C14.11506858 51.35090826 14.0781954 54.826681 14.05175781 58.30273438 C14.02407052 61.65003218 13.97818006 64.99669744 13.9296875 68.34375 C13.92643463 69.37629913 13.92318176 70.40884827 13.91983032 71.47268677 C13.84586696 75.83580588 13.78259136 79.54990435 11.92333984 83.54638672 C10.32093951 86.99545898 9.90860713 88.96139519 10.453125 92.7109375 C11.92191362 95.02580371 11.92191362 95.02580371 14.03125 97.0078125 C18.20717243 101.40410023 21.74651188 105.98592851 25.203125 110.9609375 C25.80020264 111.81937256 26.39728027 112.67780762 27.01245117 113.56225586 C57.99576238 158.81209107 73.46975822 210.06690211 72.453125 264.7109375 C53.313125 264.7109375 34.173125 264.7109375 14.453125 264.7109375 C13.793125 255.8009375 13.133125 246.8909375 12.453125 237.7109375 C9.99371163 223.68563424 7.36104979 210.06944549 2.453125 196.7109375 C2.17098145 195.93975586 1.88883789 195.16857422 1.59814453 194.37402344 C-6.34369399 172.99118028 -17.00441398 153.34817845 -31.546875 135.7109375 C-32.35640625 134.71707031 -33.1659375 133.72320312 -34 132.69921875 C-44.32231174 120.16364104 -55.47226136 109.3532339 -68.546875 99.7109375 C-69.60777344 98.92847656 -70.66867187 98.14601563 -71.76171875 97.33984375 C-98.141558 78.52505111 -126.89782109 67.81998519 -158.546875 61.7109375 C-159.53107422 61.51951172 -160.51527344 61.32808594 -161.52929688 61.13085938 C-171.96911071 59.30910178 -181.71369539 59.2268032 -192.546875 58.7109375 C-192.546875 39.2409375 -192.546875 19.7709375 -192.546875 -0.2890625 C-164.56307529 -0.2890625 -164.56307529 -0.2890625 -154.796875 1.2734375 C-153.06872559 1.53797729 -153.06872559 1.53797729 -151.30566406 1.80786133 C-111.12877343 8.30706422 -60.3018751 23.9559374 -30.546875 53.7109375 C-30.54856689 52.42799805 -30.54856689 52.42799805 -30.55029297 51.11914062 C-30.43464923 13.77124126 -30.43464923 13.77124126 -19.546875 1.7109375 C-13.29279724 -3.08340905 -6.97390381 -3.52973659 0 0 Z " fill="#145404" transform="translate(520.546875,56.2890625)"/>
<path d="M0 0 C19.47 0 38.94 0 59 0 C59.226875 4.434375 59.45375 8.86875 59.6875 13.4375 C61.1649077 36.95567983 66.33594721 58.07621473 75 80 C75.27457031 80.71752441 75.54914063 81.43504883 75.83203125 82.17431641 C85.27795145 106.84357456 102.07804014 127.95121033 120 147 C120.98226562 148.06347656 120.98226562 148.06347656 121.984375 149.1484375 C151.96254028 180.53583277 194.89861192 198.01033879 237 204.6875 C237.73355713 204.80706055 238.46711426 204.92662109 239.22290039 205.04980469 C247.8316683 206.32353683 256.20632424 206.51146246 265 207 C265 226.47 265 245.94 265 266 C240.45872405 266 240.45872405 266 232.375 264.875 C231.39466797 264.74375732 230.41433594 264.61251465 229.40429688 264.47729492 C201.31156764 260.47005385 174.48018684 252.46869446 149 240 C148.21850586 239.62149902 147.43701172 239.24299805 146.63183594 238.85302734 C124.75936895 228.15227383 104.4390228 214.17757692 86.6953125 197.5078125 C84.53000674 195.4931367 82.33369849 193.57858159 80.0625 191.6875 C32.79360644 150.49883756 6.76873025 85.91857227 0 25 C0 16.75 0 8.5 0 0 Z " fill="#135404" transform="translate(63,321)"/>
<path d="M0 0 C0 19.47 0 38.94 0 59 C-12.87 59.99 -12.87 59.99 -26 61 C-46.25973089 62.97655911 -65.46152668 68.70121767 -84 77 C-85.04462402 77.46744629 -85.04462402 77.46744629 -86.11035156 77.94433594 C-108.19561428 88.02187011 -127.50638299 102.31781953 -145 119 C-145.91394531 119.84949219 -146.82789063 120.69898438 -147.76953125 121.57421875 C-159.49819073 132.79950228 -168.5387292 146.21974852 -177 160 C-177.92232422 161.47339844 -177.92232422 161.47339844 -178.86328125 162.9765625 C-191.60361254 183.93737362 -199.15263365 208.13222053 -203.1875 232.1875 C-203.35459473 233.15365234 -203.52168945 234.11980469 -203.69384766 235.11523438 C-205.28682542 245.16198599 -205.48242906 254.64858117 -206 265 C-225.47 265 -244.94 265 -265 265 C-265 237.07671545 -265 237.07671545 -263.375 227 C-263.19678711 225.83831299 -263.01857422 224.67662598 -262.83496094 223.47973633 C-256.02261834 181.16194823 -239.33321529 139.98303372 -213 106 C-212.51595703 105.37464355 -212.03191406 104.74928711 -211.53320312 104.10498047 C-187.43413235 73.23659315 -158.57848556 48.44242218 -124 30 C-123.35981934 29.65727051 -122.71963867 29.31454102 -122.06005859 28.96142578 C-83.86429871 8.70477628 -43.05302235 0 0 0 Z " fill="#1902AD" transform="translate(328,56)"/>
<path d="M0 0 C1.09546143 0.52972412 2.19092285 1.05944824 3.31958008 1.60522461 C23.05191305 11.33173799 40.07379913 24.35943079 55.9375 39.5 C56.73929687 40.26054687 57.54109375 41.02109375 58.3671875 41.8046875 C89.95135841 72.5145561 109.40422641 115.26006502 115.6875 158.5 C115.81527832 159.34054932 115.94305664 160.18109863 116.07470703 161.04711914 C117.23867987 169.69014954 116.9375 177.53543364 116.9375 186.5 C136.0775 186.5 155.2175 186.5 174.9375 186.5 C174.9375 179.9 174.9375 173.3 174.9375 166.5 C175.2675 166.5 175.5975 166.5 175.9375 166.5 C175.9375 179.7 175.9375 192.9 175.9375 206.5 C175.6075 206.5 175.2775 206.5 174.9375 206.5 C174.9375 200.23 174.9375 193.96 174.9375 187.5 C155.7975 187.5 136.6575 187.5 116.9375 187.5 C116.9375 191.13 116.9375 194.76 116.9375 198.5 C116.65202462 201.91296008 116.33566392 205.2896552 115.9375 208.6875 C115.84210938 209.54408203 115.74671875 210.40066406 115.6484375 211.28320312 C115.41683157 213.35607617 115.17796505 215.42813598 114.9375 217.5 C110.31989274 213.38159353 107.60343825 208.82227412 104.625 203.4375 C103.65319748 201.73574626 102.67923487 200.03522425 101.703125 198.3359375 C100.40197746 196.06292327 99.10108896 193.79005034 97.81445312 191.50878906 C94.21400364 185.20281947 91.10610864 180.2016455 83.9375 177.97265625 C77.83902266 177.01182844 68.56053431 175.68848284 62.9375 178.5 C62.56359061 182.28373975 62.67759355 184.08664116 64.73046875 187.3515625 C65.52066406 188.26679688 66.31085938 189.18203125 67.125 190.125 C67.90230469 191.04539062 68.67960937 191.96578125 69.48046875 192.9140625 C71.82442087 195.38098826 74.24535729 197.4277288 76.9375 199.5 C77.5975 200.16 78.2575 200.82 78.9375 201.5 C73.92709555 210.72897386 68.63630509 219.36573668 61.9375 227.5 C61.36902344 228.20398926 60.80054688 228.90797852 60.21484375 229.63330078 C57.16305719 232.13479735 55.33043374 231.9616897 51.421875 231.890625 C49.54628906 231.87128906 49.54628906 231.87128906 47.6328125 231.8515625 C45.67988281 231.80128906 45.67988281 231.80128906 43.6875 231.75 C42.37007813 231.73195313 41.05265625 231.71390625 39.6953125 231.6953125 C36.44197692 231.64816271 33.19010375 231.58236044 29.9375 231.5 C32.02107215 229.39884496 34.10651836 227.34877304 36.3125 225.375 C39.91062013 221.43420177 42.3966058 217.17653186 44.9375 212.5 C45.45699219 211.55253906 45.97648437 210.60507812 46.51171875 209.62890625 C53.89090788 195.0378144 55.30462218 180.30192249 55.375 164.1875 C55.38126404 163.51439789 55.38752808 162.84129578 55.39398193 162.14779663 C55.50812264 142.74417252 51.07346198 119.6043065 37.51171875 104.86328125 C29.76831795 97.56638915 23.70276824 94.94170195 13.03125 95.2109375 C6.77052575 95.79590416 2.66064572 98.34935679 -2.0625 102.5 C-5.44858737 101.0488197 -7.87423659 99.49873134 -10.0625 96.5 C-10.19814862 92.90531165 -9.91367269 90.55252537 -7.609375 87.703125 C-6.52367828 86.55654809 -5.40196116 85.44268185 -4.2421875 84.37109375 C-2.79568024 82.45871579 -2.79568024 82.45871579 -3.12890625 79.59375 C-4.20898531 76.01457588 -5.56730648 74.26935575 -8.125 71.5625 C-8.93453125 70.70140625 -9.7440625 69.8403125 -10.578125 68.953125 C-13.33062371 66.23524892 -16.18569799 63.73751267 -19.23828125 61.36328125 C-24.16408018 56.33200483 -25.55076167 51.48235405 -25.9375 44.625 C-26.61311232 36.6663221 -28.74581532 29.8166551 -31.625 22.40234375 C-34.70338162 14.34078138 -36.3919756 6.14747406 -35.0625 -2.5 C-32.5 -5.1875 -32.5 -5.1875 -29.0625 -6.5 C-27.45375 -7.2115625 -27.45375 -7.2115625 -25.8125 -7.9375 C-16.88808452 -9.27616232 -7.83799483 -3.79566702 0 0 Z " fill="#6FC473" transform="translate(418.0625,134.5)"/>
<path d="M0 0 C1.76537109 0.18949219 1.76537109 0.18949219 3.56640625 0.3828125 C26.09215407 2.86089257 26.09215407 2.86089257 34.75 6.125 C35.89726562 6.5478125 37.04453125 6.970625 38.2265625 7.40625 C41.125 8.625 41.125 8.625 44.125 10.625 C44.455 9.965 44.785 9.305 45.125 8.625 C45.54458984 10.02298828 45.54458984 10.02298828 45.97265625 11.44921875 C50.43776767 25.8524359 56.28566692 40.46536256 70.1875 48.125 C74.11005306 49.8613414 77.86610909 50.32079351 82.125 50.625 C81.01125 51.429375 81.01125 51.429375 79.875 52.25 C76.34630408 55.29751012 73.49461359 58.042268 72.80859375 62.8359375 C72.72266965 66.28435802 72.7903778 68.86416192 74.1953125 72.05859375 C75.3216653 75.16789538 75.04313899 76.91070974 74.375 80.125 C74.19453125 81.0428125 74.0140625 81.960625 73.828125 82.90625 C73.12984432 85.60626863 72.17401945 88.0440163 71.125 90.625 C70.49615353 92.70101716 69.8943417 94.78532171 69.3125 96.875 C67.62507078 102.87128906 65.88717453 108.84981027 64.11743164 114.82226562 C62.95697363 118.75306055 61.82128355 122.68925489 60.71875 126.63671875 C47.76416264 172.98583736 47.76416264 172.98583736 34.125 186.625 C28.96094643 189.20702679 21.61287451 188.0328425 16.25 186.4375 C10.35462678 184.17813237 6.95295845 180.13250716 3.953125 174.6328125 C3.01621829 172.36125566 2.59737813 170.23381712 2.1875 167.8125 C1.37757269 163.0324826 -0.37863991 159.38528496 -2.63671875 155.12890625 C-5.99948899 148.32910901 -7.45944949 141.14865127 -7.875 133.625 C-7.98585938 132.34625 -8.09671875 131.0675 -8.2109375 129.75 C-8.89606705 119.08720766 -8.89606705 119.08720766 -6.265625 115.3203125 C-4.1875 113.625 -4.1875 113.625 -1.9765625 112.125 C3.27457385 108.37697703 5.94603021 101.48863218 8.125 95.625 C8.43136074 92.89259336 8.60374534 90.46826426 8.5625 87.75 C8.55492676 87.04746094 8.54735352 86.34492188 8.53955078 85.62109375 C8.35495301 79.78942107 7.26246691 75.50224607 4.125 70.625 C3.70089844 69.93019531 3.27679688 69.23539062 2.83984375 68.51953125 C-0.81050827 63.09992783 -5.24431616 59.8353899 -10.875 56.625 C-11.90625 56.00625 -12.9375 55.3875 -14 54.75 C-21.16499418 51.95431302 -30.93985096 52.36921867 -37.9375 55.375 C-41.41333626 57.21437851 -44.64162058 59.3924285 -47.875 61.625 C-49.36 62.12 -49.36 62.12 -50.875 62.625 C-51.94216704 64.42432579 -51.94216704 64.42432579 -52.875 66.625 C-53.86479227 68.29774894 -54.86370743 69.96516111 -55.875 71.625 C-58.00063103 71.51123383 -60.1255261 71.38364369 -62.25 71.25 C-63.43335938 71.18039062 -64.61671875 71.11078125 -65.8359375 71.0390625 C-68.875 70.625 -68.875 70.625 -70.875 68.625 C-71.12872398 65.82813571 -71.24529754 63.17296563 -71.25 60.375 C-71.27449219 59.62347656 -71.29898437 58.87195313 -71.32421875 58.09765625 C-71.35184575 52.82090002 -70.38777127 49.79357515 -66.875 45.625 C-66.153125 45.33625 -65.43125 45.0475 -64.6875 44.75 C-64.089375 44.37875 -63.49125 44.0075 -62.875 43.625 C-62.63158765 41.85156719 -62.4090556 40.07367631 -62.26953125 38.2890625 C-61.55672067 33.4758267 -59.86694648 28.9440986 -58.22265625 24.3828125 C-57.4078125 22.11069747 -56.64811134 19.81626799 -55.99609375 17.4921875 C-54.08319232 11.74547945 -51.57736963 9.02285835 -46.36914062 6.17358398 C-30.57792175 -1.64015853 -17.30459341 -1.95830002 0 0 Z " fill="#6FC473" transform="translate(353.875,319.375)"/>
<path d="M0 0 C2.82608132 1.71443714 5.27010731 3.5373365 7.7578125 5.7109375 C8.39976562 6.26652344 9.04171875 6.82210937 9.703125 7.39453125 C18.67427948 16.42602982 23.85387261 30.60609333 26.7578125 42.7109375 C26.98210937 43.62875 27.20640625 44.5465625 27.4375 45.4921875 C30.57706332 61.49105811 29.85240777 78.76971829 26.5703125 94.6484375 C26.2762854 96.07506714 26.2762854 96.07506714 25.97631836 97.53051758 C23.58601342 107.93434961 19.1061642 117.15720308 12.7578125 125.7109375 C12.02498047 126.74541016 12.02498047 126.74541016 11.27734375 127.80078125 C6.3376598 134.15528826 -0.120083 137.28375939 -7.2421875 140.7109375 C-6.76007813 141.09765625 -6.27796875 141.484375 -5.78125 141.8828125 C-5.14960938 142.40359375 -4.51796875 142.924375 -3.8671875 143.4609375 C-3.24070312 143.97140625 -2.61421875 144.481875 -1.96875 145.0078125 C0.47726262 147.42062133 1.6652312 149.40530379 1.91015625 152.859375 C1.47795717 157.33852908 0.85216872 160.91993639 -2.40625 164.30078125 C-14.94365051 173.93057185 -30.03585266 175.01368625 -45.2421875 173.7109375 C-53.79543876 172.16379236 -63.3220915 169.0371549 -68.6796875 161.7578125 C-70.84831644 157.81211263 -72.27030625 154.19727388 -71.2421875 149.7109375 C-66.11290872 141.66657171 -58.63588138 137.28980936 -49.49194336 135.12158203 C-45.43309259 134.38072614 -41.35849496 134.23769077 -37.2421875 134.0859375 C-36.37207031 134.04726563 -35.50195312 134.00859375 -34.60546875 133.96875 C-32.48468264 133.87552863 -30.36346565 133.79219614 -28.2421875 133.7109375 C-28.95181641 133.03224609 -28.95181641 133.03224609 -29.67578125 132.33984375 C-46.83844261 114.6418947 -50.67183522 92.45500713 -50.7421875 68.7734375 C-50.74695099 67.97788452 -50.75171448 67.18233154 -50.75662231 66.3626709 C-50.77906712 56.41256891 -50.01792453 47.33927533 -47.2421875 37.7109375 C-47.04367188 36.97464111 -46.84515625 36.23834473 -46.640625 35.47973633 C-42.67945238 21.27656439 -35.31369688 7.91520985 -22.4140625 -0.03125 C-15.44649148 -2.7942523 -6.97149745 -2.77180019 0 0 Z " fill="#F9FBFB" transform="translate(231.2421875,230.2890625)"/>
<path d="M0 0 C-1.73225274 1.15483516 -3.49031109 2.27590387 -5.3046875 3.296875 C-12.76644532 7.47466621 -12.76644532 7.47466621 -18 14 C-18.43527223 18.4736312 -17.38179653 22.07277986 -15.6875 26.1875 C-8.8355053 33.35819213 1.73801577 36.9754571 11.55078125 37.23046875 C13.13807775 37.22552133 14.72536911 37.21095593 16.3125 37.1875 C17.14773193 37.19120605 17.98296387 37.19491211 18.84350586 37.19873047 C23.48577003 37.18521587 27.53111369 36.70605931 32.0625 35.625 C34.57421875 35.3125 34.57421875 35.3125 37 36 C40.06613709 39.25638802 42.39777421 42.60501742 44.7109375 46.4140625 C47.32275675 50.68325286 50.27043837 53.96796773 54.60546875 56.5546875 C67.76659934 64.49859993 75.27990614 90.8982286 79.17578125 105.05859375 C82.34685095 118.38578759 77.03633144 134.92041843 74 148 C66.89058146 145.84165345 60.50673638 142.95630159 53.9375 139.5 C52.93106445 138.97172607 51.92462891 138.44345215 50.88769531 137.89916992 C6.76435322 114.31491304 -27.14379254 74.40688575 -44.75 27.8125 C-45.12705078 26.81484619 -45.50410156 25.81719238 -45.89257812 24.78930664 C-52.2659926 7.52607552 -52.2659926 7.52607552 -52 0 C-34.75062223 -8.39043807 -16.78372843 -10.58104618 0 0 Z " fill="#6FC473" transform="translate(179,366)"/>
<path d="M0 0 C4.66164979 1.56528575 9.10973265 3.41295059 13.5625 5.5 C23.18950316 9.62030553 33.5883359 8.2453488 43.5 5.6875 C43.23445313 6.53570312 42.96890625 7.38390625 42.6953125 8.2578125 C40.13709603 16.75407889 38.51898351 24.865248 37.5 33.6875 C37.005 31.7075 37.005 31.7075 36.5 29.6875 C32.60668627 29.48953489 29.52196044 29.35476869 25.8125 30.5625 C21.00136503 34.98354294 18.83795691 41.36717419 16.9375 47.5 C15.73943179 51.260603 14.47776747 53.96496974 11.5 56.6875 C8.25 57.5 8.25 57.5 5.5 57.6875 C2.68609669 53.66763813 1.57803246 49.69596137 0.44140625 44.9921875 C-0.71019565 42.17291313 -1.9159332 41.24277011 -4.5 39.6875 C-13.39001391 36.72416203 -25.73899263 38.63951942 -34.5 41.6875 C-38.49389585 44.16371542 -41.38226558 47.19897975 -44.5 50.6875 C-46.37444478 52.62561023 -48.28082854 54.53115148 -50.1875 56.4375 C-51.10144531 57.35917969 -52.01539063 58.28085937 -52.95703125 59.23046875 C-58.27576674 64.36946203 -63.46749499 68.17427209 -70.9375 69.125 C-75.34914018 68.58321963 -77.76003513 67.06679 -80.5 63.6875 C-84.24042002 56.8300633 -84.40954929 49.37408322 -83.5 41.6875 C-80.27274393 33.58481734 -73.79864767 29.50275575 -66.0625 26 C-55.13832763 21.75868659 -43.25841392 19.75461745 -31.6875 18.1796875 C-29.30433748 17.84826529 -29.30433748 17.84826529 -27.5 15.6875 C-27.12350124 10.79301618 -27.93791327 7.27612977 -29.5 2.6875 C-29.625 -0.6875 -29.625 -0.6875 -29.5 -3.3125 C-21.3557915 -7.38460425 -7.99312771 -2.65148814 0 0 Z " fill="#6FC474" transform="translate(358.5,252.3125)"/>
<path d="M0 0 C7.90528499 3.85948257 13.98838059 11.84609235 17.1328125 19.90234375 C17.62394531 21.40474609 17.62394531 21.40474609 18.125 22.9375 C18.45757812 23.93652344 18.79015625 24.93554688 19.1328125 25.96484375 C24.2101893 43.73566254 22.35645778 66.29295309 13.5390625 82.47265625 C9.90620984 88.43827977 5.75332776 93.76173815 -1.32421875 95.60546875 C-6.53528909 96.41146891 -10.54876223 96.1912528 -15.12890625 93.47265625 C-24.272034 86.27649934 -30.2501122 73.3232753 -32 62 C-32.30342976 57.41350038 -32.32469553 52.84527664 -32.3125 48.25 C-32.32861328 47.05117188 -32.34472656 45.85234375 -32.36132812 44.6171875 C-32.36911276 30.26232483 -29.15218475 15.97753324 -18.875 5.375 C-13.1480501 -0.07595231 -7.81246444 -1.23354702 0 0 Z " fill="#040404" transform="translate(436,260)"/>
<path d="M0 0 C7.51604181 3.3323076 12.65879141 9.82224895 16.03515625 17.18359375 C22.08077846 33.04280736 24.23574691 54.3432154 17.875 70.38671875 C17.54628906 71.36511719 17.21757812 72.34351563 16.87890625 73.3515625 C13.70641945 82.05669065 8.65520816 89.19991331 0.875 94.38671875 C-4.72186855 95.02934985 -10.16604131 95.16290993 -15.4375 93.07421875 C-28.0470764 80.46464235 -32.50275774 66.87003498 -32.56317139 49.38973999 C-32.56294983 48.70811798 -32.56272827 48.02649597 -32.5625 47.32421875 C-32.5635675 46.63107574 -32.56463501 45.93793274 -32.56573486 45.2237854 C-32.54262174 34.85995158 -31.9552472 25.81780828 -27.125 16.38671875 C-26.66738281 15.4328125 -26.20976562 14.47890625 -25.73828125 13.49609375 C-20.41436142 3.51921384 -11.58919995 -3.34467719 0 0 Z " fill="#040404" transform="translate(230.125,260.61328125)"/>
<path d="M0 0 C7.67950879 4.91023138 13.66035884 11.93367242 16.453125 20.7109375 C16.46484375 23.1328125 16.46484375 23.1328125 16.140625 25.4609375 C15.99173828 26.62882812 15.99173828 26.62882812 15.83984375 27.8203125 C15.453125 29.7109375 15.453125 29.7109375 14.453125 30.7109375 C14.34622929 32.20821015 14.30691969 33.71038627 14.29541016 35.21142578 C14.28001694 36.64894699 14.28001694 36.64894699 14.26431274 38.11550903 C14.25701141 39.16020355 14.24971008 40.20489807 14.2421875 41.28125 C14.21410477 43.47917393 14.18544022 45.6770905 14.15625 47.875 C14.11506858 51.35090826 14.0781954 54.826681 14.05175781 58.30273438 C14.02407052 61.65003218 13.97818006 64.99669744 13.9296875 68.34375 C13.92643463 69.37629913 13.92318176 70.40884827 13.91983032 71.47268677 C13.82019376 77.35027478 13.15514949 81.47953353 10.453125 86.7109375 C9.95205225 88.24562408 9.46917554 89.78654126 9.015625 91.3359375 C7.7862562 95.12756968 6.26417287 97.80921067 3.453125 100.7109375 C0.90957523 101.98271238 -1.01852652 101.95039809 -3.859375 102.0234375 C-4.80425781 102.06082031 -5.74914062 102.09820312 -6.72265625 102.13671875 C-10.42633215 101.57834991 -11.88856715 100.32595043 -14.546875 97.7109375 C-21.52504974 88.23777291 -25.92076292 78.0215915 -28.15234375 66.48828125 C-28.49193559 64.61851516 -28.49193559 64.61851516 -29.546875 62.7109375 C-29.85903291 57.26003972 -29.90389969 51.80806888 -29.9519043 46.34912109 C-29.97325919 44.53186783 -30.00708545 42.71471081 -30.05444336 40.89794922 C-30.42153495 26.66629151 -29.46666043 12.85898332 -19.546875 1.7109375 C-13.29279724 -3.08340905 -6.97390381 -3.52973659 0 0 Z " fill="#E21B30" transform="translate(520.546875,56.2890625)"/>
<path d="M0 0 C8.12521498 5.55989554 13.01226479 12.84538811 16.10546875 22.125 C17.26455953 34.78696633 15.24498482 43.802158 7.23046875 54.0625 C1.90623167 59.79199398 -5.32710799 64.03312248 -13.1875 64.49609375 C-22.40373701 64.7281201 -30.215532 64.86251642 -37.89453125 59.125 C-38.61898438 58.59390625 -39.3434375 58.0628125 -40.08984375 57.515625 C-46.58437389 52.29124282 -50.68250723 46.16784174 -52.89453125 38.125 C-53.7301958 28.83551969 -53.57858733 20.4299547 -48.89453125 12.125 C-48.54390625 11.48175781 -48.19328125 10.83851563 -47.83203125 10.17578125 C-44.60961048 5.01767022 -40.09845571 2.10480493 -34.89453125 -0.875 C-34.21648437 -1.29136719 -33.5384375 -1.70773437 -32.83984375 -2.13671875 C-22.0122354 -7.95911192 -10.26228549 -5.7515182 0 0 Z " fill="#000100" transform="translate(346.89453125,376.875)"/>
<path d="M0 0 C2.98705174 0.98823955 4.94724985 2.41058049 7.08984375 4.69140625 C7.08984375 5.35140625 7.08984375 6.01140625 7.08984375 6.69140625 C7.74984375 6.36140625 8.40984375 6.03140625 9.08984375 5.69140625 C16.64867693 5.73522557 24.20318087 6.70708221 31.65234375 7.94140625 C32.95300781 8.1528125 34.25367188 8.36421875 35.59375 8.58203125 C39.69501892 9.88343949 41.49867553 11.27780223 44.08984375 14.69140625 C44.96472467 19.39580982 43.56810534 24.44178345 41.46484375 28.69140625 C37.84841186 33.94106545 32.0474569 36.9577522 26.75 40.2890625 C23.7795356 42.17840116 21.24656762 44.23128669 18.71484375 46.69140625 C15.46536597 49.67894355 12.54585238 50.83832937 8.265625 51.79296875 C6.08984375 51.69140625 6.08984375 51.69140625 3.80859375 50.24609375 C0.30821255 48.24443899 -2.79242485 48.15467512 -6.72265625 48.19140625 C-7.79386719 48.20107422 -7.79386719 48.20107422 -8.88671875 48.2109375 C-14.90913259 48.42012555 -18.559784 49.60439735 -22.91015625 53.69140625 C-23.62945312 54.36558594 -24.34875 55.03976563 -25.08984375 55.734375 C-27.08001406 57.67850934 -29.00448292 59.6649508 -30.91015625 61.69140625 C-31.57015625 62.35140625 -32.23015625 63.01140625 -32.91015625 63.69140625 C-31.91015625 56.69140625 -31.91015625 56.69140625 -31.22265625 53.44140625 C-30.9400492 50.0501217 -31.16189429 47.95601951 -31.84765625 44.69140625 C-32.78797029 40.02226065 -33.19851365 35.44699488 -33.28515625 30.69140625 C-33.31351563 29.43328125 -33.341875 28.17515625 -33.37109375 26.87890625 C-32.91015625 23.69140625 -32.91015625 23.69140625 -31.15234375 21.765625 C-27.59373958 20.06071882 -24.8175057 20.49603878 -20.91015625 20.69140625 C-21.05453125 19.70140625 -21.19890625 18.71140625 -21.34765625 17.69140625 C-21.34765625 13.10092255 -18.9870559 10.79798966 -15.8984375 7.62890625 C-15.24230469 6.98953125 -14.58617187 6.35015625 -13.91015625 5.69140625 C-13.34683594 5.07265625 -12.78351563 4.45390625 -12.203125 3.81640625 C-8.28137592 -0.15126495 -5.51375404 -1.04619948 0 0 Z " fill="#6FC474" transform="translate(226.91015625,181.30859375)"/>
<path d="M0 0 C-4.56381553 7.01553968 -9.72229399 13.51122187 -15 20 C-15.65524658 20.80969238 -15.65524658 20.80969238 -16.32373047 21.63574219 C-21.23783832 27.62818686 -25.57222751 31.7797546 -32.6796875 34.91015625 C-40.06969863 38.38122208 -43.41758452 43.94909744 -47 51 C-50.2054198 56.66290832 -53.53784227 59.59240947 -59.8203125 61.57421875 C-71.40468742 63.83711636 -80.38671552 61.45257294 -90 55 C-92.62385322 52.250158 -93.41486262 50.41194896 -93.375 46.625 C-93.17819598 42.32342638 -92.61942169 39.54392346 -90 36 C-86.86237358 33.34657519 -83.475268 31.18432654 -80 29 C-78.91460937 28.29746094 -77.82921875 27.59492188 -76.7109375 26.87109375 C-55.70445565 13.55724983 -25.46543524 -0.99630028 0 0 Z " fill="#6EC374" transform="translate(298,117)"/>
<path d="M0 0 C0.66 0.33 1.32 0.66 2 1 C2.48657227 3.37670898 2.48657227 3.37670898 2.81640625 6.49609375 C2.94080078 7.61177734 3.06519531 8.72746094 3.19335938 9.87695312 C3.31517578 11.05193359 3.43699219 12.22691406 3.5625 13.4375 C3.81057462 15.74904657 4.06172184 18.06026611 4.31640625 20.37109375 C4.42412354 21.40161865 4.53184082 22.43214355 4.64282227 23.49389648 C4.86390231 25.99158653 4.86390231 25.99158653 6 28 C6.65183243 35.55171717 3.63252197 41.06105523 0.01489258 47.375 C-2.62239463 52.04557927 -4.22439379 56.42806742 -5.234375 61.73046875 C-6.21771527 64.64537026 -7.67541566 66.02432137 -10 68 C-10.845625 68.37125 -11.69125 68.7425 -12.5625 69.125 C-16.4725888 72.13276062 -16.87132178 76.34667751 -18 81 C-20.64180253 91.77790602 -25.77555797 97.90444211 -33.4375 105.6875 C-34.24356689 106.507948 -34.24356689 106.507948 -35.06591797 107.3449707 C-44.80176093 117 -44.80176093 117 -48 117 C-48.31175498 108.98245373 -47.46846524 101.64988347 -45.8125 93.8125 C-45.58618896 92.71824707 -45.35987793 91.62399414 -45.12670898 90.49658203 C-37.89129617 56.48738497 -22.2225495 26.517333 0 0 Z " fill="#6EC474" transform="translate(171,187)"/>
<path d="M0 0 C4.28933953 3.63779429 6.47438001 6.6905172 7 12.375 C6.80581855 17.23762704 4.92414823 19.87112418 1.5625 23.2734375 C-7.27729565 30.50312751 -17.79703707 32.45289732 -28.9375 32.375 C-29.76419189 32.37081055 -30.59088379 32.36662109 -31.44262695 32.36230469 C-38.15412415 32.23921802 -44.27987623 31.34555855 -50.625 29.0625 C-51.37007813 28.79566406 -52.11515625 28.52882813 -52.8828125 28.25390625 C-58.35274112 25.91410788 -62.61583744 22.2171682 -65.625 17.0625 C-66.77719065 12.4302233 -66.10564947 9.10390717 -64.125 4.8125 C-49.51119545 -11.26268501 -17.25631248 -11.98957438 0 0 Z " fill="#F097B0" transform="translate(491.625,371.9375)"/>
<path d="M0 0 C1.41925781 -0.03673828 1.41925781 -0.03673828 2.8671875 -0.07421875 C8.55840456 -0.09786647 12.38379716 0.6445354 17.32421875 3.47949219 C19.4365766 4.6082988 21.12335503 4.74691612 23.5 4.6875 C28.37642063 5.02555342 30.87525696 7.23256254 34.37109375 10.48828125 C36.59780859 13.06742578 37.90838854 15.08304348 38.15234375 18.5234375 C37.72014467 23.00259158 37.09435622 26.58399889 33.8359375 29.96484375 C21.29853699 39.59463435 6.20633484 40.67774875 -9 39.375 C-17.55325126 37.82785486 -27.079904 34.7012174 -32.4375 27.421875 C-34.60612894 23.47617513 -36.02811875 19.86133638 -35 15.375 C-29.90506607 7.38449802 -22.41057173 2.91779207 -13.30834961 0.77197266 C-8.88771264 0.01174466 -4.4751938 0.00609699 0 0 Z " fill="#F097AF" transform="translate(195,364.625)"/>
<path d="M0 0 C4.91860544 2.28969564 8.40012408 4.87073056 12 9 C13.70108067 14.10324201 13.56521247 18.31873434 11.3125 23.1875 C9.31907487 26.72754807 7.70829028 29.10640496 4 31 C-0.85073582 31.63652189 -5.28948961 31.58230141 -9.9375 30 C-14.30280239 25.7669795 -16.22646868 21.0578979 -16.5625 15 C-16.34586539 9.80076927 -14.54712355 5.80849055 -11 2 C-7.24719559 -0.28301819 -4.38615587 -0.44604975 0 0 Z " fill="#DD192B" transform="translate(524,170)"/>
<path d="M0 0 C4.3089928 2.6054375 6.09648746 5.40253328 8 10 C8.31180172 12.71070861 8.4770093 15.11334056 8.4375 17.8125 C8.43210205 18.51592529 8.4267041 19.21935059 8.42114258 19.9440918 C8.2304651 26.48365097 6.79497331 31.67666187 2.57421875 36.6953125 C1 38 1 38 -2.375 38.5625 C-6 38 -6 38 -8.8125 35.3125 C-13.99147801 27.47004759 -14.3271309 18.4903482 -12.46484375 9.3828125 C-10.20226092 2.82997699 -7.26126934 -1.18551336 0 0 Z " fill="#F9F9F9" transform="translate(425,274)"/>
<path d="M0 0 C4.32471378 1.28982692 5.90419507 2.41682466 8.5625 6.0625 C11.55575588 14.10687518 11.58004815 23.0659974 8.5625 31.0625 C5.19407895 36.74671053 5.19407895 36.74671053 2.5625 38.0625 C-0.75 38.625 -0.75 38.625 -4.4375 38.0625 C-6.60381215 35.6426246 -8.02348012 32.97234256 -9.4375 30.0625 C-9.7675 29.4025 -10.0975 28.7425 -10.4375 28.0625 C-10.58939832 25.31956696 -10.66894389 22.61898408 -10.6875 19.875 C-10.708125 19.13185547 -10.72875 18.38871094 -10.75 17.62304688 C-10.79450849 11.27502412 -9.37570681 6.83136687 -5.6875 1.5625 C-3.4375 0.0625 -3.4375 0.0625 0 0 Z " fill="#FAFAFA" transform="translate(232.4375,273.9375)"/>
<path d="M0 0 C6.60545096 2.10317559 12.69935171 5.85242406 16.44140625 11.77734375 C16.85390625 12.41671875 17.26640625 13.05609375 17.69140625 13.71484375 C18.71030171 16.51680627 18.69835009 18.82248959 18.44140625 21.77734375 C16.44140625 23.77734375 16.44140625 23.77734375 13.69140625 24.52734375 C10.44140625 23.77734375 10.44140625 23.77734375 8.71484375 21.61328125 C4.44140625 14.58540062 4.44140625 14.58540062 4.44140625 11.77734375 C3.12737349 11.07339763 1.78938055 10.41388717 0.44140625 9.77734375 C-0.19796875 9.46796875 -0.83734375 9.15859375 -1.49609375 8.83984375 C-3.83807371 8.53502534 -3.83807371 8.53502534 -5.99609375 10.90234375 C-7.68485609 12.79705271 -9.37238646 14.69286055 -11.05859375 16.58984375 C-13.55859375 18.77734375 -13.55859375 18.77734375 -16.30859375 19.15234375 C-18.55859375 18.77734375 -18.55859375 18.77734375 -19.55859375 17.77734375 C-20.05859375 15.15234375 -20.05859375 15.15234375 -19.55859375 11.77734375 C-17.52152402 9.09853818 -15.08248291 6.9883117 -12.55859375 4.77734375 C-11.82382812 3.99037109 -11.82382812 3.99037109 -11.07421875 3.1875 C-7.50638661 -0.43044215 -4.76341275 -0.84629161 0 0 Z " fill="#212421" transform="translate(438.55859375,181.22265625)"/>
<path d="M0 0 C5.84410385 1.87452388 8.44915765 6.21920679 11.19921875 11.40234375 C12.37337672 14.45094224 12.0921448 16.59856561 11.0703125 19.6640625 C9.4203125 19.9940625 7.7703125 20.3240625 6.0703125 20.6640625 C5.1109706 19.39399036 4.15287956 18.12297331 3.1953125 16.8515625 C2.66164062 16.14386719 2.12796875 15.43617188 1.578125 14.70703125 C0.36216469 13.05949953 -0.79384891 11.36782039 -1.9296875 9.6640625 C-4.87744765 9.97989394 -5.86456898 10.59487407 -7.9296875 12.7890625 C-10.15758827 15.99166986 -12.05257232 19.24503128 -13.9296875 22.6640625 C-16.3046875 22.7890625 -16.3046875 22.7890625 -18.9296875 22.6640625 C-20.9296875 20.6640625 -20.9296875 20.6640625 -21.4921875 17.5390625 C-20.68599357 11.98528212 -17.84789371 9.48219665 -13.9296875 5.6640625 C-13.36636719 5.0453125 -12.80304688 4.4265625 -12.22265625 3.7890625 C-8.3009887 -0.17852622 -5.5138565 -1.1027713 0 0 Z " fill="#1E2121" transform="translate(226.9296875,181.3359375)"/>
<path d="M0 0 C-0.48305521 6.76277288 -1.96143254 12.51273217 -6.5078125 17.73046875 C-8 19 -8 19 -10 19 C-10.9795958 17.20856793 -11.9586633 15.41684696 -12.9375 13.625 C-13.48277344 12.62726563 -14.02804688 11.62953125 -14.58984375 10.6015625 C-15.4149759 9.07929654 -16.22564391 7.54871217 -17 6 C-15.56542672 5.0165504 -14.12722594 4.03839079 -12.6875 3.0625 C-11.88699219 2.51722656 -11.08648437 1.97195312 -10.26171875 1.41015625 C-6.42757884 -0.98038694 -4.28414829 -1.04209012 0 0 Z " fill="#6EC476" transform="translate(261,236)"/>
<path d="M0 0 C2.8067513 1.77760916 3.60214002 4.19627906 4.875 7.1875 C2.9179132 7.85781719 0.95928887 8.52364683 -1 9.1875 C-2.09054688 9.55875 -3.18109375 9.93 -4.3046875 10.3125 C-7.125 11.1875 -7.125 11.1875 -9.125 11.1875 C-7.87455184 6.29938447 -5.72848135 0.50545424 0 0 Z " fill="#08A3DB" transform="translate(224.125,189.8125)"/>
<path d="M0 0 C0.66 0.309375 1.32 0.61875 2 0.9375 C5.70476015 2.24960255 9.09263991 2.60264135 13 3 C8.68141593 6.95870206 8.68141593 6.95870206 5.9375 7.125 C2.99363839 5.415661 1.71304497 2.87546835 0 0 Z " fill="#16ACE4" transform="translate(423,367)"/>
<path d="M0 0 C0.66 0.33 1.32 0.66 2 1 C-0.64 3.64 -3.28 6.28 -6 9 C-6.33 8.34 -6.66 7.68 -7 7 C-4.78071806 4.09197539 -3.07030857 2.04687238 0 0 Z " fill="#ED6F7C" transform="translate(504,56)"/>
</svg>
