<?xml version="1.0" encoding="UTF-8"?>
<svg version="1.1" xmlns="http://www.w3.org/2000/svg" width="651" height="598">
<path d="M0 0 C1.0063298 -0.00979385 2.01265961 -0.01958771 3.04948425 -0.02967834 C44.30534592 -0.34865725 44.30534592 -0.34865725 64.4140625 4.23828125 C65.39906738 4.44727051 66.38407227 4.65625977 67.39892578 4.87158203 C108.62331726 13.68134074 146.99653471 33.16794781 178.4140625 61.23828125 C178.93339355 61.70121582 179.45272461 62.16415039 179.98779297 62.64111328 C190.29215819 71.86818947 199.83495386 81.3617164 208.4140625 92.23828125 C209.19523437 93.2025 209.97640625 94.16671875 210.78125 95.16015625 C237.62186262 128.94674211 260.53479981 175.67226545 260.9453125 219.6484375 C261.1 220.50308594 261.2546875 221.35773438 261.4140625 222.23828125 C263.30664646 223.3044836 263.30664646 223.3044836 265.4140625 224.23828125 C266.6953125 226.76953125 266.6953125 226.76953125 267.9140625 229.73828125 C270.10194741 234.10147812 270.10194741 234.10147812 274.29296875 236.265625 C276.39667538 236.53665469 278.50709322 236.76027197 280.62109375 236.93359375 C283.4140625 237.23828125 283.4140625 237.23828125 286.6640625 239.05078125 C288.4140625 241.23828125 288.4140625 241.23828125 288.8046875 243.64453125 C288.4140625 246.23828125 288.4140625 246.23828125 286.4453125 248.0625 C285.61 248.67738281 284.7746875 249.29226563 283.9140625 249.92578125 C280.49687171 253.0604274 279.14248533 255.19320404 278.88671875 259.75390625 C278.87638261 262.99073265 279.06858961 266.19403055 279.29296875 269.421875 C279.33292969 270.68128906 279.37289062 271.94070313 279.4140625 273.23828125 C277.4140625 275.23828125 277.4140625 275.23828125 274.7890625 275.61328125 C270.38644696 275.12410175 267.23561273 273.36297405 263.4140625 271.23828125 C262.426955 276.60391557 261.45109804 281.96994287 260.5546875 287.3515625 C250.29349128 347.99801171 219.08372977 406.64110255 169.4140625 444.23828125 C168.87523437 444.65352051 168.33640625 445.06875977 167.78125 445.49658203 C134.53173044 471.05808207 95.85206863 488.44023982 54.4140625 495.23828125 C53.40077881 495.41633301 52.38749512 495.59438477 51.34350586 495.77783203 C39.13736591 497.69201753 26.9302891 497.6363928 14.6015625 497.61328125 C12.89638962 497.61196701 12.89638962 497.61196701 11.1567688 497.61062622 C-5.42507103 497.56839755 -21.39150352 497.12703999 -37.5859375 493.23828125 C-38.64876953 492.99158691 -39.71160156 492.74489258 -40.80664062 492.49072266 C-61.29915445 487.63582082 -80.70292799 480.52025213 -99.5859375 471.23828125 C-99.46734375 471.8415625 -99.34875 472.44484375 -99.2265625 473.06640625 C-98.17984613 479.55604775 -98.17984613 479.55604775 -100.1484375 482.86328125 C-102.5859375 484.23828125 -102.5859375 484.23828125 -105.3984375 484.23828125 C-108.10012025 483.3906945 -109.70325377 482.60111207 -112.0234375 481.11328125 C-114.81793031 479.43044382 -115.62107736 479.23828125 -119.0859375 479.23828125 C-122.00816851 480.0732044 -123.66015335 480.79921693 -126.1484375 482.36328125 C-129.5859375 484.23828125 -129.5859375 484.23828125 -132.8984375 484.17578125 C-135.5859375 483.23828125 -135.5859375 483.23828125 -137.5859375 480.23828125 C-137.40649214 478.40257581 -137.21738256 476.56652038 -136.94897461 474.74169922 C-135.88302972 467.71919927 -135.88302972 467.71919927 -138.515625 461.39453125 C-140.95999932 459.09190326 -140.95999932 459.09190326 -143.58203125 457.23046875 C-145.5859375 455.23828125 -145.5859375 455.23828125 -146.18359375 452.24609375 C-145.5859375 449.23828125 -145.5859375 449.23828125 -143.0859375 446.86328125 C-141.8484375 446.05890625 -141.8484375 446.05890625 -140.5859375 445.23828125 C-142.25168909 443.7164457 -143.91859421 442.19587275 -145.5859375 440.67578125 C-146.08996094 440.2161499 -146.59398437 439.75651855 -147.11328125 439.28295898 C-149.90277701 436.7458842 -152.71896123 434.24965681 -155.5859375 431.80078125 C-164.49279334 424.02322002 -172.25729931 415.50124402 -179.5859375 406.23828125 C-180.53339844 405.1090625 -180.53339844 405.1090625 -181.5 403.95703125 C-204.99076969 375.72943969 -221.0399827 340.88051635 -229.3359375 305.23828125 C-229.52244873 304.44639404 -229.70895996 303.65450684 -229.90112305 302.83862305 C-233.83064343 284.96450586 -235.13206262 267.31592672 -235.0234375 249.05078125 C-235.01937393 247.44210678 -235.01937393 247.44210678 -235.01522827 245.80093384 C-234.95330713 229.61691705 -234.21516673 214.06877346 -230.5859375 198.23828125 C-230.29710693 196.90724365 -230.29710693 196.90724365 -230.00244141 195.54931641 C-228.72460193 189.71950738 -227.24575723 183.9705348 -225.5859375 178.23828125 C-225.37775391 177.51334473 -225.16957031 176.7884082 -224.95507812 176.04150391 C-213.80582005 138.1254501 -192.91881145 106.9485268 -167.5859375 77.23828125 C-168.88509294 74.36071266 -169.79022266 73.05345182 -172.2109375 70.86328125 C-174.5859375 68.23828125 -174.5859375 68.23828125 -175.0859375 65.11328125 C-174.51730085 61.84362053 -174.21897464 61.15469797 -171.5859375 59.23828125 C-169.32527169 58.85916338 -167.05147429 58.5555138 -164.7734375 58.30078125 C-160.257485 57.45637278 -158.23964281 57.07037445 -155.3671875 53.4140625 C-153.90974436 50.39558345 -152.69448525 47.39882166 -151.5859375 44.23828125 C-150.5859375 43.23828125 -150.5859375 43.23828125 -147.7109375 42.98828125 C-144.5859375 43.23828125 -144.5859375 43.23828125 -142.8984375 44.42578125 C-141.31305687 46.61511641 -139.96602447 48.91532495 -138.5859375 51.23828125 C-137.72355469 50.57183594 -136.86117187 49.90539062 -135.97265625 49.21875 C-125.9972528 41.63755448 -115.58202752 35.22927074 -104.5859375 29.23828125 C-103.9254541 28.87637695 -103.2649707 28.51447266 -102.58447266 28.14160156 C-76.28530368 13.90558417 -48.08280829 5.49642341 -18.5859375 1.23828125 C-16.77754395 0.9745874 -16.77754395 0.9745874 -14.93261719 0.70556641 C-9.96003726 0.09665758 -5.00483356 0.04000677 0 0 Z " fill="#1902AD" transform="translate(312.5859375,43.76171875)"/>
<path d="M0 0 C1.30928467 0.60726929 1.30928467 0.60726929 2.64501953 1.22680664 C23.03974188 10.82421275 41.66976977 23.64748438 57.3125 39.9375 C58.158125 40.783125 59.00375 41.62875 59.875 42.5 C61.0815625 43.7065625 61.0815625 43.7065625 62.3125 44.9375 C62.82965576 45.43652832 63.34681152 45.93555664 63.87963867 46.44970703 C67.99817778 50.46628768 71.63777128 54.63115714 75.0625 59.25 C75.57272705 59.93731201 76.0829541 60.62462402 76.60864258 61.33276367 C101.54594204 95.4787466 114.92958257 134.66734405 114.3125 176.9375 C122.8925 176.9375 131.4725 176.9375 140.3125 176.9375 C140.3125 174.2975 140.3125 171.6575 140.3125 168.9375 C143.57919673 166.75970218 145.5375161 166.42987313 149.375 165.875 C153.48196658 165.34687789 153.48196658 165.34687789 157.3125 163.9375 C158.91142298 160.9133532 160.33247354 157.82302993 161.77734375 154.72265625 C163.3125 151.9375 163.3125 151.9375 166.3125 149.9375 C167.04593428 146.87193402 167.04593428 146.87193402 167.3125 143.9375 C167.6425 143.9375 167.9725 143.9375 168.3125 143.9375 C168.3125 146.2475 168.3125 148.5575 168.3125 150.9375 C168.9209375 151.1540625 169.529375 151.370625 170.15625 151.59375 C173.06252771 153.40490857 173.52419227 155.29931449 174.8125 158.4375 C177.00038491 162.80069687 177.00038491 162.80069687 181.19140625 164.96484375 C183.29511288 165.23587344 185.40553072 165.45949072 187.51953125 165.6328125 C190.3125 165.9375 190.3125 165.9375 193.5625 167.75 C195.3125 169.9375 195.3125 169.9375 195.703125 172.34375 C195.3125 174.9375 195.3125 174.9375 193.34375 176.76171875 C192.5084375 177.37660156 191.673125 177.99148438 190.8125 178.625 C187.39530921 181.75964615 186.04092283 183.89242279 185.78515625 188.453125 C185.77482011 191.6899514 185.96702711 194.8932493 186.19140625 198.12109375 C186.23136719 199.38050781 186.27132813 200.63992188 186.3125 201.9375 C184.3125 203.9375 184.3125 203.9375 181.6875 204.3125 C177.30356584 203.8253962 174.10782854 202.09525023 170.3125 199.9375 C169.6525 200.9275 168.9925 201.9175 168.3125 202.9375 C168.3125 201.2875 168.3125 199.6375 168.3125 197.9375 C167.50425781 198.370625 166.69601562 198.80375 165.86328125 199.25 C164.79464844 199.806875 163.72601562 200.36375 162.625 200.9375 C161.56925781 201.494375 160.51351563 202.05125 159.42578125 202.625 C156.3394208 203.92615071 154.59869838 204.47493619 151.3125 203.9375 C149.4609375 202.9609375 149.4609375 202.9609375 148.3125 200.9375 C148.40834922 197.31734878 148.76099421 193.85540491 149.25 190.2734375 C149.32476563 189.53609375 149.39953125 188.79875 149.4765625 188.0390625 C149.60732178 187.03866943 149.60732178 187.03866943 149.74072266 186.01806641 C149.01845286 182.50883995 147.07291602 181.0926161 144.3125 178.9375 C140.94562102 178.16423831 140.94562102 178.16423831 137.26171875 178.23046875 C136.27350883 178.20778679 136.27350883 178.20778679 135.26533508 178.18464661 C133.176538 178.14191434 131.0891898 178.13294735 129 178.125 C127.57743583 178.10184386 126.15490583 178.07647617 124.73242188 178.04882812 C121.25914196 177.98612384 117.78634387 177.95367216 114.3125 177.9375 C114.31685059 178.87053955 114.32120117 179.8035791 114.32568359 180.76489258 C114.32906738 182.00392334 114.33245117 183.2429541 114.3359375 184.51953125 C114.34028809 185.7413208 114.34463867 186.96311035 114.34912109 188.22192383 C114.20745798 202.59506303 114.20745798 202.59506303 111.3125 206.9375 C110.78817383 206.05489502 110.26384766 205.17229004 109.72363281 204.26293945 C107.76681588 200.97128208 105.80504031 197.68260314 103.84179688 194.39477539 C102.99474953 192.97467788 102.14902704 191.55378922 101.3046875 190.13208008 C100.08685959 188.08202189 98.86420628 186.03490944 97.640625 183.98828125 C97.08100067 183.04267082 97.08100067 183.04267082 96.5100708 182.07795715 C91.67901036 174.02450076 88.6168615 171.15229357 79.58203125 168.66796875 C75.4838305 167.75236117 72.47629023 167.33185778 68.3125 167.9375 C65.6409596 169.44029176 65.6409596 169.44029176 64.3125 171.9375 C64.64089301 176.27958542 66.35528152 178.73445322 69.0625 182.0625 C70.07570313 183.33480469 70.07570313 183.33480469 71.109375 184.6328125 C73.3438943 186.97034155 75.47330809 188.4186316 78.3125 189.9375 C77.77256797 194.57046519 75.7208489 197.88565933 73.1875 201.6875 C72.78732666 202.29932129 72.38715332 202.91114258 71.97485352 203.54150391 C68.6690943 208.53725288 65.11928109 213.31060852 61.3125 217.9375 C63.42004729 220.04504729 64.83240766 220.65889167 67.5625 221.75 C72.5500251 223.91045773 76.41501887 226.35002573 79.6875 230.8125 C81.03279484 235.38650247 80.8841838 238.79413241 78.75 243.0625 C73.26555974 249.53132697 67.44514786 251.92136619 59.3125 253.9375 C58.37688232 254.19551392 58.37688232 254.19551392 57.42236328 254.45874023 C46.61412724 256.91129183 33.2310721 255.6664367 23.3125 250.9375 C22.07179403 250.09673066 20.84599977 249.23365159 19.63378906 248.35229492 C19.00990295 247.90053391 18.38601685 247.44877289 17.7432251 246.98332214 C17.27108582 246.63820084 16.79894653 246.29307953 16.3125 245.9375 C13.06747964 257.01483983 9.82798815 268.09340935 6.67211914 279.1965332 C5.51677368 283.25845352 4.35246381 287.31778236 3.1875 291.37695312 C2.60038021 293.43056186 2.01709347 295.48527004 1.4375 297.54101562 C-2.92504695 312.99494867 -7.42202559 328.27474303 -16.4375 341.75 C-16.81003906 342.32041016 -17.18257812 342.89082031 -17.56640625 343.47851562 C-21.49616431 349.40092485 -21.49616431 349.40092485 -23.6875 350.9375 C-30.6240369 351.90538887 -38.64470676 351.87426279 -44.6875 347.9375 C-49.17700717 343.77943296 -52.46572721 339.51006436 -53 333.3125 C-53.35527954 329.84852452 -54.32040964 327.47919718 -56 324.4375 C-61.91063237 313.2347898 -63.39020868 301.43009873 -62.6875 288.9375 C-62.15906494 288.73181396 -61.63062988 288.52612793 -61.08618164 288.31420898 C-46.8628953 282.86437505 -46.8628953 282.86437505 -34.6875 273.9375 C-33.55828125 272.92236328 -33.55828125 272.92236328 -32.40625 271.88671875 C-17.77209044 258.15499903 -12.46042516 241.43967678 -10.6875 221.9375 C-45.3375 221.9375 -79.9875 221.9375 -115.6875 221.9375 C-114.16541128 209.76079024 -111.2100076 192.02133005 -101.87890625 183.234375 C-99.86425228 181.88856993 -97.91304244 180.89354288 -95.6875 179.9375 C-94.8315625 179.56109375 -93.975625 179.1846875 -93.09375 178.796875 C-72.560529 170.22123564 -42.00681309 173.88234374 -21.6875 181.9375 C-20.6975 182.2675 -19.7075 182.5975 -18.6875 182.9375 C-18.08906097 178.54274857 -17.6537103 174.60427464 -20.06152344 170.72216797 C-21.96799292 168.63883568 -23.95084868 166.74966855 -26.0625 164.875 C-27.11050781 163.88209961 -27.11050781 163.88209961 -28.1796875 162.86914062 C-31.65650335 159.5170479 -31.65650335 159.5170479 -35.6875 156.9375 C-35.749375 157.659375 -35.81125 158.38125 -35.875 159.125 C-36.96716149 162.90555899 -38.59592177 164.54855318 -41.6875 166.9375 C-44.375 166.9375 -44.375 166.9375 -46.6875 165.9375 C-48.61402928 163.04770609 -49.01920873 161.78746657 -49.5625 158.5 C-50.38036129 154.53949058 -51.3112154 152.39297971 -54.6875 149.9375 C-63.33932491 147.05355836 -75.22715069 148.6371646 -83.6875 151.9375 C-88.92398971 155.09625234 -92.95638138 159.70983262 -96.67578125 164.49609375 C-98.80005659 167.0740978 -101.01477093 169.04566498 -103.625 171.125 C-104.45902344 171.79917969 -105.29304687 172.47335937 -106.15234375 173.16796875 C-110.87051321 176.46123649 -114.92819581 177.73188678 -120.6875 176.9375 C-123.29130087 175.19148148 -125.49754213 173.17405272 -127.6875 170.9375 C-129.29548412 172.14274872 -129.29548412 172.14274872 -130.6875 173.9375 C-130.90794437 176.15628039 -130.90794437 176.15628039 -130.5 178.5625 C-130.32404297 179.88894531 -130.32404297 179.88894531 -130.14453125 181.2421875 C-129.47690661 185.17946104 -128.60945401 189.05320197 -127.6875 192.9375 C-126.19355381 199.80965247 -125.28214379 207.07659628 -128.4375 213.5 C-131.08471147 216.36781242 -133.06102605 217.67228314 -136.92285156 218.30200195 C-143.9027445 218.47982911 -148.47073141 216.60158559 -154.4375 213.125 C-156.05718165 212.22245879 -157.67697082 211.32011051 -159.296875 210.41796875 C-161.84465388 208.9866019 -164.37232755 207.53411987 -166.890625 206.05078125 C-171.05920087 204.39150175 -174.24125716 205.31480083 -178.29638672 207.06079102 C-179.56893311 207.74419556 -179.56893311 207.74419556 -180.8671875 208.44140625 C-182.259375 209.18100586 -182.259375 209.18100586 -183.6796875 209.93554688 C-184.63101563 210.45181641 -185.58234375 210.96808594 -186.5625 211.5 C-188.02429688 212.28020508 -188.02429688 212.28020508 -189.515625 213.07617188 C-191.91042498 214.35574637 -194.30074282 215.6430038 -196.6875 216.9375 C-195.70910156 217.15664063 -194.73070312 217.37578125 -193.72265625 217.6015625 C-184.2400944 219.84542589 -176.88400579 222.4412438 -170.0625 229.75 C-168.17249126 234.1313839 -168.30273364 237.40035375 -169.6875 241.9375 C-172.93940614 247.16025834 -177.03272321 249.81539833 -182.6875 251.9375 C-183.3475 251.9375 -184.0075 251.9375 -184.6875 251.9375 C-178.35790014 263.2130845 -178.35790014 263.2130845 -168.8125 271.125 C-157.59877982 277.6289577 -151.60291392 298.00139183 -147.1875 309.75 C-146.93218506 310.39404785 -146.67687012 311.0380957 -146.41381836 311.70166016 C-142.65953571 322.19571753 -144.96797016 333.48691228 -146.6875 344.1875 C-146.97367188 346.03794922 -146.97367188 346.03794922 -147.265625 347.92578125 C-147.73155667 350.93104051 -148.20562673 353.93476311 -148.6875 356.9375 C-152.23060271 358.11853424 -152.69429457 357.76875132 -155.94140625 356.234375 C-156.78678955 355.83694092 -157.63217285 355.43950684 -158.50317383 355.0300293 C-159.40962646 354.58699463 -160.3160791 354.14395996 -161.25 353.6875 C-162.18803467 353.23221924 -163.12606934 352.77693848 -164.0925293 352.30786133 C-187.97791749 340.50531366 -210.97139379 323.93879742 -227.6875 302.9375 C-228.44160156 302.009375 -229.19570312 301.08125 -229.97265625 300.125 C-247.71449278 277.93466142 -263.35019803 250.09491984 -268.6875 221.9375 C-268.3575 220.9475 -268.0275 219.9575 -267.6875 218.9375 C-264.16594522 217.22546385 -260.40785774 216.14674491 -256.6875 214.9375 C-255.0478125 214.31875 -255.0478125 214.31875 -253.375 213.6875 C-243.71646713 211.72305264 -233.8886336 212.3654828 -224.6875 215.9375 C-223.82125 216.535625 -222.955 217.13375 -222.0625 217.75 C-218.20746153 219.67751924 -214.66521148 218.14207929 -210.6875 216.9375 C-211.120625 216.55980469 -211.55375 216.18210937 -212 215.79296875 C-215.63545292 212.19959283 -217.12972869 209.68497537 -217.1875 204.5 C-217.04588186 200.54059274 -216.21944329 196.94684807 -215.21777344 193.12084961 C-214.28139142 189.26538717 -213.68750593 185.3533535 -213.0625 181.4375 C-212.9284375 180.61507812 -212.794375 179.79265625 -212.65625 178.9453125 C-212.33032404 176.9431959 -212.00848005 174.94041548 -211.6875 172.9375 C-212.6775 172.6075 -213.6675 172.2775 -214.6875 171.9375 C-215.87733796 170.80241565 -217.06038457 169.65884534 -218.19775391 168.47119141 C-219.87842342 166.74094462 -221.62618947 165.09806766 -223.38671875 163.44921875 C-224.71641608 162.17476107 -226.04583787 160.90001585 -227.375 159.625 C-228.05111328 158.99916016 -228.72722656 158.37332031 -229.42382812 157.72851562 C-233.95689952 153.3307598 -235.84157673 150.23930046 -236.6875 143.9375 C-235.86585708 139.00764246 -234.67293286 136.01197678 -230.6875 132.9375 C-226.7829637 131.05520792 -223.44561164 130.63898443 -219.13671875 130.4296875 C-206.13782915 130.0771731 -206.13782915 130.0771731 -194.58300781 125.26708984 C-191.26941949 120.94273943 -189.94680259 116.17131034 -188.6875 110.9375 C-188.04837812 109.26007774 -187.39460678 107.58741582 -186.6875 105.9375 C-187.50734375 106.38222656 -188.3271875 106.82695312 -189.171875 107.28515625 C-190.24953125 107.85105469 -191.3271875 108.41695313 -192.4375 109 C-193.50484375 109.56847656 -194.5721875 110.13695312 -195.671875 110.72265625 C-198.6875 111.9375 -198.6875 111.9375 -200.953125 111.87109375 C-202.6875 110.9375 -202.6875 110.9375 -203.96484375 109.3671875 C-205.00001117 105.88678677 -204.59931324 102.6209246 -204.25 99.0625 C-203.79010262 94.15389228 -203.79515327 89.80427045 -204.6875 84.9375 C-204.82747689 82.19449132 -204.9172793 79.49243194 -204.9375 76.75 C-204.958125 76.03908203 -204.97875 75.32816406 -205 74.59570312 C-205.03892038 69.42415799 -205.03892038 69.42415799 -203.296875 67.01171875 C-199.94729169 64.77595319 -197.51034416 64.78360118 -193.5 64.625 C-184.5058817 64.05822188 -176.23307659 61.78602553 -167.6875 58.9375 C-167.3575 56.6275 -167.0275 54.3175 -166.6875 51.9375 C-159.91497202 51.60442485 -153.49729867 52.24661381 -146.8125 53.25 C-145.56376099 53.42656128 -145.56376099 53.42656128 -144.28979492 53.60668945 C-136.29882961 54.87353992 -136.29882961 54.87353992 -133.6875 57.9375 C-132.52259098 62.91045645 -132.94549124 68.40971833 -135.25 73 C-138.92947867 78.15972872 -144.73647885 81.20770843 -150.0078125 84.53125 C-153.71729513 86.89268446 -156.9285694 89.58682068 -160.07421875 92.66015625 C-161.91728576 94.11943691 -163.39224916 94.53245573 -165.6875 94.9375 C-164.924375 95.515 -164.16125 96.0925 -163.375 96.6875 C-161.00851681 98.66874174 -159.4644075 100.45712472 -157.6875 102.9375 C-156.93984375 102.42058594 -156.1921875 101.90367187 -155.421875 101.37109375 C-154.43703125 100.71238281 -153.4521875 100.05367188 -152.4375 99.375 C-151.46296875 98.71371094 -150.4884375 98.05242187 -149.484375 97.37109375 C-146.6875 95.9375 -146.6875 95.9375 -144.328125 96.22265625 C-143.51601563 96.57650391 -143.51601563 96.57650391 -142.6875 96.9375 C-142.15059697 102.95081397 -142.93427748 106.20874164 -146.203125 111.2734375 C-147.86814924 113.14001731 -149.39989121 113.96966551 -151.6875 114.9375 C-151.23375 116.175 -150.78 117.4125 -150.3125 118.6875 C-149.92964844 119.73164063 -149.92964844 119.73164063 -149.5390625 120.796875 C-149.25804687 121.50328125 -148.97703125 122.2096875 -148.6875 122.9375 C-148.46521729 123.61772217 -148.24293457 124.29794434 -148.01391602 124.9987793 C-146.80063192 127.21367357 -146.80063192 127.21367357 -144.0012207 127.71118164 C-142.88320068 127.83871826 -141.76518066 127.96625488 -140.61328125 128.09765625 C-139.38802734 128.25169922 -138.16277344 128.40574219 -136.90039062 128.56445312 C-134.96969727 128.78004883 -134.96969727 128.78004883 -133 129 C-118.19325114 130.7238157 -118.19325114 130.7238157 -111.6875 133.9375 C-107.71574886 135.11232729 -105.26263716 134.79233745 -101.3125 133.625 C-95.16392313 131.9370056 -89.16518447 131.18915914 -82.83984375 130.5625 C-79.6442122 129.92891754 -78.48323467 129.6052641 -76.6875 126.9375 C-76.18749457 122.43745111 -77.24972079 119.16097643 -78.6875 114.9375 C-78.875 112.125 -78.875 112.125 -78.6875 109.9375 C-76.98493279 108.23493279 -74.89638838 108.68412517 -72.5625 108.625 C-62.28853567 108.74601254 -52.96955382 111.9950054 -43.52392578 115.72583008 C-27.31111142 122.06011651 -16.69941578 119.94217452 -0.77124023 113.69360352 C1.23975966 112.96389447 3.22912701 112.41683155 5.3125 111.9375 C5.43625 111.40125 5.56 110.865 5.6875 110.3125 C6.43456016 107.4736714 7.36553364 104.71526798 8.3125 101.9375 C7.631875 101.73125 6.95125 101.525 6.25 101.3125 C1.27021652 98.98153752 -2.72399471 96.0939166 -5 91 C-4.58665364 86.94920564 -2.78653323 85.54685758 -0.08203125 82.65234375 C1.54016782 80.90240727 1.54016782 80.90240727 2.0625 78 C0.30468883 70.82227106 -5.31989949 66.19063031 -10.7890625 61.6015625 C-16.75115157 56.37553381 -18.61627776 51.98583485 -19.3125 44.125 C-20.051687 36.97257319 -21.98495498 30.53543465 -24.3125 23.75 C-29.73433715 7.64472629 -29.73433715 7.64472629 -27.6875 -0.0625 C-19.30017896 -8.26343613 -9.31973129 -4.41197136 0 0 Z " fill="#FDD15C" transform="translate(405.6875,115.0625)"/>
<path d="M0 0 C2.39832691 4.45403569 3.70903421 9.13405201 5 14 C7.29294488 14.85974801 7.29294488 14.85974801 10 15 C13.33223231 12.52462743 14.70308182 9.89075454 16 6 C23.0516193 9.23839264 29.59048305 15.65780115 34 22 C34.83290387 25.79277129 34.4945439 28.43608762 33 32 C29.59198732 31.3628283 26.3178461 30.53067061 22.99609375 29.54296875 C16.73795391 27.82059297 10.50819372 26.98984409 4.0625 26.3125 C2.88679443 26.1880249 1.71108887 26.0635498 0.49975586 25.93530273 C-21.21073339 23.58784345 -21.21073339 23.58784345 -42 29 C-42.85207031 29.37382812 -43.70414062 29.74765625 -44.58203125 30.1328125 C-52.7487382 34.11721557 -55.23064307 40.9118516 -58.0625 49.125 C-58.30548828 49.7953125 -58.54847656 50.465625 -58.79882812 51.15625 C-61.10460638 57.73719801 -62.40343974 64.0815722 -64 71 C-29.35 71 5.3 71 41 71 C41 89.17866201 35.86991013 104.8529015 23.06176758 118.04370117 C21.7216189 119.3764623 20.36135949 120.68891227 19 122 C18.34386719 122.67546875 17.68773437 123.3509375 17.01171875 124.046875 C9.60989603 131.21095181 -0.90476256 136.18285726 -11 138 C-10.58362911 151.3238685 -8.61756724 163.90969623 -2.08984375 175.6953125 C-0.89212327 178.22812642 -0.39982206 180.49243301 0.0625 183.25 C1.07225864 189.1603304 3.20334669 192.61507974 8 196.3125 C14.13558837 199.76376846 21.10828866 200.2330758 28 199 C31.43905213 196.66093881 33.06295128 193.62611777 35 190 C35.32838867 189.39430176 35.65677734 188.78860352 35.99511719 188.16455078 C41.87520573 177.21457944 46.6011507 166.02737768 49.98828125 154.05859375 C50.25261963 153.14023743 50.51695801 152.2218811 50.78930664 151.2756958 C51.63544362 148.33105707 52.47414341 145.38436226 53.3125 142.4375 C53.89244619 140.41305954 54.47276991 138.3887272 55.0534668 136.36450195 C59.09428608 122.25967499 63.09660338 108.1435328 67 94 C67.76509888 94.50116333 67.76509888 94.50116333 68.5456543 95.01245117 C81.44033105 103.29425115 95.40335037 104.86350786 110.37890625 102.45703125 C113.01662793 101.79301508 115.47436915 101.00509799 118 100 C118.75796875 99.69835937 119.5159375 99.39671875 120.296875 99.0859375 C125.35316415 96.81614347 128.47593889 94.04812222 131 89 C131.39567146 84.88501683 131.26788111 82.52545911 129.375 78.8125 C124.67238066 73.24360868 118.58062721 70.74923981 112 68 C115.10571853 63.29022904 118.25784643 58.63538684 121.5625 54.0625 C124.93558025 49.28771751 127.55293089 44.3001036 130 39 C129.27296875 38.77957031 128.5459375 38.55914062 127.796875 38.33203125 C124.31657252 36.67451289 122.66248177 34.67881548 120.25 31.6875 C119.47140625 30.74261719 118.6928125 29.79773438 117.890625 28.82421875 C116.02023087 26.03022091 115.16299712 24.33863072 115 21 C116.9375 18.1875 116.9375 18.1875 120 16 C126.98038118 14.87815302 134.8224727 16.66220246 141 20 C147.21863504 26.32157164 151.47672106 34.47611149 155.9375 42.0625 C156.62769649 43.22624301 157.31844857 44.38965669 158.00976562 45.55273438 C159.67864208 48.36531638 161.34189394 51.18105981 163 54 C164.77191059 52.22808941 164.36060338 49.62367341 164.53515625 47.21484375 C164.62216797 46.04501953 164.70917969 44.87519531 164.79882812 43.66992188 C164.88583984 42.43822266 164.97285156 41.20652344 165.0625 39.9375 C165.15337891 38.70193359 165.24425781 37.46636719 165.33789062 36.19335938 C165.56267598 33.12918006 165.7831856 30.06475198 166 27 C170.16245107 26.8509315 174.32346268 26.74245739 178.48779297 26.67041016 C179.90213097 26.64035911 181.31628446 26.59950377 182.72998047 26.54736328 C194.40353741 26.12780627 194.40353741 26.12780627 198.28442383 28.24804688 C200.9301293 30.77037748 201.94990589 32.62787234 202.4375 36.25 C202.19058643 38.36640202 201.9412254 40.4825322 201.68359375 42.59765625 C201.58175781 43.49355469 201.47992187 44.38945312 201.375 45.3125 C201.25898437 46.15425781 201.14296875 46.99601562 201.0234375 47.86328125 C201.01570313 48.56839844 201.00796875 49.27351563 201 50 C202.80925671 52.22093032 202.80925671 52.22093032 205.3359375 52.28125 C208.37589331 51.96031625 210.03937293 51.09935695 212.625 49.5 C216.69444444 47 216.69444444 47 220 47 C223.49364121 98.43416222 192.16936976 154.13414874 159.78344727 191.70117188 C150.09645675 202.68632222 139.68929607 213.15185228 128 222 C127.46117187 222.41523926 126.92234375 222.83047852 126.3671875 223.25830078 C92.92535498 248.9676468 54.52226493 265.76300393 13 273 C11.77539062 273.226875 10.55078125 273.45375 9.2890625 273.6875 C-2.99074814 275.67434577 -14.18444655 275 -27 275 C-27 256.85 -27 238.7 -27 220 C-32.28 220 -37.56 220 -43 220 C-58.68398372 218.99070045 -74.20791292 215.7701595 -89.125 210.875 C-89.90157959 210.62137695 -90.67815918 210.36775391 -91.47827148 210.10644531 C-96.87213884 208.25572233 -96.87213884 208.25572233 -98 206 C-97.80825258 204.0987662 -97.53463269 202.20555194 -97.22265625 200.3203125 C-96.94711914 198.58394531 -96.94711914 198.58394531 -96.66601562 196.8125 C-96.26999997 194.39283155 -95.87164071 191.97354526 -95.47070312 189.5546875 C-93.58884645 177.64719023 -92.92669774 167.78689691 -97.375 156.4375 C-97.72715576 155.50437988 -98.07931152 154.57125977 -98.44213867 153.60986328 C-104.96927974 136.82067959 -104.96927974 136.82067959 -115 122 C-116.3303125 121.443125 -116.3303125 121.443125 -117.6875 120.875 C-124.38914655 117.08161516 -129.0705977 109.54900383 -133 103 C-133 102.34 -133 101.68 -133 101 C-131.98679688 100.54560547 -131.98679688 100.54560547 -130.953125 100.08203125 C-123.818424 96.88997675 -123.818424 96.88997675 -119 91 C-117.71124808 86.39975307 -117.48478343 83.16483746 -119.4375 78.75 C-127.05340808 70.57683036 -136.43404528 69.14921124 -147 67 C-142.52847741 63.51196891 -137.66966823 60.93138717 -132.6875 58.25 C-131.30014648 57.47076172 -131.30014648 57.47076172 -129.88476562 56.67578125 C-125.80189962 54.48780615 -122.94781557 53.01685446 -118.265625 52.93359375 C-114.56224814 54.14295007 -111.35791786 55.77606777 -108.0625 57.8125 C-106.82996087 58.53866719 -105.59689171 59.26393552 -104.36328125 59.98828125 C-102.46144562 61.12584844 -100.56149736 62.26662724 -98.66796875 63.41796875 C-93.5413456 66.31017774 -88.83234565 66.83319224 -83 66 C-80.00451812 64.75188255 -78.58208598 63.94486492 -76.890625 61.19921875 C-72.98730715 51.56076283 -77.15960525 37.53845803 -79.73046875 27.90234375 C-80.05243412 25.62992149 -79.78435678 24.15021944 -79 22 C-76.9375 20.25 -76.9375 20.25 -75 19 C-74.38125 19.804375 -73.7625 20.60875 -73.125 21.4375 C-70.53152822 24.56492185 -69.88984804 24.9110152 -65.875 25.3125 C-55.35839877 24.464387 -47.87778744 16.46236136 -41.3125 8.8125 C-40.81363281 8.20019531 -40.31476563 7.58789062 -39.80078125 6.95703125 C-34.98536183 1.72378802 -31.34190181 -0.75185424 -24.25 -1.8125 C-23.54697754 -1.92867676 -22.84395508 -2.04485352 -22.11962891 -2.16455078 C-6.15359291 -4.65271659 -6.15359291 -4.65271659 0 0 Z " fill="#03A7E6" transform="translate(354,266)"/>
<path d="M0 0 C1.10859375 0.36867188 2.2171875 0.73734375 3.359375 1.1171875 C4.23078125 1.40851563 5.1021875 1.69984375 6 2 C3.61542052 3.58971965 1.3695876 4.86741593 -1.1875 6.125 C-2.26064453 6.65480469 -2.26064453 6.65480469 -3.35546875 7.1953125 C-4.16951172 7.59363281 -4.16951172 7.59363281 -5 8 C-6.16934736 17.83736664 -3.80828971 25.47300978 -0.6394043 34.67431641 C1.73889406 41.72511495 2.98215101 48.28162583 3.515625 55.6875 C4.34255468 61.34263198 6.7410036 65.1516149 10.8125 69.0625 C11.51375 69.74054688 12.215 70.41859375 12.9375 71.1171875 C14.68589544 72.71326061 16.46054962 74.21519945 18.3125 75.6875 C21.92520271 78.79610466 23.64539492 81.18757404 24.5625 85.875 C23.94271298 89.31826122 23.26506578 90.04252357 20.9375 92.5 C18.38172261 95.28503038 18.38172261 95.28503038 17.5625 99 C20.01081904 104.10953539 24.97920154 107.48960077 30 110 C29.01674532 117.21053433 29.01674532 117.21053433 27 120 C24.43750038 121.199156 22.03923974 122.16555541 19.375 123.0625 C18.68792969 123.30548828 18.00085938 123.54847656 17.29296875 123.79882812 C15.89136474 124.29451735 14.48594426 124.7795304 13.07714844 125.25439453 C11.01465052 125.96101023 11.01465052 125.96101023 9.14941406 126.85107422 C-0.4082864 131.12820789 -10.09905573 129.50283048 -19.58984375 125.8984375 C-21.15412109 125.26808594 -21.15412109 125.26808594 -22.75 124.625 C-36.25172534 119.33131856 -36.25172534 119.33131856 -50.5625 117.875 C-51.59503906 117.89304687 -52.62757813 117.91109375 -53.69140625 117.9296875 C-54.45324219 117.95289063 -55.21507812 117.97609375 -56 118 C-55.85892253 119.45880109 -55.71197585 120.91703551 -55.5625 122.375 C-55.48128906 123.18710938 -55.40007812 123.99921875 -55.31640625 124.8359375 C-55.10909886 127.04272805 -55.10909886 127.04272805 -54 129 C-53.62381239 132.46092602 -53.47009969 134.28692428 -55.58203125 137.12890625 C-58.74765556 139.57855737 -61.03335194 139.70302252 -65 140.0625 C-71.01128117 140.6774404 -76.60053382 141.79371518 -82.4140625 143.51171875 C-86.55417344 144.29346175 -89.18887998 143.40447852 -92.9296875 141.5390625 C-99.63271711 138.53776012 -107.72168302 138.64962926 -114.94921875 138.06640625 C-123.9760309 137.04215503 -123.9760309 137.04215503 -126.97949219 133.98535156 C-129.25653419 130.07383887 -130 127.57582394 -130 123 C-128.34211215 121.65576661 -126.67423683 120.32381517 -125 119 C-121.81547151 114.1683016 -121.71048348 110.59731932 -122 105 C-126.06225548 105.57823096 -128.84762346 106.89117737 -132.3125 109.0625 C-133.19550781 109.61035156 -134.07851562 110.15820312 -134.98828125 110.72265625 C-135.98408203 111.35494141 -135.98408203 111.35494141 -137 112 C-137.32613281 111.52949219 -137.65226562 111.05898437 -137.98828125 110.57421875 C-138.42527344 109.95160156 -138.86226563 109.32898438 -139.3125 108.6875 C-139.95638672 107.76517578 -139.95638672 107.76517578 -140.61328125 106.82421875 C-141.95929534 105.05354669 -143.39192803 103.53261991 -145 102 C-144.11699219 101.75636719 -143.23398438 101.51273437 -142.32421875 101.26171875 C-138.74809328 99.90438793 -136.67244106 98.32630598 -133.8125 95.8125 C-130.04744478 92.59780121 -126.32594255 89.88860717 -122.0625 87.375 C-117.21758282 84.34346611 -114.90576076 82.44503075 -113 77 C-112.56688815 73.28245658 -112.32013261 69.69333365 -113 66 C-115.82429467 64.11713689 -116.90755263 63.66811652 -120.09765625 63.18359375 C-120.89518311 63.05960205 -121.69270996 62.93561035 -122.5144043 62.80786133 C-123.35527588 62.68564209 -124.19614746 62.56342285 -125.0625 62.4375 C-125.91561768 62.30819092 -126.76873535 62.17888184 -127.64770508 62.0456543 C-133.4196605 61.18637567 -139.18274382 60.47682428 -145 60 C-145.020625 61.093125 -145.04125 62.18625 -145.0625 63.3125 C-146 67 -146 67 -148.875 68.75 C-150.23994161 69.19852037 -151.61669619 69.61179041 -153 70 C-154.19689453 70.39832031 -154.19689453 70.39832031 -155.41796875 70.8046875 C-161.90524729 72.81698956 -168.16200332 73.47128954 -174.93359375 73.7890625 C-177.45112666 73.96224311 -179.59551149 74.27924423 -182 75 C-182.09544536 84.44909038 -182.02840163 93.73825553 -181.1484375 103.15625 C-181.00533917 105.89771266 -181.18370805 108.34929254 -181.5625 111.0625 C-182.00133286 115.01199573 -181.8802804 115.78993954 -180 119 C-173.97229862 118.52412884 -169.23321711 115.80277043 -164 113 C-165.52995715 117.96455484 -167.50790038 122.57753285 -169.75 127.25 C-170.23339844 128.32894531 -170.23339844 128.32894531 -170.7265625 129.4296875 C-172.3089846 132.70493325 -173.28211549 134.60204228 -176.515625 136.39453125 C-182.72384231 137.47331341 -188.96785738 138.12806032 -195.234375 138.76757812 C-201.57755673 139.48158055 -207.02576791 140.12832764 -211.8125 144.75 C-213.49161119 147.93147384 -213.87801023 150.4013018 -214 154 C-211.97739912 160.35783596 -208.45150814 164.0693304 -203.6875 168.625 C-203.03587891 169.26695312 -202.38425781 169.90890625 -201.71289062 170.5703125 C-198.7567918 173.45835299 -195.8078082 176.17899866 -192.51953125 178.68359375 C-190 181 -190 181 -189.5625 183.18359375 C-189.706875 183.92738281 -189.85125 184.67117188 -190 185.4375 C-190.144375 186.29214844 -190.28875 187.14679688 -190.4375 188.02734375 C-190.623125 189.00832031 -190.80875 189.98929688 -191 191 C-191.33852975 193.49930165 -191.67170732 195.99933308 -192 198.5 C-192.86746988 204.73493976 -192.86746988 204.73493976 -194 207 C-194.7755908 213.6853635 -194.7755908 213.6853635 -192.953125 219.98828125 C-191.4915605 221.78524298 -191.4915605 221.78524298 -189 224 C-188.01 224.99 -188.01 224.99 -187 226 C-196.4679894 228.53392845 -196.4679894 228.53392845 -199.97265625 227.3125 C-201.09047333 226.59371455 -202.19461449 225.85328026 -203.28515625 225.09375 C-210.16869661 220.70333702 -220.23718967 221.30109746 -228 222 C-234.22385157 223.42643949 -240.09645239 225.59525217 -246 228 C-254.75205789 204.14112914 -253.17391306 172.53148434 -248 148 C-247.86078125 147.29101562 -247.7215625 146.58203125 -247.578125 145.8515625 C-240.51616807 110.14944692 -222.95133633 78.27725275 -198 52 C-197.52868652 51.50145508 -197.05737305 51.00291016 -196.57177734 50.48925781 C-169.79127894 22.34877882 -135.00017489 3.10419105 -97 -5 C-96.24477051 -5.16371094 -95.48954102 -5.32742187 -94.71142578 -5.49609375 C-64.41282241 -11.71910416 -29.21427235 -9.9328526 0 0 Z " fill="#03A8E7" transform="translate(384,107)"/>
<path d="M0 0 C18.15 0 36.3 0 55 0 C55.99 12.375 55.99 12.375 57 25 C61.14267506 59.17706928 74.12813832 90.59704253 95 118 C95.98226562 119.30130859 95.98226562 119.30130859 96.984375 120.62890625 C100.77556273 125.5088855 104.83647211 130.12536422 109 134.6875 C109.47421387 135.21029541 109.94842773 135.73309082 110.43701172 136.27172852 C124.74361208 151.71751319 142.52525393 163.2148073 161 173 C161.65645508 173.35288086 162.31291016 173.70576172 162.98925781 174.06933594 C189.76189518 188.26188434 219.18104088 191.79118821 249 194 C249 212.15 249 230.3 249 249 C218.77563237 249 218.77563237 249 210 247.4375 C208.42182495 247.17404785 208.42182495 247.17404785 206.81176758 246.90527344 C181.692262 242.47187164 157.84967293 234.23179007 135 223 C135.17789063 223.90492188 135.17789063 223.90492188 135.359375 224.828125 C136.40609137 231.3177665 136.40609137 231.3177665 134.4375 234.625 C132 236 132 236 129.1875 236 C126.48581725 235.15241325 124.88268373 234.36283082 122.5625 232.875 C119.76800719 231.19216257 118.96486014 231 115.5 231 C112.57776899 231.83492315 110.92578415 232.56093568 108.4375 234.125 C105 236 105 236 101.6875 235.9375 C99 235 99 235 97 232 C97.17944536 230.16429456 97.36855494 228.32823913 97.63696289 226.50341797 C98.70290778 219.48091802 98.70290778 219.48091802 96.0703125 213.15625 C93.62593818 210.85362201 93.62593818 210.85362201 91.00390625 208.9921875 C89 207 89 207 88.40234375 204.0078125 C89 201 89 201 91.5 198.625 C92.7375 197.820625 92.7375 197.820625 94 197 C92.33424841 195.47816445 90.66734329 193.9575915 89 192.4375 C88.49597656 191.97786865 87.99195313 191.5182373 87.47265625 191.04467773 C84.68316049 188.50760295 81.86697627 186.01137556 79 183.5625 C70.09314416 175.78493877 62.32863819 167.26296277 55 158 C54.05253906 156.87078125 54.05253906 156.87078125 53.0859375 155.71875 C16.52396413 111.78419763 0 56.38702637 0 0 Z " fill="#145404" transform="translate(78,292)"/>
<path d="M0 0 C28.99211631 0 28.99211631 0 38.0625 1.625 C39.65843994 1.89340698 39.65843994 1.89340698 41.28662109 2.16723633 C87.33493128 10.23675174 130.06174784 29.78403691 165 61 C165.51933105 61.46293457 166.03866211 61.92586914 166.57373047 62.40283203 C176.87809569 71.62990822 186.42089136 81.12343515 195 92 C195.78117188 92.96421875 196.56234375 93.9284375 197.3671875 94.921875 C223.03577728 127.23313498 248.95296172 175.89581915 247.453125 218.48046875 C246.77966046 222.22516381 244.88772555 223.62564788 242 226 C241.16045601 227.70643469 240.37264726 229.43884993 239.625 231.1875 C237.42221979 235.80512933 237.42221979 235.80512933 233.75 237.5 C232.5125 237.665 231.275 237.83 230 238 C228.35144326 238.36284024 226.70557444 238.73809079 225.0625 239.125 C223.70879302 239.41879283 222.3547862 239.71122471 221 240 C220.67 242.64 220.34 245.28 220 248 C211.42 248 202.84 248 194 248 C193.896875 245.256875 193.79375 242.51375 193.6875 239.6875 C191.46015516 194.48021499 173.87247856 154.40277918 145 120 C144.47148437 119.36707031 143.94296875 118.73414063 143.3984375 118.08203125 C140.83427662 115.0435006 138.30870891 112.18294683 135.25 109.625 C133.0735442 107.78338356 130.93571406 105.93923979 128.86328125 103.98046875 C111.11681846 87.25841977 89.60195757 75.72117832 67 67 C65.70473389 66.49412354 65.70473389 66.49412354 64.38330078 65.97802734 C57.92755001 63.53230203 51.50415606 61.78022324 44.75 60.375 C43.24240112 60.05644043 43.24240112 60.05644043 41.7043457 59.73144531 C27.76185608 56.84656094 14.34457034 55.79692057 0 55 C0 36.85 0 18.7 0 0 Z " fill="#145404" transform="translate(326,44)"/>
<path d="M0 0 C4.16245107 -0.1490685 8.32346268 -0.25754261 12.48779297 -0.32958984 C13.90213097 -0.35964089 15.31628446 -0.40049623 16.72998047 -0.45263672 C28.40353741 -0.87219373 28.40353741 -0.87219373 32.28442383 1.24804688 C34.9301293 3.77037748 35.94990589 5.62787234 36.4375 9.25 C36.19058643 11.36640202 35.9412254 13.4825322 35.68359375 15.59765625 C35.58175781 16.49355469 35.47992187 17.38945312 35.375 18.3125 C35.25898437 19.15425781 35.14296875 19.99601562 35.0234375 20.86328125 C35.01570312 21.56839844 35.00796875 22.27351563 35 23 C36.80925671 25.22093032 36.80925671 25.22093032 39.3359375 25.28125 C42.37589331 24.96031625 44.03937293 24.09935695 46.625 22.5 C50.69444444 20 50.69444444 20 54 20 C57.49364121 71.43416222 26.16936976 127.13414874 -6.21655273 164.70117188 C-15.90354325 175.68632222 -26.31070393 186.15185228 -38 195 C-38.53882813 195.41523926 -39.07765625 195.83047852 -39.6328125 196.25830078 C-73.07464502 221.9676468 -111.47773507 238.76300393 -153 246 C-154.22460938 246.226875 -155.44921875 246.45375 -156.7109375 246.6875 C-168.99074814 248.67434577 -180.18444655 248 -193 248 C-193 229.85 -193 211.7 -193 193 C-180.13 192.01 -180.13 192.01 -167 191 C-162.6051824 190.37250465 -158.43042946 189.74854701 -154.125 188.8125 C-153.10510986 188.59819336 -152.08521973 188.38388672 -151.03442383 188.16308594 C-141.03073527 185.95789214 -131.48594817 182.8455 -122 179 C-121.17161621 178.66484375 -120.34323242 178.3296875 -119.48974609 177.984375 C-97.76962598 169.03416598 -78.4842142 156.67603296 -61.49560547 140.42822266 C-60.50771658 139.48484198 -59.51461919 138.54688208 -58.51611328 137.61474609 C-20.0277848 101.63900879 -2.69980359 51.53653171 0 0 Z " fill="#024BAD" transform="translate(520,293)"/>
<path d="M0 0 C0.87285645 0.40484619 1.74571289 0.80969238 2.64501953 1.22680664 C23.03974188 10.82421275 41.66976977 23.64748438 57.3125 39.9375 C58.158125 40.783125 59.00375 41.62875 59.875 42.5 C60.679375 43.304375 61.48375 44.10875 62.3125 44.9375 C62.82965576 45.43652832 63.34681152 45.93555664 63.87963867 46.44970703 C67.99817778 50.46628768 71.63777128 54.63115714 75.0625 59.25 C75.57272705 59.93731201 76.0829541 60.62462402 76.60864258 61.33276367 C101.54594204 95.4787466 114.92958257 134.66734405 114.3125 176.9375 C122.8925 176.9375 131.4725 176.9375 140.3125 176.9375 C140.3125 174.2975 140.3125 171.6575 140.3125 168.9375 C143.57919673 166.75970218 145.5375161 166.42987313 149.375 165.875 C153.48196658 165.34687789 153.48196658 165.34687789 157.3125 163.9375 C158.91142298 160.9133532 160.33247354 157.82302993 161.77734375 154.72265625 C163.3125 151.9375 163.3125 151.9375 166.3125 149.9375 C167.04593428 146.87193402 167.04593428 146.87193402 167.3125 143.9375 C167.6425 143.9375 167.9725 143.9375 168.3125 143.9375 C168.3125 146.2475 168.3125 148.5575 168.3125 150.9375 C168.9209375 151.1540625 169.529375 151.370625 170.15625 151.59375 C173.06252771 153.40490857 173.52419227 155.29931449 174.8125 158.4375 C177.00038491 162.80069687 177.00038491 162.80069687 181.19140625 164.96484375 C183.29511288 165.23587344 185.40553072 165.45949072 187.51953125 165.6328125 C190.3125 165.9375 190.3125 165.9375 193.5625 167.75 C195.3125 169.9375 195.3125 169.9375 195.703125 172.34375 C195.3125 174.9375 195.3125 174.9375 193.34375 176.76171875 C192.5084375 177.37660156 191.673125 177.99148438 190.8125 178.625 C187.39530921 181.75964615 186.04092283 183.89242279 185.78515625 188.453125 C185.77482011 191.6899514 185.96702711 194.8932493 186.19140625 198.12109375 C186.23136719 199.38050781 186.27132812 200.63992188 186.3125 201.9375 C184.3125 203.9375 184.3125 203.9375 181.6875 204.3125 C177.30356584 203.8253962 174.10782854 202.09525023 170.3125 199.9375 C169.6525 200.9275 168.9925 201.9175 168.3125 202.9375 C168.3125 201.2875 168.3125 199.6375 168.3125 197.9375 C167.50425781 198.370625 166.69601562 198.80375 165.86328125 199.25 C164.79464844 199.806875 163.72601562 200.36375 162.625 200.9375 C161.56925781 201.494375 160.51351562 202.05125 159.42578125 202.625 C156.3394208 203.92615071 154.59869838 204.47493619 151.3125 203.9375 C149.4609375 202.9609375 149.4609375 202.9609375 148.3125 200.9375 C148.40834922 197.31734878 148.76099421 193.85540491 149.25 190.2734375 C149.32476563 189.53609375 149.39953125 188.79875 149.4765625 188.0390625 C149.56373535 187.37213379 149.6509082 186.70520508 149.74072266 186.01806641 C149.01845286 182.50883995 147.07291602 181.0926161 144.3125 178.9375 C140.94562102 178.16423831 140.94562102 178.16423831 137.26171875 178.23046875 C136.27350883 178.20778679 136.27350883 178.20778679 135.26533508 178.18464661 C133.176538 178.14191434 131.0891898 178.13294735 129 178.125 C127.57743583 178.10184386 126.15490583 178.07647617 124.73242188 178.04882812 C121.25914196 177.98612384 117.78634387 177.95367216 114.3125 177.9375 C114.31685059 178.87053955 114.32120117 179.8035791 114.32568359 180.76489258 C114.33075928 182.62343872 114.33075928 182.62343872 114.3359375 184.51953125 C114.34028809 185.7413208 114.34463867 186.96311035 114.34912109 188.22192383 C114.20745798 202.59506303 114.20745798 202.59506303 111.3125 206.9375 C110.78817383 206.05489502 110.26384766 205.17229004 109.72363281 204.26293945 C107.76681588 200.97128208 105.80504031 197.68260314 103.84179688 194.39477539 C102.99474953 192.97467788 102.14902704 191.55378922 101.3046875 190.13208008 C100.08685959 188.08202189 98.86420628 186.03490944 97.640625 183.98828125 C97.26754211 183.3578743 96.89445923 182.72746735 96.5100708 182.07795715 C92.71885877 175.75794499 90.27659844 171.70545209 83 169.6875 C81.8553125 169.3678125 80.710625 169.048125 79.53125 168.71875 C76.10596539 167.88737024 72.81855356 167.26364452 69.3125 166.9375 C73.38977518 162.02386068 77.67481529 157.58807512 82.359375 153.24609375 C85.26959026 149.80621931 86.10896188 146.33318998 86.75 141.9375 C86.13018756 137.68735757 84.38341154 135.87489364 81.3125 132.9375 C77.12344081 131.21092831 73.45845297 130.68634401 68.953125 130.53515625 C50.12784778 129.34508171 50.12784778 129.34508171 45.12792969 125.06933594 C41.7728854 120.57432347 39.85882201 115.53813495 38.10498047 110.24560547 C37.03693608 107.13491797 35.58052155 104.31644512 34 101.4375 C33.59136719 100.6228125 33.18273437 99.808125 32.76171875 98.96875 C30.5007683 95.79976285 27.8626431 94.26100813 24.06640625 93.46875 C20.00156854 93.4107844 17.15792311 93.57429749 13.875 96.125 C11.48090469 98.75266559 10.27885017 100.55527441 9.3125 103.9375 C8.9825 103.2775 8.6525 102.6175 8.3125 101.9375 C7.260625 101.56625 7.260625 101.56625 6.1875 101.1875 C1.18458742 99.01232062 -2.74919158 96.0375236 -5 91 C-4.58665364 86.94920564 -2.78653323 85.54685758 -0.08203125 82.65234375 C1.54016782 80.90240727 1.54016782 80.90240727 2.0625 78 C0.30468883 70.82227106 -5.31989949 66.19063031 -10.7890625 61.6015625 C-16.75115157 56.37553381 -18.61627776 51.98583485 -19.3125 44.125 C-20.051687 36.97257319 -21.98495498 30.53543465 -24.3125 23.75 C-29.73433715 7.64472629 -29.73433715 7.64472629 -27.6875 -0.0625 C-19.30017896 -8.26343613 -9.31973129 -4.41197136 0 0 Z " fill="#6FC473" transform="translate(405.6875,115.0625)"/>
<path d="M0 0 C-0.144375 0.95519531 -0.28875 1.91039062 -0.4375 2.89453125 C-3.07142459 15.70800069 -3.07142459 15.70800069 -0.94921875 27.97265625 C1.33251736 30.8197783 3.36852383 32.77056135 7.02246094 33.28442383 C14.39779733 33.6142807 19.02885207 31.45918984 25.25 27.6875 C26.96315087 26.69073429 28.67668301 25.69462352 30.390625 24.69921875 C33.03624502 23.15487276 35.67075732 21.59706877 38.296875 20.01953125 C41 19 41 19 43.58203125 19.43359375 C46.71199987 21.46124709 48.60980728 24.03621844 50.6875 27.0625 C53.28792415 31.12322255 53.28792415 31.12322255 57 34 C57 34.66 57 35.32 57 36 C55.741875 36.20625 54.48375 36.4125 53.1875 36.625 C46.09748784 38.20679069 39.74732903 41.57212783 34.3125 46.375 C32.39676707 50.20646585 32.59277596 52.72414762 33 57 C33.350625 57.66 33.70125 58.32 34.0625 59 C36.36108893 63.90365637 33.49189598 71.32301764 32.06640625 76.2421875 C31.87311234 76.91562698 31.67981842 77.58906647 31.48066711 78.28291321 C30.84760289 80.48216249 30.20564593 82.67867953 29.5625 84.875 C29.11251486 86.42220104 28.66281259 87.96948438 28.21337891 89.5168457 C27.51546199 91.91802988 26.81662924 94.31892778 26.1149292 96.7190094 C24.72549641 101.47627534 23.36505107 106.24043027 22.03292847 111.01405334 C13.43380689 141.81595965 13.43380689 141.81595965 6 154 C5.35804688 155.08023438 4.71609375 156.16046875 4.0546875 157.2734375 C-1.34723974 166.06569564 -1.34723974 166.06569564 -4 168 C-10.9365369 168.96788887 -18.95720676 168.93676279 -25 165 C-29.48950717 160.84193296 -32.77822721 156.57256436 -33.3125 150.375 C-33.66777954 146.91102452 -34.63290964 144.54169718 -36.3125 141.5 C-42.22313237 130.2972898 -43.70270868 118.49259873 -43 106 C-42.20734741 105.69147095 -42.20734741 105.69147095 -41.39868164 105.37670898 C-27.1753953 99.92687505 -27.1753953 99.92687505 -15 91 C-14.2471875 90.32324219 -13.494375 89.64648438 -12.71875 88.94921875 C1.91540956 75.21749903 7.22707484 58.50217678 9 39 C-25.65 39 -60.3 39 -96 39 C-94.47791128 26.82329024 -91.5225076 9.08383005 -82.19140625 0.296875 C-80.17675228 -1.04893007 -78.22554244 -2.04395712 -76 -3 C-74.71609375 -3.56460937 -74.71609375 -3.56460937 -73.40625 -4.140625 C-53.04671095 -12.6437266 -19.62356833 -9.81178416 0 0 Z " fill="#6FC473" transform="translate(386,298)"/>
<path d="M0 0 C0.598125 0.433125 1.19625 0.86625 1.8125 1.3125 C0.43791393 4.06167214 -1.15263017 4.32661102 -3.9375 5.5625 C-8.71646789 7.90405733 -11.43594 9.72656667 -14.1875 14.3125 C-14.9031411 19.41144282 -14.11012074 22.15338587 -11.1875 26.3125 C-10.89875 27.034375 -10.61 27.75625 -10.3125 28.5 C-8.68445401 31.12296298 -7.12339952 31.37551079 -4.1875 32.3125 C-3.48882812 32.56 -2.79015625 32.8075 -2.0703125 33.0625 C5.05331878 35.55697021 11.56084965 36.47448029 19.125 36.4375 C20.25711914 36.44765137 20.25711914 36.44765137 21.41210938 36.45800781 C25.45618796 36.46324174 28.89067375 36.13145795 32.8125 35.0625 C34.82421875 34.7578125 34.82421875 34.7578125 36.8125 35.3125 C40.40972371 38.96253776 43.02273037 43.01316096 45.8125 47.3125 C48.57616414 51.19608401 48.57616414 51.19608401 52.625 53.4375 C63.88723922 60.0623466 69.85947813 80.27632396 74.3125 92.125 C74.56781494 92.76904785 74.82312988 93.4130957 75.08618164 94.07666016 C78.84046429 104.57071753 76.53202984 115.86191228 74.8125 126.5625 C74.62171875 127.79613281 74.4309375 129.02976562 74.234375 130.30078125 C73.76844333 133.30604051 73.29437327 136.30976311 72.8125 139.3125 C69.26939729 140.49353424 68.80570543 140.14375132 65.55859375 138.609375 C64.2905188 138.01322388 64.2905188 138.01322388 62.99682617 137.4050293 C62.09037354 136.96199463 61.1839209 136.51895996 60.25 136.0625 C59.31196533 135.60721924 58.37393066 135.15193848 57.4074707 134.68286133 C33.52208251 122.88031366 10.52860621 106.31379742 -6.1875 85.3125 C-6.94160156 84.384375 -7.69570312 83.45625 -8.47265625 82.5 C-26.21449278 60.30966142 -41.85019803 32.46991984 -47.1875 4.3125 C-46.8575 3.3225 -46.5275 2.3325 -46.1875 1.3125 C-42.66594522 -0.39953615 -38.90785774 -1.47825509 -35.1875 -2.6875 C-34.094375 -3.1 -33.00125 -3.5125 -31.875 -3.9375 C-21.03518971 -6.14220718 -9.83070309 -5.20448987 0 0 Z " fill="#6FC473" transform="translate(184.1875,332.6875)"/>
<path d="M0 0 C45.21 0 90.42 0 137 0 C137 18.17866201 131.86991013 33.8529015 119.06176758 47.04370117 C117.7216189 48.3764623 116.36135949 49.68891227 115 51 C114.34386719 51.67546875 113.68773437 52.3509375 113.01171875 53.046875 C100.51627603 65.14096517 82.32863215 69.68657777 65.41259766 69.46630859 C47.13541874 68.78471558 31.02868036 61.20465938 18.38818359 48.07592773 C5.93842672 34.42764067 0 18.4252322 0 0 Z " fill="#000000" transform="translate(258,337)"/>
<path d="M0 0 C10.27396433 0.12101254 19.59294618 3.3700054 29.03857422 7.10083008 C45.32118649 13.46238629 55.93289517 11.28953874 71.90478516 4.95507812 C73.875 4.3125 73.875 4.3125 76.875 4.3125 C75.92441561 6.46177727 74.96430503 8.60684362 74 10.75 C73.46632813 11.94496094 72.93265625 13.13992187 72.3828125 14.37109375 C70.875 17.3125 70.875 17.3125 68.875 18.3125 C66.77080402 18.62673199 64.65990103 18.89653241 62.546875 19.14453125 C60.63455078 19.38333008 60.63455078 19.38333008 58.68359375 19.62695312 C56.65911392 19.87774982 54.63454501 20.12390363 52.60791016 20.35668945 C50.64831269 20.58383007 48.69127765 20.83273801 46.734375 21.08203125 C44.97818848 21.29243042 44.97818848 21.29243042 43.18652344 21.50708008 C38.62616609 22.61623806 35.45573846 24.88983539 32 28 C30.15915979 31.78394931 29.89958335 35.21708627 30.875 39.3125 C32.88670657 42.34006835 35.22641411 44.83282902 37.875 47.3125 C34.67624224 55.62927019 34.67624224 55.62927019 30.875 58.3125 C28.25 58.25 28.25 58.25 25.875 57.3125 C23.94847072 54.42270609 23.54329127 53.16246657 23 49.875 C22.18213871 45.91449058 21.2512846 43.76797971 17.875 41.3125 C9.22317509 38.42855836 -2.66465069 40.0121646 -11.125 43.3125 C-16.36148971 46.47125234 -20.39388138 51.08483262 -24.11328125 55.87109375 C-26.23755659 58.4490978 -28.45227093 60.42066498 -31.0625 62.5 C-32.31353516 63.51126953 -32.31353516 63.51126953 -33.58984375 64.54296875 C-38.32936012 67.85113657 -42.33743514 69.02325358 -48.125 68.3125 C-50.45024926 66.84902075 -52.13929541 65.24977278 -54.125 63.3125 C-53.56540477 59.49003412 -51.91182643 57.72278259 -49.1875 55.0625 C-48.47722656 54.35609375 -47.76695312 53.6496875 -47.03515625 52.921875 C-45.125 51.3125 -45.125 51.3125 -43.125 51.3125 C-43.125 50.6525 -43.125 49.9925 -43.125 49.3125 C-42.465 49.3125 -41.805 49.3125 -41.125 49.3125 C-40.795 48.3225 -40.465 47.3325 -40.125 46.3125 C-39.465 46.3125 -38.805 46.3125 -38.125 46.3125 C-38.125 45.6525 -38.125 44.9925 -38.125 44.3125 C-37.465 44.3125 -36.805 44.3125 -36.125 44.3125 C-35.30479582 41.42538129 -34.96318379 38.81236689 -34.9375 35.8125 C-34.92332031 35.0596875 -34.90914063 34.306875 -34.89453125 33.53125 C-35.15082722 31.06385827 -35.89654847 29.44893744 -37.125 27.3125 C-28.11267165 24.67911044 -19.51844252 22.77981686 -10.171875 21.90234375 C-7.02481295 21.29310481 -5.90402278 20.93355136 -4.125 18.3125 C-3.62499457 13.81245111 -4.68722079 10.53597643 -6.125 6.3125 C-6.3125 3.5 -6.3125 3.5 -6.125 1.3125 C-4.42243279 -0.39006721 -2.33388838 0.05912517 0 0 Z " fill="#6FC474" transform="translate(333.125,223.6875)"/>
<path d="M0 0 C6.77252798 -0.33307515 13.19020133 0.30911381 19.875 1.3125 C20.70749268 1.43020752 21.53998535 1.54791504 22.39770508 1.66918945 C30.38867039 2.93603992 30.38867039 2.93603992 33 6 C34.16490902 10.97295645 33.74200876 16.47221833 31.4375 21.0625 C27.75653464 26.2243135 21.94770138 29.27308281 16.671875 32.59375 C13.65785177 34.51148717 11.03942759 36.60176228 8.4375 39.0625 C4.7651039 42.42688868 2.02328363 43.1017739 -2.97265625 42.93359375 C-7.63422334 42.80289561 -10.45281303 42.84694492 -14 46 C-14.70859591 47.33270538 -15.37222728 48.68986996 -16 50.0625 C-17.74825592 53.85614624 -17.74825592 53.85614624 -20.1875 55.25 C-21.115625 55.4975 -22.04375 55.745 -23 56 C-25.28309413 57.076082 -27.55033704 58.18153446 -29.81640625 59.29296875 C-32.40247788 60.13031931 -33.53930791 60.14971026 -36 59 C-38.86844042 55.4736604 -37.97911841 51.36905668 -37.5625 47.125 C-37.10260262 42.21639228 -37.10765327 37.86677045 -38 33 C-38.13997689 30.25699132 -38.2297793 27.55493194 -38.25 24.8125 C-38.270625 24.10158203 -38.29125 23.39066406 -38.3125 22.65820312 C-38.35142038 17.48665799 -38.35142038 17.48665799 -36.609375 15.07421875 C-33.25979169 12.83845319 -30.82284416 12.84610118 -26.8125 12.6875 C-17.8183817 12.12072188 -9.54557659 9.84852553 -1 7 C-0.67 4.69 -0.34 2.38 0 0 Z " fill="#6FC474" transform="translate(239,167)"/>
<path d="M0 0 C-4.20443425 6.86546858 -9.14575593 12.91789017 -14.40625 18.98046875 C-15.86414026 20.67768136 -17.30105728 22.39549269 -18.65625 24.17578125 C-22.16770823 28.77946632 -26.20346088 30.8511522 -31.31640625 33.48046875 C-37.9350766 37.22815836 -41.32089141 42.31082215 -44.75390625 48.91796875 C-47.58900437 53.65498221 -51.80197886 56.30898888 -57 58 C-67.27790202 59.1158865 -75.43380575 58.16341639 -83.71875 51.6484375 C-86.54409821 48.83878567 -87.33445654 46.27683483 -87.5 42.4375 C-87.44347753 38.47386199 -86.46204482 36.1195227 -84 33 C-80.97829049 30.673794 -77.7658334 28.71334631 -74.5 26.75 C-73.09137695 25.89510986 -73.09137695 25.89510986 -71.65429688 25.02294922 C-51.72680916 13.12609164 -23.93189643 -1.16854963 0 0 Z " fill="#6EC374" transform="translate(298,101)"/>
<path d="M0 0 C0.66 0.33 1.32 0.66 2 1 C2.48657227 3.18969727 2.48657227 3.18969727 2.81640625 6.06640625 C2.94080078 7.10990234 3.06519531 8.15339844 3.19335938 9.22851562 C3.31517578 10.32873047 3.43699219 11.42894531 3.5625 12.5625 C3.68818359 13.63564453 3.81386719 14.70878906 3.94335938 15.81445312 C4.18958853 17.91964798 4.42723753 20.02586636 4.65576172 22.13305664 C4.86407028 23.8679272 5.11025765 25.59959703 5.42626953 27.31811523 C6.37368554 32.55161101 5.33108192 35.35765342 2.75 39.9375 C-0.10229048 45.18843496 -2.27069929 50.28875687 -4 56 C-4.79742351 58.63359606 -5.64573828 60.53330902 -7 63 C-8.69962891 63.79470703 -8.69962891 63.79470703 -10.43359375 64.60546875 C-12.76414904 65.86742751 -13.80252161 66.59388484 -14.97216797 68.99926758 C-15.685067 71.48509523 -16.26527006 73.97261873 -16.8125 76.5 C-20.19136169 89.6406745 -27.47019069 97.58084289 -38 106 C-38.94875 106.804375 -39.8975 107.60875 -40.875 108.4375 C-43 110 -43 110 -45 110 C-45.21296891 103.14767966 -44.71187991 96.78216497 -43.375 90.0625 C-43.10659302 88.70125 -43.10659302 88.70125 -42.83276367 87.3125 C-36.88378893 58.44830536 -24.3415963 31.06917829 -6 8 C-4.80738092 6.42051894 -3.61924911 4.83763023 -2.4375 3.25 C-1.625 2.16666667 -0.8125 1.08333333 0 0 Z " fill="#6EC474" transform="translate(179,166)"/>
<path d="M0 0 C4.21744662 3.41743613 6.30170928 6.5122585 6.89453125 11.84765625 C6.38439904 16.77893424 4.65395234 19.47411343 1.046875 22.8515625 C-3.64027694 26.56360954 -8.74338455 28.05039752 -14.48046875 29.47265625 C-15.10421387 29.64466553 -15.72795898 29.8166748 -16.37060547 29.99389648 C-28.16272278 32.66970556 -42.53529506 31.06851742 -52.9453125 25.046875 C-56.68321739 22.43101751 -59.82412459 19.82055966 -61.48046875 15.47265625 C-62.33951842 8.70764013 -62.33951842 8.70764013 -59.3828125 4.45703125 C-56.54790118 1.25679631 -53.40032734 -0.48445846 -49.54296875 -2.33984375 C-48.65061523 -2.7874707 -48.65061523 -2.7874707 -47.74023438 -3.24414062 C-33.73845141 -10.02314593 -13.19110188 -8.12239502 0 0 Z " fill="#EF97B0" transform="translate(479.48046875,339.52734375)"/>
<path d="M0 0 C0.83192871 0.00563965 1.66385742 0.0112793 2.52099609 0.01708984 C13.25161228 0.22724928 22.43872136 2.158488 30.75 9.3125 C33.28873449 12.03257267 34.61709772 13.74312202 34.93359375 17.48046875 C34.69708169 22.0352332 33.72362413 25.57977756 30.45703125 28.96875 C19.50752603 37.58804015 6.11896074 38.33135954 -7.25 37.3125 C-15.57303897 36.03418572 -24.47250017 33.80926117 -30.1875 27.25 C-33.25851941 22.87612387 -33.86734657 19.60404206 -33.25 14.3125 C-29.8409878 7.97955244 -23.77111089 4.77869916 -17.25 2.3125 C-11.38819613 0.56252515 -6.1036162 -0.0434642 0 0 Z " fill="#EF97AF" transform="translate(202.25,332.6875)"/>
<path d="M0 0 C2.91796875 0.03515625 2.91796875 0.03515625 6 1 C7.86328125 3.43359375 7.86328125 3.43359375 9.3125 6.4375 C10.04919922 7.92056641 10.04919922 7.92056641 10.80078125 9.43359375 C11.19652344 10.28050781 11.59226563 11.12742187 12 12 C12.495 12.99 12.495 12.99 13 14 C16.25623311 14.57222507 19.51334483 14.89614156 22.80078125 15.2421875 C26.46093059 16.10918258 27.89316676 16.89120237 30 20 C30.00513156 23.28932953 29.36547272 24.59898448 27.15234375 27.02734375 C26.42144531 27.65769531 25.69054687 28.28804688 24.9375 28.9375 C21.58517158 32.01936313 21.58517158 32.01936313 20.4375 36.375 C20.87798925 38.96421018 20.87798925 38.96421018 22 41 C22.51161632 45.34454518 22.71507422 48.84488011 20.375 52.625 C18 54 18 54 15.1875 54 C12.48581725 53.15241325 10.88268373 52.36283082 8.5625 50.875 C5.76800719 49.19216257 4.96486014 49 1.5 49 C-1.42223101 49.83492315 -3.07421585 50.56093568 -5.5625 52.125 C-9 54 -9 54 -12.3125 53.9375 C-15 53 -15 53 -17 50 C-16.82055464 48.16429456 -16.63144506 46.32823913 -16.36303711 44.50341797 C-15.29709222 37.48091802 -15.29709222 37.48091802 -17.9296875 31.15625 C-20.37406182 28.85362201 -20.37406182 28.85362201 -22.99609375 26.9921875 C-25 25 -25 25 -25.47265625 21.9453125 C-25 19 -25 19 -23.92578125 17.15234375 C-21.08010689 15.44955686 -18.47597401 15.67806937 -15.1875 15.5625 C-9.68375595 14.96563342 -9.68375595 14.96563342 -5.81640625 11.27734375 C-4.35895813 8.22796975 -3.16985852 5.1676169 -2 2 C-1.34 1.34 -0.68 0.68 0 0 Z " fill="#FCD15E" transform="translate(192,474)"/>
<path d="M0 0 C0.33 0 0.66 0 1 0 C1 2.31 1 4.62 1 7 C1.6084375 7.2165625 2.216875 7.433125 2.84375 7.65625 C5.75002771 9.46740857 6.21169227 11.36181449 7.5 14.5 C9.68788491 18.86319687 9.68788491 18.86319687 13.87890625 21.02734375 C15.98261288 21.29837344 18.09303072 21.52199072 20.20703125 21.6953125 C23 22 23 22 26.25 23.8125 C28 26 28 26 28.390625 28.40625 C28 31 28 31 26.03125 32.82421875 C24.77828125 33.74654297 24.77828125 33.74654297 23.5 34.6875 C20.08280921 37.82214615 18.72842283 39.95492279 18.47265625 44.515625 C18.46232011 47.7524514 18.65452711 50.9557493 18.87890625 54.18359375 C18.93884766 56.07271484 18.93884766 56.07271484 19 58 C17 60 17 60 14.375 60.375 C9.99106584 59.8878962 6.79532854 58.15775023 3 56 C2.34 56.99 1.68 57.98 1 59 C1 57.35 1 55.7 1 54 C0.19175781 54.433125 -0.61648438 54.86625 -1.44921875 55.3125 C-2.51785156 55.869375 -3.58648438 56.42625 -4.6875 57 C-5.74324219 57.556875 -6.79898438 58.11375 -7.88671875 58.6875 C-10.9730792 59.98865071 -12.71380162 60.53743619 -16 60 C-17.8671875 59.0078125 -17.8671875 59.0078125 -19 57 C-18.81871395 54.23392582 -18.51712557 51.6093048 -18.125 48.875 C-17.43032595 42.65386867 -17.43032595 42.65386867 -19.92578125 37.08984375 C-22.37029123 34.79041235 -22.37029123 34.79041235 -24.99609375 32.95703125 C-27 31 -27 31 -27.47265625 27.88671875 C-27.31667969 26.93410156 -27.16070313 25.98148437 -27 25 C-23.73330327 22.82220218 -21.7749839 22.49237313 -17.9375 21.9375 C-13.83053342 21.40937789 -13.83053342 21.40937789 -10 20 C-8.40107702 16.9758532 -6.98002646 13.88552993 -5.53515625 10.78515625 C-4 8 -4 8 -1 6 C-0.26656572 2.93443402 -0.26656572 2.93443402 0 0 Z " fill="#FDD15F" transform="translate(573,259)"/>
<path d="M0 0 C3.125 0.25 3.125 0.25 4.703125 1.41796875 C6.50467175 3.73919245 7.10066465 6.02158741 8 8.8125 C9.14747865 11.8276187 9.14747865 11.8276187 11.125 14.25 C14.52586613 15.42107334 17.48070424 15.74043719 21.06640625 15.90625 C24.44360052 16.28580695 25.85952336 16.72418741 28.125 19.25 C28.65625 21.70703125 28.65625 21.70703125 28.125 24.25 C26.15625 26.07421875 26.15625 26.07421875 23.625 27.9375 C20.20780921 31.07214615 18.85342283 33.20492279 18.59765625 37.765625 C18.58732011 41.0024514 18.77952711 44.2057493 19.00390625 47.43359375 C19.06384766 49.32271484 19.06384766 49.32271484 19.125 51.25 C17.125 53.25 17.125 53.25 14.5625 53.6875 C10.38156643 53.15538118 7.85280577 51.5362038 4.37109375 49.24609375 C1.48547492 47.96638453 0.09676768 48.29751036 -2.875 49.25 C-4.68681413 50.18704759 -4.68681413 50.18704759 -6.3125 51.3125 C-9.60618165 53.29014728 -11.98596109 53.79265659 -15.875 53.25 C-17.875 51.25 -17.875 51.25 -17.89453125 47.51171875 C-17.80431637 45.21625127 -17.68678917 42.92689158 -17.53320312 40.63476562 C-17.38750071 36.33467641 -17.42719755 34.80273306 -20.2421875 31.328125 C-21.11101562 30.64234375 -21.97984375 29.9565625 -22.875 29.25 C-26.76973684 25.98684211 -26.76973684 25.98684211 -27.3125 22.1875 C-26.875 19.25 -26.875 19.25 -25.7734375 17.625 C-23.02020042 15.6308859 -20.41597918 15.68748968 -17.0625 15.3125 C-12.5465475 14.46809153 -10.52870531 14.0820932 -7.65625 10.42578125 C-6.19880686 7.4073022 -4.98354775 4.41054041 -3.875 1.25 C-2.875 0.25 -2.875 0.25 0 0 Z " fill="#FCCF5E" transform="translate(164.875,86.75)"/>
<path d="M0 0 C3.37845307 1.85513271 5.17881323 4.39606607 7.3125 7.50390625 C9.91292415 11.5646288 9.91292415 11.5646288 13.625 14.44140625 C13.625 15.10140625 13.625 15.76140625 13.625 16.44140625 C12.366875 16.64765625 11.10875 16.85390625 9.8125 17.06640625 C4.63879489 18.17154896 0.57960207 20.54008578 -3.89453125 23.296875 C-6.375 24.44140625 -6.375 24.44140625 -8.46875 24.44921875 C-11.31347107 22.94524736 -12.39980656 20.85197251 -14.0625 18.12890625 C-14.66449219 17.16339844 -15.26648438 16.19789063 -15.88671875 15.203125 C-17.14666693 12.86511092 -17.91361133 11.03133466 -18.375 8.44140625 C-15.05688194 6.41512467 -11.72026996 4.42248816 -8.375 2.44140625 C-7.281875 1.78140625 -6.18875 1.12140625 -5.0625 0.44140625 C-2.375 -0.55859375 -2.375 -0.55859375 0 0 Z " fill="#08A8E4" transform="translate(429.375,317.55859375)"/>
<path d="M0 0 C0.99 1.485 0.99 1.485 2 3 C3.42180041 5.01119115 4.86136452 7.00987134 6.3125 9 C7.07175781 10.051875 7.83101563 11.10375 8.61328125 12.1875 C10.92268972 14.90889787 12.84641969 16.39251128 16 18 C15.471358 22.93713863 13.18242512 26.2805576 10.5 30.3125 C10.08363281 30.95767578 9.66726563 31.60285156 9.23828125 32.26757812 C8.19211239 33.86730236 7.09996632 35.43677864 6 37 C5.67 37 5.34 37 5 37 C4.89042969 36.030625 4.78085937 35.06125 4.66796875 34.0625 C3.65754367 25.42825473 2.31562781 16.94579043 0.5859375 8.42578125 C0.08846952 5.51725178 -0.12354155 2.93691947 0 0 Z " fill="#70C475" transform="translate(468,287)"/>
<path d="M0 0 C0.53690303 6.01331397 -0.24677748 9.27124164 -3.515625 14.3359375 C-5.18406928 16.20635136 -6.75767874 16.93443411 -9 18 C-9.33 18.66 -9.66 19.32 -10 20 C-11.98 15.71 -13.96 11.42 -16 7 C-4.26020408 -1.27806122 -4.26020408 -1.27806122 0 0 Z " fill="#6FC476" transform="translate(263,212)"/>
<path d="M0 0 C3.13590291 1.12128552 5.9767318 2.50968027 8.85546875 4.1640625 C19.69321672 10.70614066 19.69321672 10.70614066 32 11 C32.99 10.67 33.98 10.34 35 10 C34.67 11.65 34.34 13.3 34 15 C32.79537109 14.76023437 32.79537109 14.76023437 31.56640625 14.515625 C28.84645964 14.12237971 26.38096806 13.91395935 23.65234375 13.859375 C22.88212891 13.84003906 22.11191406 13.82070313 21.31835938 13.80078125 C19.72747095 13.76684926 18.13617001 13.74869171 16.54492188 13.74609375 C12.28952631 13.61054888 10.52343016 13.42626223 7.1171875 10.65234375 C6.41851562 9.77707031 5.71984375 8.90179688 5 8 C4.47792969 7.42894531 3.95585937 6.85789062 3.41796875 6.26953125 C0 2.22222222 0 2.22222222 0 0 Z " fill="#72C377" transform="translate(433,320)"/>
<path d="M0 0 C0 3 0 3 -1.75 5.04296875 C-2.4925 5.75066406 -3.235 6.45835938 -4 7.1875 C-4.7425 7.90292969 -5.485 8.61835938 -6.25 9.35546875 C-7.11625 10.16951172 -7.11625 10.16951172 -8 11 C-8.66 10.67 -9.32 10.34 -10 10 C-8.7121669 8.51749445 -7.41960936 7.03909182 -6.125 5.5625 C-5.40570313 4.73878906 -4.68640625 3.91507812 -3.9453125 3.06640625 C-2 1 -2 1 0 0 Z " fill="#5441BE" transform="translate(147,120)"/>
<path d="M0 0 C0.33 0 0.66 0 1 0 C1.4375 3.125 1.4375 3.125 1 7 C-1.06581634 9.38682039 -3.41608882 11.20049043 -6 13 C-4.75023244 9.34683329 -4.32901247 8.21934164 -1 6 C-0.26656572 2.93443402 -0.26656572 2.93443402 0 0 Z " fill="#B6B158" transform="translate(573,259)"/>
<path d="M0 0 C3.125 -0.1875 3.125 -0.1875 6 0 C5.401875 0.268125 4.80375 0.53625 4.1875 0.8125 C0.68911463 2.71162349 -0.73345454 4.20036361 -2 8 C-2.66 8 -3.32 8 -4 8 C-2.87548273 5.0280615 -1.77706209 2.66559313 0 0 Z " fill="#FFE195" transform="translate(162,87)"/>
</svg>
