<?xml version="1.0" encoding="UTF-8"?>
<svg version="1.1" xmlns="http://www.w3.org/2000/svg" width="743" height="672">
<path d="M0 0 C1.33553925 0.00323273 1.33553925 0.00323273 2.69805908 0.00653076 C44.84456802 0.16930219 86.11924159 9.48726223 123.9375 28.3125 C124.65615234 28.66634766 125.37480469 29.02019531 126.11523438 29.38476562 C148.45580257 40.48403066 169.04548628 54.54844496 187.1640625 71.71484375 C189.34685751 73.7592926 191.55809112 75.71925728 193.82421875 77.66796875 C205.5181447 87.86023825 215.35032928 99.85846332 224.48681641 112.33984375 C225.80923848 114.13808851 227.15527974 115.91487483 228.51171875 117.6875 C262.74782122 163.10566546 279.14996713 221.62101268 279.1875 277.9375 C279.18851212 279.30393143 279.18851212 279.30393143 279.18954468 280.69796753 C279.1722621 295.42353377 278.49789755 309.7817399 275.9375 324.3125 C275.68806641 325.7680127 275.68806641 325.7680127 275.43359375 327.25292969 C267.27295252 373.51167563 247.68631446 415.40426242 218.9375 452.3125 C218.20144531 453.26382812 217.46539063 454.21515625 216.70703125 455.1953125 C174.47205246 508.2861864 112.40825392 542.74717523 45.9375 554.3125 C45.00405762 554.47766113 44.07061523 554.64282227 43.10888672 554.81298828 C14.61022586 559.61825507 -16.62510891 559.32332021 -45.0625 554.3125 C-46.5180127 554.06306641 -46.5180127 554.06306641 -48.00292969 553.80859375 C-99.15069713 544.78546588 -148.44915939 521.76147586 -186.2890625 485.91015625 C-188.47185751 483.8657074 -190.68309112 481.90574272 -192.94921875 479.95703125 C-204.6431447 469.76476175 -214.47532928 457.76653668 -223.61181641 445.28515625 C-224.93423848 443.48691149 -226.28027974 441.71012517 -227.63671875 439.9375 C-251.76401753 407.92983647 -266.99026803 368.29842025 -274.3125 329.125 C-274.46372314 328.31973877 -274.61494629 327.51447754 -274.77075195 326.68481445 C-277.51769746 310.94300194 -278.44522084 295.20665286 -278.375 279.25 C-278.37176727 277.91446075 -278.37176727 277.91446075 -278.36846924 276.55194092 C-278.20569781 234.40543198 -268.88773777 193.13075841 -250.0625 155.3125 C-249.53172852 154.23452148 -249.53172852 154.23452148 -248.99023438 153.13476562 C-237.47989824 129.96679472 -222.7224224 109.18157024 -205.0625 90.3125 C-203.8480215 88.92201012 -202.63920736 87.52654185 -201.4375 86.125 C-195.49089054 79.30102193 -188.98732102 73.13021797 -182.0625 67.3125 C-181.52657227 66.85746094 -180.99064453 66.40242188 -180.43847656 65.93359375 C-143.07120429 34.32601461 -97.97993658 13.05419647 -49.875 4.0625 C-49.06973877 3.91127686 -48.26447754 3.76005371 -47.43481445 3.60424805 C-31.69300194 0.85730254 -15.95665286 -0.07022084 0 0 Z " fill="#03A7E7" transform="translate(373.0625,83.6875)"/>
<path d="M0 0 C1.33553925 0.00323273 1.33553925 0.00323273 2.69805908 0.00653076 C44.84456802 0.16930219 86.11924159 9.48726223 123.9375 28.3125 C124.65615234 28.66634766 125.37480469 29.02019531 126.11523438 29.38476562 C148.45580257 40.48403066 169.04548628 54.54844496 187.1640625 71.71484375 C189.34685751 73.7592926 191.55809112 75.71925728 193.82421875 77.66796875 C205.5181447 87.86023825 215.35032928 99.85846332 224.48681641 112.33984375 C225.80923848 114.13808851 227.15527974 115.91487483 228.51171875 117.6875 C263.05888302 163.51832506 279.23869295 221.58048755 277.9375 278.3125 C257.8075 278.3125 237.6775 278.3125 216.9375 278.3125 C216.6075 271.7125 216.2775 265.1125 215.9375 258.3125 C215.45640433 253.95303308 214.94518205 249.69320403 214.25 245.375 C213.98944824 243.73688354 213.98944824 243.73688354 213.72363281 242.06567383 C208.28292414 209.67365568 195.04455638 178.93517163 175.9375 152.3125 C175.504375 151.70825195 175.07125 151.10400391 174.625 150.48144531 C168.35657642 141.83787686 161.3155099 134.01140921 153.9375 126.3125 C153.22722656 125.56097656 152.51695312 124.80945313 151.78515625 124.03515625 C119.50907836 90.70301038 72.89519861 69.21377537 26.9375 64.3125 C26.23012695 64.22258789 25.52275391 64.13267578 24.79394531 64.04003906 C-11.10074036 59.81093773 -47.66416766 64.71272912 -81.0625 78.3125 C-82.03316406 78.67601562 -83.00382813 79.03953125 -84.00390625 79.4140625 C-109.31819325 89.20178404 -131.49729221 105.82062904 -151.0625 124.3125 C-152.34833984 125.51712891 -152.34833984 125.51712891 -153.66015625 126.74609375 C-160.54128463 133.38730957 -166.31958002 140.69688873 -172.0625 148.3125 C-173.12984375 149.7046875 -173.12984375 149.7046875 -174.21875 151.125 C-192.44167537 175.42223383 -204.5872715 203.74553559 -211.0625 233.3125 C-211.27422852 234.26656738 -211.48595703 235.22063477 -211.70410156 236.20361328 C-222.01627293 284.63486503 -213.65255051 337.98981778 -190.0625 381.3125 C-189.44890625 382.46621094 -188.8353125 383.61992187 -188.203125 384.80859375 C-173.74077792 411.13365114 -153.30370814 434.58520411 -129.0625 452.3125 C-128.5173877 452.71307617 -127.97227539 453.11365234 -127.41064453 453.52636719 C-119.32131011 459.42144839 -110.87016456 464.57732282 -102.0625 469.3125 C-101.45599609 469.6410498 -100.84949219 469.96959961 -100.22460938 470.30810547 C-54.84797516 494.64756189 -1.1533916 500.92180076 48.9375 489.3125 C50.36449219 489.00892578 50.36449219 489.00892578 51.8203125 488.69921875 C83.05157416 481.60911339 113.98241122 466.55434474 137.9375 445.3125 C139.78684124 443.82730471 141.64101608 442.34810788 143.5 440.875 C153.11320234 433.00462283 161.29136786 424.07295389 168.9375 414.3125 C169.75089844 413.30445313 170.56429688 412.29640625 171.40234375 411.2578125 C177.70477687 403.37003009 182.98475638 395.10144767 187.9375 386.3125 C188.31261719 385.65797852 188.68773437 385.00345703 189.07421875 384.32910156 C207.59627248 351.82068473 214.87933161 316.35953101 216.9375 279.3125 C237.0675 279.3125 257.1975 279.3125 277.9375 279.3125 C278.62690103 309.37038494 275.17382363 336.56867399 265.9375 365.3125 C265.64004883 366.23933594 265.34259766 367.16617187 265.03613281 368.12109375 C255.22579115 398.0293786 240.1187538 426.07615757 220.34814453 450.56396484 C219.10095844 452.10988848 217.87498934 453.6728769 216.65234375 455.23828125 C174.55641412 508.34996817 112.29836585 542.76629478 45.9375 554.3125 C45.00405762 554.47766113 44.07061523 554.64282227 43.10888672 554.81298828 C14.61022586 559.61825507 -16.62510891 559.32332021 -45.0625 554.3125 C-46.5180127 554.06306641 -46.5180127 554.06306641 -48.00292969 553.80859375 C-99.15069713 544.78546588 -148.44915939 521.76147586 -186.2890625 485.91015625 C-188.47185751 483.8657074 -190.68309112 481.90574272 -192.94921875 479.95703125 C-204.6431447 469.76476175 -214.47532928 457.76653668 -223.61181641 445.28515625 C-224.93423848 443.48691149 -226.28027974 441.71012517 -227.63671875 439.9375 C-251.76401753 407.92983647 -266.99026803 368.29842025 -274.3125 329.125 C-274.46372314 328.31973877 -274.61494629 327.51447754 -274.77075195 326.68481445 C-277.51769746 310.94300194 -278.44522084 295.20665286 -278.375 279.25 C-278.37176727 277.91446075 -278.37176727 277.91446075 -278.36846924 276.55194092 C-278.20569781 234.40543198 -268.88773777 193.13075841 -250.0625 155.3125 C-249.53172852 154.23452148 -249.53172852 154.23452148 -248.99023438 153.13476562 C-237.47989824 129.96679472 -222.7224224 109.18157024 -205.0625 90.3125 C-203.8480215 88.92201012 -202.63920736 87.52654185 -201.4375 86.125 C-195.49089054 79.30102193 -188.98732102 73.13021797 -182.0625 67.3125 C-181.52657227 66.85746094 -180.99064453 66.40242188 -180.43847656 65.93359375 C-143.07120429 34.32601461 -97.97993658 13.05419647 -49.875 4.0625 C-49.06973877 3.91127686 -48.26447754 3.76005371 -47.43481445 3.60424805 C-31.69300194 0.85730254 -15.95665286 -0.07022084 0 0 Z " fill="#1A03AD" transform="translate(373.0625,83.6875)"/>
<path d="M0 0 C6.46258734 3.13875949 11.91501607 7.71559828 17.51220703 12.17285156 C21.09248742 14.97112576 24.83933014 17.53482121 28.56640625 20.1328125 C29.17484375 20.63554687 29.78328125 21.13828125 30.41015625 21.65625 C30.41015625 22.31625 30.41015625 22.97625 30.41015625 23.65625 C31.89515625 24.15125 31.89515625 24.15125 33.41015625 24.65625 C35.93019482 28.10472383 35.56916625 31.52198995 35.41015625 35.65625 C36.0546875 35.88828125 36.69921875 36.1203125 37.36328125 36.359375 C39.41015625 37.65625 39.41015625 37.65625 39.95703125 39.828125 C40.05757812 41.10429687 40.05757812 41.10429687 40.16015625 42.40625 C40.84320416 46.77649173 41.84185685 48.58103228 45.41015625 51.21875 C49.74890332 54.03415021 53.15572056 55.63109892 58.41015625 54.65625 C69.26979195 50.07982321 79.30147974 39.76393259 86.8671875 30.9609375 C94.01623371 23.42044496 106.82149671 23.51557757 116.59765625 23.21875 C120.80314086 23.15040518 122.74790196 23.21081595 126.26171875 25.57421875 C129.48802735 28.70080509 130.36378592 31.37165339 131.34765625 35.65625 C132.1120415 38.93393397 133.09466449 41.13025899 135.41015625 43.65625 C139.29334092 43.10150933 140.93058516 41.65414951 143.41015625 38.65625 C145.11581484 35.00909325 146.36031052 31.18709909 147.67773438 27.38671875 C149.54579562 22.24848165 151.3268347 18.37858225 155.41015625 14.65625 C158.671875 14.03515625 158.671875 14.03515625 162.09765625 14.21875 C163.80501953 14.28255859 163.80501953 14.28255859 165.546875 14.34765625 C168.41015625 14.65625 168.41015625 14.65625 170.41015625 15.65625 C170.81105469 15.1715625 171.21195313 14.686875 171.625 14.1875 C173.50819307 11.96695489 175.45401302 9.81274309 177.41015625 7.65625 C178.05082031 6.893125 178.69148437 6.13 179.3515625 5.34375 C183.81144987 0.60459075 187.17284953 -0.93775727 193.72265625 -1.21875 C206.64328776 -0.45795433 215.57439329 6.92638087 225.41015625 14.65625 C226.58730609 15.53466098 227.76706716 16.40958194 228.94921875 17.28125 C230.12372459 18.1562142 231.29820436 19.03121339 232.47265625 19.90625 C233.02107178 20.30618164 233.5694873 20.70611328 234.13452148 21.11816406 C237.43820212 23.61310699 239.6244913 25.90997319 241.41015625 29.65625 C241.55453125 30.831875 241.69890625 32.0075 241.84765625 33.21875 C242.04797846 36.72464548 242.04797846 36.72464548 244.47265625 38.46875 C247.68246447 42.09272702 246.65742324 45.95817728 246.41015625 50.65625 C250.04015625 50.98625 253.67015625 51.31625 257.41015625 51.65625 C257.41015625 49.67625 257.41015625 47.69625 257.41015625 45.65625 C265.71673974 42.88738884 275.56352657 44.84212051 283.40625 48.3046875 C287.76723155 50.56514238 289.9105181 53.39001081 292.41015625 57.53125 C292.82676514 58.18746338 293.24337402 58.84367676 293.67260742 59.51977539 C297.17537713 65.09682588 300.45497067 70.80780176 303.6484375 76.56640625 C305.45235588 79.7302631 307.41573825 82.7031786 309.59765625 85.6171875 C312.06245343 91.80288042 309.93426948 99.0207289 308.41015625 105.21875 C308.1886792 106.12496094 307.96720215 107.03117187 307.73901367 107.96484375 C296.12280717 153.75535739 270.54039187 195.21833411 233.41015625 224.65625 C232.40855469 225.49800781 231.40695312 226.33976563 230.375 227.20703125 C186.74579829 263.49388708 128.47804935 276.80735277 72.79052734 272.36767578 C53.89538393 270.3460067 35.10576366 265.57056691 17.41015625 258.65625 C17.59715088 257.68389404 17.78414551 256.71153809 17.97680664 255.7097168 C18.67573754 252.05391759 19.35490007 248.39466268 20.02856445 244.73413086 C20.32115028 243.15925023 20.61887876 241.58531503 20.92211914 240.01245117 C23.25514358 227.8845803 24.21525911 217.43387498 20.09765625 205.53125 C19.84693359 204.79406738 19.59621094 204.05688477 19.33789062 203.29736328 C16.79758627 196.18073259 13.64740451 189.35361202 10.41015625 182.53125 C9.66318481 180.94932861 9.66318481 180.94932861 8.90112305 179.33544922 C3.7800834 168.32344076 3.7800834 168.32344076 -5.13671875 160.5546875 C-9.1837087 158.32975864 -11.18064167 155.95670766 -13.83984375 152.28125 C-14.26007813 151.72953125 -14.6803125 151.1778125 -15.11328125 150.609375 C-17.70991727 147.13086259 -19.76074936 143.58761522 -21.58984375 139.65625 C-20.36007812 139.09357422 -20.36007812 139.09357422 -19.10546875 138.51953125 C-18.0278125 138.00777344 -16.95015625 137.49601563 -15.83984375 136.96875 C-14.23882812 136.22044922 -14.23882812 136.22044922 -12.60546875 135.45703125 C-8.81049519 133.19086181 -6.55989213 130.59634676 -4.58984375 126.65625 C-3.88542415 121.09018036 -4.42555649 116.35844859 -7.1953125 111.4453125 C-11.66734482 105.70808336 -18.83904951 103.24735559 -25.86206055 102.37353516 C-28.41711826 102.16259286 -30.96611062 102.01952494 -33.52734375 101.90625 C-34.44523682 101.86024658 -35.36312988 101.81424316 -36.30883789 101.7668457 C-43.51123295 101.49360613 -50.18324753 102.18618324 -57.2421875 103.57421875 C-61.5637615 103.68011496 -63.20825513 102.23558587 -66.58984375 99.65625 C-68.85049839 98.60143685 -68.85049839 98.60143685 -70.96484375 97.90625 C-72.16109375 97.49375 -73.35734375 97.08125 -74.58984375 96.65625 C-69.58984375 92.65625 -69.58984375 92.65625 -67.15625 91.0234375 C-63.78625383 87.91503921 -62.44671847 84.71698644 -60.71484375 80.53125 C-60.3782373 79.74661377 -60.04163086 78.96197754 -59.69482422 78.15356445 C-56.39028671 70.37358422 -53.3212699 62.49653744 -50.33251953 54.59057617 C-49.44156914 52.27006338 -48.51299967 49.96413981 -47.58984375 47.65625 C-51.21984375 47.65625 -54.84984375 47.65625 -58.58984375 47.65625 C-58.28120993 41.51250811 -55.2910293 38.07352107 -51.58984375 33.46875 C-50.99751953 32.71625977 -50.40519531 31.96376953 -49.79492188 31.18847656 C-48.60818233 29.68540199 -47.41622255 28.18643239 -46.21875 26.69189453 C-44.85892006 24.99251472 -43.51876749 23.27741319 -42.18359375 21.55859375 C-38.03902253 16.30828805 -33.58174404 11.42828547 -28.90234375 6.65625 C-28.36738281 6.10356445 -27.83242187 5.55087891 -27.28125 4.98144531 C-18.90134089 -3.38290704 -10.82872375 -3.83317655 0 0 Z " fill="#03A7E7" transform="translate(276.58984375,306.34375)"/>
<path d="M0 0 C20.13 0 40.26 0 61 0 C62.3125 16 62.3125 16 62.7043457 20.9375 C63.90221275 35.38007848 66.37694768 49.14700891 70.75 63 C71.09998047 64.11938965 71.44996094 65.2387793 71.81054688 66.39208984 C74.42425839 74.57470841 77.37792814 82.45460537 81.12451172 90.18310547 C82.01859749 92.03859524 82.87146286 93.90965351 83.72265625 95.78515625 C91.13803623 111.73374209 101.29274204 126.88122867 113 140 C113.87140625 140.9796875 114.7428125 141.959375 115.640625 142.96875 C118.38437352 146.0205787 121.18357609 149.0150721 124 152 C124.80179687 152.8559375 125.60359375 153.711875 126.4296875 154.59375 C140.34781786 169.01384572 157.41912949 180.54817127 175 190 C175.60650391 190.3285498 176.21300781 190.65709961 176.83789062 190.99560547 C222.21452484 215.33506189 275.9091084 221.60930076 326 210 C326.95132812 209.79761719 327.90265625 209.59523438 328.8828125 209.38671875 C360.11407416 202.29661339 391.04491122 187.24184474 415 166 C416.84934124 164.51480471 418.70351608 163.03560788 420.5625 161.5625 C430.17570234 153.69212283 438.35386786 144.76045389 446 135 C446.81339844 133.99195313 447.62679688 132.98390625 448.46484375 131.9453125 C454.76727687 124.05753009 460.04725638 115.78894767 465 107 C465.56267578 106.01821777 465.56267578 106.01821777 466.13671875 105.01660156 C484.65877248 72.50818473 491.94183161 37.04703101 494 0 C514.13 0 534.26 0 555 0 C555.68940103 30.05788494 552.23632363 57.25617399 543 86 C542.70254883 86.92683594 542.40509766 87.85367188 542.09863281 88.80859375 C532.28829115 118.7168786 517.1812538 146.76365757 497.41064453 171.25146484 C496.16345844 172.79738848 494.93748934 174.3603769 493.71484375 175.92578125 C451.61891412 229.03746817 389.36086585 263.45379478 323 275 C322.06655762 275.16516113 321.13311523 275.33032227 320.17138672 275.50048828 C291.67272586 280.30575507 260.43739109 280.01082021 232 275 C231.0296582 274.83371094 230.05931641 274.66742187 229.05957031 274.49609375 C177.91180287 265.47296588 128.61334061 242.44897586 90.7734375 206.59765625 C88.59064249 204.5532074 86.37940888 202.59324272 84.11328125 200.64453125 C72.4193553 190.45226175 62.58717072 178.45403668 53.45068359 165.97265625 C52.12826152 164.17441149 50.78222026 162.39762517 49.42578125 160.625 C22.95561662 125.50925286 7.73897931 82.08931656 1 39 C0.80148438 37.80117188 0.60296875 36.60234375 0.3984375 35.3671875 C-0.4028274 28.63656237 -0.10234237 21.76403647 -0.0625 15 C-0.041875 10.05 -0.02125 5.1 0 0 Z " fill="#024BAD" transform="translate(96,363)"/>
<path d="M0 0 C19.36430065 -0.34734172 37.05389923 -0.06584622 56 4 C57.0007959 4.21430664 58.0015918 4.42861328 59.03271484 4.64941406 C106.11985095 15.03594882 151.09315723 37.11528861 186.2265625 70.40234375 C188.40935751 72.4467926 190.62059112 74.40675728 192.88671875 76.35546875 C204.5806447 86.54773825 214.41282928 98.54596332 223.54931641 111.02734375 C224.87173848 112.82558851 226.21777974 114.60237483 227.57421875 116.375 C262.12138302 162.20582506 278.30119295 220.26798755 277 277 C256.87 277 236.74 277 216 277 C215.67 270.4 215.34 263.8 215 257 C214.51890433 252.64053308 214.00768205 248.38070403 213.3125 244.0625 C213.05194824 242.42438354 213.05194824 242.42438354 212.78613281 240.75317383 C207.34542414 208.36115568 194.10705638 177.62267163 175 151 C174.566875 150.39575195 174.13375 149.79150391 173.6875 149.16894531 C167.41907642 140.52537686 160.3780099 132.69890921 153 125 C152.28972656 124.24847656 151.57945312 123.49695313 150.84765625 122.72265625 C110.22561585 80.77146933 56.4323041 65.34094647 0 61 C0 40.87 0 20.74 0 0 Z " fill="#135403" transform="translate(374,85)"/>
<path d="M0 0 C20.13 0 40.26 0 61 0 C62.3125 16 62.3125 16 62.7043457 20.9375 C63.90221275 35.38007848 66.37694768 49.14700891 70.75 63 C71.09998047 64.11938965 71.44996094 65.2387793 71.81054688 66.39208984 C74.42425839 74.57470841 77.37792814 82.45460537 81.12451172 90.18310547 C82.01859749 92.03859524 82.87146286 93.90965351 83.72265625 95.78515625 C91.13803623 111.73374209 101.29274204 126.88122867 113 140 C113.87140625 140.9796875 114.7428125 141.959375 115.640625 142.96875 C118.38437352 146.0205787 121.18357609 149.0150721 124 152 C124.80179687 152.8559375 125.60359375 153.711875 126.4296875 154.59375 C140.34781786 169.01384572 157.41912949 180.54817127 175 190 C175.60650391 190.3285498 176.21300781 190.65709961 176.83789062 190.99560547 C197.97729531 202.33451652 220.30353525 209.45301675 243.9375 213.25 C244.93612061 213.41338867 245.93474121 213.57677734 246.96362305 213.74511719 C257.04398484 215.25207063 266.66292357 215.48314618 277 216 C277 236.13 277 256.26 277 277 C246.94211506 277.68940103 219.74382601 274.23632363 191 265 C190.07316406 264.70254883 189.14632812 264.40509766 188.19140625 264.09863281 C152.49108994 252.38842268 119.92824134 233.0541379 92 208 C91.4023584 207.46407227 90.8047168 206.92814453 90.18896484 206.37597656 C76.46544881 193.98487504 64.49090741 180.89216957 53.49902344 166.02099609 C52.15277913 164.20597812 50.78707569 162.40805923 49.4140625 160.61328125 C22.96070796 125.48348083 7.73965735 82.09365203 1 39 C0.80148438 37.80117188 0.60296875 36.60234375 0.3984375 35.3671875 C-0.4028274 28.63656237 -0.10234237 21.76403647 -0.0625 15 C-0.041875 10.05 -0.02125 5.1 0 0 Z " fill="#135404" transform="translate(96,363)"/>
<path d="M0 0 C0.85883789 0.39147217 1.71767578 0.78294434 2.60253906 1.1862793 C34.66110422 16.18564984 63.60485522 39.71749773 84.6875 68.125 C85.11659668 68.69331543 85.54569336 69.26163086 85.98779297 69.84716797 C92.75053836 78.82233745 98.4920216 88.16414005 103.6875 98.125 C104.0572998 98.82657227 104.42709961 99.52814453 104.80810547 100.25097656 C120.81416178 131.01315854 127.6875 163.60734181 127.6875 198.125 C147.8175 198.125 167.9475 198.125 188.6875 198.125 C188.6875 191.525 188.6875 184.925 188.6875 178.125 C189.0175 178.125 189.3475 178.125 189.6875 178.125 C189.6875 191.655 189.6875 205.185 189.6875 219.125 C189.3575 219.125 189.0275 219.125 188.6875 219.125 C188.6875 212.525 188.6875 205.925 188.6875 199.125 C168.5575 199.125 148.4275 199.125 127.6875 199.125 C127.6875 205.065 127.6875 211.005 127.6875 217.125 C127.1057994 221.85131736 126.52803568 226.45702506 125.6875 231.125 C122.37760219 228.08845102 120.22053318 224.95323613 117.97265625 221.07421875 C117.63503769 220.49718704 117.29741913 219.92015533 116.9495697 219.32563782 C115.87719354 217.49126169 114.81301863 215.65231207 113.75 213.8125 C105.45372646 197.85282432 105.45372646 197.85282432 90.6875 189.125 C84.43275208 187.73505602 78.0650842 188.03074999 71.6875 188.125 C71.6875 190.105 71.6875 192.085 71.6875 194.125 C68.0575 193.795 64.4275 193.465 60.6875 193.125 C60.605 191.5575 60.5225 189.99 60.4375 188.375 C59.98794832 183.71660218 59.09494475 182.32593295 55.6875 179.125 C55.11237795 176.90063088 54.75413617 174.72099718 54.47265625 172.44140625 C52.62645995 166.99466791 46.6760109 163.34174001 42.25 159.875 C41.64744385 159.40263916 41.0448877 158.93027832 40.42407227 158.44360352 C36.11581237 155.11741038 31.69742352 152.01418615 27.125 149.0625 C26.55402588 148.69286133 25.98305176 148.32322266 25.39477539 147.94238281 C18.12999351 143.35953507 11.3052843 141.51062654 2.62548828 142.59375 C-3.26169673 144.20757144 -7.40113676 149.74687287 -11.3125 154.125 C-12.96003866 155.81208404 -14.63440618 157.46810954 -16.3125 159.125 C-16.6425 158.795 -16.9725 158.465 -17.3125 158.125 C-19.41040198 157.92018391 -21.51800472 157.81093646 -23.625 157.75 C-25.35169922 157.67652344 -25.35169922 157.67652344 -27.11328125 157.6015625 C-30.39403555 157.84515484 -30.39403555 157.84515484 -32.515625 160.0859375 C-35.2225429 164.66415952 -36.85087867 169.51860594 -38.58007812 174.53125 C-40.37447429 179.45865367 -42.14741813 182.70560214 -46.3125 186.125 C-48.625 186.9375 -48.625 186.9375 -50.3125 187.125 C-54.04286803 183.26599859 -55.16920012 179.72438406 -56.30859375 174.625 C-57.69762024 171.16594571 -59.38542848 169.42137655 -62.3125 167.125 C-72.42308645 165.25312529 -87.31585908 166.7106822 -96.296875 171.82421875 C-100.9293944 175.39687386 -104.66599787 179.5636728 -108.3984375 184.0390625 C-114.283616 190.45270601 -121.91781391 197.45066424 -130.8125 198.5625 C-135.04811934 198.03304758 -137.05976638 196.86025327 -140.3125 194.125 C-143.89111134 188.94218358 -144.52050397 185.14766333 -144.5625 178.9375 C-144.583125 178.19435547 -144.60375 177.45121094 -144.625 176.68554688 C-144.66647784 170.76977055 -143.79849426 165.92327432 -139.7265625 161.33984375 C-126.74321445 152.07007341 -111.81082795 147.67203179 -96 146.5625 C-90.58080952 146.23412006 -90.58080952 146.23412006 -86.3125 143.125 C-85.33832139 137.73525093 -86.46544684 133.20439618 -88.3125 128.125 C-88.5 125.3125 -88.5 125.3125 -88.3125 123.125 C-86.45145698 121.26395698 -83.49213202 121.9076837 -81 121.875 C-68.50265396 122.01316161 -57.48350373 126.33497654 -45.8515625 130.50390625 C-45.06386475 130.78419678 -44.27616699 131.0644873 -43.46459961 131.35327148 C-41.67337568 131.9955924 -39.88855238 132.65572835 -38.10546875 133.3203125 C-29.67339046 135.7496945 -21.27659287 134.364631 -13.3125 131.125 C-13.16554688 129.80435547 -13.16554688 129.80435547 -13.015625 128.45703125 C-12.86609375 127.29558594 -12.7165625 126.13414062 -12.5625 124.9375 C-12.42328125 123.78894531 -12.2840625 122.64039063 -12.140625 121.45703125 C-11.20375436 117.6874527 -10.04498839 115.85748839 -7.3125 113.125 C-4.69624148 111.72616105 -2.1632826 111.02774782 0.6875 110.125 C0.254375 109.67769531 -0.17875 109.23039062 -0.625 108.76953125 C-5.06533213 103.94889289 -5.06533213 103.94889289 -6.0625 100.625 C-5.23829755 97.8776585 -4.29047198 96.83707601 -2.375 94.75 C-0.13444496 92.27415995 0.75932802 90.92747293 1.9375 87.6875 C1.38091252 79.75612847 -5.35691149 75.06349986 -10.9375 70.0625 C-11.49969238 69.58014893 -12.06188477 69.09779785 -12.64111328 68.60083008 C-17.39611281 64.4213616 -20.96767863 60.56769653 -21.61767578 54.078125 C-21.72995707 51.68904723 -21.84037258 49.29988127 -21.94921875 46.91064453 C-22.5654432 40.48915506 -24.70065879 34.62668801 -26.8125 28.5625 C-27.6375406 26.12441562 -28.4605425 23.68564015 -29.28125 21.24609375 C-29.82942383 19.65945923 -29.82942383 19.65945923 -30.38867188 18.04077148 C-32.02340131 12.88126471 -33.24449912 7.53059492 -32.3125 2.125 C-29.3422956 -2.18658704 -25.73153882 -3.81411894 -20.984375 -5.58984375 C-13.6489125 -6.37272206 -6.53008095 -2.98715071 0 0 Z " fill="#6FC473" transform="translate(462.3125,163.875)"/>
<path d="M0 0 C10.87883954 6.37299395 20.23400498 16.3735368 25 28 C27.06370887 31.76646486 28.86387697 34.46267994 33 36 C35.60122413 36.02853647 35.60122413 36.02853647 38.25 35.625 C39.14203125 35.51414062 40.0340625 35.40328125 40.953125 35.2890625 C41.62859375 35.19367188 42.3040625 35.09828125 43 35 C44.4918264 38.97525253 45.98259257 42.9508544 47.46484375 46.9296875 C51.79212202 59.83512114 51.79212202 59.83512114 57.875 71.875 C58.24625 72.57625 58.6175 73.2775 59 74 C58.375 76 58.375 76 57 78 C55.99490786 79.66360078 54.99433908 81.32994983 54 83 C55.16015625 83.41958984 55.16015625 83.41958984 56.34375 83.84765625 C63.81303703 86.72259222 70.8373342 89.91933043 75.2109375 96.9453125 C76.65968853 100.7178028 76.08712772 104.17563998 75 108 C70.74170773 115.64971789 62.75442918 119.36625208 54.6875 121.8125 C38.23417541 125.49922446 20.52193273 123.76523031 6 115 C5.34 114.34 4.68 113.68 4 113 C3.6596875 114.19326904 3.319375 115.38653809 2.96875 116.6159668 C1.31504665 122.41137338 -0.34183629 128.20586814 -2 134 C-2.3103418 135.08444397 -2.62068359 136.16888794 -2.94042969 137.28619385 C-4.93799357 144.26125014 -6.94459708 151.23364111 -8.95898438 158.20385742 C-9.65537914 160.6178844 -10.34937396 163.03260496 -11.04101562 165.44799805 C-26.94407977 220.96271985 -26.94407977 220.96271985 -42 231 C-49.82082853 232.02373098 -57.2328934 231.18415227 -64 227 C-69.53697437 222.17184053 -72.65624122 217.29698479 -73.25 209.875 C-73.98527705 206.07606859 -75.08117067 203.7013352 -76.875 200.3125 C-79.99359731 194.35949411 -81.6761355 188.56217729 -83 182 C-83.18820312 181.19046875 -83.37640625 180.3809375 -83.5703125 179.546875 C-84.07517732 176.5544035 -84.09583063 173.72058718 -84.0625 170.6875 C-84.05347656 169.61886719 -84.04445313 168.55023438 -84.03515625 167.44921875 C-84.02355469 166.64097656 -84.01195312 165.83273437 -84 165 C-82.845 164.67 -81.69 164.34 -80.5 164 C-57.50678676 156.27515076 -39.50065733 141.59034476 -28.46484375 119.99609375 C-23.31529895 108.42142884 -21.14419949 96.58619436 -20 84 C-60.59 84 -101.18 84 -143 84 C-141.74207433 72.67866895 -138.25778188 62.77856378 -134 52.3125 C-133.54625 51.19488281 -133.0925 50.07726562 -132.625 48.92578125 C-127.97187665 40.54792214 -116.73880412 37.16940983 -108.125 34.125 C-96.53542088 31.0797884 -83.49925159 33.23581264 -71.76220703 34.59912109 C-69.34393694 34.87858982 -66.92421705 35.14120111 -64.50390625 35.40234375 C-62.94780576 35.57714046 -61.39181149 35.75288599 -59.8359375 35.9296875 C-59.12134369 36.00686005 -58.40674988 36.08403259 -57.67050171 36.1635437 C-53.80699175 36.62312553 -50.55247677 37.42681796 -47 39 C-43.74287211 39.43159822 -41.08333437 39.15359234 -38 38 C-34.36508446 34.74810242 -31.97901139 30.64617058 -29.50390625 26.484375 C-24.0719424 17.43561727 -12.07015464 -1.68982165 0 0 Z " fill="#6FC473" transform="translate(476,326)"/>
<path d="M0 0 C1.07314453 -0.02449219 2.14628906 -0.04898437 3.25195312 -0.07421875 C10.73462376 -0.10137908 17.05636874 1.05482654 23.8125 4.375 C24.4725 5.035 25.1325 5.695 25.8125 6.375 C28.93071137 6.1203194 28.93071137 6.1203194 32.625 5.4375 C47.18674335 3.2910623 64.9073891 2.63027445 77.3125 11.6875 C81.31016157 15.98498619 82.94718912 20.12548476 83.25 25.9375 C83.05009656 30.47377032 81.92819591 32.95533376 78.8125 36.375 C74.72159115 39.50510824 70.45137436 42.13990599 65.8125 44.375 C67.22685782 46.43911622 68.64389852 48.50130317 70.0625 50.5625 C70.45824219 51.14064453 70.85398437 51.71878906 71.26171875 52.31445312 C75.91616639 59.48802227 75.91616639 59.48802227 82.625 64.5 C95.63099117 72.40419353 102.67576323 95.27114657 107.375 109 C107.61420166 109.68457275 107.85340332 110.36914551 108.09985352 111.07446289 C111.70973441 122.26253347 110.51579074 132.51587653 108.4375 143.875 C108.19928444 145.24457719 107.96229762 146.61436869 107.7265625 147.984375 C106.0078125 157.7890625 106.0078125 157.7890625 104.8125 161.375 C99.74139017 160.82634824 95.716209 159.08465862 91.25 156.75 C90.54746094 156.3888208 89.84492188 156.0276416 89.12109375 155.65551758 C87.6891986 154.91671026 86.25932126 154.17397839 84.83154297 153.42724609 C83.04264451 152.4949423 81.24276898 151.58376826 79.44140625 150.67578125 C66.19251069 143.84457792 54.06796426 135.12037077 42.8125 125.375 C41.99652344 124.66988281 41.18054688 123.96476563 40.33984375 123.23828125 C8.46407975 95.10072095 -13.16745366 59.99694001 -25.6875 19.5 C-25.9551416 18.64954102 -26.2227832 17.79908203 -26.49853516 16.92285156 C-26.73620605 16.12588867 -26.97387695 15.32892578 -27.21875 14.5078125 C-27.53682617 13.45424561 -27.53682617 13.45424561 -27.86132812 12.37939453 C-28.24072584 10.04791603 -28.00912617 8.58102624 -27.1875 6.375 C-25.33203125 5.1796875 -25.33203125 5.1796875 -23 4.25 C-22.24332031 3.93804687 -21.48664063 3.62609375 -20.70703125 3.3046875 C-19.45986328 2.84449219 -19.45986328 2.84449219 -18.1875 2.375 C-17.34960938 2.0140625 -16.51171875 1.653125 -15.6484375 1.28125 C-10.4460039 -0.08101252 -5.35573042 0.00631945 0 0 Z " fill="#6FC473" transform="translate(190.1875,402.625)"/>
<path d="M0 0 C54.45 0 108.9 0 165 0 C165 7.54822494 164.93610652 13.18553587 163 20.1875 C162.66995972 21.40070923 162.66995972 21.40070923 162.33325195 22.63842773 C158.71043537 35.18990858 152.85674089 46.34733784 144 56 C143.33613281 56.75539063 142.67226563 57.51078125 141.98828125 58.2890625 C127.76629166 73.58887385 108.00034149 82.42559418 87.37890625 83.24609375 C64.85361601 83.86124653 44.893615 78.54097461 28 63 C27.17113281 62.26265625 26.34226562 61.5253125 25.48828125 60.765625 C11.72697884 47.86835536 2.46303169 29.7536097 0 11 C0 7.37 0 3.74 0 0 Z " fill="#000101" transform="translate(291,410)"/>
<path d="M0 0 C10.87976073 5.88173483 20.36085746 16.68298859 25 28 C27.06370887 31.76646486 28.86387697 34.46267994 33 36 C35.60122413 36.02853647 35.60122413 36.02853647 38.25 35.625 C39.14203125 35.51414062 40.0340625 35.40328125 40.953125 35.2890625 C41.62859375 35.19367188 42.3040625 35.09828125 43 35 C44.4918264 38.97525253 45.98259257 42.9508544 47.46484375 46.9296875 C51.79212202 59.83512114 51.79212202 59.83512114 57.875 71.875 C58.24625 72.57625 58.6175 73.2775 59 74 C58.375 76 58.375 76 57 78 C55.99490786 79.66360078 54.99433908 81.32994983 54 83 C55.16015625 83.41958984 55.16015625 83.41958984 56.34375 83.84765625 C63.81303703 86.72259222 70.8373342 89.91933043 75.2109375 96.9453125 C76.65968853 100.7178028 76.08712772 104.17563998 75 108 C70.74170773 115.64971789 62.75442918 119.36625208 54.6875 121.8125 C38.76473642 125.38034075 22.53729549 123.5255672 7.9609375 116.37890625 C5.731195 114.81097975 4.99019057 113.50741807 4 111 C3.34 111 2.68 111 2 111 C-0.45719209 106.68278202 -0.59844091 102.87425788 0 98 C1.5 94.9375 1.5 94.9375 3 93 C0.50799412 90.18294988 -2.05355919 88.34211499 -5.25 86.4375 C-11.16070402 82.61119988 -16.61675043 76.4955611 -18.71875 69.6640625 C-18.8115625 69.11492187 -18.904375 68.56578125 -19 68 C-19.66 68 -20.32 68 -21 68 C-21.17015625 67.42032471 -21.3403125 66.84064941 -21.515625 66.2434082 C-22.31349647 63.5895837 -23.15608253 60.95202543 -24 58.3125 C-24.26683594 57.40048828 -24.53367187 56.48847656 -24.80859375 55.54882812 C-26.71545497 49.72230773 -28.59065403 46.77603724 -34.04882812 43.859375 C-36.6530097 42.71238812 -39.25629716 41.75451828 -42 41 C-41 39 -41 39 -38.7265625 37.8046875 C-35.25508832 35.50694957 -33.50720635 32.59930134 -31.375 29.125 C-11.62455142 -1.67731921 -11.62455142 -1.67731921 0 0 Z " fill="#6FC473" transform="translate(476,326)"/>
<path d="M0 0 C7.47721474 -0.40296367 14.62523173 0.22183392 22 1.375 C22.8247583 1.50108643 23.6495166 1.62717285 24.49926758 1.75708008 C33.66716938 3.2673202 33.66716938 3.2673202 36.25 6.625 C38.03266749 12.27011371 37.4226005 16.7284946 35.125 22.0625 C31.99224637 27.84128 27.51826133 30.67100431 22 34 C16.80880389 37.32958234 12.23523955 40.50807927 8 45 C7.01 45.495 7.01 45.495 6 46 C6.928125 46.598125 7.85625 47.19625 8.8125 47.8125 C11.20254718 49.45272845 13.08470253 50.8718917 15 53 C15.886875 52.505 16.77375 52.01 17.6875 51.5 C20.87892629 50.05482583 22.57597759 49.60868315 26 50 C26.33 50.33 26.66 50.66 27 51 C26.95406458 56.55818594 25.9031653 60.28235639 23 65 C23 66.299375 23 67.59875 23 68.9375 C22.82421875 71.0234375 22.82421875 71.0234375 22 73 C19.37773301 74.83156638 16.68468483 76.12227919 13.7890625 77.4765625 C10.94099081 79.03223191 9.59324346 80.3591412 7.6875 82.9375 C6.3203125 84.7109375 6.3203125 84.7109375 5 86 C2.0625 86.0625 2.0625 86.0625 -1 85 C-8.14842441 82.74957009 -13.69229643 81.61415801 -20.5 85 C-21.67546556 85.65102708 -22.84561699 86.31228246 -24 87 C-24.20625 85.7625 -24.4125 84.525 -24.625 83.25 C-25.49999711 79.7438059 -25.92355061 79.06625614 -28.8125 76.5625 C-31.81482876 74.85679519 -31.81482876 74.85679519 -34.6875 74.75 C-35.8321875 74.37875 -35.8321875 74.37875 -37 74 C-37.96986741 72.03760472 -38.59978418 70.0669123 -39.24609375 67.9765625 C-39.91026672 65.78973894 -39.91026672 65.78973894 -42.125 64.0625 C-44.66531656 61.26815178 -44.83848244 58.98315537 -45.12109375 55.28515625 C-45 53 -45 53 -43.5 49.625 C-41.71314536 45.30676796 -42.10021264 42.85707187 -42.65625 38.3203125 C-43.08200058 34.20794898 -43.24038575 30.13192788 -43.3125 26 C-43.34190674 25.25766113 -43.37131348 24.51532227 -43.40161133 23.75048828 C-43.43765311 20.58099547 -43.43563763 18.54535378 -41.41796875 16.01953125 C-38.17827832 14.65352285 -35.51579303 14.69830674 -32 14.6875 C-25.15117779 14.44955364 -18.7887373 13.26218842 -12.1875 11.4375 C-11.32189453 11.22246826 -10.45628906 11.00743652 -9.56445312 10.78588867 C-4.91270027 9.45823536 -4.91270027 9.45823536 -1.76416016 6.00048828 C-0.78970058 3.56121795 -0.78970058 3.56121795 0 0 Z " fill="#6FC473" transform="translate(276,222)"/>
<path d="M0 0 C-4.70519544 7.80071876 -10.53392635 14.51238934 -16.53662109 21.31933594 C-17.85951143 22.83865144 -19.14505332 24.39029018 -20.42578125 25.9453125 C-24.74831021 31.08935229 -28.47475893 34.07135039 -34.5859375 36.82421875 C-41.4989773 40.19124946 -45.06073674 44.75475939 -48.4375 51.5625 C-52.03772996 58.75468353 -56.401667 62.46722233 -64 65 C-75.37909651 65.78788296 -84.88940496 65.42061044 -94.0625 57.875 C-96.39205861 55.75921265 -97.8376546 54.30674742 -98.23828125 51.08203125 C-98.26277344 50.33308594 -98.28726563 49.58414063 -98.3125 48.8125 C-98.34988281 48.07644531 -98.38726562 47.34039062 -98.42578125 46.58203125 C-97.68888346 42.11332079 -95.7872771 38.51462817 -92.34838867 35.6003418 C-90.42049027 34.28839512 -88.45912525 33.0996262 -86.4375 31.9375 C-85.36677246 31.29699707 -85.36677246 31.29699707 -84.27441406 30.64355469 C-82.19423487 29.40818487 -80.10129172 28.19903042 -78 27 C-76.98550781 26.41863281 -75.97101563 25.83726562 -74.92578125 25.23828125 C-72.30512547 23.78066103 -69.6609682 22.38242492 -67 21 C-66.14148438 20.53335938 -65.28296875 20.06671875 -64.3984375 19.5859375 C-45.98409783 9.88598956 -21.14437572 -0.6218934 0 0 Z " fill="#6EC374" transform="translate(342,148)"/>
<path d="M0 0 C2.13300923 3.19951385 2.39841352 4.70348858 2.81640625 8.4453125 C2.94080078 9.52296875 3.06519531 10.600625 3.19335938 11.7109375 C3.31517578 12.83757812 3.43699219 13.96421875 3.5625 15.125 C3.68818359 16.2284375 3.81386719 17.331875 3.94335938 18.46875 C4.18990401 20.64247335 4.4268965 22.81730369 4.65380859 24.99316406 C4.86705663 26.84532405 5.12172327 28.69391639 5.44384766 30.53027344 C6.43532087 36.45874871 5.22880491 39.85964064 2.25 45 C1.4969878 46.39220638 0.74823671 47.78672649 0.00390625 49.18359375 C-0.3504248 49.84214355 -0.70475586 50.50069336 -1.06982422 51.17919922 C-2.83866629 54.64167276 -3.88874491 58.29070714 -5 62 C-6.97976447 67.85729134 -9.53850841 71.12695579 -15.04296875 74.10546875 C-17.94490447 76.91472788 -18.18473408 80.23672589 -18.875 84.0625 C-22.4918254 101.0941022 -34.79495735 113.37905478 -49 123 C-49.66 123 -50.32 123 -51 123 C-51.32973393 115.27495908 -50.3812548 108.12983845 -48.875 100.5625 C-48.65126709 99.42449951 -48.42753418 98.28649902 -48.19702148 97.11401367 C-46.16378115 87.14952513 -43.46897688 77.55478352 -40 68 C-39.64252686 67.01 -39.64252686 67.01 -39.27783203 66 C-30.28090387 41.49772756 -16.68487378 19.96777718 0 0 Z " fill="#6EC474" transform="translate(209,221)"/>
<path d="M0 0 C7.64232372 3.58988101 14.17449445 8.76482034 20.78125 13.95703125 C21.95839984 14.83544223 23.13816091 15.71036319 24.3203125 16.58203125 C25.49481834 17.45699545 26.66929811 18.33199464 27.84375 19.20703125 C28.39216553 19.60696289 28.94058105 20.00689453 29.50561523 20.41894531 C32.80929587 22.91388824 34.99558505 25.21075444 36.78125 28.95703125 C36.9978125 30.72046875 36.9978125 30.72046875 37.21875 32.51953125 C37.4267097 36.02498722 37.4267097 36.02498722 39.84375 37.83203125 C42.57707596 40.82987263 42.09889207 43.20924264 41.921875 47.12890625 C41.87546875 47.7321875 41.8290625 48.33546875 41.78125 48.95703125 C40.13125 48.95703125 38.48125 48.95703125 36.78125 48.95703125 C37.27625 51.43203125 37.27625 51.43203125 37.78125 53.95703125 C34.35411781 56.06603568 31.77253926 56.43598596 27.78125 55.95703125 C20.11228453 52.69364169 17.19426978 44.50853562 13.4765625 37.49609375 C11.14879032 34.00979901 8.32003402 31.20590979 5.34375 28.26953125 C4.77076172 27.68880859 4.19777344 27.10808594 3.60742188 26.50976562 C3.04732422 25.95224609 2.48722656 25.39472656 1.91015625 24.8203125 C1.40556885 24.31798096 0.90098145 23.81564941 0.38110352 23.2980957 C-2.35720552 21.00272999 -4.62552988 20.02922206 -8.171875 19.59765625 C-16.64894404 20.59751568 -23.68208874 31.45502421 -28.7578125 37.68359375 C-31.868524 41.71489767 -34.60265107 45.98727114 -37.26391602 50.32495117 C-41.65790206 57.4689009 -41.65790206 57.4689009 -45.3046875 58.609375 C-51.51390075 59.38287767 -51.51390075 59.38287767 -55.21875 57.14453125 C-57.66703426 54.46672035 -58.15273481 53.46720687 -58.62109375 49.84765625 C-58.08056394 44.62078546 -55.89696676 41.81835774 -52.78125 37.70703125 C-52.23210937 36.95905273 -51.68296875 36.21107422 -51.1171875 35.44042969 C-43.52773394 25.18405276 -35.35271652 15.53809375 -26.51708984 6.33984375 C-25.44493858 5.19793612 -24.42724771 4.00515922 -23.42578125 2.80078125 C-17.53461258 -3.62044116 -7.66685892 -2.4842856 0 0 Z " fill="#000201" transform="translate(481.21875,307.04296875)"/>
<path d="M0 0 C3.99766157 4.29748619 5.63468912 8.43798476 5.9375 14.25 C5.73759656 18.78627032 4.61569591 21.26783376 1.5 24.6875 C-11.16325751 35.21012539 -27.73547672 35.84415335 -43.5 34.6875 C-53.12922969 32.99221308 -60.93533312 29.02393354 -68 22.3125 C-70.01962202 18.77816146 -70.67664178 15.75026083 -70.5 11.6875 C-68.69784873 5.80047252 -64.34249599 2.22072855 -59.5 -1.3125 C-43.05699886 -9.82762559 -15.32881349 -11.19188069 0 0 Z " fill="#F097AF" transform="translate(267.5,414.3125)"/>
<path d="M0 0 C6.46258734 3.13875949 11.91501607 7.71559828 17.51220703 12.17285156 C21.09248742 14.97112576 24.83933014 17.53482121 28.56640625 20.1328125 C29.17484375 20.63554687 29.78328125 21.13828125 30.41015625 21.65625 C30.41015625 22.31625 30.41015625 22.97625 30.41015625 23.65625 C31.89515625 24.15125 31.89515625 24.15125 33.41015625 24.65625 C35.93019482 28.10472383 35.56916625 31.52198995 35.41015625 35.65625 C36.04953125 35.945 36.68890625 36.23375 37.34765625 36.53125 C39.41015625 37.65625 39.41015625 37.65625 40.41015625 39.65625 C41.02550486 44.62299233 41.19256459 48.41954005 38.47265625 52.71875 C34.43376319 55.27396806 31.16947829 56.02820412 26.41015625 55.65625 C18.72102299 52.73437936 15.75186771 44.07325066 12.10546875 37.1953125 C9.77769657 33.70901776 6.94894027 30.90512854 3.97265625 27.96875 C3.39966797 27.38802734 2.82667969 26.80730469 2.23632812 26.20898438 C1.67623047 25.65146484 1.11613281 25.09394531 0.5390625 24.51953125 C0.0344751 24.01719971 -0.4701123 23.51486816 -0.98999023 22.99731445 C-3.60105853 20.80860727 -6.01301304 19.7742381 -9.33984375 19.09375 C-14.38218641 19.96646315 -17.02849413 23.15065537 -20.58984375 26.65625 C-21.15574219 27.14996094 -21.72164062 27.64367187 -22.3046875 28.15234375 C-27.64643686 32.99134023 -31.25303884 38.98499115 -35.16796875 44.96875 C-43.19170604 57.22409834 -43.19170604 57.22409834 -48.02734375 58.71875 C-48.87296875 58.698125 -49.71859375 58.6775 -50.58984375 58.65625 C-50.01717003 54.55208836 -49.16295835 51.5890365 -47.58984375 47.65625 C-51.21984375 47.65625 -54.84984375 47.65625 -58.58984375 47.65625 C-58.28120993 41.51250811 -55.2910293 38.07352107 -51.58984375 33.46875 C-50.99751953 32.71625977 -50.40519531 31.96376953 -49.79492188 31.18847656 C-48.60818233 29.68540199 -47.41622255 28.18643239 -46.21875 26.69189453 C-44.85892006 24.99251472 -43.51876749 23.27741319 -42.18359375 21.55859375 C-38.03902253 16.30828805 -33.58174404 11.42828547 -28.90234375 6.65625 C-28.36738281 6.10356445 -27.83242187 5.55087891 -27.28125 4.98144531 C-18.90134089 -3.38290704 -10.82872375 -3.83317655 0 0 Z " fill="#000203" transform="translate(276.58984375,306.34375)"/>
<path d="M0 0 C0.79148437 0.28875 1.58296875 0.5775 2.3984375 0.875 C7.88178117 3.22800571 11.69076523 7.0744049 15 12 C16.66448624 16.7976368 16.02706642 20.37828857 14 25 C7.6699317 32.71838615 -2.24913893 36.84591258 -12 38 C-26.45063798 38.82228749 -41.6634281 38.67492008 -54 30 C-55.2734375 27.83984375 -55.2734375 27.83984375 -56 26 C-56.66 26 -57.32 26 -58 26 C-60.44641932 21.67473064 -60.71070633 17.88187563 -60 13 C-57.25675436 7.97071632 -54.80657073 5.15694639 -49.5 3.125 C-48.16775391 2.60873047 -48.16775391 2.60873047 -46.80859375 2.08203125 C-45.88175781 1.72496094 -44.95492188 1.36789062 -44 1 C-42.18658783 0.27310483 -40.3740456 -0.45596543 -38.5625 -1.1875 C-25.80007486 -6.32934384 -12.69142666 -4.72239131 0 0 Z " fill="#F097B0" transform="translate(536,411)"/>
<path d="M0 0 C8.64850314 0.62900236 17.14050527 1.86824665 25.6875 3.3125 C26.95400391 3.51294922 28.22050781 3.71339844 29.52539062 3.91992188 C39.53858341 5.61059687 47.00787363 7.73832108 53.5859375 15.86328125 C57.09507429 21.16576143 57.46881146 26.57949482 56.53125 32.76953125 C54.8294537 39.91457308 51.15199077 44.9839395 45 49 C38.73244315 52.07068221 31.29764113 52.09874967 24.5859375 50.3828125 C17.72123564 47.38778814 13.87835852 41.47479291 11.0625 34.75 C10.35440943 32.8408444 9.67154142 30.92231617 9 29 C8.42320243 27.36327232 7.84637688 25.72655449 7.26953125 24.08984375 C5.75062469 19.76852511 4.25198242 15.44042481 2.75683594 11.11083984 C2.15585201 9.43467629 1.48426378 7.78386072 0.7890625 6.14453125 C0 4 0 4 0 0 Z " fill="#024DAD" transform="translate(518,356)"/>
<path d="M0 0 C0.495 1.485 0.495 1.485 1 3 C6.94 2.505 6.94 2.505 13 2 C10.66653333 9.40411396 7.83231527 16.56981795 4.86645508 23.73950195 C4.06089421 25.69139087 3.26567107 27.64729257 2.47070312 29.60351562 C1.95114654 30.86484125 1.430985 32.12591789 0.91015625 33.38671875 C0.44746338 34.51295654 -0.01522949 35.63919434 -0.49194336 36.79956055 C-3.82547924 43.87408245 -7.71308131 48.93126868 -15 52 C-23.63925663 53.28491967 -30.16037877 52.1023213 -37.4375 47.4375 C-37.953125 46.963125 -38.46875 46.48875 -39 46 C-39 45.34 -39 44.68 -39 44 C-39.99 43.67 -40.98 43.34 -42 43 C-45.47331176 36.31065883 -46.12788146 29.44037933 -45 22 C-42.0096595 15.12221685 -37.30632098 10.41596003 -30.43359375 7.47265625 C-25.82021088 5.78304151 -21.3097487 5.23634286 -16.4375 4.8125 C-15.62603516 4.73064453 -14.81457031 4.64878906 -13.97851562 4.56445312 C-9.29772005 4.11488519 -4.70123503 3.91796503 0 4 C0 2.68 0 1.36 0 0 Z " fill="#014BAD" transform="translate(217,351)"/>
<path d="M0 0 C3 2 3 2 3.50390625 4.0234375 C3.56485946 6.46969318 3.53406156 8.60757789 3 11 C0.375 12.8125 0.375 12.8125 -1.26171875 13.6640625 C-5.39278373 16.83894839 -7.34391105 22.20158844 -9 27 C-9.29491164 30.22333253 -8.76846857 32.87707454 -8 36 C-7.86980469 36.89332031 -7.73960937 37.78664063 -7.60546875 38.70703125 C-7.07113219 42.4237408 -7.07113219 42.4237408 -6 46 C-4.6827242 46.69785864 -3.3475703 47.36260176 -2 48 C-0.578125 49.99609375 -0.578125 49.99609375 0.75 52.4375 C1.26820313 53.324375 1.78640625 54.21125 2.3203125 55.125 C3.46355529 57.08180626 4.60407697 59.04020428 5.7421875 61 C9.32432091 66.58872266 11.78588958 69.50924924 18.375 71.125 C20.247368 71.43311119 22.12198681 71.7284104 24 72 C24.99 72.495 24.99 72.495 26 73 C28.16490195 73.09685088 30.33293803 73.12979438 32.5 73.125 C33.6653125 73.12757813 34.830625 73.13015625 36.03125 73.1328125 C38.92930786 73.2048431 38.92930786 73.2048431 41 72 C40.87890625 73.84375 40.87890625 73.84375 40 76 C37.33984375 77.34375 37.33984375 77.34375 33.9375 78.5 C29.94263442 79.9164013 26.12313059 81.329844 22.375 83.3125 C19 85 19 85 16 85 C14.97083216 84.03004456 13.97429295 83.02506256 13 82 C11.61548667 81.1479918 10.21842908 80.31618538 8.8125 79.5 C2.88603388 75.63955235 -2.60568189 69.53153387 -4.71875 62.6640625 C-4.8115625 62.11492187 -4.904375 61.56578125 -5 61 C-5.66 61 -6.32 61 -7 61 C-7.17015625 60.42032471 -7.3403125 59.84064941 -7.515625 59.2434082 C-8.31349647 56.5895837 -9.15608253 53.95202543 -10 51.3125 C-10.26683594 50.40048828 -10.53367187 49.48847656 -10.80859375 48.54882812 C-12.71545497 42.72230773 -14.59065403 39.77603724 -20.04882812 36.859375 C-22.6530097 35.71238812 -25.25629716 34.75451828 -28 34 C-27 32 -27 32 -24.7265625 30.8046875 C-21.25558626 28.50727916 -19.50590149 25.59981983 -17.375 22.125 C-12.33305952 14.21398526 -6.65142872 6.65142872 0 0 Z " fill="#06A7E3" transform="translate(462,333)"/>
<path d="M0 0 C-1.09747433 5.68691243 -2.59279142 11.17805353 -4.375 16.6875 C-4.97441406 18.54955078 -4.97441406 18.54955078 -5.5859375 20.44921875 C-7.3759639 24.94406406 -9.4788309 28.65779197 -13.125 31.875 C-17.44348642 33.56484251 -21.4267052 33.65960983 -26 33 C-30.44022601 30.82025268 -33.07018218 28.57062115 -35 24 C-36.0539301 19.58819957 -36.34377297 16.11726214 -35 11.75 C-29.83542866 4.6487144 -23.64278049 3.02493508 -15.375 1.6875 C-14.446875 1.51927734 -13.51875 1.35105469 -12.5625 1.17773438 C-8.31107544 0.43160327 -4.32611956 -0.0860226 0 0 Z " fill="#79BFDC" transform="translate(216,364)"/>
<path d="M0 0 C27.841612 1.08622306 27.841612 1.08622306 34.72265625 7.5625 C37.66760889 10.87669747 37.27201217 14.22235549 37.2109375 18.4609375 C36.802633 23.37571392 35.01115247 26.03940516 31.5 29.375 C26.71522236 31.59650391 22.16073516 32.30243791 17 31 C10.33546015 27.13516696 7.84106308 21.29904813 5.125 14.375 C4.73570312 13.43398438 4.34640625 12.49296875 3.9453125 11.5234375 C2.38701883 7.7142752 0.91252862 4.02043267 0 0 Z " fill="#79C0DC" transform="translate(531,367)"/>
</svg>
