<?xml version="1.0" encoding="UTF-8"?>
<svg version="1.1" xmlns="http://www.w3.org/2000/svg" width="637" height="588">
<path d="M0 0 C0.99563965 0.19867676 1.9912793 0.39735352 3.01708984 0.60205078 C38.83708509 8.01251005 72.39776987 23.07821278 101 46 C101.97324219 46.76957031 102.94648438 47.53914063 103.94921875 48.33203125 C118.87297963 60.3942202 132.93828098 74.28464441 144 90 C144.4851709 90.68916504 144.9703418 91.37833008 145.47021484 92.08837891 C173.72805017 132.64468294 189.53999382 178.49363411 189.3125 228.125 C189.31034485 228.97717102 189.3081897 229.82934204 189.30596924 230.70733643 C189.25091609 244.32328449 188.67852269 257.61219969 186 271 C185.80132324 271.99563965 185.60264648 272.9912793 185.39794922 274.01708984 C177.98748995 309.83708509 162.92178722 343.39776987 140 372 C139.23042969 372.97324219 138.46085937 373.94648438 137.66796875 374.94921875 C125.56648871 389.92159194 111.64400555 403.76195413 96 415 C94.95972656 415.76183594 93.91945313 416.52367187 92.84765625 417.30859375 C64.89622333 437.24428818 33.62721121 450.28979585 0 457 C-0.89638184 457.17934082 -1.79276367 457.35868164 -2.71630859 457.54345703 C-28.90578622 462.48125969 -58.88959537 462.22395836 -85 457 C-86.49345947 456.70198486 -86.49345947 456.70198486 -88.01708984 456.39794922 C-103.18424617 453.26016002 -117.59976243 448.67170482 -132 443 C-131.67902344 443.73347656 -131.35804688 444.46695312 -131.02734375 445.22265625 C-129.54123852 449.24022591 -129.27735958 452.77590601 -130 457 C-132.8806305 461.57511903 -135.89162093 464.19078241 -141 466 C-143.875 465.6875 -143.875 465.6875 -146 465 C-146.33 463.35 -146.66 461.7 -147 460 C-144.36 458.02 -141.72 456.04 -139 454 C-139.22517969 449.23361207 -139.22517969 449.23361207 -141.625 445.375 C-142.07875 444.92125 -142.5325 444.4675 -143 444 C-142.6875 441.3125 -142.6875 441.3125 -142 439 C-143.32 438.34 -144.64 437.68 -146 437 C-145.67 437.99 -145.34 438.98 -145 440 C-144.39885738 444.58585942 -144.21765889 447.88958036 -146.9375 451.75 C-157.09599003 459.21338043 -157.09599003 459.21338043 -161.71875 458.6953125 C-164 458 -164 458 -165 457 C-165.04063832 455.33382885 -165.042721 453.66611905 -165 452 C-163.54462432 451.16151196 -162.08559627 450.32936066 -160.625 449.5 C-159.81289062 449.0359375 -159.00078125 448.571875 -158.1640625 448.09375 C-156 447 -156 447 -154 447 C-154.11859375 446.31292969 -154.2371875 445.62585938 -154.359375 444.91796875 C-154.48828125 444.01691406 -154.6171875 443.11585938 -154.75 442.1875 C-154.95882812 440.84751953 -154.95882812 440.84751953 -155.171875 439.48046875 C-155 437 -155 437 -153.015625 435.17578125 C-152.35046875 434.78777344 -151.6853125 434.39976562 -151 434 C-151.9178125 433.48050781 -152.835625 432.96101563 -153.78125 432.42578125 C-160.27175827 428.74116691 -166.71180571 425.02444435 -173 421 C-173.40089844 422.02738281 -173.80179688 423.05476563 -174.21484375 424.11328125 C-181.91583836 443.165173 -194.22008196 454.98383844 -212.88671875 463.37109375 C-225.38747599 468.57027568 -239.25007166 468.79959997 -252.00390625 464.26171875 C-265.56811103 458.54954385 -274.09534603 450.55003007 -283 439 C-283.42152344 438.45875488 -283.84304688 437.91750977 -284.27734375 437.35986328 C-292.46511237 426.78804483 -299.28880327 415.54809527 -306 404 C-307.28250841 401.81117232 -308.56506246 399.62237139 -309.84765625 397.43359375 C-329.50067106 363.77620459 -329.50067106 363.77620459 -328 356 C-326.12511932 351.21412036 -323.36333992 347.73977158 -319 345 C-316.67434091 344.15210346 -314.41822348 343.56899376 -312 343 C-312.433125 341.82244141 -312.433125 341.82244141 -312.875 340.62109375 C-316.85659656 329.35372849 -316.85659656 329.35372849 -316 324 C-313.71068968 319.67574717 -311.2105335 316.50840294 -307 314 C-305.15210126 313.68926703 -303.29656633 313.42235545 -301.4375 313.1875 C-297.56477358 312.72680957 -297.56477358 312.72680957 -294.609375 310.46484375 C-293.70508938 308.66010423 -292.85191636 306.83004255 -292 305 C-286.11445071 300.43569647 -281.27863668 299.30085137 -274 300 C-269.71229497 301.64911732 -266.48297265 304.02922921 -263 307 C-261.71958404 304.43916808 -262.19333193 303.80095697 -263.07421875 301.1328125 C-263.3278418 300.33979736 -263.58146484 299.54678223 -263.84277344 298.72973633 C-264.1215332 297.87017334 -264.40029297 297.01061035 -264.6875 296.125 C-266.88214187 289.0765291 -268.80067155 282.05268167 -270.25 274.8125 C-270.40041748 274.0798291 -270.55083496 273.3471582 -270.70581055 272.59228516 C-273.50075335 258.06360435 -274.38016651 243.63751695 -274.3125 228.875 C-274.31034485 228.02282898 -274.3081897 227.17065796 -274.30596924 226.29266357 C-274.25091609 212.67671551 -273.67852269 199.38780031 -271 186 C-270.80132324 185.00436035 -270.60264648 184.0087207 -270.39794922 182.98291016 C-262.98748995 147.16291491 -247.92178722 113.60223013 -225 85 C-224.23042969 84.02675781 -223.46085937 83.05351562 -222.66796875 82.05078125 C-210.56648871 67.07840806 -196.64400555 53.23804587 -181 42 C-179.95972656 41.23816406 -178.91945312 40.47632813 -177.84765625 39.69140625 C-149.89622333 19.75571182 -118.62721121 6.71020415 -85 0 C-84.10361816 -0.17934082 -83.20723633 -0.35868164 -82.28369141 -0.54345703 C-56.09421378 -5.48125969 -26.11040463 -5.22395836 0 0 Z " fill="#03A7E7" transform="translate(361,60)"/>
<path d="M0 0 C0.99563965 0.19867676 1.9912793 0.39735352 3.01708984 0.60205078 C38.83708509 8.01251005 72.39776987 23.07821278 101 46 C101.97324219 46.76957031 102.94648438 47.53914063 103.94921875 48.33203125 C118.87297963 60.3942202 132.93828098 74.28464441 144 90 C144.4851709 90.68916504 144.9703418 91.37833008 145.47021484 92.08837891 C168.11393552 124.58717471 188.27752876 165.55602839 188.09765625 206.02734375 C188.09515869 207.18741943 188.09266113 208.34749512 188.09008789 209.54272461 C188.07643188 211.71813843 188.07643188 211.71813843 188.0625 213.9375 C188.041875 218.578125 188.02125 223.21875 188 228 C171.5 228 155 228 138 228 C137.62875 223.730625 137.2575 219.46125 136.875 215.0625 C132.90126114 174.40366472 117.698362 140.5515681 92 109 C91.34064453 108.15308594 91.34064453 108.15308594 90.66796875 107.2890625 C87.84871677 103.72492454 84.66695712 100.83727237 81.21875 97.91015625 C78.8555706 95.87565849 76.59191388 93.75269965 74.3125 91.625 C68.60244828 86.48943519 62.43417949 82.16170502 56 78 C55.13181641 77.43514893 55.13181641 77.43514893 54.24609375 76.85888672 C41.04296358 68.36027848 27.09294704 62.14623124 12.1875 57.25 C11.3843335 56.9804248 10.58116699 56.71084961 9.75366211 56.43310547 C-7.5426077 51.00072116 -24.76647659 49.27279966 -42.8125 49.4375 C-44.31996292 49.44388992 -44.31996292 49.44388992 -45.85787964 49.45040894 C-61.12927381 49.54032719 -75.32794524 50.45257081 -90 55 C-90.88751953 55.25700684 -91.77503906 55.51401367 -92.68945312 55.77880859 C-116.9687739 62.84653796 -138.83065528 74.43389962 -158 91 C-158.80308594 91.69351563 -159.60617188 92.38703125 -160.43359375 93.1015625 C-193.33046902 122.1493494 -215.86990444 161.99505316 -221 206 C-221.14486416 209.19968158 -221.16382712 212.39501568 -221.16796875 215.59765625 C-221.17129715 216.50897812 -221.17462555 217.42029999 -221.17805481 218.35923767 C-221.18309867 220.2830251 -221.18546392 222.2068212 -221.18530273 224.13061523 C-221.18747511 227.0292867 -221.20561912 229.92756829 -221.22460938 232.82617188 C-221.25618433 243.08461454 -220.91766783 252.89313866 -219 263 C-218.85925049 263.77786865 -218.71850098 264.5557373 -218.57348633 265.35717773 C-211.94625303 299.69755605 -193.18409575 336.35026534 -166.20703125 359.09765625 C-164.62632558 360.46014061 -163.08591577 361.86992557 -161.57421875 363.30859375 C-129.90223385 393.38524904 -86.7084456 407.201341 -43.8125 407.3125 C-43.00983704 407.31626648 -42.20717407 407.32003296 -41.38018799 407.32391357 C-24.73342602 407.36345862 -8.9800508 405.88646182 7 401 C7.67047363 400.8045459 8.34094727 400.6090918 9.03173828 400.40771484 C28.3089487 394.75695631 46.93568688 386.12805344 63 374 C63.9593042 373.27756104 63.9593042 373.27756104 64.93798828 372.54052734 C101.12540894 344.92590046 128.16890207 304.17442514 134.67626953 258.49462891 C135.94978207 248.68109111 136.96664973 238.84143114 138 229 C154.83 229 171.66 229 189 229 C189 251.2590422 189 251.2590422 187.875 259.125 C187.74375732 260.07109131 187.61251465 261.01718262 187.47729492 261.99194336 C181.51908385 302.15969543 165.42661449 340.27220007 140 372 C139.23042969 372.97324219 138.46085937 373.94648438 137.66796875 374.94921875 C125.56648871 389.92159194 111.64400555 403.76195413 96 415 C94.95972656 415.76183594 93.91945313 416.52367187 92.84765625 417.30859375 C64.89622333 437.24428818 33.62721121 450.28979585 0 457 C-0.89638184 457.17934082 -1.79276367 457.35868164 -2.71630859 457.54345703 C-28.90578622 462.48125969 -58.88959537 462.22395836 -85 457 C-86.49345947 456.70198486 -86.49345947 456.70198486 -88.01708984 456.39794922 C-103.18424617 453.26016002 -117.59976243 448.67170482 -132 443 C-131.67902344 443.73347656 -131.35804688 444.46695312 -131.02734375 445.22265625 C-129.54123852 449.24022591 -129.27735958 452.77590601 -130 457 C-132.8806305 461.57511903 -135.89162093 464.19078241 -141 466 C-143.875 465.6875 -143.875 465.6875 -146 465 C-146.33 463.35 -146.66 461.7 -147 460 C-144.36 458.02 -141.72 456.04 -139 454 C-139.22517969 449.23361207 -139.22517969 449.23361207 -141.625 445.375 C-142.07875 444.92125 -142.5325 444.4675 -143 444 C-142.6875 441.3125 -142.6875 441.3125 -142 439 C-143.32 438.34 -144.64 437.68 -146 437 C-145.67 437.99 -145.34 438.98 -145 440 C-144.39885738 444.58585942 -144.21765889 447.88958036 -146.9375 451.75 C-157.09599003 459.21338043 -157.09599003 459.21338043 -161.71875 458.6953125 C-164 458 -164 458 -165 457 C-165.04063832 455.33382885 -165.042721 453.66611905 -165 452 C-163.54462432 451.16151196 -162.08559627 450.32936066 -160.625 449.5 C-159.81289062 449.0359375 -159.00078125 448.571875 -158.1640625 448.09375 C-156 447 -156 447 -154 447 C-154.11859375 446.31292969 -154.2371875 445.62585938 -154.359375 444.91796875 C-154.48828125 444.01691406 -154.6171875 443.11585938 -154.75 442.1875 C-154.95882812 440.84751953 -154.95882812 440.84751953 -155.171875 439.48046875 C-155 437 -155 437 -153.015625 435.17578125 C-152.35046875 434.78777344 -151.6853125 434.39976562 -151 434 C-151.9178125 433.48050781 -152.835625 432.96101563 -153.78125 432.42578125 C-160.27175827 428.74116691 -166.71180571 425.02444435 -173 421 C-173.40089844 422.02738281 -173.80179688 423.05476563 -174.21484375 424.11328125 C-181.91583836 443.165173 -194.22008196 454.98383844 -212.88671875 463.37109375 C-225.38747599 468.57027568 -239.25007166 468.79959997 -252.00390625 464.26171875 C-265.56811103 458.54954385 -274.09534603 450.55003007 -283 439 C-283.42152344 438.45875488 -283.84304688 437.91750977 -284.27734375 437.35986328 C-292.46511237 426.78804483 -299.28880327 415.54809527 -306 404 C-307.28250841 401.81117232 -308.56506246 399.62237139 -309.84765625 397.43359375 C-329.50067106 363.77620459 -329.50067106 363.77620459 -328 356 C-326.12511932 351.21412036 -323.36333992 347.73977158 -319 345 C-316.67434091 344.15210346 -314.41822348 343.56899376 -312 343 C-312.433125 341.82244141 -312.433125 341.82244141 -312.875 340.62109375 C-316.85659656 329.35372849 -316.85659656 329.35372849 -316 324 C-313.71068968 319.67574717 -311.2105335 316.50840294 -307 314 C-305.15210126 313.68926703 -303.29656633 313.42235545 -301.4375 313.1875 C-297.56477358 312.72680957 -297.56477358 312.72680957 -294.609375 310.46484375 C-293.70508938 308.66010423 -292.85191636 306.83004255 -292 305 C-286.11445071 300.43569647 -281.27863668 299.30085137 -274 300 C-269.71229497 301.64911732 -266.48297265 304.02922921 -263 307 C-261.71958404 304.43916808 -262.19333193 303.80095697 -263.07421875 301.1328125 C-263.3278418 300.33979736 -263.58146484 299.54678223 -263.84277344 298.72973633 C-264.1215332 297.87017334 -264.40029297 297.01061035 -264.6875 296.125 C-266.88214187 289.0765291 -268.80067155 282.05268167 -270.25 274.8125 C-270.40041748 274.0798291 -270.55083496 273.3471582 -270.70581055 272.59228516 C-273.50075335 258.06360435 -274.38016651 243.63751695 -274.3125 228.875 C-274.31034485 228.02282898 -274.3081897 227.17065796 -274.30596924 226.29266357 C-274.25091609 212.67671551 -273.67852269 199.38780031 -271 186 C-270.80132324 185.00436035 -270.60264648 184.0087207 -270.39794922 182.98291016 C-262.98748995 147.16291491 -247.92178722 113.60223013 -225 85 C-224.23042969 84.02675781 -223.46085937 83.05351562 -222.66796875 82.05078125 C-210.56648871 67.07840806 -196.64400555 53.23804587 -181 42 C-179.95972656 41.23816406 -178.91945312 40.47632813 -177.84765625 39.69140625 C-149.89622333 19.75571182 -118.62721121 6.71020415 -85 0 C-84.10361816 -0.17934082 -83.20723633 -0.35868164 -82.28369141 -0.54345703 C-56.09421378 -5.48125969 -26.11040463 -5.22395836 0 0 Z " fill="#1E0AAD" transform="translate(361,60)"/>
<path d="M0 0 C7.26632745 2.21659686 12.38956966 8.79368858 16.93359375 14.58984375 C16.93359375 15.24984375 16.93359375 15.90984375 16.93359375 16.58984375 C17.59359375 16.58984375 18.25359375 16.58984375 18.93359375 16.58984375 C20.02582303 18.5204328 21.05730866 20.48555927 22.05859375 22.46484375 C24.27884698 26.77954915 24.27884698 26.77954915 27.99609375 29.5859375 C28.67671875 29.69035156 29.35734375 29.79476563 30.05859375 29.90234375 C33.93359375 30.58984375 33.93359375 30.58984375 35.375 32.12890625 C36.19244044 33.37428574 36.99144771 34.63200327 37.76953125 35.90234375 C39.39110074 38.25307536 41.39893482 39.3587237 43.93359375 40.58984375 C41.97564172 50.96698949 33.305239 60.44107296 26.93359375 68.58984375 C27.81660156 68.698125 28.69960938 68.80640625 29.609375 68.91796875 C32.98684874 69.60060739 35.18531353 70.57382402 38.12109375 72.33984375 C38.96027344 72.8296875 39.79945313 73.31953125 40.6640625 73.82421875 C44.12265363 76.5148955 45.72756011 79.20647502 46.37109375 83.52734375 C45.67961451 88.3676984 43.21820079 91.22494877 39.93359375 94.71484375 C28.39683518 101.92531786 12.9745842 102.95200887 -0.21630859 100.12988281 C-5.50657738 98.52878914 -9.70991582 95.8964811 -14.06640625 92.58984375 C-14.36588669 93.66407593 -14.36588669 93.66407593 -14.67141724 94.76000977 C-16.57558266 101.58531244 -18.48666769 108.40863305 -20.4051075 115.22993469 C-21.39061715 118.73495485 -22.37364888 122.24062676 -23.35058594 125.74804688 C-34.48441695 165.70175594 -34.48441695 165.70175594 -45.06640625 183.58984375 C-45.52402344 184.41226563 -45.98164063 185.2346875 -46.453125 186.08203125 C-47.87542527 188.2090749 -48.82598847 189.34671339 -51.06640625 190.58984375 C-57.86025456 191.83642142 -64.51878048 191.41504669 -70.48828125 187.765625 C-75.99081199 183.6659672 -76.78351905 179.12637171 -78.21875 172.703125 C-79.03588423 169.70194537 -80.09100568 167.31603166 -81.56640625 164.58984375 C-86.80766515 154.70885002 -87.74589412 144.0338221 -87.89697266 133.02490234 C-87.92675529 131.56031678 -87.98173192 130.09604097 -88.06103516 128.63330078 C-88.71917794 116.45359675 -88.71917794 116.45359675 -84.68530273 111.90478516 C-81.896882 109.88176336 -79.09071215 108.23033739 -76.06640625 106.58984375 C-68.52685479 100.63594982 -64.29488297 92.04679719 -60.06640625 83.58984375 C-59.99644611 81.8828164 -59.98200471 80.17316372 -60.00390625 78.46484375 C-60.01292969 77.55476563 -60.02195312 76.6446875 -60.03125 75.70703125 C-60.04285156 75.00835937 -60.05445313 74.3096875 -60.06640625 73.58984375 C-65.50869769 72.27023159 -65.50869769 72.27023159 -70.44140625 74.08984375 C-72.2350901 76.5725204 -72.2350901 76.5725204 -72.94140625 79.77734375 C-75.78745443 89.42228481 -83.54342159 97.72646102 -91.06640625 104.15234375 C-94.93406572 106.00559725 -97.93384833 106.65772597 -102.06640625 105.58984375 C-112.22376401 100.45535521 -118.58457061 91.80842901 -123.06640625 81.58984375 C-123.06640625 80.92984375 -123.06640625 80.26984375 -123.06640625 79.58984375 C-123.72640625 79.58984375 -124.38640625 79.58984375 -125.06640625 79.58984375 C-125.06640625 78.92984375 -125.06640625 78.26984375 -125.06640625 77.58984375 C-126.70609375 78.08484375 -126.70609375 78.08484375 -128.37890625 78.58984375 C-132.06640625 79.58984375 -132.06640625 79.58984375 -135.06640625 79.58984375 C-138.39839742 72.92586142 -136.12869202 62.71934996 -134.16796875 55.84765625 C-127.78583227 36.9728271 -127.78583227 36.9728271 -122.44140625 33.40234375 C-121.00464884 32.74852298 -119.54269413 32.1487065 -118.06640625 31.58984375 C-117.14214844 31.13351562 -116.21789062 30.6771875 -115.265625 30.20703125 C-98.43728554 22.53682921 -77.41424143 27.13570453 -59.75390625 29.96484375 C-59.06683594 30.06643799 -58.37976563 30.16803223 -57.671875 30.27270508 C-54.15837792 30.8805087 -51.93630119 31.67788969 -48.9609375 33.69140625 C-45.58617967 35.90481017 -44.02215991 36.2562443 -40.06640625 35.58984375 C-33.86159283 31.27206121 -29.5370573 24.60816824 -25.23828125 18.50390625 C-9.97196767 -1.97931305 -9.97196767 -1.97931305 0 0 Z " fill="#6FC473" transform="translate(421.06640625,259.41015625)"/>
<path d="M0 0 C16.83 0 33.66 0 51 0 C51 22.2590422 51 22.2590422 49.875 30.125 C49.74375732 31.07109131 49.61251465 32.01718262 49.47729492 32.99194336 C43.51908385 73.15969543 27.42661449 111.27220007 2 143 C1.23042969 143.97324219 0.46085938 144.94648438 -0.33203125 145.94921875 C-12.43351129 160.92159194 -26.35599445 174.76195413 -42 186 C-43.04027344 186.76183594 -44.08054687 187.52367187 -45.15234375 188.30859375 C-73.10377667 208.24428818 -104.37278879 221.28979585 -138 228 C-138.89638184 228.17934082 -139.79276367 228.35868164 -140.71630859 228.54345703 C-160.22525813 232.22170309 -180.23947224 231.29260406 -200 231 C-200 230.67 -200 230.34 -200 230 C-193.73 230 -187.46 230 -181 230 C-181 213.17 -181 196.34 -181 179 C-176.38 178.7525 -171.76 178.505 -167 178.25 C-155.86881752 177.5541894 -145.67503698 176.42683341 -135 173 C-133.48656589 172.5594352 -131.97218453 172.12211557 -130.45703125 171.6875 C-85.77792726 158.57787177 -46.70997268 129.14507512 -24.1328125 88.11230469 C-8.82563718 59.56970105 -3.35522374 31.95451183 0 0 Z " fill="#024CAD" transform="translate(499,289)"/>
<path d="M0 0 C43.76621379 -0.64806832 43.76621379 -0.64806832 62 3 C62.99563965 3.19867676 63.9912793 3.39735352 65.01708984 3.60205078 C100.83708509 11.01251005 134.39776987 26.07821278 163 49 C163.97324219 49.76957031 164.94648438 50.53914063 165.94921875 51.33203125 C180.87297963 63.3942202 194.93828098 77.28464441 206 93 C206.4851709 93.68916504 206.9703418 94.37833008 207.47021484 95.08837891 C230.11393552 127.58717471 250.27752876 168.55602839 250.09765625 209.02734375 C250.09515869 210.18741943 250.09266113 211.34749512 250.09008789 212.54272461 C250.08098389 213.99300049 250.07187988 215.44327637 250.0625 216.9375 C250.041875 221.578125 250.02125 226.21875 250 231 C233.5 231 217 231 200 231 C199.62875 226.730625 199.2575 222.46125 198.875 218.0625 C194.90126114 177.40366472 179.698362 143.5515681 154 112 C153.34064453 111.15308594 153.34064453 111.15308594 152.66796875 110.2890625 C149.84871677 106.72492454 146.66695712 103.83727237 143.21875 100.91015625 C140.8555706 98.87565849 138.59191388 96.75269965 136.3125 94.625 C130.60244828 89.48943519 124.43417949 85.16170502 118 81 C117.13181641 80.43514893 117.13181641 80.43514893 116.24609375 79.85888672 C86.43338509 60.6690031 54.25342175 53.53275747 19 52 C19 35.17 19 18.34 19 1 C12.73 1 6.46 1 0 1 C0 0.67 0 0.34 0 0 Z " fill="#145405" transform="translate(299,57)"/>
<path d="M0 0 C4.516875 0.04125 9.03375 0.0825 13.6875 0.125 C13.6875 16.955 13.6875 33.785 13.6875 51.125 C2.3025 51.62 2.3025 51.62 -9.3125 52.125 C-13.49977684 52.71073468 -17.36514329 53.29853945 -21.4375 54.25 C-22.42065186 54.46881836 -23.40380371 54.68763672 -24.41674805 54.91308594 C-53.06130488 61.54690124 -78.99124228 73.83502419 -101.3125 93.125 C-102.11558594 93.81851563 -102.91867188 94.51203125 -103.74609375 95.2265625 C-136.14699028 123.83640249 -161.65711146 165.97660495 -164.43615723 210.08778381 C-164.52105058 212.21340112 -164.58018033 214.33809474 -164.62890625 216.46484375 C-164.64968735 217.23180069 -164.67046844 217.99875763 -164.69187927 218.78895569 C-164.75670832 221.21338872 -164.81594621 223.63792013 -164.875 226.0625 C-164.91824879 227.71680662 -164.96186499 229.37110367 -165.00585938 231.02539062 C-165.11232024 235.05849566 -165.21377062 239.09169859 -165.3125 243.125 C-165.6425 243.125 -165.9725 243.125 -166.3125 243.125 C-166.3125 239.165 -166.3125 235.205 -166.3125 231.125 C-183.1425 231.125 -199.9725 231.125 -217.3125 231.125 C-217.3125 207.7250921 -217.3125 207.7250921 -216.1875 199.9375 C-216.05625732 198.99592041 -215.92501465 198.05434082 -215.78979492 197.08422852 C-209.80664759 156.93337844 -193.73226524 118.8442533 -168.3125 87.125 C-167.54292969 86.15175781 -166.77335937 85.17851562 -165.98046875 84.17578125 C-153.87898871 69.20340806 -139.95650555 55.36304587 -124.3125 44.125 C-123.27222656 43.36316406 -122.23195313 42.60132813 -121.16015625 41.81640625 C-86.29306012 16.94827959 -43.22935341 -0.56398048 0 0 Z " fill="#1A03AD" transform="translate(304.3125,57.875)"/>
<path d="M0 0 C0.87599854 0.36810791 1.75199707 0.73621582 2.65454102 1.11547852 C23.63915867 10.15134248 42.71549597 23.21832722 58.5625 39.6875 C59.7690625 40.863125 59.7690625 40.863125 61 42.0625 C93.56590944 75.42269992 111.5625 120.16720796 111.5625 166.6875 C128.0625 166.6875 144.5625 166.6875 161.5625 166.6875 C161.5625 160.4175 161.5625 154.1475 161.5625 147.6875 C161.8925 147.6875 162.2225 147.6875 162.5625 147.6875 C162.5625 154.2875 162.5625 160.8875 162.5625 167.6875 C145.7325 167.6875 128.9025 167.6875 111.5625 167.6875 C111.5625 171.6475 111.5625 175.6075 111.5625 179.6875 C111.29165104 182.44435545 110.9684586 185.19727944 110.5625 187.9375 C110.376875 189.22140625 110.19125 190.5053125 110 191.828125 C109.7834375 193.24351562 109.7834375 193.24351562 109.5625 194.6875 C105.23024901 190.98724798 102.85729708 186.27960481 100.125 181.375 C96.20083571 174.36379326 96.20083571 174.36379326 91.71484375 167.70703125 C89.5625 164.6875 89.5625 164.6875 89.5625 162.6875 C85.62868685 160.89805868 82.08062178 160.35312876 77.8125 159.8125 C71.84655484 158.62056564 68.72891554 156.5919862 65.25 151.6875 C63.24628152 148.66525549 61.70791494 146.12374482 60.5625 142.6875 C59.9025 142.6875 59.2425 142.6875 58.5625 142.6875 C56.8359375 141.0078125 56.8359375 141.0078125 54.9375 138.8125 C54.30585938 138.09320313 53.67421875 137.37390625 53.0234375 136.6328125 C51.5625 134.6875 51.5625 134.6875 51.5625 132.6875 C49.3847672 131.59609545 47.20429647 130.5108743 45.01953125 129.43359375 C44.14683594 129.00175781 43.27414062 128.56992188 42.375 128.125 C41.49457031 127.69058594 40.61414063 127.25617188 39.70703125 126.80859375 C37.5625 125.6875 37.5625 125.6875 36.5625 124.6875 C32.05573753 124.3989314 27.67355937 124.45690277 23.25 125.375 C20.5625 125.6875 20.5625 125.6875 18.1875 124.25 C14.66152876 122.15120759 11.53048566 122.07923882 7.5625 122.6875 C4.94672096 123.84564966 2.70734834 125.41761707 0.375 127.0625 C-5.61618764 131.01878761 -10.42324106 132.74723167 -17.73046875 133.078125 C-20.6265249 133.47943705 -20.6265249 133.47943705 -22.70703125 135.92578125 C-24.36482852 138.57152091 -25.21399137 140.61196733 -25.9375 143.625 C-27.40962959 149.0228085 -29.44531272 152.69531272 -33.4375 156.6875 C-36.0625 156.8125 -36.0625 156.8125 -38.4375 156.6875 C-38.870625 155.676875 -39.30375 154.66625 -39.75 153.625 C-40.02585937 152.99078125 -40.30171875 152.3565625 -40.5859375 151.703125 C-41.13999182 150.39169366 -41.66769078 149.06870759 -42.1640625 147.734375 C-43.49800309 144.08063097 -43.49800309 144.08063097 -46.26953125 141.51171875 C-55.0047435 138.19076418 -65.99082442 141.67083015 -74.4375 144.6875 C-79.59086145 147.82297895 -83.07268882 152.38902952 -86.87109375 156.984375 C-90.67729462 161.12278792 -95.88132554 165.43736075 -101.4375 166.6875 C-105.48879828 166.74456054 -108.47267162 166.37303596 -111.8125 164 C-116.16778662 157.80209212 -116.05306484 151.01373072 -115.4375 143.6875 C-113.46938933 137.0451265 -108.16600945 133.74580354 -102.3359375 130.52734375 C-93.39066689 126.24987799 -83.99044463 124.41575942 -74.12890625 124.09375 C-70.92677441 123.61040935 -69.01010297 122.63769903 -66.4375 120.6875 C-65.96793293 117.5346925 -66.00408388 115.55433224 -67.4375 112.6875 C-68.80702214 109.94845572 -68.63860572 107.70408577 -68.4375 104.6875 C-66.7582841 103.0082841 -64.81389097 103.3950256 -62.5 103.3125 C-51.39217189 103.40506523 -40.60567037 107.29827671 -30.4375 111.5 C-17.65104472 116.55064984 -6.99021752 111.91538624 5.25 107.0625 C10.63827928 104.93209761 15.85654386 103.60657532 21.5625 102.6875 C20.46550781 102.09582031 19.36851562 101.50414062 18.23828125 100.89453125 C16.78360618 100.09680621 15.32919286 99.29860374 13.875 98.5 C13.15376953 98.11263672 12.43253906 97.72527344 11.68945312 97.32617188 C7.34428806 94.92541857 3.81443847 92.53070001 0.5625 88.6875 C-0.0625 85.6875 -0.0625 85.6875 0.5625 82.6875 C1.3875 81.883125 2.2125 81.07875 3.0625 80.25 C5.84427677 77.86126383 5.84427677 77.86126383 6.25 74.3125 C5.00780313 67.76273466 0.34425968 64.30585329 -4.5625 60.125 C-11.39812984 54.17643663 -12.76477958 49.55362737 -13.80859375 40.6953125 C-14.7085575 34.1522004 -16.87720931 27.89958297 -18.83764648 21.61303711 C-20.83114063 15.21389655 -22.56420984 9.41254938 -21.4375 2.6875 C-15.27862825 -4.77779909 -7.83170827 -3.41922215 0 0 Z " fill="#6EC473" transform="translate(387.4375,121.3125)"/>
<path d="M0 0 C3.625 0.5625 3.625 0.5625 6.3125 3 C8.54514476 6.11700405 10.07071507 9.44274904 11.5390625 12.97265625 C12.75722747 15.87784824 14.09306933 18.71358739 15.4375 21.5625 C17.82042663 26.69449564 20.00530097 31.87947482 22.125 37.125 C24.95843773 44.12984398 28.10502023 50.87067033 31.625 57.5625 C33.29111905 57.605221 34.95882885 57.60313832 36.625 57.5625 C36.955 57.2325 37.285 56.9025 37.625 56.5625 C37.61677149 50.22790581 35.86542151 44.91830381 33.24609375 39.23828125 C32.91456802 38.48838425 32.5830423 37.73848724 32.24147034 36.96586609 C31.19348142 34.5968319 30.1299297 32.23533188 29.0625 29.875 C27.9920275 27.5037551 26.92561642 25.13114803 25.87281799 22.7519989 C25.22110446 21.27924287 24.55943694 19.81083805 23.88633728 18.34773254 C22.07443633 14.2539647 21.15742454 11.03927758 21.625 6.5625 C22.8125 4.1875 22.8125 4.1875 24.625 2.5625 C27 1.9375 27 1.9375 29.625 2.5625 C33.73275823 6.86614244 36.18180579 11.27802991 38.5859375 16.6796875 C38.93959381 17.4545047 39.29325012 18.2293219 39.65762329 19.02761841 C40.78054201 21.49369724 41.8903307 23.96543566 43 26.4375 C43.73614626 28.05767037 44.4731193 29.67746534 45.2109375 31.296875 C48.05064153 37.54592936 50.87207435 43.80186655 53.59399414 50.10327148 C53.90507111 50.82237701 54.21614807 51.54148254 54.53665161 52.28237915 C55.11199978 53.61718454 55.68375722 54.95354674 56.25094604 56.2918396 C59.2645971 63.295919 62.88135607 71.46526614 69.625 75.5625 C72.94850454 75.32804071 72.94850454 75.32804071 75.625 73.5625 C75.7596199 71.60602418 75.85681712 69.64694135 75.9375 67.6875 C76.49224219 59.79975949 78.47483053 53.26968874 82.4375 46.4375 C85.44292283 43.86142329 87.71687449 43.63355683 91.625 43.5625 C92.615 44.2225 93.605 44.8825 94.625 45.5625 C94.94970703 48.60009766 94.94970703 48.60009766 94.8828125 52.4765625 C94.87619598 53.16503265 94.86957947 53.85350281 94.86276245 54.56283569 C94.83932537 56.77150748 94.79569589 58.97918587 94.75 61.1875 C94.71472164 63.3742751 94.68383609 65.56097937 94.65866089 67.74789429 C94.63408215 69.74823231 94.59692438 71.74840409 94.55908203 73.74853516 C94.62881879 77.78345231 95.08779333 81.56539615 95.625 85.5625 C96.78658312 104.2006291 94.0293789 116.63455116 81.59765625 130.88671875 C71.02812487 141.21280603 57.50048463 145.89134883 43.04931641 145.94750977 C29.67780684 145.71276605 20.45857613 139.22993289 11.0625 130.25 C8.625 127.5625 8.625 127.5625 8.625 125.5625 C7.965 125.5625 7.305 125.5625 6.625 125.5625 C5.06701696 123.6600227 3.65180232 121.76452866 2.25 119.75 C1.80793213 119.12037354 1.36586426 118.49074707 0.91040039 117.84204102 C-10.49769475 101.41589739 -20.45138722 84.07111237 -30.48144531 66.78686523 C-32.69428612 63.01881618 -34.97917489 59.29853943 -37.29931641 55.59570312 C-38.79210466 52.77410972 -38.98295431 50.67826582 -38.375 47.5625 C-36.375 44.5625 -36.375 44.5625 -33.625 43.9375 C-28.85014266 44.8557418 -27.1956953 47.76437886 -24.375 51.5625 C-22.28052372 54.74766402 -20.35092354 58.01611932 -18.4375 61.3125 C-17.39304108 63.08399061 -16.34747431 64.85482852 -15.30078125 66.625 C-14.80143066 67.47191406 -14.30208008 68.31882812 -13.78759766 69.19140625 C-11.0913038 73.71722823 -8.25020909 78.14844661 -5.375 82.5625 C-2.405 82.0675 -2.405 82.0675 0.625 81.5625 C0.89592239 77.02207198 0.38175662 74.40831164 -1.9375 70.5078125 C-2.4833374 69.57122803 -3.0291748 68.63464355 -3.59155273 67.66967773 C-4.47435913 66.19349976 -4.47435913 66.19349976 -5.375 64.6875 C-6.57708279 62.62015226 -7.77629716 60.55113402 -8.97265625 58.48046875 C-9.55805176 57.47032715 -10.14344727 56.46018555 -10.74658203 55.41943359 C-14.24777905 49.27685376 -17.37202493 42.96066153 -20.375 36.5625 C-20.6755127 35.92957031 -20.97602539 35.29664063 -21.28564453 34.64453125 C-22.16695304 32.77074108 -23.02532125 30.88831554 -23.875 29 C-24.3596875 27.92621094 -24.844375 26.85242188 -25.34375 25.74609375 C-26.51009348 22.14545005 -26.7033482 19.32482309 -26.375 15.5625 C-24.375 13.5625 -24.375 13.5625 -20.9375 13.1875 C-17.375 13.5625 -17.375 13.5625 -15.79296875 15.19140625 C-14.10903778 18.00723572 -13.14664885 20.75609313 -12.125 23.875 C-7.93285869 36.08813688 -1.99028638 47.43229469 3.9375 58.875 C4.46545166 59.89650146 4.99340332 60.91800293 5.53735352 61.97045898 C6.03678467 62.92509033 6.53621582 63.87972168 7.05078125 64.86328125 C7.49848877 65.72091064 7.94619629 66.57854004 8.4074707 67.4621582 C9.5753057 69.6842267 9.5753057 69.6842267 11.625 71.5625 C14.20854218 71.72937448 14.20854218 71.72937448 16.625 71.5625 C18.00656671 66.363002 17.03186502 63.14295842 14.7578125 58.4609375 C14.4473851 57.7905545 14.1369577 57.12017151 13.81712341 56.42947388 C13.1522051 54.99868404 12.4802154 53.57116266 11.80178833 52.14672852 C10.74361486 49.92408834 9.70522143 47.69315094 8.67163086 45.45898438 C5.6954238 39.03916363 2.6649526 32.64579277 -0.37890625 26.2578125 C-0.79865723 25.36143066 -1.2184082 24.46504883 -1.65087891 23.54150391 C-2.39647044 21.95034449 -3.15667952 20.36590699 -3.93505859 18.79052734 C-6.23587154 13.87275063 -7.53257805 8.99561591 -6.375 3.5625 C-4.28338888 0.81874123 -3.54651545 0.59108591 0 0 Z " fill="#04A7E7" transform="translate(82.375,370.4375)"/>
<path d="M0 0 C1.329104 -0.02707031 1.329104 -0.02707031 2.68505859 -0.0546875 C8.29697536 -0.00470197 12.44198487 0.98739062 17.44506836 3.54492188 C21.56782206 5.52117631 24.02711928 5.43344706 28.4375 4.5 C41.69897754 3.65734361 54.16656279 4.33052821 64.94921875 13.03515625 C67.63830566 15.68189534 68.42901645 17.44438561 69 21.1875 C68.87763675 25.92470563 66.65780736 28.47995113 63.4609375 31.80078125 C60.59964274 34.203606 57.9774128 35.34411011 54.4375 36.5 C56.0937498 40.16489318 58.30971115 43.26491313 60.6875 46.5 C61.43515625 47.53125 62.1828125 48.5625 62.953125 49.625 C65.54421042 52.62348879 68.14260124 54.33826748 71.4375 56.5 C74.93805097 60.25104911 77.13857641 64.43330535 79.375 69 C79.72199951 69.7019751 80.06899902 70.4039502 80.42651367 71.12719727 C83.49924057 77.44196897 86.08072588 83.88496355 88.4375 90.5 C88.7571875 91.32113281 89.076875 92.14226562 89.40625 92.98828125 C92.96242463 102.5208049 91.12007246 111.66607415 89.4375 121.4375 C89.06130914 123.67558141 88.68624915 125.91385329 88.3125 128.15234375 C88.14492187 129.13195068 87.97734375 130.11155762 87.8046875 131.12084961 C87.38665678 133.42821318 87.38665678 133.42821318 87.4375 135.5 C82.70231558 134.05313809 78.34252235 132.10931444 73.9375 129.875 C73.24043945 129.52236084 72.54337891 129.16972168 71.82519531 128.80639648 C56.44789029 120.95560232 42.82439946 111.94716148 30.2265625 100.078125 C27.4755696 97.47315145 27.4755696 97.47315145 24.5234375 95.171875 C1.33625976 76.05954142 -13.59369118 44.44470363 -22.1875 16.375 C-22.44764893 15.52752197 -22.70779785 14.68004395 -22.97583008 13.80688477 C-24.69054788 7.88414364 -24.69054788 7.88414364 -23.5625 4.5 C-22.5725 4.5 -21.5825 4.5 -20.5625 4.5 C-19.26356022 3.84761769 -17.97317148 3.17815638 -16.6875 2.5 C-11.15704225 0.21266149 -5.90233177 0.04950409 0 0 Z " fill="#6FC473" transform="translate(166.5625,321.5)"/>
<path d="M0 0 C4.30609297 3.54056533 8.24473332 7.2447467 12.125 11.25 C26.33301662 25.6790575 43.80673524 35.44597376 62 44 C62.98097656 44.46148437 63.96195313 44.92296875 64.97265625 45.3984375 C77.3705106 50.87372057 90.6127569 54.74448663 104 56.8125 C105.06250977 56.97999756 105.06250977 56.97999756 106.14648438 57.15087891 C115.39673899 58.42167418 124.64804059 58.53240203 134 59 C134 75.83 134 92.66 134 110 C116.26633398 110.33778411 100.25061295 110.11704331 83 106 C82.1838623 105.81276367 81.36772461 105.62552734 80.52685547 105.43261719 C68.3135985 102.59892623 56.67615619 98.53709541 45 94 C45.48146484 95.10021484 45.48146484 95.10021484 45.97265625 96.22265625 C47.45876148 100.24022591 47.72264042 103.77590601 47 108 C44.1193695 112.57511903 41.10837907 115.19078241 36 117 C33.125 116.6875 33.125 116.6875 31 116 C30.67 114.35 30.34 112.7 30 111 C32.64 109.02 35.28 107.04 38 105 C37.77482031 100.23361207 37.77482031 100.23361207 35.375 96.375 C34.92125 95.92125 34.4675 95.4675 34 95 C34.3125 92.3125 34.3125 92.3125 35 90 C33.68 89.34 32.36 88.68 31 88 C31.33 88.99 31.66 89.98 32 91 C32.60114262 95.58585942 32.78234111 98.88958036 30.0625 102.75 C19.90400997 110.21338043 19.90400997 110.21338043 15.28125 109.6953125 C13 109 13 109 12 108 C11.95936168 106.33382885 11.957279 104.66611905 12 103 C13.45537568 102.16151196 14.91440373 101.32936066 16.375 100.5 C17.59316406 99.80390625 17.59316406 99.80390625 18.8359375 99.09375 C21 98 21 98 23 98 C22.88140625 97.31292969 22.7628125 96.62585938 22.640625 95.91796875 C22.51171875 95.01691406 22.3828125 94.11585938 22.25 93.1875 C22.11078125 92.29417969 21.9715625 91.40085937 21.828125 90.48046875 C22 88 22 88 23.984375 86.17578125 C24.64953125 85.78777344 25.3146875 85.39976562 26 85 C25.0821875 84.48050781 24.164375 83.96101563 23.21875 83.42578125 C21.97911582 82.72144365 20.73953539 82.01701144 19.5 81.3125 C18.89929688 80.97283203 18.29859375 80.63316406 17.6796875 80.28320312 C16.43493026 79.57475087 15.19814965 78.8521317 13.96899414 78.11694336 C11.99391742 76.95213532 11.99391742 76.95213532 9.77905273 76.02563477 C7.4265413 74.88151718 5.79074575 73.91557208 4 72 C2.88833374 68.10150672 2.97161817 64.34323199 3.0625 60.3125 C3.05602188 58.22525057 3.0469337 56.13800751 3.03515625 54.05078125 C3.03902344 53.03008545 3.04289063 52.00938965 3.046875 50.95776367 C2.9904587 47.39795414 2.62821799 43.92165922 2.22924805 40.38696289 C1.85075207 36.44600953 1.85490218 32.51842036 1.875 28.5625 C1.87113281 27.77423828 1.86726562 26.98597656 1.86328125 26.17382812 C1.86891676 22.86296778 1.94599118 20.16202645 3 17 C3.14359334 15.19127624 3.22046121 13.37667423 3.25 11.5625 C3.27578125 10.61503906 3.3015625 9.66757812 3.328125 8.69140625 C2.94956852 5.58634182 1.97146538 4.36057039 0 2 C0 1.34 0 0.68 0 0 Z " fill="#135404" transform="translate(184,409)"/>
<path d="M0 0 C16.83 0 33.66 0 51 0 C51.5878125 6.7753125 51.5878125 6.7753125 52.1875 13.6875 C55.94026257 52.75851543 70.53248585 86.4819509 95 117 C92 117 92 117 89 116 C83.95063533 115.70901966 78.91385603 115.68963839 74 117 C73.505 118.485 73.505 118.485 73 120 C72.34 120 71.68 120 71 120 C69.26400675 123.3421926 67.81239108 126.77000055 66.375 130.25 C65.92898437 131.32765625 65.48296875 132.4053125 65.0234375 133.515625 C64.68570313 134.33546875 64.34796875 135.1553125 64 136 C63.01 136 62.02 136 61 136 C60.71801758 135.37544922 60.43603516 134.75089844 60.14550781 134.10742188 C58.84864314 131.23753789 57.5493387 128.36876467 56.25 125.5 C55.8065625 124.51773438 55.363125 123.53546875 54.90625 122.5234375 C52.64089384 117.52632833 50.31268276 112.58245085 47.83105469 107.68945312 C46.75668731 105.50536904 45.86108954 103.27573664 45 101 C43.24120607 96.51747071 41.24761706 92.25559848 39 88 C38.608125 87.22269531 38.21625 86.44539063 37.8125 85.64453125 C34.52047665 79.32127183 34.52047665 79.32127183 29 75 C25.35838554 74.10891188 21.7147837 73.49443706 18 73 C18 73.66 18 74.32 18 75 C15.03 75.495 15.03 75.495 12 76 C3.86096014 50.4976751 0 26.99952402 0 0 Z " fill="#135404" transform="translate(87,289)"/>
<path d="M0 0 C6.17722532 3.0228975 10.80354843 8.64719288 15 14 C15 14.66 15 15.32 15 16 C15.66 16 16.32 16 17 16 C18.09222928 17.93058905 19.12371491 19.89571552 20.125 21.875 C22.34525323 26.1897054 22.34525323 26.1897054 26.0625 28.99609375 C26.743125 29.10050781 27.42375 29.20492188 28.125 29.3125 C32 30 32 30 33.44140625 31.5390625 C34.25884669 32.78444199 35.05785396 34.04215952 35.8359375 35.3125 C37.45750699 37.66323161 39.46534107 38.76887995 42 40 C40.04204797 50.37714574 31.37164525 59.85122921 25 68 C25.88300781 68.10828125 26.76601563 68.2165625 27.67578125 68.328125 C31.05325499 69.01076364 33.25171978 69.98398027 36.1875 71.75 C37.02667969 72.23984375 37.86585938 72.7296875 38.73046875 73.234375 C42.18905988 75.92505175 43.79396636 78.61663127 44.4375 82.9375 C43.74602076 87.77785465 41.28460704 90.63510502 38 94.125 C26.40383065 101.37260585 11.14417862 102.25093393 -2.11767578 99.57226562 C-8.28602003 97.795254 -13.49122537 94.50877463 -18 90 C-19.23184766 87.53630468 -19.16732342 85.8105499 -19.1875 83.0625 C-19.20167969 82.18722656 -19.21585937 81.31195313 -19.23046875 80.41015625 C-19 78 -19 78 -17 75 C-17.37584229 74.52618896 -17.75168457 74.05237793 -18.13891602 73.56420898 C-21.9594421 68.62858675 -25.02678355 63.57253207 -27.9375 58.0625 C-32.42989965 49.77027192 -37.25084909 42.6322825 -44 36 C-43.52691406 35.62230469 -43.05382812 35.24460937 -42.56640625 34.85546875 C-35.70426953 29.14370973 -30.38444832 22.41279993 -24.96875 15.3515625 C-11.06233717 -2.58329531 -11.06233717 -2.58329531 0 0 Z " fill="#6EC373" transform="translate(423,260)"/>
<path d="M0 0 C6.5663553 0.40344132 13.02519543 1.2363224 19.5 2.375 C20.19416016 2.48884033 20.88832031 2.60268066 21.60351562 2.7199707 C24.36593554 3.22792795 26.6094266 3.73123521 28.94140625 5.3359375 C31.042447 8.63868052 30.56124399 12.25213736 30 16 C28.22801086 20.88726037 25.23899027 24.0798067 21 27 C19.88625 27.77923828 19.88625 27.77923828 18.75 28.57421875 C12.3125 33 12.3125 33 10 33 C9.773125 33.598125 9.54625 34.19625 9.3125 34.8125 C7.58607735 37.68987108 6.00144181 38.49318686 3 40 C-0.78762594 40.81516297 -4.57540051 41.38631008 -8.40625 41.9609375 C-12.59053567 43.17074184 -14.19475601 44.73635024 -17 48 C-21.84320836 52.61794285 -26.71260707 54.77580369 -33 57 C-35.84806834 53.61979258 -36.32767671 51.5350629 -36.1796875 47.0625 C-36 45 -36 45 -35.375 41.6875 C-35.02428444 38.23879701 -35.26509799 36.03540371 -35.9375 32.6875 C-36.67542013 28.96715266 -37.2585202 25.35463443 -37.4375 21.5625 C-37.47746094 20.78003906 -37.51742187 19.99757812 -37.55859375 19.19140625 C-36.69241017 15.79330142 -34.94010611 14.78406439 -32 13 C-28.9765625 12.56640625 -28.9765625 12.56640625 -25.625 12.5625 C-20.05621367 12.29787974 -15.11117807 11.51309145 -9.8125 9.875 C-8.58144531 9.50117188 -7.35039062 9.12734375 -6.08203125 8.7421875 C-1.92523766 6.39246641 -1.4422456 4.45785004 0 0 Z " fill="#6EC474" transform="translate(238,171)"/>
<path d="M0 0 C-6.00055183 7.99238428 -12.11939582 15.73119052 -19 23 C-19.65613281 23.70511719 -20.31226563 24.41023438 -20.98828125 25.13671875 C-23.0262349 27.02429912 -24.81729151 28.06222757 -27.3125 29.25 C-34.61536725 33.17124399 -38.65386372 39.27530142 -42.8125 46.23828125 C-45.20799847 49.79212932 -47.99832426 51.66610809 -52 53 C-61.23380851 53.7262546 -69.50006706 54.22992141 -77 48 C-80.12863177 45.10029251 -80.89818396 43.7999832 -81.4375 39.5625 C-80.87433569 34.97673348 -79.89632578 31.59792053 -76.24682617 28.52270508 C-74.00136962 26.96851996 -71.7149809 25.5329174 -69.375 24.125 C-68.09629028 23.34237793 -68.09629028 23.34237793 -66.79174805 22.54394531 C-51.27021556 13.20712217 -18.29670814 -6.09890271 0 0 Z " fill="#6EC474" transform="translate(292,111)"/>
<path d="M0 0 C0.66 0 1.32 0 2 0 C3.17720095 5.1466058 3.35215404 10.26871407 3.62109375 15.52734375 C3.99511201 18.95520178 4.87915996 21.75546304 6 25 C6 31.43213313 4.00587348 34.84800409 0.53515625 40.1484375 C-1.2495596 43.46355855 -2.01587442 46.59004796 -2.875 50.25 C-4.48415426 56.5452269 -4.48415426 56.5452269 -6.84765625 58.62890625 C-7.53730469 59.01949219 -8.22695312 59.41007812 -8.9375 59.8125 C-12.98806887 62.20397977 -13.79857999 64.67371128 -14.98461914 69.015625 C-15.17531982 69.77359375 -15.36602051 70.5315625 -15.5625 71.3125 C-17.43934086 78.6246658 -19.51492213 83.60137695 -25 89 C-25.50192871 89.4940332 -26.00385742 89.98806641 -26.52099609 90.49707031 C-37.45314187 101.15249317 -37.45314187 101.15249317 -42 103 C-43.36661615 68.33764495 -25.03266259 32.05859507 -4.03125 5.57421875 C-1.93091024 2.98298364 -1.93091024 2.98298364 0 0 Z " fill="#6DC375" transform="translate(181,171)"/>
<path d="M0 0 C3.2017601 2.30090645 5.28778318 4.19729977 7.4921875 7.50390625 C8.11787141 11.60561187 8.32465991 14.02365789 6.27734375 17.6640625 C1.1027074 24.1780165 -5.55393138 26.76435884 -13.5078125 28.50390625 C-25.23944627 29.45661911 -38.42619431 30.51568914 -48.5078125 23.50390625 C-52.43763112 19.94107459 -55.26445938 16.61296666 -55.8828125 11.25390625 C-55.42696285 6.69540979 -53.85362568 4.43255698 -50.5078125 1.50390625 C-36.46870436 -8.32346945 -14.66339401 -8.74778802 0 0 Z " fill="#F097AF" transform="translate(227.5078125,331.49609375)"/>
<path d="M0 0 C3.28497276 2.70527168 4.87134958 5.43810164 5.49609375 9.6328125 C4.80461451 14.47316715 2.34320079 17.33041752 -0.94140625 20.8203125 C-12.5375756 28.06791835 -27.79722763 28.94624643 -41.05908203 26.26757812 C-47.22742628 24.4905665 -52.43263162 21.20408713 -56.94140625 16.6953125 C-58.85338152 12.87136195 -58.77231753 8.8312664 -57.94140625 4.6953125 C-53.564282 -1.79701424 -46.15794968 -4.22040632 -38.94140625 -6.3046875 C-38.00554687 -6.59472656 -38.00554687 -6.59472656 -37.05078125 -6.890625 C-24.14361754 -9.42425343 -11.12647994 -6.68685001 0 0 Z " fill="#EF97B0" transform="translate(461.94140625,333.3046875)"/>
<path d="M0 0 C2.01841031 1.25226998 3.91450377 2.61818427 5.83984375 4.0078125 C7.01546875 4.6059375 8.19109375 5.2040625 9.40234375 5.8203125 C13.74606066 8.25239363 16.97317252 11.98227417 19.83984375 16.0078125 C19.83984375 16.6678125 19.83984375 17.3278125 19.83984375 18.0078125 C20.49984375 18.0078125 21.15984375 18.0078125 21.83984375 18.0078125 C23.61248884 20.26712388 25.27118645 22.52490195 26.90234375 24.8828125 C27.36189453 25.53378906 27.82144531 26.18476563 28.29492188 26.85546875 C33.42444168 34.16183323 33.42444168 34.16183323 32.83984375 40.0078125 C31.21484375 42.3828125 31.21484375 42.3828125 28.83984375 44.0078125 C25.83984375 44.5078125 25.83984375 44.5078125 22.83984375 44.0078125 C18.82980374 41.09141977 16.13814953 36.35952262 13.83984375 32.0078125 C13.83984375 31.3478125 13.83984375 30.6878125 13.83984375 30.0078125 C13.17984375 30.0078125 12.51984375 30.0078125 11.83984375 30.0078125 C10.32421875 28.21484375 10.32421875 28.21484375 8.58984375 25.8203125 C4.6316678 20.59749112 0.47704772 15.62664274 -6.16015625 14.0078125 C-14.50215259 14.49736628 -18.74773638 19.07233577 -24.16015625 25.0078125 C-26.8628695 28.22232233 -29.37419161 31.57395378 -31.87109375 34.94921875 C-34.77391054 38.82789715 -37.89947363 42.43072941 -41.16015625 46.0078125 C-41.84078125 46.8328125 -42.52140625 47.6578125 -43.22265625 48.5078125 C-45.16015625 50.0078125 -45.16015625 50.0078125 -48.22265625 50.5078125 C-51.16015625 50.0078125 -51.16015625 50.0078125 -53.03515625 48.3203125 C-54.42779104 45.45767432 -54.62591247 44.17405908 -54.16015625 41.0078125 C-52.43849627 38.664935 -50.74957713 36.62589843 -48.78515625 34.5078125 C-47.67285315 33.26563659 -46.56352988 32.02078667 -45.45703125 30.7734375 C-44.89951172 30.14630859 -44.34199219 29.51917969 -43.76757812 28.87304688 C-41.38158755 26.10437008 -39.21298061 23.19081478 -37.03515625 20.2578125 C-28.87889215 9.48256451 -15.49342965 -7.11633116 0 0 Z " fill="#010302" transform="translate(426.16015625,245.9921875)"/>
<path d="M0 0 C3.21041279 1.90976421 5.00649943 3.99957278 7.09765625 7.078125 C7.70327393 7.96870605 8.3088916 8.85928711 8.93286133 9.77685547 C12.03682408 14.48017142 15.06366003 19.22911822 18.0625 24 C19.27452617 25.92543398 20.48801169 27.84995028 21.703125 29.7734375 C22.22938477 30.61052246 22.75564453 31.44760742 23.29785156 32.31005859 C24.77006598 34.64414486 24.77006598 34.64414486 26.51464844 36.73291016 C27.8125 38.625 27.8125 38.625 27.6875 41.75 C26.8125 44.625 26.8125 44.625 23.8125 46.625 C20.90112305 46.61865234 20.90112305 46.61865234 17.8125 45.625 C15.52661133 43.08056641 15.52661133 43.08056641 13.39453125 39.7265625 C13.01060715 39.13579926 12.62668304 38.54503601 12.23112488 37.93637085 C11.01109396 36.05178541 9.81753193 34.15208001 8.625 32.25 C7.41673181 30.35875576 6.2032517 28.47100353 4.98674011 26.58505249 C3.88535204 24.87199562 2.79742294 23.15030769 1.71020508 21.42822266 C0.18403339 19.17381596 -1.28119671 17.51751381 -3.1875 15.625 C-3.1875 14.965 -3.1875 14.305 -3.1875 13.625 C-6.97515213 12.36244929 -9.20095464 12.0270182 -13.1875 12.625 C-15.20141806 14.390392 -16.77877641 16.26882384 -18.4140625 18.38671875 C-20.49286396 21.0104043 -22.80838441 23.2703753 -25.1875 25.625 C-26.65136151 27.18228332 -28.09584036 28.75594421 -29.53808594 30.33325195 C-31.10278341 32.04404466 -32.67965831 33.74302787 -34.2578125 35.44140625 C-35.95979534 37.27701584 -37.61435244 39.12407653 -39.2421875 41.02734375 C-43.07849334 45.34981738 -43.07849334 45.34981738 -46.28125 46.14453125 C-49.21606921 46.28808219 -51.5825849 45.94636115 -54.1875 44.5625 C-55.83181379 41.37664204 -55.62691581 39.16937875 -55.1875 35.625 C-53.34372649 32.93862574 -51.03614835 30.86287409 -48.625 28.6875 C-47.32761392 27.46024728 -46.03202038 26.23109664 -44.73828125 25 C-44.11775879 24.41734375 -43.49723633 23.8346875 -42.85791016 23.234375 C-40.8742446 21.32319065 -39.07617257 19.30225493 -37.3125 17.1875 C-28.14402742 6.41454472 -15.07167678 -6.27005304 0 0 Z " fill="#000304" transform="translate(237.1875,250.375)"/>
<path d="M0 0 C2.3125 1.5 2.3125 1.5 4 4 C5.61780977 12.08904883 1.32166387 18.37822404 -3 25 C-9.49648329 33.48905257 -19.09815141 43.74643766 -30 46 C-40.77705054 47.2650624 -47.56424628 44.13818671 -56.02734375 37.6953125 C-59.13649453 35.04734909 -61.43992542 31.95169976 -63.6875 28.5625 C-64.06455078 28.01529297 -64.44160156 27.46808594 -64.83007812 26.90429688 C-68.83410904 20.99957415 -71.82702461 16.30538402 -71 9 C-69.875 7.0625 -69.875 7.0625 -68 6 C-64.8125 5.8125 -64.8125 5.8125 -62 6 C-62 6.66 -62 7.32 -62 8 C-61.34 8 -60.68 8 -60 8 C-59.56429688 8.85722656 -59.12859375 9.71445312 -58.6796875 10.59765625 C-53.80626946 19.95419695 -49.11923408 28.61946199 -39 33 C-35.11579275 34.08450143 -32.37745069 33.72808108 -28.8125 31.84375 C-21.2990083 26.52169338 -11.84141084 16.24760129 -10.125 7 C-9.47010257 4.23826199 -9.13643056 3.15054407 -7.1875 1 C-4.47656082 -0.23928648 -2.94732944 -0.51578265 0 0 Z " fill="#010403" transform="translate(358,331)"/>
<path d="M0 0 C4.21632069 3.83707492 6.81729715 7.78414447 9.5625 12.75 C16.443521 24.82342363 24.63776772 35.92206476 33 47 C32.13117188 47.24234375 31.26234375 47.4846875 30.3671875 47.734375 C21.63129585 50.26060561 21.63129585 50.26060561 14 55 C9.83292338 53.48805184 8.45610858 50.98762197 6.25 47.25 C5.90855957 46.67942871 5.56711914 46.10885742 5.21533203 45.52099609 C3.39884553 42.46580713 1.64488122 39.3778183 -0.0859375 36.2734375 C-4.35425937 28.62581582 -8.75155424 22.21179799 -15 16 C-14.50371094 15.59910156 -14.00742187 15.19820313 -13.49609375 14.78515625 C-8.20867976 10.36058401 -4.0438393 5.57291604 0 0 Z " fill="#04A7E6" transform="translate(394,280)"/>
<path d="M0 0 C2.5625 -0.25 2.5625 -0.25 5 0 C6 1 6 1 6.09423828 3.49682617 C6.08634277 4.58455322 6.07844727 5.67228027 6.0703125 6.79296875 C6.080625 7.98083984 6.0909375 9.16871094 6.1015625 10.39257812 C6.11706665 12.90295907 6.10961771 15.41359684 6.078125 17.92382812 C5.99629574 24.45293488 5.99629574 24.45293488 8.61621094 30.20166016 C10.34618794 31.68455984 12.00738071 32.90188716 14 34 C13.505 36.475 13.505 36.475 13 39 C11 39.875 11 39.875 8 40 C3.87166732 37.86084483 0.65517395 35.64634203 -1.09399414 31.25097656 C-1.9944384 28.01995642 -2.2580607 25.39339074 -2.265625 22.05078125 C-2.26820313 20.95572266 -2.27078125 19.86066406 -2.2734375 18.73242188 C-2.26570312 17.60384766 -2.25796875 16.47527344 -2.25 15.3125 C-2.25773438 14.17232422 -2.26546875 13.03214844 -2.2734375 11.85742188 C-2.27085937 10.76623047 -2.26828125 9.67503906 -2.265625 8.55078125 C-2.26336914 7.55731689 -2.26111328 6.56385254 -2.25878906 5.5402832 C-2 3 -2 3 0 0 Z " fill="#3D3D3D" transform="translate(8,430)"/>
<path d="M0 0 C2.4375 0.1875 2.4375 0.1875 3.4375 1.1875 C3.60769112 4.46651567 3.73448737 7.73844107 3.77929688 11.02148438 C4.08537117 18.73028581 7.93020429 22.98616517 13.4375 28.1875 C12.4475 30.6625 12.4475 30.6625 11.4375 33.1875 C8.75 33.5 8.75 33.5 5.4375 33.1875 C0.86257647 29.48399047 -2.69488659 24.79034023 -4.5625 19.1875 C-4.68463515 16.32158445 -4.74762182 13.49070488 -4.75 10.625 C-4.76224609 9.84447266 -4.77449219 9.06394531 -4.78710938 8.25976562 C-4.79235217 6.23429965 -4.68484328 4.20927448 -4.5625 2.1875 C-2.5625 0.1875 -2.5625 0.1875 0 0 Z " fill="#454545" transform="translate(23.5625,426.8125)"/>
<path d="M0 0 C3.17808298 0.68662287 6.10003374 1.51025499 9 3 C10.5625 6.125 10.5625 6.125 11 10 C11.09023437 10.74121094 11.18046875 11.48242188 11.2734375 12.24609375 C11.58286038 16.6148501 11.26779955 18.5746713 8.875 22.375 C5.9611637 25.03545923 3.71592066 26.68394477 0 28 C-2.875 27.6875 -2.875 27.6875 -5 27 C-5.33 25.35 -5.66 23.7 -6 22 C-3.36 20.02 -0.72 18.04 2 16 C1.77482031 11.23361207 1.77482031 11.23361207 -0.625 7.375 C-1.07875 6.92125 -1.5325 6.4675 -2 6 C-1.57894737 1.57894737 -1.57894737 1.57894737 0 0 Z " fill="#404140" transform="translate(220,498)"/>
<path d="M0 0 C1.48904753 4.14305579 1.6606256 8.67095933 1 13 C-2.23620787 17.5933273 -7.69639966 21.09288344 -13 23 C-17.50485437 22.49514563 -17.50485437 22.49514563 -19 21 C-19.04063832 19.33382885 -19.042721 17.66611905 -19 16 C-17.54462432 15.16151196 -16.08559627 14.32936066 -14.625 13.5 C-13.81289062 13.0359375 -13.00078125 12.571875 -12.1640625 12.09375 C-10 11 -10 11 -8 11 C-8.09539062 10.30132812 -8.19078125 9.60265625 -8.2890625 8.8828125 C-8.39992187 7.97273438 -8.51078125 7.06265625 -8.625 6.125 C-8.74101562 5.22007812 -8.85703125 4.31515625 -8.9765625 3.3828125 C-8.98429688 2.59648437 -8.99203125 1.81015625 -9 1 C-5.66794923 -2.33205077 -3.95714908 -2.63809939 0 0 Z " fill="#4A4A4A" transform="translate(215,496)"/>
<path d="M0 0 C-0.33976668 6.34231144 -1.6082601 11.21867027 -6 16 C-8.9375 17.25 -8.9375 17.25 -12 17 C-15.375 15.0625 -15.375 15.0625 -18 13 C-17.51077907 8.75765137 -16.46375972 7.01738975 -13.1875 4.3125 C-12.15689453 3.44044922 -12.15689453 3.44044922 -11.10546875 2.55078125 C-7.03838106 -0.4448288 -4.97357311 -1.38154808 0 0 Z " fill="#6BC377" transform="translate(260,214)"/>
<path d="M0 0 C6.4188547 1.73624758 12.13784836 3.85180745 18 7 C18 7.33 18 7.66 18 8 C10.91476136 8.91845686 7.56090292 6.84434781 1.90625 2.62890625 C1.2771875 2.09136719 0.648125 1.55382812 0 1 C0 0.67 0 0.34 0 0 Z " fill="#0BA6D8" transform="translate(309,357)"/>
<path d="M0 0 C-1.08184022 2.52429385 -1.90878163 3.92536679 -4.0625 5.6875 C-6.57829603 8.6902243 -6.59503551 10.95716398 -6.82421875 14.78125 C-6.99651809 16.95605058 -7.41376557 18.90290124 -8 21 C-9.4533501 16.63994971 -9.93719692 12.34299229 -8.2109375 8.02734375 C-3.74562102 0 -3.74562102 0 0 0 Z " fill="#847BBB" transform="translate(42,406)"/>
<path d="M0 0 C-1.28519565 2.86697492 -2.57129254 4.97607712 -5 7 C-5.66 7 -6.32 7 -7 7 C-3.86206897 0 -3.86206897 0 0 0 Z " fill="#6558B6" transform="translate(54,375)"/>
<path d="M0 0 C-1.49097658 3.7952131 -3.75700849 5.61042731 -7 8 C-4.18918919 0 -4.18918919 0 0 0 Z " fill="#7C72BB" transform="translate(73,363)"/>
</svg>
